<?xml version="1.0" encoding="UTF-8" standalone="no"?>
<!-- Created with Inkscape (http://www.inkscape.org/) -->

<svg
   width="63.999996"
   height="63.999996"
   viewBox="0 0 16.933332 16.933332"
   version="1.1"
   id="svg5"
   inkscape:version="1.2.2 (732a01da63, 2022-12-09)"
   sodipodi:docname="tiles_branch_left.svg"
   inkscape:export-filename="tiles_branch_left.svg"
   inkscape:export-xdpi="96"
   inkscape:export-ydpi="96"
   xmlns:inkscape="http://www.inkscape.org/namespaces/inkscape"
   xmlns:sodipodi="http://sodipodi.sourceforge.net/DTD/sodipodi-0.dtd"
   xmlns="http://www.w3.org/2000/svg"
   xmlns:svg="http://www.w3.org/2000/svg">
  <sodipodi:namedview
     id="namedview7"
     pagecolor="#ffffff"
     bordercolor="#000000"
     borderopacity="0.25"
     inkscape:showpageshadow="2"
     inkscape:pageopacity="0.0"
     inkscape:pagecheckerboard="true"
     inkscape:deskcolor="#d1d1d1"
     inkscape:document-units="px"
     showgrid="true"
     showguides="true"
     inkscape:zoom="7.796875"
     inkscape:cx="35.719439"
     inkscape:cy="29.0501"
     inkscape:window-width="958"
     inkscape:window-height="1008"
     inkscape:window-x="946"
     inkscape:window-y="0"
     inkscape:window-maximized="0"
     inkscape:current-layer="layer1"
     inkscape:rotation="90">
    <inkscape:grid
       type="xygrid"
       id="grid88"
       spacingx="2.1166666"
       spacingy="2.1166666"
       empspacing="8" />
  </sodipodi:namedview>
  <defs
     id="defs2" />
  <g
     inkscape:label="Layer 1"
     inkscape:groupmode="layer"
     id="layer1">
    <circle
       id="path5383"
       style="fill:#3b2625;stroke:#000000;stroke-width:0.264583"
       cx="-15.877538"
       cy="-6.855289"
       r="0.0063923118"
       transform="scale(-1)" />
    <rect
       style="fill:#35201f;fill-opacity:1;stroke-width:0.264583;stroke-dasharray:none"
       id="rect7797"
       width="16.933332"
       height="16.933332"
       x="-16.933332"
       y="-16.933332"
       transform="scale(-1)" />
    <path
       style="fill:#3a2524;fill-opacity:1;stroke-width:0.264583;stroke-dasharray:none"
       id="path8684"
       d="m 5.1148205,9.1449594 c 0.119742,0.1975173 0.18162,0.3205118 0.358749,0.4952124 0.390752,0.3853942 0.959292,0.7018692 1.5113916,0.7588762 0.2109434,0.02178 0.4232919,-0.02664 0.6349376,-0.03996 0.247886,0.08504 1.4505988,-3.4205926 1.2027128,-3.5056378 v 0 c -0.175836,-0.049953 -0.3455956,-0.131931 -0.5275083,-0.14985 -0.2167263,-0.02135 -0.4364844,0.0057 -0.6524601,0.03362 -0.565331,0.07313 -1.1160996,0.2511351 -1.6064386,0.5424974 -0.07769,0.046165 -0.146535,0.1058124 -0.219803,0.1587185 -0.12067,-0.049609 -0.822251,1.6569182 -0.701581,1.7065273 z" />
    <path
       style="fill:#3a2524;fill-opacity:1;stroke-width:0.264583;stroke-dasharray:none"
       id="path9461"
       d="m 14.088201,0.91730713 c -0.121487,0.16565207 -0.1388,0.37548707 -0.08199,0.57025807 0.04335,0.148621 0.117402,0.245922 0.198577,0.377208 0.159347,0.164432 0.148259,0.183626 0.346337,0.279549 0.01067,0.0052 0.04209,0.0079 0.03552,-0.002 -0.03377,-0.05075 -0.09853,-0.07839 -0.125405,-0.133104 -0.308722,-0.6284 0.0029,-0.265821 -0.261064,-0.546057 -0.06726,0.01064 -0.136383,0.01294 -0.201776,0.03194 -0.204513,0.0594 -0.387983,0.184729 -0.499938,0.36831 -0.03139,0.05147 -0.1471,0.386242 -0.147317,0.386845 0.118133,0.809157 -0.07287,0.552823 0.311468,0.907021 0.07762,0.04393 0.698917,-1.053749 0.621299,-1.097682 v 0 c 0.118212,0.347077 0.04447,0.09004 0.08538,0.797667 -0.0088,0.05451 -0.05955,0.119346 -0.02643,0.163534 0.03061,0.04085 0.10248,0.01239 0.153052,0.0054 0.27807,-0.03829 0.534454,-0.197864 0.714195,-0.410164 0.07091,-0.08376 0.118887,-0.184508 0.17833,-0.276762 0.147075,-0.42763 0.213529,-0.436549 0.03873,-0.957473 -0.02757,-0.08217 -0.114866,-0.12986 -0.174338,-0.192906 -0.01315,-0.01394 -0.05859,-0.04941 -0.04332,-0.03783 0.09155,0.06945 0.0677,0.05133 0.135823,0.146221 0.0099,0.01552 0.01162,0.04294 0.02966,0.04655 0.01306,0.0026 0.01087,-0.02514 0.01082,-0.03845 -9.7e-5,-0.02772 -0.0059,-0.0552 -0.01125,-0.08241 -0.0086,-0.04405 -0.01359,-0.08955 -0.03036,-0.131175 -0.0054,-0.0135 -0.09927,-0.15386704 -0.112975,-0.17452707 0,-0.08083 -1.143037,-0.08083 -1.143037,0 z" />
    <path
       style="fill:#3a2524;fill-opacity:1;stroke-width:0.264583;stroke-dasharray:none"
       id="path9463"
       d="m 9.2293602,1.6601272 c -0.00669,-0.01823 -0.00886,-0.03884 -0.020058,-0.0547 -0.095367,-0.135092 -0.22191,-0.251323 -0.3554431,-0.346831 -0.2125829,-0.152049 -0.3471515,-0.212113 -0.603446,-0.26956504 -0.08602,-0.01928 -0.1751764,-0.01996 -0.2627649,-0.02994 -0.060038,0.0093 -0.132021,-0.0092 -0.1801148,0.02795 -0.032338,0.02496 -0.017412,0.08108 -0.013835,0.12177404 0.0084,0.09561 0.050515,0.18768 0.049462,0.283651 -0.00116,0.1056 -0.036082,0.208119 -0.055995,0.311831 -0.023357,0.121646 -0.05616,0.08564 0.00833,0.12779 0.00838,0.0029 0.034026,0.0087 0.025157,0.0087 -0.1043136,2.21e-4 -0.2106544,0.01291 -0.3128378,-0.0081 -0.023331,-0.0048 -0.022696,-0.04189 -0.033618,-0.06305 C 7.3773456,1.5819522 7.2195863,1.4144082 7.1844977,1.2061422 7.0874807,0.63030508 7.5242132,0.86163613 7.1649447,0.71619508 c -0.2167166,-0.0273 -0.3938472,0.0034 -0.5937662,0.0883 -0.07029,0.0298401 -0.140592,0.0608301 -0.205969,0.10029805 -0.115649,0.06981 -0.236325,0.18033007 -0.338742,0.26831707 -0.07602,0.08792 -0.134539,0.145216 -0.190628,0.245169 -0.01475,0.02628 -0.05559,0.06301 -0.03382,0.08384 0.02076,0.01986 0.04348,-0.04456 0.07208,-0.04724 0.229848,-0.02152 0.461421,-0.0162 0.692131,-0.02431 -0.06345,-0.04825 -0.745879,0.849003 -0.682433,0.897259 v 0 c 0.247609,5.82e-4 0.4964,0.02592 0.742828,0.0017 0.05478,-0.0054 0.09014,-0.06402 0.139545,-0.08829 0.02769,-0.0136 0.147009,-0.01674 0.1793056,-0.0287 0.1890134,-0.02864 -0.05709,0.0045 0.170649,-0.0097 0.046796,-0.0029 0.093241,-0.01006 0.1397195,-0.01624 0.2311739,-0.03071 0.4161184,-0.06831 0.6069788,-0.2154 0.1746165,-0.168568 0.4368704,-0.392479 0.4359095,-0.652681 -8.202e-4,-0.225451 -0.1671373,-0.42098807 -0.2836215,-0.61401712 -0.029207,-0.0484 -0.086728,-0.08249 -0.1424463,-0.09203 -0.3265268,-0.05591 -0.418397,-0.0282 -0.6802022,0.01475 -0.066203,0.02706 -0.1386778,0.04216 -0.1986108,0.08119 C 6.7476355,0.86875213 6.6087935,1.0539942 6.5574115,1.3672452 c -0.04712,0.28727 0.06267,0.575285 0.201846,0.815802 0.05416,0.0936 0.128755,0.173776 0.1931326,0.260665 0.2802344,0.209533 0.3238764,0.285363 0.6792525,0.370056 0.1419611,0.03383 0.2890234,0.05056 0.4349589,0.04989 0.2574083,-0.0012 0.4886655,-0.118819 0.7433889,-0.124023 0.076337,0.02965 0.4957067,-1.04991 0.4193701,-1.079564 z" />
    <path
       style="fill:#3a2524;fill-opacity:1;stroke-width:0.264583;stroke-dasharray:none"
       id="path9465"
       d="m 10.839077,4.8943702 c 0.0086,0.146872 0.08091,0.27155 0.160201,0.391582 0.119864,0.181456 0.157691,0.247432 0.335874,0.37749 0.06461,0.047158 0.138396,0.080246 0.207594,0.120369 0.504252,0.20686 0.799698,0.268316 1.360854,0.126682 0.09649,-0.02435 0.289587,-0.221706 0.34902,-0.276797 -0.08952,0.117384 0.285615,-0.398683 0.169275,-0.345043 -0.08364,0.03856 -0.07924,0.197608 -0.168897,0.218662 -0.48652,0.87157 -0.634275,-0.157215 -0.95101,-0.116313 -0.0601,0.0078 -0.06657,0.101283 -0.09986,0.151924 -0.04779,0.215573 -0.07648,0.286033 -0.07272,0.510612 0.0014,0.08218 0.01743,0.163455 0.02615,0.245182 -0.0024,0.122369 1.728185,0.155894 1.730556,0.03353 v 0 c 0.01299,-0.103544 0.03763,-0.206286 0.03897,-0.310634 0.0041,-0.317119 -0.03903,-0.374599 -0.131233,-0.670106 -0.07242,-0.129922 -0.317882,-0.605158 -0.44238,-0.652623 -0.928443,-0.353964 -0.635976,-0.148646 -1.035089,0.18786 -0.0406,0.03423 0.07061,-0.194221 0.04835,-0.151789 0.01342,-0.02158 0.03693,-0.03954 0.04025,-0.06473 0.0022,-0.01652 -0.0422,-0.03836 -0.02609,-0.04263 0.101235,-0.02684 0.207711,-0.03169 0.312432,-0.03329 0.01757,-2.64e-4 -0.02824,0.02118 -0.04388,0.02919 -0.01448,0.0074 -0.03001,0.02058 -0.04584,0.0168 -0.03502,-0.0084 -0.06363,-0.0337 -0.09544,-0.05055 -0.109359,-0.05739 -0.159567,-0.09317 -0.282084,-0.119677 -0.04348,-0.0094 -0.08942,-0.0027 -0.132912,-0.01204 -0.0316,-0.0068 -0.05931,-0.02601 -0.09012,-0.03578 -0.02345,-0.0074 -0.109339,-0.0229 -0.13684,-0.02806 -0.03537,-0.07249 -1.060496,0.427712 -1.025127,0.500199 z" />
    <path
       style="fill:#3a2524;fill-opacity:1;stroke-width:0.264583;stroke-dasharray:none"
       id="path9467"
       d="m 15.079785,8.7630953 c 0.04458,-0.091394 0.04707,-0.058059 -0.05147,-0.184653 -0.182266,-0.2341589 -0.406543,-0.3796808 -0.68829,-0.4726821 -0.09204,-0.030382 -0.189028,-0.042994 -0.283542,-0.064491 -0.265143,-0.00976 -0.759439,-0.038934 -0.950652,0.043234 -0.394334,0.1694538 -0.529235,0.6812744 -0.492376,1.0605885 0.0066,0.067771 0.02764,0.1333458 0.04146,0.2000184 0.05093,0.1298953 0.116252,0.2583143 0.205849,0.3666143 0.01726,0.020857 0.03646,0.040685 0.0587,0.056122 0.01085,0.00753 0.02988,0.021415 0.03805,0.011041 0.01431,-0.018164 0.005,-0.045965 0.0076,-0.068947 0.244576,-0.9303224 -0.04934,-0.079564 0.251389,-0.5583343 0.0088,-0.014012 -0.0058,-0.038938 -0.02123,-0.044869 -0.04312,-0.016558 -0.09157,-0.012692 -0.137642,-0.016129 -0.133085,-0.00992 -0.267221,-0.00909 -0.400509,-0.010541 -0.08806,0.011647 -0.176113,0.023297 -0.26417,0.034944 -0.100988,0.054228 0.665898,1.4823559 0.766882,1.4281289 v 0 c 0.06063,-0.03231 0.121253,-0.06462 0.181879,-0.09693 0.05481,-0.03327 0.11193,-0.063 0.164421,-0.09981 0.18869,-0.132349 0.02425,-0.03192 0.148407,-0.141583 0.08219,-0.0726 0.230494,-0.138355 0.279453,-0.2287886 0.07085,-0.1308745 0.08519,-0.2851929 0.127792,-0.4277895 1.21e-4,-0.036605 -0.0018,-0.073273 3.71e-4,-0.109814 0.01045,-0.1766128 0.01018,0.048802 0.0182,-0.1304338 0.0044,-0.098067 -0.01247,-0.1968783 -0.03332,-0.2921479 -0.01417,-0.031977 -0.02182,-0.067738 -0.04252,-0.095933 -0.01235,-0.016817 -0.03695,-0.047442 -0.0527,-0.033765 -0.258526,0.2244168 0.07824,0.2497948 -0.407124,0.4375889 -0.14269,0.055209 -0.31123,-0.012226 -0.457931,0.031216 -0.03405,0.010083 0.04225,0.057082 0.06337,0.085624 0.06098,0.041528 0.118392,0.088851 0.182938,0.1245843 0.168127,0.093082 0.375361,0.171104 0.563055,0.2079403 0.246558,0.048388 0.500081,0.024477 0.748644,0.048259 0.07483,0.03076 0.5099,-1.0274987 0.435069,-1.0582626 z" />
    <path
       style="fill:#3a2524;fill-opacity:1;stroke-width:0.264583;stroke-dasharray:none"
       id="path9469"
       d="m 0.71457054,4.4101932 c 0.02311,0.221795 0.09283,0.405728 0.261553,0.55929 0.11925896,0.108543 0.22808596,0.161873 0.36807896,0.244695 0.314883,0.146315 0.690597,0.20401 1.024261,0.0883 0.0863,-0.02993 0.222335,-0.108528 0.293755,-0.165729 0.0456,-0.03652 0.08444,-0.08075 0.126657,-0.121129 0.106764,-0.116459 0.163569,-0.161159 0.233574,-0.303598 0.02554,-0.05196 0.04322,-0.107726 0.05813,-0.163667 0.0091,-0.03405 0.03813,-0.130007 0.01345,-0.104854 -0.474687,0.483832 0.298242,0.210236 -0.853328,0.357467 -0.02402,-0.0021 -0.05672,-0.02489 -0.07207,-0.0063 -0.01525,0.01849 0.01133,0.04676 0.02037,0.06896 0.04983,0.122466 0.09773,0.175268 0.195325,0.256917 0.03519,0.0041 0.04835,0.05391 0.08155,0.06083 0.0094,0.002 0.01739,-0.02617 0.02255,-0.01805 0.131895,0.207677 0.07496,0.346963 0.388229,0.448278 0.145434,0.04704 0.305682,0.0033 0.458524,0.005 0.0064,0.009 0.01,0.02074 0.01905,0.02693 0.0118,0.008 0.05476,0.01212 0.04058,0.01368 -0.100914,0.01112 -0.303638,0.08772 -0.304261,-0.01381 0.01658,0.0081 0.03276,0.0171 0.04973,0.02439 0.03188,0.01369 0.05986,0.01822 0.06052,0.01632 0.0043,-0.01241 -0.0078,-0.0251 -0.01224,-0.03748 -0.01685,-0.04731 -0.05348,-0.09138 -0.05155,-0.141566 0.0061,-0.157949 0.05001,-0.312152 0.07501,-0.468228 -0.04419,0.06418 0.863403,0.689043 0.907587,0.624867 v 0 c 0.0329,-0.165118 0.09257,-0.327101 0.09869,-0.495352 0.0026,-0.07077 -0.04244,-0.135685 -0.0734,-0.199378 -0.05854,-0.120422 -0.173677,-0.207728 -0.281192,-0.28056 -0.04138,-0.02659 -0.0806,-0.05689 -0.124132,-0.07978 -0.254932,-0.134057 -0.591109,-0.168018 -0.850885,-0.03338 0.132106,0.0055 0.27276,-0.03061 0.396317,0.01646 0.447287,0.170404 0.122571,0.188505 0.333886,0.415572 0.01966,0.02112 0.0074,-0.05723 0.01124,-0.08582 0.01615,-0.120267 0.01177,-0.04689 0.0057,-0.200779 -0.026,-0.124715 -0.03868,-0.220977 -0.09573,-0.338445 -0.124945,-0.257254 -0.366494,-0.416476 -0.604481,-0.557284 -0.260962,0.01239 -0.53557,-0.04704 -0.782888,0.03716 -0.123381,0.042 -0.157054,0.208073 -0.237857,0.310338 -0.0053,0.0068 -0.0124,0.01998 -0.02017,0.01623 -0.01593,-0.0077 0.0541,-0.07715 0.05706,-0.08213 0.0011,-0.01314 0.0092,-0.02754 0.0034,-0.03941 -0.0099,-0.02041 -0.08651,-0.03549 -0.09326,-0.03703 -0.01856,-0.0042 -0.07502,-0.01298 -0.0562,-0.0101 0.330492,0.05049 0.301293,-0.0555 0.320858,0.09777 -0.0023,0.0076 6.62e-4,0.02479 -0.007,0.02274 -0.01902,-0.0051 -0.03065,-0.02471 -0.04608,-0.03694 -0.02653,-0.02105 -0.05085,-0.04529 -0.07978,-0.06291 -0.02768,-0.01686 -0.150263,-0.07245 -0.189846,-0.0745 -0.01851,-9.52e-4 -0.03455,0.01346 -0.05182,0.02019 -0.03011,-0.07336 -1.06759296,0.352452 -1.03748296,0.425813 z" />
    <path
       style="fill:#3a2524;fill-opacity:1;stroke-width:0.264583;stroke-dasharray:none"
       id="path9471"
       d="m 4.1263675,12.348406 c 0.0372,-0.05849 0.09721,-0.146519 0.116234,-0.20992 0.07163,-0.238666 0.0377,-0.512021 -0.04194,-0.743305 -0.03562,-0.103445 -0.08968,-0.199595 -0.134513,-0.299392 -0.06303,-0.0877 -0.118928,-0.18099 -0.189094,-0.263089 -0.16324,-0.191 -0.370179,-0.353663 -0.604616,-0.447658 -0.101466,-0.04068 -0.243303,-0.06811 -0.350575,-0.09198 -0.229319,-0.03128 -0.476592,-0.07648 -0.700525,0.02887 -0.127703,0.06008 -0.191489,0.210273 -0.262322,0.332343 -0.03035,0.05231 -0.02291,0.118762 -0.03394,0.178222 -5.02e-4,0.0028 -0.0017,0.01102 -6.88e-4,0.0084 0.049,-0.123357 0.09647,-0.247315 0.144698,-0.370973 0.0216,-0.04407 0.06719,-0.08319 0.0648,-0.132209 -0.0043,-0.08872 -0.269094,-0.08082 -0.208456,-0.109985 0.07637,-0.03673 0.169264,-0.01156 0.254006,-0.01079 0.01735,1.56e-4 -0.03602,0.003 -0.05049,0.01263 -0.01188,0.0079 -0.01534,0.02401 -0.02301,0.03601 0.0088,0.02668 0.01769,0.05335 0.02653,0.08002 0.02561,0.05531 0.05661,0.108433 0.07684,0.16593 0.01538,0.04371 0.01781,0.091 0.02936,0.135878 0.0036,0.01393 0.0019,0.03679 0.01593,0.0401 0.0066,0.0016 0.04294,-0.05067 0.04713,-0.05643 0.05354,-0.08787 0.125565,-0.163548 0.170332,-0.256996 0.01638,-0.03419 0.02768,-0.0706 0.04152,-0.105899 0.03427,-0.07827 -1.07261,-0.5629412 -1.106881,-0.4846727 v 0 c -0.03124,0.00632 -0.04138,0.033962 -0.06259,0.055029 -0.129384,0.1284821 -0.03682,0.0248 -0.158498,0.1700497 -0.028,0.04087 -0.05957,0.07951 -0.084,0.122611 -0.05551,0.09794 -0.11042296,0.247916 -0.12134196,0.355309 -0.03633,0.357319 0.05933,0.577429 0.28174196,0.848738 0.06604,0.05189 0.12528,0.11388 0.198132,0.155683 0.328324,0.188394 0.825928,0.198231 1.15432,-0.0038 0.07645,-0.04703 0.144988,-0.105848 0.217481,-0.158772 0.06918,-0.136958 0.142603,-0.271855 0.207543,-0.410874 0.0057,-0.01227 0.0075,-0.05341 0.0033,-0.04051 -0.0576,0.179203 -0.01619,0.307044 -0.278164,0.421791 -0.04514,0.01977 -0.387729,0.03083 -0.558562,0.03667 -0.0036,0.01067 -0.01312,0.02102 -0.01069,0.032 0.01626,0.07368 0.08274,0.141449 0.130685,0.190137 0.0438,0.04448 0.08878,0.08828 0.138452,0.126081 0.01293,0.0098 0.203467,0.118662 0.225846,0.131507 0.06422,0.03225 0.09993,0.04382 0.151793,0.09198 0.07761,0.07208 0.09911,0.178082 0.169415,0.254704 -0.01319,0.07883 1.101623,0.265392 1.114815,0.186563 z" />
    <path
       style="fill:#3a2524;fill-opacity:1;stroke-width:0.264583;stroke-dasharray:none"
       id="path9473"
       d="m 8.1037388,13.469445 c 0.066198,0.0653 0.1217756,0.143511 0.1985931,0.195912 0.2258497,0.154062 0.4909077,0.228961 0.7559749,0.277384 0.1977488,0.03613 0.609546,0.06742 0.819422,0.05297 0.1031949,-0.0071 0.2038292,-0.03539 0.3057432,-0.05308 0.05402,-0.03058 0.12432,-0.04245 0.16206,-0.09173 0.03209,-0.04191 0.02925,-0.103176 0.0276,-0.155937 -0.01388,-0.445244 -0.207282,-0.662895 0.265924,-0.97026 0.125118,-0.08127 0.541658,0.02934 0.289812,-0.03301 -0.442261,-0.04058 -0.573958,-0.107404 -1.0130297,0.436144 -0.098653,0.122127 -0.024133,0.314533 -0.00989,0.47088 0.011798,0.129539 0.1044837,0.285552 0.1879917,0.381234 0.0433,0.04961 0.09776,0.08824 0.146647,0.132365 0.304565,0.195936 0.503145,0.226688 0.8997,0.217583 0.06518,-0.0015 0.123549,-0.04192 0.186328,-0.05953 0.09758,-0.02737 0.1143,-0.0253 0.207257,-0.03409 0.02672,2e-5 0.054,-0.0053 0.08017,6.1e-5 0.08942,0.01848 0.167153,0.07554 0.25537,0.09909 0.06172,0.01648 0.239574,-0.009 0.189225,0.03035 -0.05509,0.04302 -0.13946,-0.0098 -0.209191,-0.01476 0.104261,0.02865 0.509415,-1.445816 0.405155,-1.474465 v 0 c -0.19943,-0.0075 -0.398739,-0.02549 -0.598288,-0.02256 -0.272896,0.004 -0.506213,0.157999 -0.756571,0.244162 -0.03416,0.01745 -0.069,0.03361 -0.102472,0.05234 -0.01707,0.0096 -0.0486,0.01282 -0.04894,0.03238 -2.91e-4,0.0175 0.03125,-0.02067 0.04871,-0.01957 0.569804,0.03583 0.266193,-0.01504 0.463688,0.07864 0.0015,7.14e-4 0.0031,-0.0012 0.0046,-0.0018 -0.01745,-0.01522 -0.121419,-0.104525 -0.145623,-0.05256 -0.04371,0.09384 -9e-4,0.233159 -0.07983,0.300127 -0.504949,0.428347 -0.483882,0.405552 -0.833604,0.344811 0.04957,0.02304 0.0948,0.06001 0.1487,0.06911 0.456935,0.07719 0.841566,0.191227 1.096474,-0.370792 0.113732,-0.250754 0.0059,-0.721169 -0.142782,-0.965294 -0.06625,-0.108799 -0.161633,-0.196921 -0.24245,-0.295381 -0.118694,-0.08089 -0.225796,-0.182195 -0.356082,-0.242669 -0.601101,-0.279007 -1.4005376,-0.252181 -1.9949068,0.02951 -0.1077248,0.05105 -0.1994641,0.130608 -0.2991964,0.195912 -0.086021,-0.02209 -0.3983688,1.19443 -0.312348,1.216516 z" />
    <path
       style="fill:#3a2524;fill-opacity:1;stroke-width:0.264583;stroke-dasharray:none"
       id="path9475"
       d="m 5.9574745,13.254123 c -0.09629,0.02684 -0.191137,-0.01605 -0.286603,-0.01093 -0.06959,0.0037 -0.137633,0.02208 -0.206579,0.03226 -0.129027,0.01906 -0.364859,0.04526 -0.484543,0.08399 -0.08018,0.02595 -0.153033,0.07063 -0.22955,0.105945 -0.05808,0.04814 -0.12244,0.08958 -0.174249,0.14441 -0.17455,0.184735 -0.280906,0.492187 -0.325248,0.732935 -0.02022,0.10977 0.0076,0.272124 -0.01125,0.151801 -5.82e-4,-0.05046 0.04247,-0.251013 -0.06528,-0.29189 -0.09415,-0.03572 -0.273864,0.01402 -0.35586,0.03223 -0.204866,0.0455 -0.176505,0.04105 -0.363574,0.103172 -0.04444,0.02214 -0.08888,0.04429 -0.133328,0.06643 -0.09695,0.04608 0.554697,1.4172 0.65165,1.371121 v 0 c 0.07894,-0.0066 0.157878,-0.01322 0.236818,-0.01983 0.08999,-0.02397 0.182521,-0.03986 0.269955,-0.07191 0.256396,-0.09398 0.493151,-0.251973 0.67132,-0.459286 0.06562,-0.07635 0.133975,-0.153392 0.178229,-0.243814 0.05721,-0.116888 0.08168,-0.247123 0.122517,-0.370685 0.003,-0.05653 0.01309,-0.113143 0.0089,-0.169593 -0.0015,-0.02017 -0.01093,0.03896 -0.01721,0.05818 -0.02399,0.07336 -0.05469,0.144707 -0.07359,0.219538 -0.0091,0.03596 -0.03257,0.0815 -0.0099,0.110828 0.04292,0.05542 0.280373,0.0012 0.295431,-8.62e-4 0.07019,-0.02652 0.143766,-0.04537 0.210558,-0.07955 0.06415,-0.03282 0.281663,-0.188888 0.347628,-0.239501 0.02157,-0.01655 0.163123,-0.134888 0.179768,-0.157927 0.0076,-0.01049 -6.35e-4,-0.02587 -9.53e-4,-0.0388 0.07483,-0.03076 -0.360238,-1.089027 -0.435069,-1.058263 z" />
    <path
       style="fill:#3a2524;fill-opacity:1;stroke-width:0.264583;stroke-dasharray:none"
       id="path9477"
       d="m 13.362404,14.190395 c -0.02767,0.02729 -0.05941,0.05101 -0.08301,0.08188 -0.02671,0.03494 -0.04386,0.07625 -0.06665,0.113862 -0.106779,0.176191 -0.181713,0.293247 -0.212437,0.504759 -0.0095,0.0653 -0.0071,0.13177 -0.01073,0.197655 0.01268,0.08587 0.01413,0.174158 0.03803,0.257597 0.08546,0.298263 0.189706,0.595663 0.509919,0.737099 0.319094,0.140941 0.761621,0.101816 1.110273,0.07811 0.373849,-0.08324 0.0087,0.0067 0.322808,-0.09282 0.03645,-0.01155 0.07417,-0.01866 0.111347,-0.02762 0.02845,-0.0069 0.113959,-0.01292 0.08552,-0.01979 -0.258235,-0.06243 -0.314224,0.05842 -0.254516,-0.05043 -0.08732,-0.121755 0.0628,0.08213 -0.120204,-0.127997 -0.04225,-0.04851 -0.047,-0.06451 -0.06757,-0.111052 0.02506,0.08114 1.172557,-0.273232 1.147499,-0.354373 v 0 c -0.01853,-0.04771 -0.03173,-0.09784 -0.05558,-0.143119 -0.104685,-0.198801 -0.247101,-0.337321 -0.450215,-0.433497 -0.287581,-0.0957 -0.106474,-0.04977 -0.60336,-0.07364 -0.234111,-0.01125 -0.08818,-0.0013 -0.331316,2.4e-4 -0.289219,0.0019 -0.06213,-0.01528 -0.361037,0.01762 -0.05737,0.016 -0.115882,0.02837 -0.172115,0.048 -0.0302,0.01054 -0.114395,0.02706 -0.0862,0.04217 0.109381,0.05862 0.257627,0.0299 0.357674,0.103328 0.227795,0.167182 0.118588,0.318231 0.227471,0.522355 0.01005,0.01885 0.04267,-0.002 0.06401,-0.003 0.03294,-0.0554 0.07204,-0.107573 0.09881,-0.166203 0.120866,-0.264701 0.150205,-0.538298 0.116815,-0.825648 -0.0088,-0.07541 -0.01984,-0.151609 -0.04479,-0.223311 -0.0203,-0.05832 -0.0596,-0.108179 -0.0894,-0.162269 -0.0078,-0.08351 -1.188835,0.02659 -1.18105,0.110099 z" />
    <path
       style="fill:#3a2524;fill-opacity:1;stroke-width:0.264583;stroke-dasharray:none"
       id="path9479"
       d="m 3.5497505,1.5658582 c -0.21281,-0.519438 -0.505159,-0.88315812 -1.035884,-1.10823512 -0.322929,-0.136953 -0.426289,-0.119055 -0.754408,-0.141232 -0.08608,0.01081 -0.173815,0.0124 -0.258224,0.03242 -0.432515,0.102568 -0.67610996,0.71996712 -0.81635996,1.00655512 -0.02672,0.0546 0.181531,0.188387 0.227557,0.202583 0.06655,0.02053 0.13723596,0.02376 0.20585396,0.03565 0.195081,-0.06486 0.433987,-0.05534 0.585242,-0.194571 0.261269,-0.240494 0.167518,-0.51833207 0.122088,-0.78489912 -0.03755,-0.08006 -1.16979596,0.45098712 -1.13224496,0.53104812 v 0 c 0.037,-0.17500504 0.08978,-0.47064312 0.209605,-0.56834312 0.14123096,-0.115156 0.35013896,-0.101147 0.52520996,-0.15172 0.196084,0.08304 0.0551,0.0025 0.03556,0.0491 -0.01206,0.02877 0.01798,0.06777 4.77e-4,0.0936 -0.213462,0.31496405 -0.459957,0.60629812 -0.68349096,0.91419512 -0.02211,0.03045 -0.05201,0.06221 -0.0527,0.09984 -9.79e-4,0.05262 0.03206,0.100247 0.04809,0.150371 0.05095,0.0675 0.0924,0.143344 0.152844,0.202492 0.30348196,0.296987 0.70991496,0.461627 1.12659696,0.517209 0.125107,0.01669 0.252686,0.01218 0.378627,0.0039 0.07167,-0.0047 0.140786,-0.02856 0.211179,-0.04284 0.0599,0.06395 0.964277,-0.783117 0.90438,-0.847067 z" />
    <path
       style="fill:#3a2524;fill-opacity:1;stroke-width:0.264583;stroke-dasharray:none"
       id="path9481"
       d="m 6.6577725,4.7635762 c 0.01321,0.05828 0.01625,0.119849 0.03962,0.174852 0.14953,0.351937 0.4544455,0.59711 0.7925404,0.755628 0.071688,0.03361 0.1471369,0.05853 0.2207056,0.0878 0.080438,0.02854 0.1589902,0.0631 0.2413156,0.08562 0.2457175,0.06724 0.5798433,0.08337 0.810338,0.04266 0.1447216,-0.02556 0.3233608,-0.207425 0.4025474,-0.320803 0.040768,-0.05837 0.064055,-0.127174 0.096082,-0.190761 0.029625,-0.07868 -1.0830706,-0.497646 -1.112696,-0.418967 v 0 c 0.017066,-0.03085 0.030536,-0.06398 0.051194,-0.09255 0.034002,-0.04702 0.1450176,-0.172961 0.2084422,-0.182562 0.1328692,-0.02012 0.2688405,0.0071 0.4031427,0.0024 0.030956,-0.0011 -0.061481,-0.209443 -0.051474,-0.07736 -0.1153001,-0.1279 -0.1629752,-0.191348 -0.3088429,-0.300948 -0.1209616,-0.09089 -0.3020181,-0.190098 -0.4444931,-0.238507 -0.080798,-0.02745 -0.2942629,-0.05841 -0.3859686,-0.07305 -0.052789,-0.06805 -1.0152393,0.678497 -0.9624503,0.746553 z" />
    <path
       style="fill:#3a2524;fill-opacity:1;stroke-width:0.264583;stroke-dasharray:none"
       id="path9483"
       d="m 9.4515684,16.063907 c -0.011967,-0.03171 -0.018791,-0.06587 -0.035901,-0.09512 -0.1488123,-0.254421 -0.4917768,-0.486114 -0.7607549,-0.586043 -0.084822,-0.03151 -0.1760313,-0.04201 -0.2640468,-0.06301 -0.073202,-0.0024 -0.1465365,-0.01238 -0.2196049,-0.0073 -0.2218505,0.01533 -0.136497,0.07605 -0.06988,0.21162 0.013377,0.02722 0.00644,0.07195 0.034118,0.08436 0.020405,0.0091 0.00317,-0.04462 0.00476,-0.06692 -0.043177,-0.266198 -0.1156425,-0.458901 -0.3364053,-0.627659 -0.060652,-0.05975 -0.035596,-0.03351 -0.076398,-0.07753 -0.042939,-0.05778 -0.860075,0.549463 -0.817136,0.607244 v 0 c 0.05994,0.06217 0.03358,0.03737 0.07705,0.07652 0.02475,0.05464 0.05505,0.104903 0.09098,0.154493 0.0092,0.02843 0.01939,0.05655 0.02752,0.0853 0.01989,0.07036 0.027966,0.14463 0.056523,0.211938 0.090926,0.214311 0.1307078,0.226733 0.271268,0.386183 0.1474131,0.167223 0.040133,0.06887 0.2243145,0.214425 0.059808,0.0298 0.1167887,0.06612 0.1794241,0.08939 0.068125,0.02531 0.1407654,0.03626 0.2108168,0.05562 0.2627548,0.07261 0.5236361,0.154187 0.7993769,0.156407 0.057266,0.04271 0.6612472,-0.767162 0.6039805,-0.80987 z" />
    <path
       style="fill:#21141d;fill-opacity:1;stroke-width:0.264583;stroke-dasharray:none"
       id="path10215"
       d="m 4.0189795,6.5932692 c -0.152416,-0.05971 -0.28252,-7.67e-4 -0.431668,0.03961 -0.167531,0.04537 -0.236185,0.05439 -0.396756,0.134771 -0.06082,0.03045 -0.115949,0.07114 -0.173924,0.106717 -0.145682,0.1120007 -0.244608,0.2504082 -0.313529,0.4188472 -0.05118,0.1250733 -0.07564,0.1882159 -0.07865,0.3229433 -3.97e-4,0.017515 0.01001,0.033579 0.01502,0.050368 0.265139,-0.080657 0.538858,-0.1371762 0.795416,-0.2419705 0.02378,-0.00971 -0.02125,-0.046988 -0.03522,-0.068541 -0.09704,-0.1496663 -0.222836,-0.22714 -0.373716,-0.3136161 -0.09876,-0.041317 -0.146056,-0.066167 -0.252678,-0.089375 -0.09517,-0.020714 -0.194762,-0.01248 -0.2912,-0.015126 -0.119129,-0.00327 -0.238219,-0.00781 -0.357329,-0.011721 -0.124785,0.028189 -0.250116,0.047408 -0.372524,0.085845 -0.06375,0.034581 0.425296,0.9361805 0.489049,0.9015998 v 0 c 0.04142,-0.012094 0.07776,-0.020516 0.116454,-0.039247 0.0073,-0.00354 0.01288,-0.00996 0.01985,-0.014129 0.0075,-0.00449 0.0322,-0.011584 0.02346,-0.011774 -0.01129,-2.45e-4 -0.02121,0.00773 -0.03182,0.011594 -0.0967,-0.00403 -0.193327,-0.013854 -0.290092,-0.012097 -0.02164,3.969e-4 0.01841,0.041196 0.03566,0.054266 0.07779,0.058931 0.169467,0.088102 0.259488,0.122636 0.09173,0.023029 0.190293,0.061908 0.286527,0.044864 0.01749,-0.0031 0.0331,-0.012917 0.04965,-0.019376 0.0092,-0.00751 0.01628,-0.019219 0.02772,-0.022516 0.271668,-0.078297 0.54584,-0.1476303 0.81876,-0.2214457 0.0797,0.053865 -0.01708,0.1157264 0.02583,0.1558473 0.04659,0.04356 0.252045,-0.046305 0.289896,-0.060757 0.04987,-0.027314 0.101901,-0.050999 0.1496,-0.081943 0.08907,-0.057783 0.149911,-0.1217271 0.232064,-0.186949 0.02608,-0.020704 0.05731,-0.035068 0.08097,-0.058501 0.03037,-0.030089 0.02973,-0.084121 0.07102,-0.1068009 0.0618,-0.027388 -0.325519,-0.9014154 -0.387322,-0.8740274 z" />
    <path
       style="fill:#21141d;fill-opacity:1;stroke-width:0.264583;stroke-dasharray:none"
       id="path10266"
       d="m 9.5415442,7.2452646 c 0.034311,0.078165 0.058192,0.1617948 0.102934,0.2344938 0.2245371,0.3648406 0.5746848,0.6363616 0.9822728,0.7685392 0.343312,0.1113335 0.540756,0.08888 0.892072,0.0942 0.690542,-0.1375786 0.07053,0.012925 0.625258,-0.1869009 0.147332,-0.053073 0.298719,-0.094133 0.448079,-0.1411988 0.07209,-0.025069 -0.282427,-1.0445713 -0.354517,-1.0195034 v 0 c 0.09579,-0.041735 0.22925,-0.038375 0.287375,-0.1252047 0.08207,-0.122604 -0.47025,-0.223787 -0.357371,-0.261144 -0.11851,-0.03157 -0.234936,-0.07238 -0.355529,-0.09471 -0.293239,-0.05428 -0.569298,-0.07673 -0.864093,-0.0092 -0.123834,0.02836 -0.372876,0.128896 -0.468143,0.254518 -0.024,0.03165 -0.02194,0.07634 -0.03291,0.114517 -0.02628,-0.06402 -0.9317042,0.3075894 -0.9054274,0.3716127 z" />
    <path
       style="fill:#21141d;fill-opacity:1;stroke-width:0.264583;stroke-dasharray:none"
       id="path10268"
       d="m 12.293816,2.6094452 c 0.0071,-0.397818 -0.178368,-0.78841 -0.429725,-1.089359 -0.07097,-0.08497 -0.156951,-0.156175 -0.235426,-0.234262 -0.147826,-0.102427 -0.261204,-0.200671 -0.433377,-0.255159 -0.04027,-0.01275 -0.08419,-0.007 -0.126287,-0.01048 -0.04303,-0.07363 -1.0842953,0.534856 -1.041269,0.608485 v 0 c 0.01015,0.068221 0.01275,0.138001 0.03045,0.204667 0.05701,0.214809 0.112109,0.268155 0.232745,0.462513 0.07347,0.078644 0.140132,0.164245 0.220405,0.23593 0.26867,0.239928 0.592357,0.356611 0.914022,0.501423 0.02996,0.06141 0.898431,-0.362349 0.868467,-0.423758 z" />
    <path
       style="fill:#21141d;fill-opacity:1;stroke-width:0.264583;stroke-dasharray:none"
       id="path10270"
       d="m 6.8732445,3.8031832 c -0.02413,-0.356098 -0.200745,-0.626216 -0.439498,-0.882896 -0.06325,-0.06799 -0.133872,-0.128734 -0.200808,-0.193102 -0.07214,-0.066 -0.140066,-0.136923 -0.21643,-0.197986 -0.196783,-0.157355 -0.483117,-0.331525 -0.715993,-0.43154 -0.175974,-0.07558 -0.251183,-0.08472 -0.432359,-0.12619 -0.07475,-0.0495 -0.774815,1.007649 -0.700063,1.057151 v 0 c 0.07632,0.06708 0.126042,0.113154 0.211402,0.175761 0.05442,0.03992 0.111554,0.07601 0.167108,0.114337 0.182497,0.12591 0.362685,0.255082 0.5448,0.38154 0.347686,0.28564 0.01005,0.01397 0.353069,0.274026 0.220089,0.166858 0.127916,0.120776 0.363262,0.24496 0.04857,0.02563 0.09585,0.05558 0.148383,0.07157 0.03147,0.0096 0.06575,0.0024 0.09862,0.0036 0.03474,0.05788 0.853244,-0.433363 0.818508,-0.49124 z" />
    <path
       style="fill:#21141d;fill-opacity:1;stroke-width:0.264583;stroke-dasharray:none"
       id="path10272"
       d="m 14.187947,5.2325632 c 0.02833,0.04349 0.05049,0.09168 0.08498,0.130466 0.254928,0.286673 0.633047,0.453042 1.008509,0.505972 0.06786,0.0096 0.137013,0.0036 0.20552,0.0054 0.168302,-0.04922 0.08997,-0.06415 0.01908,-0.166745 8.95e-4,0.08863 1.25433,0.07598 1.253435,-0.01265 v 0 c -0.0106,-0.115377 -0.001,-0.234427 -0.03181,-0.346131 -0.06496,-0.235876 -0.204075,-0.434485 -0.330034,-0.638279 -0.07575,-0.07536 -0.141199,-0.162741 -0.227251,-0.226087 -0.300236,-0.221016 -0.676235,-0.303529 -1.04287,-0.292387 -0.104471,0.0032 -0.208198,0.02147 -0.310838,0.04121 -0.07214,0.01387 -0.141489,0.03957 -0.212233,0.05935 -0.06646,-0.02945 -0.482943,0.91039 -0.416486,0.93984 z" />
    <path
       style="fill:#21141d;fill-opacity:1;stroke-width:0.264583;stroke-dasharray:none"
       id="path10274"
       d="m 10.79425,9.7047085 c -0.04954,-0.026947 -0.09444,-0.065185 -0.148616,-0.080841 -0.274685,-0.079383 -0.435988,-0.067964 -0.7224437,-0.021677 -0.2722227,0.043987 -0.4739709,0.1019666 -0.715101,0.2309434 -0.082044,0.04388 -0.1542079,0.1041535 -0.2313117,0.1562315 0.075722,-0.05588 -0.2272824,0.2193066 -0.1385311,0.2640666 0.098876,0.04987 0.2406121,-0.01369 0.3276767,0.05474 0.2631101,0.206802 0.3985498,0.4595 0.2363573,0.740379 0.047144,-0.04934 -0.6506128,-0.716052 -0.6977565,-0.666713 v 0 c -0.027931,0.03163 -0.067598,0.05592 -0.083794,0.09488 -0.1315571,0.316497 -0.1254924,0.511564 0.2271758,0.775106 0.1133215,0.08468 0.2813738,0.03331 0.4197244,0.06284 0.1587039,0.03388 0.2978629,0.140823 0.4693526,0.129303 0.1237678,-0.0044 0.2487146,0.0044 0.3713032,-0.01322 0.321006,-0.0461 0.560883,-0.130068 0.834477,-0.308389 0.118635,-0.07732 0.232293,-0.166121 0.32635,-0.271981 0.169983,-0.191312 0.205142,-0.33464 0.28675,-0.554903 0.04177,-0.05385 -0.71984,-0.6446212 -0.761613,-0.5907671 z" />
    <path
       style="fill:#21141d;fill-opacity:1;stroke-width:0.264583;stroke-dasharray:none"
       id="path10276"
       d="m 13.842381,11.618762 c -0.0086,0.04482 -0.02356,0.08887 -0.0257,0.134452 -0.01433,0.306031 0.138314,0.663265 0.307741,0.910622 0.05081,0.07418 0.112222,0.140502 0.168333,0.210753 0.145895,0.153074 0.291369,0.237042 0.48567,0.308977 0.05096,0.01887 0.100288,0.04497 0.153923,0.05368 0.170765,0.02774 0.344047,0.03677 0.516071,0.05516 0.06208,-0.02301 -0.263374,-0.900938 -0.325453,-0.877925 v 0 c 0.157726,0.02016 0.315117,0.04313 0.473176,0.06048 0.02147,0.0023 0.05243,0.01629 0.06478,-0.0014 0.01632,-0.02342 0.0021,-0.0577 -0.0042,-0.08554 -0.02797,-0.123671 -0.07054,-0.175565 -0.135208,-0.289252 -0.202051,-0.25726 -0.42449,-0.503479 -0.699831,-0.684392 -0.01445,-0.06925 -0.993781,0.135172 -0.979326,0.204421 z" />
    <path
       style="fill:#21141d;fill-opacity:1;stroke-width:0.264583;stroke-dasharray:none"
       id="path10278"
       d="m 12.380165,15.592675 c -0.123788,-0.44899 -0.342486,-0.777292 -0.704449,-1.078273 -0.129748,-0.107889 -0.264808,-0.211565 -0.411806,-0.294429 -0.149567,-0.08431 -0.315235,-0.136175 -0.472853,-0.204262 -0.156865,-0.02975 -0.313731,-0.0595 -0.470597,-0.08924 -0.115528,-0.06363 -1.0154181,1.570181 -0.8998902,1.633813 v 0 c 0.1014251,0.05019 0.2028502,0.100384 0.3042751,0.150576 0.1298339,0.04314 0.2575139,0.09341 0.3895021,0.12942 0.06233,0.01701 0.696482,0.149906 0.782831,0.165168 0.0034,6.02e-4 0.440461,0.07142 0.499235,0.0539 0.03935,-0.01172 0.05222,-0.06337 0.07833,-0.09506 0.02628,0.06402 0.931704,-0.30759 0.905427,-0.371613 z" />
    <path
       style="fill:#21141d;fill-opacity:1;stroke-width:0.264583;stroke-dasharray:none"
       id="path10280"
       d="m 2.7672675,13.222911 c -0.02688,-0.01098 -0.05191,-0.02866 -0.08063,-0.03293 -0.10793,-0.01605 -0.235468,0.01896 -0.335943,0.05425 -0.04691,0.01648 -0.08935,0.04969 -0.138839,0.05451 -0.07004,0.0068 -0.140077,-0.01368 -0.210116,-0.02051 -0.479574,0.04057 -0.873147,0.18616 -1.14871396,0.60078 -0.0255,0.03837 -0.04185,0.08209 -0.06277,0.123127 -0.01557,0.03582 -0.03787,0.0694 -0.0467,0.107447 -0.0078,0.03364 0.03725,0.0137 0.05811,0.01065 0.129959,-0.019 0.26015496,-0.03634 0.39023196,-0.05451 -0.06316,-0.02025 -0.34957896,0.872951 -0.28641996,0.893204 v 0 c 0.14491596,-0.01713 0.29059896,-0.02869 0.43474796,-0.05138 0.06798,-0.0107 0.127304,-0.05613 0.195241,-0.06711 0.02555,-0.0041 0.05159,0.0043 0.07739,0.0064 0.159765,-0.02188 0.321775,-0.03672 0.474963,-0.09126 0.219571,-0.07817 0.413001,-0.202948 0.584402,-0.359816 0.0387,-0.04581 0.07212,-0.09666 0.116093,-0.137427 0.0096,-0.0089 0.106506,-0.01976 0.115851,-0.02141 0.08589,-0.01518 0.15374,-0.03618 0.219352,-0.09691 0.06485,-0.02519 -0.291403,-0.94227 -0.356251,-0.917079 z" />
    <path
       style="fill:#967952;stroke-width:0.264583"
       id="path2356"
       d="m 8.4869854,-0.05514492 c 0.275676,0.284238 -0.3625125,0.291907 -0.2832674,0.450656 0.3488669,0.69887612 0.4874977,-0.183292 0.4994174,-0.191998 0.1068518,-0.07804 0.5189112,-0.04541 0.3898689,-0.07467 -0.2272083,-0.05152 -0.4659416,0.0031 -0.6989125,0.0046 -0.2087499,0.127605 0.048121,0.270312 0.00617,0.395205 -0.024448,0.07278 -0.2557989,0.153673 -0.179614,0.144178 0.1366256,-0.01703 0.2748336,-0.07647 0.3769916,-0.168778 0.03295,-0.02977 -0.023127,-0.149369 -0.056855,-0.120482 -0.08253,0.07068 -0.095975,0.194983 -0.1439622,0.292474 -0.048592,0.0098 -0.1937453,0.01689 -0.1457743,0.02937 0.1377678,0.03584 0.2940503,-0.01291 0.424865,0.04323 0.040975,0.01758 -0.1310915,0.0986101 -0.086626,0.10192705 0.095438,0.0071 0.1864709,-0.04773 0.2732955,-0.08799 0.036895,-0.01711 0.1231085,-0.05579 0.091216,-0.08102 -0.037225,-0.02945 -0.089672,0.03118 -0.1345073,0.04677 -0.052094,0.044 -0.2570845,0.20846403 -0.2531549,0.25791103 0.00512,0.06441 0.1090615,0.07304 0.1710936,0.09113 0.1441807,0.04205 0.3111791,0.16151 0.4419515,0.08765 C 9.2670253,1.1154082 9.1703913,0.944137 9.0985563,0.8733 9.0032853,0.77935 8.8512992,0.77094299 8.7276708,0.71976399 8.6631278,0.74717399 8.417267,0.836131 8.3793882,0.913377 c -0.025744,0.0525 0.015645,0.1159312 0.020799,0.1741742 0.00335,0.0379 -0.032591,0.106555 0.00471,0.114056 0.1907101,0.03835 0.2508977,-0.06356 0.3494169,-0.168209 0.00611,0.05423 0.033973,0.110408 0.01832,0.162686 -0.039903,0.133257 -0.1360911,0.07233 -0.2072323,0.03838 -0.070069,-0.03344 -0.1293143,-0.09456 -0.2054603,-0.109717 -0.024141,-0.0048 -0.032978,0.03767 -0.042556,0.06035 -0.023865,0.05649 -0.037901,0.116645 -0.056852,0.174967 0.041041,0.03917 0.088046,0.07293 0.1231242,0.117521 0.00712,0.0091 -0.013912,0.02912 -0.00366,0.03435 0.1232271,0.0629 0.5210125,0.171892 0.3832283,0.159386 -0.040731,-0.0037 -0.8534365,-0.163075 -0.2713939,-0.313101 0.071,-0.0183 -0.1137817,0.09251 -0.1706727,0.13876 0.010081,-0.03873 0.020161,-0.07746 0.030243,-0.116186 -0.069912,0.09819 -0.1640398,0.183026 -0.2097363,0.294562 -0.01479,0.0361 0.014848,0.08309 0.044746,0.108148 0.040033,0.03356 0.1829369,0.09135 0.1474822,0.05298 -0.1383255,-0.149669 -0.6152441,-0.359257 0.020923,-0.05254 0.00858,0.07965 0.014941,0.159578 0.025741,0.238961 0.017759,0.130548 0.027642,0.331262 0.2344422,-10e-4 0.022662,-0.03641 -0.09963,0.04462 -0.1280602,0.01251 -0.085437,-0.09651 -0.2623656,-0.436551 -0.1688343,-0.347867 0.1399794,0.132725 0.2095812,0.323908 0.3143718,0.485862 0.1668434,-0.921761 -0.00175,-0.02995 -6.35e-4,0.174076 1.371e-4,0.02492 0.050447,-0.01235 0.074513,-0.0059 0.052955,0.0142 0.098692,0.103942 0.1232519,0.07019 0.059627,-0.08194 0.080282,-0.186095 0.1204227,-0.279143 -0.016973,-0.187429 0.00297,-0.188168 -0.3870362,0.123385 -0.054829,0.0438 -0.071553,0.122456 -0.090794,0.189942 -0.021082,0.07395 -0.00405,0.228287 0.078826,0.197463 0.051245,-0.01906 0.065413,-0.08763 0.098119,-0.13144 -0.022871,-0.0082 -0.04787,-0.01201 -0.068611,-0.02468 -0.025501,-0.01558 -0.041433,-0.04458 -0.067798,-0.05865 -0.1344371,-0.07171 -0.65152,-0.378726 -0.5402847,0.261947 0.019325,0.111313 0.2368494,0.04048 0.3388368,-0.0081 0.043787,-0.02087 -0.066684,-0.07046 -0.1000257,-0.105689 0.028932,0.02205 0.070494,0.03363 0.086795,0.06615 0.02594,0.05175 -0.096702,0.07687 -0.1349441,0.15217 -0.012126,0.02388 0.01379,0.05176 0.019878,0.07784 0.024979,0.107006 0.020542,0.0517 -0.1041514,0.159834 -0.1568318,0.218362 0.4301239,0.230553 0.3258325,0.351618 -0.1113962,0.129313 -0.3712059,0.0113 -0.4957887,0.127957 -0.1182158,0.1107 0.3301392,-0.03272 0.4738447,-0.107408 0.1303335,-0.06774 -0.3670181,-0.134331 0.014388,-0.06764 -0.5924092,0.326422 -0.3652303,0.09043 -0.1094329,0.270481 0.017449,0.04194 0.034897,0.08388 0.052345,0.125822 0.00352,-0.0088 0.00108,-0.02603 0.010568,-0.02648 0.1718598,-0.0082 0.3550261,0.06153 0.51617,0.0012 0.076002,-0.02844 -0.1434502,-0.07591 -0.2151753,-0.113868 -0.020677,0.0022 -0.055805,-0.01322 -0.062034,0.0066 -0.082381,0.26242 0.079004,0.03328 0.031932,0.240485 -0.00285,0.01257 -0.029302,-0.0099 -0.038656,-0.0011 -0.018576,0.01761 -0.052062,0.08657 -0.033225,0.06924 0.044409,-0.04087 0.074871,-0.09467 0.1123066,-0.142007 -0.074499,0.04189 -0.3950652,0.109587 -0.2713534,0.294396 0.027056,0.04042 0.089892,0.102184 0.1273704,0.07118 0.07413,-0.06131 0.1425511,-0.176729 0.1094364,-0.267051 -0.025445,-0.0694 -0.092397,0.11605 -0.1462244,0.166709 -0.00528,0.005 -0.00727,-0.01255 -0.010911,-0.01882 -0.046908,0.121061 -0.2252236,0.05745 -0.2867938,0.145137 -0.025344,0.03609 0.078872,0.0538 0.090768,0.09627 0.00861,0.03076 -0.050461,0.05744 -0.039327,0.08738 0.012639,0.03399 0.093742,0.02037 0.092885,0.05662 -0.00193,0.08169 -0.066348,0.149359 -0.099521,0.224039 -0.060721,-0.03905 -0.1516557,-0.05173 -0.1821624,-0.117163 -0.01737,-0.03726 0.082813,-0.01894 0.1229151,-0.0099 0.029462,0.0066 0.049778,0.03439 0.072782,0.05395 0.013806,0.01174 0.019206,0.03778 0.037235,0.03962 0.063859,0.0065 0.2188017,-0.07453 0.1918841,-0.01625 -0.064227,0.139045 -0.2209308,0.212188 -0.3313962,0.318282 0.083249,-0.04586 0.2792997,-0.04725 0.2497465,-0.137579 -0.030002,-0.09171 -0.210068,-0.03776 -0.2889165,0.01785 -0.041593,0.02934 0.058172,0.08638 0.099976,0.115418 0.061094,0.04244 0.1340959,0.06449 0.2021801,0.09445 0.066953,0.02947 0.179188,0.01455 0.2028279,0.08378 0.023434,0.06863 -0.073436,0.125066 -0.1101542,0.187599 0.02078,-0.104269 0.067283,-0.206603 0.06234,-0.312808 -0.00153,-0.03318 -0.040612,0.06524 -0.073781,0.06697 -0.09435,0.0049 -0.262495,-0.141509 -0.2792513,-0.04853 -0.024995,0.138705 0.1331892,0.250672 0.2232914,0.359049 0.038551,0.04637 0.096641,0.113264 0.1540584,0.09483 0.094628,-0.03037 0.1399781,-0.141116 0.2099673,-0.211674 0.2837262,-0.358847 -0.3697603,-0.242616 -0.3934391,-0.07853 -0.011414,0.07909 0.104831,0.141206 0.094277,0.220417 -0.032373,0.242977 -0.4334401,0.326956 0.1271019,0.123137 -0.00206,-0.04356 -0.00568,-0.193539 -0.037868,-0.194203 -0.074233,-0.0015 -0.1264592,0.08109 -0.1763514,0.136074 -0.010671,0.01176 0.052885,-0.0086 0.047234,0.0062 -0.029469,0.07741 -0.1396005,0.129356 -0.13018,0.211644 0.00661,0.05777 0.1079066,0.04338 0.1618601,0.06508 0.1743639,-0.03876 0.057982,0.02037 0.1188136,-0.146025 0.016166,-0.04422 0.046946,-0.161121 0.072209,-0.121391 0.031113,0.04893 -0.00343,0.125557 -0.042071,0.168787 -0.089649,0.100293 -0.3089844,0.10699 -0.3239376,0.240676 -0.011139,0.0996 0.1997975,-0.01596 0.2996959,-0.02395 0.039554,0.119381 0.081515,-0.04159 0.058192,-0.05418 -0.053595,-0.02893 -0.4929339,0.04216 -0.4287589,0.155537 0.1859174,0.328464 0.5688031,-0.113983 0.2705584,0.183656 -0.1529448,0.128841 -0.029054,-0.09404 0.0042,-0.107144 0.034604,-0.01364 0.045189,0.06898 0.081721,0.07598 0.024903,0.0048 -0.014301,-0.05357 -0.035701,-0.06717 -0.01696,-0.01078 -0.040624,8.46e-4 -0.059938,0.0064 -0.037715,0.01082 -0.07323,0.0282 -0.1098444,0.0423 -0.1314067,-0.108713 -0.2237574,-0.32077 -0.3942199,-0.32614 -0.1045615,-0.0033 -0.019624,0.211738 0.00324,0.313823 0.020942,0.09352 0.057371,0.191033 0.1250156,0.258938 0.046044,0.04622 0.1256073,0.03542 0.1878124,0.05509 0.2554811,0.0808 0.099268,0.06314 0.3684061,0.05562 0.01983,-0.02288 -0.3037806,-0.303324 -0.3236108,-0.280441 v 0 c -0.014806,-0.01916 -0.06544,-0.06948 -0.04442,-0.05747 0.054007,0.03087 0.1574654,0.05454 0.1463865,0.11575 -0.012205,0.06743 -0.2104903,0.0286 -0.1839478,0.09178 0.034882,0.08302 0.1745932,0.04679 0.2572152,0.08261 0.00959,0.0042 0.011668,0.03889 0.00482,0.03099 -0.032497,-0.03749 -0.056197,-0.08179 -0.084295,-0.12268 -0.013536,-0.01397 -0.032592,-0.05964 -0.040606,-0.04192 -0.029591,0.06546 -0.044409,0.140999 -0.036462,0.212391 0.00419,0.03768 0.032405,0.09391 0.070075,0.0896 0.1386813,-0.01587 0.2999766,-0.03924 0.393705,-0.142676 0.2153028,-0.237608 -0.041096,-0.289338 -0.143382,-0.32831 -0.00148,-0.02816 -2.518e-4,-0.05661 -0.00447,-0.08449 -0.00254,-0.01686 -0.028917,-0.05946 -0.01569,-0.0487 0.049645,0.04039 0.1888951,0.165979 0.1297657,0.141497 -0.4455993,-0.18449 -0.1395402,-0.164397 -0.00697,-0.277688 0.041225,-0.03523 0.055511,-0.09317 0.083267,-0.139755 -0.039172,-0.157952 0.0018,-0.09845 -0.2910612,-0.0343 -0.045824,0.01004 -0.1040794,0.01089 -0.1321097,0.0485 -0.082139,0.110227 -0.3164829,0.390202 -0.1803855,0.370854 1.1034533,-0.156871 0.5954715,-0.366191 0.4022397,-0.458694 0.016447,-0.06883 0.1449147,-0.371846 -0.1675778,-0.151692 -0.090338,0.06364 -0.2299586,0.372978 -0.1948847,0.268186 0.046188,-0.137999 0.1070229,-0.292731 0.2294372,-0.37142 0.084392,-0.05425 -0.063732,0.190258 -0.095597,0.285387 0.056378,-0.04447 0.1127553,-0.08894 0.169133,-0.133408 0.052476,-0.05163 0.1294956,-0.08678 0.1574266,-0.154886 0.027699,-0.06755 -0.1356008,-0.0041 -0.134891,-0.0022 0.010885,0.02866 0.062508,0.07983 0.075756,0.05217 0.1829503,-0.381871 -0.2813199,0.09319 0.05027,-0.210922 0.010639,-0.05582 0.032162,-0.110635 0.031919,-0.167459 -1.296e-4,-0.03025 -0.039109,-0.114172 -0.032998,-0.08454 0.025844,0.125302 0.1409327,0.254154 0.0924,0.372531 -0.028757,0.07014 -0.2120204,-0.02611 -0.203541,-0.101444 0.00885,-0.07863 0.1492332,-0.05265 0.2238499,-0.07898 -0.05908,-0.141307 -0.1181597,-0.282614 -0.1772396,-0.423921 -0.396249,-0.09126 -0.2198116,-0.140453 -0.286765,0.28874 -0.00294,0.01883 -0.00881,-0.03752 -0.01774,-0.05436 -0.013708,-0.02583 -0.075288,-0.05856 -0.04953,-0.0724 0.4230499,-0.227365 0.5916752,0.0021 0.2454039,-0.287862 -0.053788,0.01948 -0.1088644,0.03572 -0.161363,0.05845 -0.00955,0.0041 -0.012909,0.02442 -0.022839,0.0213 -0.2004896,-0.06307 0.1293894,-0.131693 0.047654,-0.191265 -0.036907,-0.0269 -0.089181,0.01974 -0.1337712,0.02961 0.051127,-0.01753 0.1345094,-0.002 0.1533821,-0.0526 0.014967,-0.04017 -0.1700824,-0.01217 -0.1274802,-0.01691 0.1011521,-0.01127 0.2109176,0.03515 0.3053188,-0.0029 0.081848,-0.03298 0.2364762,-0.124418 0.1810825,-0.193108 -0.095599,-0.118546 -0.4499086,-0.1137 -0.6183937,-0.11831 -0.014983,0.01503 -0.4157853,0.328065 0.042733,0.316216 0.1491855,-0.0039 0.2815381,-0.109194 0.4016811,-0.19772 0.041926,-0.03089 0.040962,-0.24942 -0.028042,-0.258436 -0.1604671,-0.02097 -0.3203554,0.04615 -0.480533,0.06922 0.1106561,0.0012 0.2213811,-6.08e-4 0.3319682,0.0035 0.125391,0.0046 0.2749116,0.09724 0.3757506,0.02257 0.064915,-0.04807 -0.1341009,-0.123556 -0.1304036,-0.204247 0.0042,-0.09166 0.1670865,-0.140386 0.1503283,-0.2306 -0.055037,-0.296283 -1.1241696,0.0812 -0.8919813,-0.147257 0.053221,0.02868 0.4613466,0.253695 0.5201351,0.264895 0.033928,0.0065 0.060733,-0.03537 0.083514,-0.06133 0.04094,-0.04665 0.1084429,-0.09168 0.1051605,-0.153663 -0.011636,-0.21974 -0.2058522,-0.178439 -0.3357481,-0.187723 -0.086826,-0.0048 -0.1739299,-0.02277 -0.2604772,-0.01434 -0.024731,0.0024 0.042368,0.02834 0.066731,0.03321 0.120368,0.02408 0.2428965,0.0357 0.3644186,0.05304 0.03273,0.0047 0.1268894,0.02964 0.098332,0.01298 -0.1126874,-0.06573 -0.2520088,-0.08404 -0.3557511,-0.163137 -0.057503,-0.04384 -0.070839,-0.126084 -0.1062585,-0.189126 0.809607,-0.303949 0.2073378,-0.0011 0.1050605,-0.195178 -0.029978,-0.0569 0.1912487,-0.103372 0.136213,-0.13665 -0.068589,-0.04147 -0.2218134,0.0024 -0.2258904,0.08243 -0.011208,0.220038 0.4116845,0.203024 0.4917258,0.210235 -0.073785,-0.10856 -0.1482122,-0.216687 -0.2213557,-0.32568 -0.01483,-0.0221 -0.016092,-0.07051 -0.042538,-0.06756 -0.024117,0.0027 0.039698,0.05656 0.019576,0.07012 -0.029674,0.02 -0.1259888,0.01881 -0.1067525,-0.01136 0.041802,-0.06557 0.4546253,-0.166542 0.1320604,0.192313 0.014335,-0.01026 0.2098209,-0.168664 0.2962418,-0.195312 0.053997,-0.01665 0.1621393,0.01886 0.1653027,-0.03756 0.00416,-0.07411 -0.081713,-0.144629 -0.1541876,-0.160669 -0.043685,-0.0097 -0.061719,0.06759 -0.077911,0.1093 -0.00477,0.01227 0.025768,-0.0054 0.03865,-0.0082 0.030423,-0.01839 0.2932303,-0.14093 0.2981174,-0.244417 0.00283,-0.05987 -0.062997,-0.105039 -0.07369,-0.164013 -0.020405,-0.11254 0.082956,-0.28922 -0.018174,-0.342642 -0.1594313,-0.08422 -0.2955401,0.320474 -0.4849471,0.239636 0.045984,0.09657 0.040337,0.245991 0.1379525,0.289723 0.2695609,0.120764 0.2951681,-0.39612 0.2923505,-0.443036 -0.00598,-0.09952 0.00269,-0.258298 -0.093625,-0.284074 -0.1211737,-0.03243 -0.2297825,0.102649 -0.3362138,0.169035 -0.059905,0.03737 -0.1060323,0.09326 -0.1590484,0.139883 0.3869457,-0.01678 -0.14292,0.02881 -0.00833,-0.08723 0.1410835,-0.121633 0.3714985,-0.112377 0.5022217,-0.245082 0.044378,-0.04505 -0.097036,-0.114251 -0.159276,-0.103062 -1.1786227,0.211899 -0.088811,0.232288 -0.6357932,0.20948 0.2680973,0.05918 0.2050836,0.06495 0.5065001,0.03815 0.1115896,-0.0099 0.256077,0.03733 0.333207,-0.04392 0.074767,-0.07876 0.1089104,-0.266981 0.01732,-0.325331 -0.1163249,-0.07411 -0.2691421,0.09022 -0.4064714,0.07741 -0.065779,-0.0061 0.1143367,-0.06622 0.1715053,-0.09933 -0.063,0.01726 -0.055237,0.01 0.1053422,0.06738 0.00841,0.003 0.026014,0.0023 0.02595,-0.0067 -2.429e-4,-0.03454 -0.042937,-0.06964 -0.026701,-0.100124 0.027342,-0.05134 0.1440648,-0.04987 0.1373468,-0.107651 -0.00695,-0.05978 -0.1064414,-0.05618 -0.1596621,-0.08427 -0.05367,-0.08383 -0.2368682,-0.31595021 -0.1610116,-0.2514972 0.081064,0.06888 0.091624,0.2022912 0.1773018,0.2653382 0.065167,0.04795 0.1592008,0.02913 0.2392114,0.04116 0.047709,0.0072 -0.1048983,0.0039 -0.1422707,-0.02659 C 8.746371,1.0982272 8.6446978,0.888711 8.6810428,0.95534 c 0.063071,0.1156262 0.136293,0.2254192 0.2044393,0.3381292 -0.041164,-0.117268 -0.070318,-0.23947 -0.1234913,-0.3518032 -0.013293,-0.02808 -0.098459,-0.07517 -0.071397,-0.05991 0.061832,0.03487 0.1089615,0.09729 0.1764885,0.1191732 0.018709,0.0061 -4.498e-4,-0.04587 0.015894,-0.05682 0.3618471,-0.24244803 0.5033772,-0.100897 -0.132869,-0.27028803 -0.093517,-0.01 -0.1865783,-0.02616 -0.2805501,-0.02994 -0.05063,-0.002 0.099358,0.02284 0.1499954,0.02469 0.1332791,0.0049 0.2707064,-0.03698 0.4000778,-0.0046 0.064363,0.01612 -0.1314415,0.08684 -0.1907124,0.05702 -0.1102426,-0.05547 0.1567648,-0.349887 -0.077669,-0.361996 -0.065332,0.0099 -0.131349,0.01609 -0.1959957,0.02978 -0.069346,0.01469 -0.2505832,6.88e-4 -0.2053529,0.05526 0.07232,0.08727 0.2194584,0.05724 0.3273502,0.09196 0.00992,0.0032 -0.030084,0.01375 -0.031098,0.0034 -0.00538,-0.05503 -0.00823,-0.115125 0.015285,-0.165167 0.028255,-0.06013 0.088232,-0.09936 0.1323483,-0.149038 -0.1369158,-0.04886 -0.26806,-0.118771 -0.4107471,-0.146589 -0.039082,-0.0076 0.064821,0.04931 0.085697,0.08322 0.019362,0.03145 -0.029133,0.198444 0.016261,0.191758 0.3282209,-0.04834 0.2616996,-0.19324 0.2613998,-0.40878 0,-0.01834 -0.2594139,-0.01834 -0.2594139,0 z" />
    <path
       style="fill:#967952;stroke-width:0.264583"
       id="path3088"
       d="m 8.1576175,0.69141508 c -0.060392,-0.06539 -0.035402,0.26604808 0.051089,0.25613008 0.093315,-0.0107 0.180636,-0.05226 0.2685523,-0.08532 0.029706,-0.01117 -0.1222203,0.03227 -0.093216,0.01939 0.1364591,-0.06061 0.4730038,-0.02479 0.4171315,-0.16326005 -0.05837,-0.144659 -0.3107267,0.02795 -0.4660903,0.04193 C 8.377649,0.91170713 8.4478704,1.0163112 8.0806792,0.87769013 7.9669238,0.83475013 7.9082021,0.68050208 7.7884639,0.65935308 c -0.054277,-0.0096 -0.021593,0.10982 -0.047866,0.15827205 -0.03947,0.07279 -0.1552893,0.11812303 -0.1466705,0.20047307 0.00899,0.0859 0.1243195,0.119925 0.1864794,0.179888 0.3130418,-0.77889212 0.4004797,0.200453 0.2903945,0.174017 -0.1660702,-0.03988 -0.2874092,-0.18787 -0.4116972,-0.305012 -0.018722,-0.01764 0.066593,-0.03481 0.07639,-0.01102 0.059469,0.144414 0.071283,0.304116 0.1069247,0.456174 -0.024911,0.02405 -0.049819,0.0481 -0.074729,0.07215 0.035447,0.01551 0.2548173,-0.485786 0.21937,-0.501298 v 0 c -0.09105,0.01396 -0.1821,0.02792 -0.2731502,0.04188 -0.01098,0.04204 -0.217949,0.572783 0.1690817,0.457211 0.1086662,-0.03245 0.044542,-0.224235 0.090183,-0.328053 0.1307016,-0.29730004 0.5465593,0.733199 0.2879942,-0.53200712 -0.020899,-0.102267 -0.2080265,-0.01751 -0.3120398,-0.02626 -0.1400889,0.12419705 -0.3086359,0.22229705 -0.420267,0.37259112 -0.025077,0.03376 0.082143,0.01812 0.1231614,0.02742 0.3076527,0.06972 0.3743801,0.16091 0.6428417,-0.05059 0.1836013,-0.14464307 0.094992,-0.15868507 5.556e-4,-0.21453007 0.011951,-0.02145 0.038156,-0.0888 0.035853,-0.06435 C 8.3153264,0.93561216 8.0377219,1.2803622 8.2179544,1.3893982 8.353927,1.4716582 8.4692189,1.1933512 8.5810771,1.0804672 8.6324011,1.0286672 8.7270204,0.96833116 8.7036289,0.89926716 8.6685069,0.7955701 8.5340823,0.7607011 8.4493087,0.6914181 c 0,-0.02063 -0.2917041,-0.02063 -0.2917041,0 z" />
    <path
       style="fill:#967952;stroke-width:0.264583"
       id="path3090"
       d="m 8.7244437,2.3202732 c -0.072578,0.159845 -0.1893269,0.379896 0.1010118,0.386099 0.023035,5.03e-4 0.035799,-0.03912 0.058691,-0.03651 0.07094,0.0081 0.1323126,0.0696 0.2036408,0.06642 0.031834,-0.0014 -0.041358,-0.04849 -0.062036,-0.07274 0.3406682,0.155817 -0.1987368,0.249088 -0.1795754,0.169126 0.00618,-0.02577 0.053034,0.0049 0.0786,0.01184 0.039513,0.01075 0.076076,0.03106 0.1157886,0.04105 0.5653323,0.142235 -0.085862,-0.05668 0.5030337,0.13271 0.050355,-0.0028 0.1737797,0.03655 0.1510631,-0.0085 -0.054832,-0.108688 -0.5401828,-0.339933 -0.6610601,-0.316117 -0.00924,0.0018 0.074218,0.19003 0.081557,0.206981 0.3318904,-0.326029 -0.2990972,0.107863 -0.3387069,0.135133 0.00156,0.03388 0.48075,0.01186 0.4791924,-0.02203 v 0 c 0.037756,-0.06205 0.1846477,-0.172716 0.1132663,-0.186156 -0.4820817,-0.09077 -0.4783624,0.135288 -0.6028856,0.432605 0.1523917,-0.05841 0.2974821,-0.141569 0.4571751,-0.175231 0.075669,-0.01595 0.1672087,0.07552 0.229998,0.03038 0.063006,-0.0453 0.026133,-0.153154 0.04535,-0.228336 0.017367,-0.06795 0.084514,-0.13322 0.064221,-0.20035 -0.076533,-0.253167 -0.1863873,-0.156246 -0.3128563,-0.102344 0.057534,0.174452 0.2353725,0.35072 0.1726014,0.523356 -0.040305,0.110851 -0.2346526,-0.100135 -0.2882889,-0.205186 -0.029319,-0.05742 0.1327732,0.04181 0.1926045,0.01778 0.081341,-0.03266 0.2506914,-0.10495 0.1969725,-0.174214 -0.6026433,-0.777038 -0.2912301,0.375885 -0.4300847,-0.255978 0.00942,0.09198 0.1079119,0.228958 0.028273,0.275927 -0.087205,0.05143 -0.2058469,-0.05615 -0.2740248,-0.130989 -0.031633,-0.03473 0.094554,-0.02806 0.1399921,-0.01615 0.016881,0.0044 -0.00801,0.05378 -0.0239,0.04658 -0.259801,-0.117786 -0.1780542,-0.132688 -0.096546,-0.345178 0,-0.01012 -0.1430673,-0.01012 -0.1430673,0 z" />
    <path
       style="fill:#967952;stroke-width:0.264583"
       id="path3092"
       d="m 8.0999532,4.2991972 c -0.037129,0.0097 -0.4563478,0.07286 -0.4902917,0.212782 -0.010983,0.04527 0.093906,-0.04093 0.1375635,-0.02468 0.07001,0.02607 0.099678,0.143349 0.1743432,0.140836 0.049176,-0.0017 0.048152,-0.113601 0.012123,-0.147111 -0.050492,-0.04696 -0.13628,-0.02116 -0.2044197,-0.03174 -0.015057,0.08457 0.023955,0.202716 -0.045173,0.253706 -0.098491,0.07265 -0.2504588,0.0024 -0.3639955,0.04811 -0.031771,0.01279 -0.036499,0.08099 -0.00968,0.102284 0.1324449,0.105175 0.2760334,0.246871 0.4451252,0.243503 0.08705,-0.0017 -0.00926,-0.191138 -0.072555,-0.250923 -0.032346,-0.03055 -0.053285,0.07127 -0.079928,0.106903 -0.2411482,-0.149187 -0.1418876,-0.176169 -0.3011498,-0.06734 -0.018016,0.02311 0.308788,0.277888 0.3268038,0.25478 v 0 c 0.2319538,-0.170878 0.2143569,-0.06781 0.064396,-0.306998 -0.099012,-0.136054 -0.1381342,-0.352808 -0.2970366,-0.40816 -0.092237,-0.03213 -0.057877,0.193522 -0.042319,0.289948 0.016571,0.102708 0.078833,0.193757 0.1345417,0.281621 0.025427,0.0401 -0.086452,-0.118724 -0.04224,-0.136041 0.1271016,-0.04978 0.2828174,0.04322 0.4094351,-0.0078 0.1086863,-0.04378 0.1614974,-0.169811 0.2422464,-0.254717 -0.1222044,-0.131858 -0.1894335,-0.365115 -0.366613,-0.395573 -0.1190665,-0.02047 0.1073099,0.228851 0.096983,0.349221 -0.00362,0.04218 -0.1287671,-0.04147 -0.1270148,8.47e-4 0.01202,0.290129 0.3992364,0.545951 0.6770574,0.430497 0.1190222,-0.04946 0.02773,-0.256285 0.041595,-0.384427 0.02118,-0.02261 -0.2986201,-0.322147 -0.3198003,-0.299533 z" />
    <path
       style="fill:#967952;stroke-width:0.264583"
       id="path3096"
       d="m 8.3718041,2.9989632 c -0.036863,0.05939 -0.1547241,0.123957 -0.1105895,0.178157 0.069143,0.08491 0.2098781,0.07051 0.319129,0.07794 0.314143,0.02137 -0.1095877,-0.279415 -0.15343,-0.260037 -0.1054251,0.0466 -0.060996,0.222314 -0.091494,0.33347 0.09732,-0.0076 0.2067859,-0.07041 0.2919585,-0.02272 0.049264,0.02758 -0.055305,0.111573 -0.037546,0.165168 0.020294,0.06124 0.1916729,-0.01128 0.1844839,0.06592 -0.00282,0.03022 -0.077367,0.04838 -0.08877,0.02025 -0.041565,-0.102522 -0.024495,-0.219893 -0.036744,-0.32984 0.2012688,0.313452 -0.2899715,0.257392 -0.2939741,0.431343 -0.00214,0.09266 0.1666367,0.09485 0.2189864,0.171335 0.016674,0.02436 -0.1116243,0.03731 -0.085234,0.02408 0.1216146,-0.06099 0.248013,-0.111935 0.3720195,-0.167903 -0.019317,-0.03197 -0.4714068,0.2412 -0.4520909,0.273168 v 0 c 0.1643491,0.01174 0.3317457,0.06885 0.4930473,0.03523 0.045613,-0.0095 0.014854,-0.09355 0.00759,-0.139575 -0.00844,-0.05345 -0.067974,-0.100927 -0.053811,-0.15315 0.053609,-0.197669 0.3296164,-0.0036 -0.065153,-0.184457 -0.044978,0.02737 -0.1517412,0.132005 -0.1349348,0.08211 0.039977,-0.118688 0.1412028,-0.206886 0.211804,-0.310329 -0.010213,0.0206 -0.021738,0.08301 -0.03064,0.06181 -0.085159,-0.202821 0.1761836,-0.09669 -0.088665,-0.25323 -0.1196732,-0.05129 -0.2288596,-0.157216 -0.35902,-0.153884 -0.055669,0.0014 0.046956,0.106697 0.040689,0.16203 -0.00462,0.04078 -0.1041178,0.07746 -0.070476,0.100969 0.5630336,0.393502 0.2463893,0.03811 0.2527607,-0.02969 0.00582,-0.06191 0.036857,-0.118771 0.055287,-0.178156 0,-0.02087 -0.2951763,-0.02087 -0.2951763,0 z" />
    <path
       style="fill:#967952;stroke-width:0.264583"
       id="path3102"
       d="m 8.2476388,-0.33086292 c 0.025194,0.07918 0.050389,0.158361 0.075584,0.237542 -0.10972,0.03712 -0.3481398,-0.0029 -0.3291601,0.111348 0.00831,0.05005 0.6423207,-0.102923 0.6544783,-0.112276 0.073673,-0.05668 0.2010619,-0.219081 0.1149443,-0.254068 -0.2311567,-0.09391 -0.4990045,-0.0022 -0.7485068,-0.0033 0.061055,0.121734 0.2991908,0.293896 0.1831642,0.365203 -0.152717,0.09386 -0.3391818,-0.20842399 -0.5125268,-0.162785 -0.099507,0.0262 0.103147,0.18277 0.18098,0.250075 0.087262,0.07546 0.1986013,0.118015 0.3025487,0.168049 0.1004112,0.04833 0.356117,0.116859 0.057588,0.03251 -0.023074,-0.03502 -0.030144,-0.08984 -0.069224,-0.105045 -0.074581,-0.02903 -0.159662,-0.01159 -0.2396135,-0.01515 -0.060474,-0.0027 -0.1964431,-0.06228 -0.1815671,-0.0036 0.070286,0.277237 0.2907051,0.66912305 0.6064115,0.377812 -0.3918053,0.186554 0.033416,-0.0056 0.025985,-0.0526 -0.010853,-0.06868 -0.1340789,-0.0543 -0.2032347,-0.04704 -0.026255,0.0028 0.028611,0.04492 0.04747,0.0634 0.1961158,0.192119 0.2021062,0.07103 0.1143871,0.272089 -0.4622329,-3.97e-4 0.02852,-0.05814 0.054663,-0.05647 0.054117,0.0035 -0.3213029,0.04473 -0.2954004,0.0900001 0.040351,0.07053 0.1457727,0.07214 0.2160222,0.11298398 0.057567,0.03347 0.111306,0.07313 0.166959,0.10970104 -0.3621702,0.03031 0.090172,0.03291 -0.180762,-0.11271504 -0.044074,-0.02369 -0.1402038,-0.03491 -0.1494325,0.01427 -0.010139,0.05403 0.075248,0.08669 0.1270151,0.10519404 0.091814,0.03281 0.1928273,0.02904 0.2892412,0.04356 -6.35e-4,-0.0111 -0.1576843,-0.0021 -0.1570472,0.009 v 0 c 0.084693,-0.0082 0.066746,0.01401 0.044047,-0.07341 0.1589394,-0.03128 0.4528544,0.134092 0.4853426,-0.02461 0.031542,-0.15407502 -0.7531142,-0.76835009 -0.4715645,0.01527 -0.00344,-0.05036 0.022556,-0.11278602 -0.010332,-0.15108002 -0.022902,-0.02667 -0.1312169,0.04019 -0.1038947,0.01807 0.032755,-0.02651 0.1484535,7.5e-5 0.1220931,-0.0328 -0.064901,-0.0809501 -0.264069,-0.04948 -0.2710609,-0.15300107 -0.00816,-0.120903 0.4615651,0.04022 0.2678208,-0.245827 -0.018211,0.09284 -0.052842,0.183917 -0.054632,0.278504 -4.233e-4,0.02289 0.027418,-0.04858 0.050248,-0.04683 0.025104,0.0019 0.3952214,0.20768007 0.3860517,-0.0063 -0.010591,-0.24718 -0.2392233,-0.357854 -0.4076025,-0.461342 -0.078167,0.0097 -0.1660874,-0.0098 -0.2345002,0.02922 -0.047804,0.02728 -0.055388,0.09572 -0.074712,0.147259 -0.00305,0.0081 0.010811,0.03243 0.010589,0.02376 -8.996e-4,-0.03505 -0.018881,-0.06991 -0.012652,-0.104409 0.031068,-0.172082 0.2727291,-0.280209 0.2565117,-0.457601 -0.08346,0.04929 -0.1652498,0.101532 -0.2503816,0.147879 -0.034175,0.01861 -0.1272249,0.01344 -0.1069948,0.04668 0.095876,0.157531 0.2422908,0.279446 0.3800784,0.402015 0.01356,0.01206 0.017801,-0.03579 0.012211,-0.05306 -0.03825,-0.118079 -0.097994,-0.228199 -0.1410304,-0.344618 -0.03162,-0.08554 -0.055171,-0.173845 -0.082757,-0.260767 0.065868,0.02052 0.1714796,-0.0023 0.1976035,0.06155 0.020262,0.04952 -0.1081947,0.01716 -0.154265,0.04437 -0.025612,0.01513 -0.076482,0.06624 -0.048106,0.07516 0.1293614,0.04068 0.2767856,0.08091 0.4051255,0.03712 0.1101008,-0.03757 -0.7797536,-0.233774 0.00905,-0.34889 0,-0.02498 -0.3532487,-0.02498 -0.3532487,0 z" />
    <path
       style="fill:#967952;stroke-width:0.264583"
       id="path3106"
       d="m 8.4894934,5.7218312 c -0.1076214,0.600828 -0.033094,0.681426 -0.4823479,1.147545 -0.023593,0.02448 -0.095331,-0.06838 -0.063356,-0.07993 0.1572459,-0.05683 0.3772311,0.04159 0.495757,-0.07634 0.069858,-0.06951 -0.1497547,-0.12935 -0.2134767,-0.204522 -0.017103,-0.02018 -0.016002,-0.05042 -0.024003,-0.07563 -0.05392,0.106606 -0.1078402,0.213212 -0.1617604,0.319818 0.049022,0.08366 0.1892263,0.163655 0.1470665,0.2509721 -0.047378,0.098124 -0.2257137,0.028465 -0.3132913,0.093296 -0.032131,0.023786 0.062105,0.066279 0.1019583,0.063146 0.023598,-0.00185 -0.025829,-0.054039 -0.00879,-0.070469 0.05163,-0.049779 0.125889,-0.068748 0.1888336,-0.1031229 -0.1437706,0.1494507 -0.2875412,0.2989014 -0.4313118,0.4483521 -0.012512,0.029995 -0.065278,0.073057 -0.037535,0.089985 0.085437,0.052132 0.3845076,0.1062837 0.2929467,0.065862 -0.1177822,-0.051997 -0.3347022,0.021884 -0.3727794,-0.1011063 -0.03382,-0.1092374 0.2403279,-0.04531 0.3430228,0.00499 0.058102,0.02846 -0.1192237,0.050287 -0.1788356,0.075431 0.00835,0.059634 -0.00536,0.1269312 0.025056,0.178901 0.1349151,0.2305215 0.4888368,-0.854104 0.4889781,0.15223 1.99e-5,0.1409234 -0.2626638,0.1043074 -0.3992059,0.1391745 -0.012152,0.0031 -0.031821,-0.032445 -0.01928,-0.032312 0.077563,8.205e-4 0.1534155,0.023038 0.2301232,0.034558 0.033938,0.00914 0.1360787,0.035224 0.1018125,0.02741 -0.05571,-0.012705 -0.1115126,-0.058732 -0.1661755,-0.042087 -0.05909,0.017992 0.00346,0.1468239 0.08716,0.2116887 0.031035,0.024051 0.1145328,0.00246 0.1102378,0.041495 C 8.2190074,8.3837652 8.1336844,8.4636 8.085378,8.554817 8.3864715,7.8824649 8.2216218,8.55389 8.1933066,8.577311 8.1522706,8.61126 8.0661151,8.531966 8.0675711,8.478728 8.0687611,8.435447 8.1539751,8.470928 8.1964465,8.462506 8.2524655,8.451404 8.3071389,8.434351 8.3624849,8.420273 8.3786639,8.426603 8.4681328,8.1977841 8.4519529,8.1914576 v 0 c -0.016367,0.05687 -0.026515,0.1159113 -0.0491,0.1706108 -0.00915,0.022162 0.020532,-0.050923 0.00816,-0.071464 -0.04369,-0.072567 -0.2029608,-0.1408088 -0.2744555,-0.1410755 -0.042292,-1.577e-4 0.075993,0.037143 0.1139899,0.055715 0.046365,0.00728 0.092206,0.023855 0.1390952,0.021828 0.010091,-4.233e-4 -0.00487,-0.021566 -0.013208,-0.027268 C 8.3147535,8.1576298 8.2405768,8.1339958 8.1833127,8.0859952 7.9866699,7.9211643 8.2791707,7.9205422 7.8460177,7.7996144 7.8011007,7.7870754 7.7638377,7.8437244 7.722747,7.8657784 7.8717823,7.9726756 7.9999412,8.1174082 8.1698479,8.1864669 8.214146,8.2044718 8.3057771,8.1291896 8.2769531,8.0910362 8.2626047,8.0720444 7.854368,7.9194137 7.8523463,7.7808786 7.8504942,7.6530896 8.0759719,7.4840473 7.968179,7.4153874 7.8442691,7.3364612 7.7012626,7.5382197 7.5678041,7.5996359 7.5814171,7.7104812 7.5016651,7.9001004 7.6086381,7.9321721 7.7371394,7.9706981 7.8365896,7.7903811 7.946242,7.7130945 8.079548,7.6191355 8.383032,7.3305559 8.3680206,7.2107531 8.3077406,6.7296662 7.7641716,7.1669151 7.698529,7.2047231 7.719868,7.2905511 7.675153,7.4486442 7.762547,7.4622057 7.8764078,7.4798746 7.9368966,7.306464 8.0413982,7.2579278 8.3041147,7.1359078 8.7225733,7.4449255 8.880311,6.9845471 8.980144,6.6931712 8.1131964,6.7112942 8.1529722,6.4146532 c -0.0082,0.03601 -0.0065,0.07585 -0.024606,0.10804 -0.078239,0.139087 -0.3494265,0.267603 -0.261684,0.400899 0.073263,0.1112995 0.8131066,0.083763 0.9150693,-0.106051 0.08755,-0.162984 0.043254,-0.370808 0.022011,-0.554594 -0.023013,-0.199077 -0.1022114,-0.387554 -0.1533173,-0.581331 -0.00284,-0.01138 -0.1637953,0.02883 -0.1609521,0.04021 z" />
    <path
       style="fill:#967952;stroke-width:0.264583"
       id="path3108"
       d="m 8.6182481,0.61579608 c 0.032662,0.06599 0.084665,0.31657808 0.2037768,0.09997 0.010747,-0.01954 -0.057929,-0.01053 -0.058299,-0.03283 -6.35e-4,-0.03885 0.017264,-0.104462 0.056056,-0.102212 0.050864,0.0029 0.060983,0.08506 0.1045223,0.111524 0.032541,0.01978 0.074945,0.01355 0.1124172,0.02032 0.00865,0.01187 0.1724276,0.26653508 0.2268302,0.20187405 0.084599,-0.10055 0.2296099,-0.40975805 0.101401,-0.38095105 -0.1989547,0.0447 -0.316753,0.27141005 -0.4132871,0.45102808 -0.024199,0.04502 0.09861,0.02747 0.1464564,0.04546 0.049234,0.01851 0.096197,0.04257 0.1442961,0.06386 0.09476,0.02662 0.1875481,0.06167 0.2842813,0.07986 0.1719014,0.03232 0.3072493,0.09383 0.3946319,-0.08507 C 9.9586882,1.0121492 10.05474,0.89079413 9.9853882,0.84145013 9.7383076,0.66565208 9.5423233,0.99811316 9.4424555,1.1149442 c -0.02255,0.439189 -0.1590211,0.47175 0.3501118,0.516861 0.072178,0.0064 0.1659104,0.0047 0.2110937,-0.05191 0.05183,-0.06499 0.01864,-0.1652 0.02796,-0.247801 -0.007,-0.01925 -0.2791799,0.07969 -0.2721844,0.09893 v 0 c 0.013581,-0.0213 0.027837,-0.08562 0.040745,-0.0639 0.038773,0.06523 0.1039391,0.165281 0.052886,0.221422 -0.094409,0.103817 -0.096885,-0.61748604 0.1048255,-0.407714 -0.065466,0.02886 -0.1360157,0.124967 -0.1963973,0.08659 -0.070123,-0.04457 -0.1009161,-0.177389 -0.051187,-0.243951 0.039934,-0.05345 0.1320757,0.08301 0.1925243,0.05477 0.069135,-0.0323 0.1138309,-0.12192104 0.1145139,-0.19822707 0.0014,-0.15661105 -0.7274958,0.17827307 -0.4596179,-0.09753 -0.2027854,-0.03007 -0.2150382,-0.05503 -0.4055877,-0.0026 -0.029102,0.008 -0.079741,0.07239 -0.080111,0.04221 -0.00119,-0.09675 0.035405,-0.19254505 0.077197,-0.27980805 0.022365,-0.0467 0.5506074,-0.741392 -0.077181,0.09068 -0.060334,0.04168 -0.1843802,0.05179 -0.181002,0.125046 0.00407,0.0883401 0.1139867,0.21513608 0.1950606,0.17981808 0.086178,-0.03754 0.041948,-0.18615508 0.034607,-0.27986708 -0.00401,-0.0512 -0.016801,-0.129673 -0.067388,-0.138569 -0.080655,-0.01418 -0.1685091,0.140313 -0.230034,0.08627 -0.069927,-0.06143 0.00707,-0.186017 0.010604,-0.279025 -0.020447,-0.01525 -0.2360904,0.273906 -0.2156439,0.289155 z" />
    <path
       style="fill:#967952;stroke-width:0.264583"
       id="path3114"
       d="m 8.183661,2.4680392 c -0.107329,0.02348 -0.2148345,0.04616 -0.3219873,0.07043 -0.1841879,0.04172 -0.4828006,0.04323 -0.1877989,0.426603 0.041276,0.05364 0.4889048,0.118802 0.5074867,-0.08 0.00608,-0.06503 -0.1303451,0.0086 -0.1955176,0.01296 -0.1741987,-0.117256 -0.3149295,-0.382891 -0.5225965,-0.351768 -0.1469302,0.02202 -0.00823,0.304677 -0.068703,0.440386 -0.031884,0.07156 -0.2321227,0.07333 -0.1894756,0.139041 0.2900058,0.446861 0.4709896,0.0255 0.5602124,-0.154313 0.037901,-0.07638 0.053736,-0.161853 0.080603,-0.24278 -0.7477341,0.09213 -0.3493204,-0.07443 -0.7647241,0.317848 -0.07374,0.06963 -0.9199316,0.244225 0.2558227,0.38688 0.1111057,-0.361717 -0.00536,-0.334355 0.2806748,-0.223701 -1.0683961,-0.72394 0.00695,-0.193629 -0.5360095,0.03541 -0.08429,0.03556 -0.113947,-0.157297 -0.2002336,-0.187694 -0.07007,-0.02468 0.3082882,0.3594 0.3333451,0.237955 0.023278,-0.112818 -0.09006,-0.212058 -0.1350905,-0.318087 -0.130268,-0.08054 -0.05734,-0.0626 -0.2676896,0.01202 -0.04283,0.0152 -0.08581,0.03086 -0.126038,0.052 -0.03679,0.01934 -0.06459,0.05544 -0.103919,0.06888 -0.156195,0.05339 -0.29434,0.06423 -0.452536,0.08326 0.0293,0.0735 0.0586,0.147005 0.0879,0.220507 -0.01906,-0.0049 -0.08856,0.264653 -0.0695,0.269568 v 0 c 0.09807,-0.03846 0.196131,-0.07691 0.294196,-0.115371 0.150113,-0.582064 -0.103846,0.06497 0.464036,-0.206643 0.0667,-0.0319 -0.103714,-0.105395 -0.155571,-0.158092 0.110817,0.162271 0.2216336,0.324543 0.3324506,0.486813 0.2186285,-0.04355 -0.133764,-0.505639 0.03327,-0.667941 -0.05786,-0.05283 -0.2928586,-0.269127 -0.2960436,-0.256931 -0.04086,0.156508 0.06832,0.320144 0.1425866,0.463843 0.0396,0.07664 0.114025,0.220385 0.1886699,0.177142 0.6452192,-0.373783 -0.3473405,-0.375266 0.3154272,-0.326322 0.010806,0.06515 0.093027,0.221689 0.032417,0.195457 -0.2670615,-0.115581 -0.5141401,-0.72171 -0.3982211,-0.01408 0.0039,0.02376 0.033891,-0.04154 0.057914,-0.04317 0.4751927,-0.03207 0.1943687,0.121802 0.5129551,-0.125335 0.2006904,-0.41051 -0.032503,0.07585 -0.070619,0.09708 -0.051092,0.02845 0.053499,-0.139291 0.00741,-0.175286 -0.038155,-0.0298 -0.1383429,0.05731 -0.1090856,0.09588 0.1583325,0.20873 0.3791588,0.113098 0.5696553,0.07959 0.0069,-0.183172 -0.00193,-0.367617 0.020704,-0.549514 0.00922,-0.07408 0.1486511,-0.2103 0.074006,-0.21138 -0.3332271,-0.0048 -0.1824408,0.427392 -0.1967735,0.538978 -0.015065,0.117281 -0.16159,-0.882542 0.293755,-0.198856 0.021304,-0.0055 -0.056051,-0.306747 -0.077355,-0.301277 z" />
    <path
       style="fill:#967952;stroke-width:0.264583"
       id="path3120"
       d="m 8.5308427,5.2263982 c 0.118708,-0.162083 0.3192675,0.07525 0.4585637,0.01218 0.068135,-0.03085 0.2253332,-0.08627 0.1744604,-0.1411 -0.078189,-0.08427 -0.3084719,0.06976 -0.3425288,-0.04003 -0.03123,-0.100679 0.3265091,-0.21696 0.2939071,-0.116716 -0.046551,0.143133 -0.2327277,0.19093 -0.3490915,0.286395 0.079759,0.0062 0.1595282,0.02478 0.239276,0.01848 0.072399,-0.0057 0.1384495,-0.05255 0.2110581,-0.05407 0.120138,-0.0025 0.2957475,0.144924 0.3580199,0.04215 0.058986,-0.09734 -0.2095463,-0.139385 -0.2314192,-0.251086 -0.020987,-0.107182 0.2097546,-0.369825 0.1227675,-0.303782 -0.160187,0.121617 -0.2401385,0.322701 -0.3602075,0.484052 0.021931,0.01034 0.3651078,0.147291 0.3748146,0.232837 0.011388,0.100361 -0.1848869,0.338504 -0.098202,0.286661 1.28545,-0.768786 0.2198304,-0.410826 0.1207585,-0.402125 -0.09499,0.0083 -0.1903643,-0.0115 -0.2855463,-0.01726 0.024082,0.106664 0.048164,0.213328 0.072246,0.319991 0.019312,0.035 0.5142447,-0.238094 0.4949344,-0.273092 v 0 c -0.019018,0.02486 -0.038038,0.04972 -0.057057,0.07457 -0.1141534,-0.0057 -0.2303262,0.0051 -0.3424603,-0.017 -0.05918,-0.01167 0.1328963,0.02228 0.1803384,-0.01497 0.1236679,-0.0971 0.2692929,-0.209101 0.3011308,-0.363079 0.0289,-0.139768 -0.1630326,0.377287 -0.2910007,0.314086 -0.4666318,-0.230461 0.6823032,-0.586924 -0.1029187,-0.294853 -0.1144166,0.01937 -0.2337718,0.01963 -0.3432497,0.05811 -0.099238,0.03488 -0.3653584,0.108314 -0.2728958,0.158471 0.1354966,0.0735 0.319491,0.0083 0.4588426,-0.0576 0.05748,-0.02718 0.1147508,-0.178195 0.051405,-0.183694 -0.2793394,-0.02425 -0.4295185,0.591214 -0.1239186,-0.205896 -0.1313659,0.06744 -0.2681478,0.125236 -0.3940972,0.20232 -0.050235,0.03074 -0.1111681,0.06332 -0.1307182,0.118876 -0.058715,0.166855 0.4328689,0.154408 0.3447571,-0.02186 -0.031076,-0.06217 -0.089923,-0.105997 -0.1348851,-0.158996 -0.021781,-0.02808 -0.4188632,0.279931 -0.3970835,0.30801 z" />
  </g>
</svg>
