<?xml version="1.0" encoding="UTF-8" standalone="no"?>
<!-- Created with Inkscape (http://www.inkscape.org/) -->

<svg
   width="64.842743"
   height="63.999996"
   viewBox="0 0 17.156309 16.933332"
   version="1.1"
   id="svg5"
   inkscape:version="1.2.2 (732a01da63, 2022-12-09)"
   sodipodi:docname="tiles_vine_bottom_top.svg"
   inkscape:export-filename="tiles_vine_right_left.svg"
   inkscape:export-xdpi="96"
   inkscape:export-ydpi="96"
   xmlns:inkscape="http://www.inkscape.org/namespaces/inkscape"
   xmlns:sodipodi="http://sodipodi.sourceforge.net/DTD/sodipodi-0.dtd"
   xmlns="http://www.w3.org/2000/svg"
   xmlns:svg="http://www.w3.org/2000/svg">
  <sodipodi:namedview
     id="namedview7"
     pagecolor="#ffffff"
     bordercolor="#000000"
     borderopacity="0.25"
     inkscape:showpageshadow="2"
     inkscape:pageopacity="0.0"
     inkscape:pagecheckerboard="true"
     inkscape:deskcolor="#d1d1d1"
     inkscape:document-units="px"
     showgrid="true"
     showguides="true"
     inkscape:zoom="7.796875"
     inkscape:cx="25.587174"
     inkscape:cy="32.256513"
     inkscape:window-width="958"
     inkscape:window-height="1008"
     inkscape:window-x="946"
     inkscape:window-y="0"
     inkscape:window-maximized="0"
     inkscape:current-layer="layer1">
    <inkscape:grid
       type="xygrid"
       id="grid88"
       spacingx="2.1166666"
       spacingy="2.1166666"
       empspacing="8" />
  </sodipodi:namedview>
  <defs
     id="defs2" />
  <g
     inkscape:label="Layer 1"
     inkscape:groupmode="layer"
     id="layer1"
     transform="translate(0.11146356,-0.00966072)">
    <circle
       id="path5383"
       style="fill:#3b2625;stroke:#000000;stroke-width:0.264583"
       cx="-15.887197"
       cy="10.068432"
       r="0.0063923118"
       transform="rotate(-90)" />
    <rect
       style="fill:#35201f;fill-opacity:1;stroke-width:0.264583;stroke-dasharray:none"
       id="rect7797"
       width="16.933332"
       height="16.933332"
       x="-16.942993"
       y="-0.0096121477"
       transform="rotate(-90)" />
    <path
       style="fill:#3a2524;fill-opacity:1;stroke-width:0.264583;stroke-dasharray:none"
       id="path8684"
       d="m 7.7787614,5.1244803 c -0.1975173,0.119742 -0.3205118,0.18162 -0.4952124,0.358749 -0.385395,0.390752 -0.70187,0.959292 -0.758877,1.5113921 -0.02178,0.210943 0.02664,0.4232915 0.03996,0.6349372 -0.085041,0.247886 3.4205964,1.4505988 3.505642,1.2027128 v 0 c 0.04995,-0.175836 0.131928,-0.3455956 0.149847,-0.5275083 0.02135,-0.2167263 -0.0057,-0.4364844 -0.03362,-0.6524601 C 10.113371,7.0869723 9.9353655,6.5362033 9.6440032,6.0458643 9.5978382,5.9681743 9.5381908,5.8993293 9.4852847,5.8260613 9.5348937,5.7053913 7.8283665,5.0038103 7.7787574,5.1244803 Z" />
    <path
       style="fill:#3a2524;fill-opacity:1;stroke-width:0.264583;stroke-dasharray:none"
       id="path9461"
       d="m 16.006414,14.09786 c -0.165652,-0.121487 -0.375487,-0.1388 -0.570258,-0.08199 -0.148621,0.04335 -0.245922,0.117403 -0.377208,0.198578 -0.164432,0.159346 -0.183626,0.148259 -0.279549,0.346337 -0.0052,0.01067 -0.0079,0.04209 0.002,0.03552 0.05075,-0.03377 0.07839,-0.09853 0.133104,-0.125405 0.6284,-0.308723 0.265821,0.0029 0.546057,-0.261065 -0.01064,-0.06726 -0.01294,-0.136383 -0.03194,-0.201776 -0.0594,-0.204512 -0.184729,-0.387983 -0.36831,-0.499937 -0.05147,-0.03139 -0.386242,-0.147101 -0.386845,-0.147318 -0.809157,0.118133 -0.552823,-0.07287 -0.907021,0.311469 -0.04393,0.07762 1.053749,0.698917 1.097682,0.621299 v 0 c -0.347077,0.118211 -0.09004,0.04447 -0.797667,0.08538 -0.05451,-0.0088 -0.119346,-0.05955 -0.163534,-0.02643 -0.04085,0.03061 -0.01239,0.102479 -0.0054,0.153051 0.03829,0.278071 0.197864,0.534455 0.410164,0.714196 0.08376,0.07091 0.184508,0.118886 0.276762,0.17833 0.42763,0.147075 0.436549,0.213529 0.957473,0.03873 0.08217,-0.02757 0.12986,-0.114866 0.192906,-0.174339 0.01394,-0.01315 0.04941,-0.05859 0.03783,-0.04332 -0.06945,0.09155 -0.05133,0.0677 -0.146221,0.135824 -0.01552,0.0099 -0.04294,0.01162 -0.04655,0.02966 -0.0026,0.01306 0.02514,0.01087 0.03845,0.01082 0.02772,-9.8e-5 0.0552,-0.0059 0.08241,-0.01125 0.04405,-0.0086 0.08955,-0.01359 0.131175,-0.03036 0.0135,-0.0054 0.153867,-0.09927 0.174527,-0.112975 0.08083,0 0.08083,-1.143037 0,-1.143037 z" />
    <path
       style="fill:#3a2524;fill-opacity:1;stroke-width:0.264583;stroke-dasharray:none"
       id="path9463"
       d="m 15.263594,9.2390201 c 0.01823,-0.00669 0.03884,-0.00886 0.0547,-0.020058 0.135092,-0.095367 0.251323,-0.22191 0.346831,-0.3554431 0.152049,-0.2125829 0.212113,-0.3471515 0.269565,-0.603446 0.01928,-0.08602 0.01996,-0.1751764 0.02994,-0.2627649 -0.0093,-0.060038 0.0092,-0.132021 -0.02795,-0.1801148 -0.02496,-0.032338 -0.08108,-0.017412 -0.121774,-0.013835 -0.09561,0.0084 -0.18768,0.050515 -0.283651,0.049462 -0.1056,-0.00116 -0.208119,-0.036082 -0.311831,-0.055995 -0.121646,-0.023357 -0.08564,-0.05616 -0.12779,0.00833 -0.0029,0.00838 -0.0087,0.034026 -0.0087,0.025157 -2.21e-4,-0.1043136 -0.01291,-0.2106544 0.0081,-0.3128378 0.0048,-0.023331 0.04189,-0.022696 0.06305,-0.033618 0.187685,-0.096851 0.355229,-0.2546103 0.563495,-0.2896989 0.575837,-0.097017 0.344506,0.3397155 0.489947,-0.019553 0.0273,-0.2167167 -0.0034,-0.3938473 -0.0883,-0.5937663 -0.02984,-0.07029 -0.06083,-0.140592 -0.100298,-0.205969 -0.06981,-0.115649 -0.18033,-0.236325 -0.268317,-0.338742 -0.08792,-0.07602 -0.145216,-0.134539 -0.245169,-0.190628 -0.02628,-0.01475 -0.06301,-0.05559 -0.08384,-0.03382 -0.01986,0.02076 0.04456,0.04348 0.04724,0.07208 0.02152,0.229848 0.0162,0.461421 0.02431,0.692131 0.04825,-0.06345 -0.849003,-0.745879 -0.897259,-0.682433 v 0 c -5.82e-4,0.247609 -0.02592,0.4964 -0.0017,0.742828 0.0054,0.05478 0.06402,0.09014 0.08829,0.139545 0.0136,0.02769 0.01674,0.147009 0.0287,0.179306 0.02864,0.1890131 -0.0045,-0.057086 0.0097,0.1706492 0.0029,0.046796 0.01006,0.093241 0.01624,0.139719 0.03071,0.2311739 0.06831,0.4161184 0.2154,0.6069788 0.168568,0.1746165 0.392479,0.4368704 0.652681,0.4359095 0.225451,-8.202e-4 0.420988,-0.1671373 0.614017,-0.2836215 0.0484,-0.029207 0.08249,-0.086728 0.09203,-0.1424463 0.05591,-0.3265268 0.0282,-0.418397 -0.01475,-0.6802022 -0.02706,-0.066203 -0.04216,-0.1386774 -0.08119,-0.1986108 -0.160342,-0.2462167 -0.345584,-0.3850587 -0.658835,-0.4364407 -0.28727,-0.04712 -0.575285,0.06267 -0.815802,0.201846 -0.0936,0.05416 -0.173776,0.128755 -0.260665,0.1931326 -0.209533,0.2802345 -0.285363,0.3238765 -0.370056,0.6792526 -0.03383,0.1419611 -0.05056,0.2890234 -0.04989,0.4349589 0.0012,0.2574083 0.118819,0.4886655 0.124023,0.7433889 -0.02965,0.076337 1.04991,0.4957067 1.079564,0.4193701 z" />
    <path
       style="fill:#3a2524;fill-opacity:1;stroke-width:0.264583;stroke-dasharray:none"
       id="path9465"
       d="m 12.029351,10.848736 c -0.146872,0.0086 -0.27155,0.08091 -0.391582,0.160202 -0.181456,0.119864 -0.247432,0.157691 -0.37749,0.335873 -0.04716,0.06461 -0.08025,0.138397 -0.120369,0.207595 -0.20686,0.504251 -0.268316,0.799697 -0.126682,1.360854 0.02435,0.09649 0.221706,0.289586 0.276797,0.349019 -0.117384,-0.08952 0.398683,0.285615 0.345043,0.169276 -0.03856,-0.08364 -0.197608,-0.07924 -0.218662,-0.168898 -0.87157,-0.486519 0.157215,-0.634274 0.116313,-0.951009 -0.0078,-0.0601 -0.101283,-0.06657 -0.151924,-0.09986 -0.215573,-0.04779 -0.286033,-0.07648 -0.510612,-0.07272 -0.08218,0.0014 -0.163455,0.01743 -0.245182,0.02615 -0.122369,-0.0024 -0.155894,1.728185 -0.03353,1.730555 v 0 c 0.103544,0.01299 0.206286,0.03763 0.310634,0.03896 0.317119,0.0041 0.374599,-0.03903 0.670106,-0.131232 0.129922,-0.07242 0.605158,-0.317882 0.652623,-0.44238 0.353964,-0.928444 0.148646,-0.635977 -0.18786,-1.035089 -0.03423,-0.0406 0.194221,0.07061 0.151789,0.04835 0.02158,0.01342 0.03954,0.03693 0.06473,0.04025 0.01652,0.0022 0.03836,-0.0422 0.04263,-0.02609 0.02684,0.101235 0.03169,0.20771 0.03329,0.312431 2.64e-4,0.01757 -0.02118,-0.02824 -0.02919,-0.04388 -0.0074,-0.01448 -0.02058,-0.03001 -0.0168,-0.04584 0.0084,-0.03502 0.0337,-0.06363 0.05055,-0.09544 0.05739,-0.109359 0.09317,-0.159566 0.119677,-0.282084 0.0094,-0.04348 0.0027,-0.08941 0.01204,-0.132911 0.0068,-0.0316 0.02601,-0.05931 0.03578,-0.09012 0.0074,-0.02345 0.0229,-0.109339 0.02806,-0.136841 0.07249,-0.03537 -0.427712,-1.060496 -0.500199,-1.025126 z" />
    <path
       style="fill:#3a2524;fill-opacity:1;stroke-width:0.264583;stroke-dasharray:none"
       id="path9467"
       d="m 8.1606255,15.089445 c 0.091394,0.04458 0.058059,0.04707 0.184653,-0.05147 0.2341589,-0.182266 0.3796808,-0.406543 0.4726821,-0.68829 0.030382,-0.09204 0.042994,-0.189028 0.064491,-0.283542 0.00976,-0.265144 0.038934,-0.75944 -0.043234,-0.950653 -0.1694538,-0.394334 -0.6812744,-0.529235 -1.0605885,-0.492376 -0.067771,0.0066 -0.1333458,0.02764 -0.2000184,0.04146 -0.1298953,0.05093 -0.2583143,0.116252 -0.3666143,0.205849 -0.020857,0.01726 -0.040685,0.03646 -0.056122,0.0587 -0.00753,0.01085 -0.021415,0.02988 -0.011041,0.03805 0.018164,0.01431 0.045965,0.005 0.068947,0.0076 0.9303226,0.244577 0.079564,-0.04934 0.5583345,0.25139 0.014012,0.0088 0.038938,-0.0058 0.044869,-0.02123 0.016558,-0.04312 0.012692,-0.09158 0.016129,-0.137642 0.00992,-0.133085 0.00909,-0.267221 0.010541,-0.400509 -0.011647,-0.08806 -0.023297,-0.176114 -0.034944,-0.264171 C 7.7544819,12.301581 6.326353,13.068466 6.38058,13.16945 v 0 c 0.03231,0.06063 0.06462,0.121253 0.09693,0.18188 0.03327,0.05481 0.063,0.111929 0.09981,0.164421 0.132349,0.18869 0.031921,0.02425 0.141583,0.148407 0.072597,0.08219 0.138355,0.230493 0.228789,0.279452 0.1308748,0.07085 0.2851933,0.0852 0.4277899,0.127793 0.036605,1.2e-4 0.073273,-0.0018 0.109814,3.7e-4 0.1766128,0.01045 -0.048802,0.01018 0.1304338,0.0182 0.098067,0.0044 0.1968783,-0.01247 0.2921479,-0.03332 0.031977,-0.01417 0.067738,-0.02182 0.095933,-0.04252 0.016817,-0.01235 0.047442,-0.03695 0.033765,-0.05271 -0.2244168,-0.258526 -0.2497948,0.07824 -0.4375889,-0.407124 -0.055208,-0.14269 0.012226,-0.31123 -0.031216,-0.457931 -0.010083,-0.03405 -0.057082,0.04225 -0.085624,0.06337 -0.041528,0.06098 -0.088851,0.118393 -0.1245843,0.182939 -0.093082,0.168127 -0.1711037,0.375361 -0.20794,0.563055 -0.048389,0.246558 -0.024477,0.500081 -0.04826,0.748644 -0.030764,0.07483 1.027499,0.5099 1.0582631,0.435069 z" />
    <path
       style="fill:#3a2524;fill-opacity:1;stroke-width:0.264583;stroke-dasharray:none"
       id="path9469"
       d="m 12.513528,0.72423031 c -0.221795,0.02311 -0.405728,0.09283 -0.55929,0.261553 -0.108543,0.11925899 -0.161873,0.22808599 -0.244695,0.36807899 -0.146315,0.314883 -0.20401,0.690597 -0.0883,1.024261 0.02993,0.0863 0.108528,0.222335 0.165729,0.293755 0.03652,0.0456 0.08075,0.08444 0.121129,0.126657 0.116459,0.106764 0.161159,0.163569 0.303598,0.233574 0.05196,0.02554 0.107726,0.04322 0.163667,0.05813 0.03405,0.0091 0.130007,0.03813 0.104854,0.01345 -0.483832,-0.474687 -0.210236,0.298242 -0.357467,-0.853328 0.0021,-0.02402 0.02489,-0.05672 0.0063,-0.07207 -0.01849,-0.01525 -0.04676,0.01133 -0.06896,0.02037 -0.122466,0.04983 -0.175268,0.09773 -0.256917,0.195325 -0.0041,0.03519 -0.05391,0.04835 -0.06083,0.08155 -0.002,0.0094 0.02617,0.01739 0.01805,0.02255 -0.207677,0.131895 -0.346963,0.07496 -0.448278,0.388229 -0.04704,0.145434 -0.0033,0.305682 -0.005,0.458524 -0.009,0.0064 -0.02074,0.01 -0.02693,0.01905 -0.008,0.0118 -0.01212,0.05476 -0.01368,0.04058 -0.01112,-0.100914 -0.08772,-0.303638 0.01381,-0.304261 -0.0081,0.01658 -0.0171,0.03276 -0.02439,0.04973 -0.01369,0.03188 -0.01822,0.05986 -0.01632,0.06052 0.01241,0.0043 0.0251,-0.0078 0.03748,-0.01224 0.04731,-0.01685 0.09138,-0.05348 0.141566,-0.05155 0.157949,0.0061 0.312152,0.05001 0.468228,0.07501 -0.06418,-0.04419 -0.689043,0.863403 -0.624867,0.907587 v 0 c 0.165118,0.0329 0.327101,0.09257 0.495352,0.09869 0.07077,0.0026 0.135685,-0.04244 0.199378,-0.0734 0.120422,-0.05854 0.207728,-0.173677 0.28056,-0.281192 0.02659,-0.04138 0.05689,-0.0806 0.07978,-0.124132 0.134057,-0.254932 0.168018,-0.591109 0.03338,-0.850885 -0.0055,0.132106 0.03061,0.27276 -0.01646,0.396317 -0.170404,0.447287 -0.188505,0.122571 -0.415572,0.333886 -0.02112,0.01966 0.05723,0.0074 0.08582,0.01124 0.120267,0.01615 0.04689,0.01177 0.200779,0.0057 0.124715,-0.026 0.220977,-0.03868 0.338445,-0.09573 0.257254,-0.124945 0.416476,-0.366494 0.557284,-0.604481 -0.01239,-0.260962 0.04704,-0.53557 -0.03716,-0.782888 -0.042,-0.123381 -0.208073,-0.157054 -0.310338,-0.237857 -0.0068,-0.0053 -0.01998,-0.0124 -0.01623,-0.02017 0.0077,-0.01593 0.07715,0.0541 0.08213,0.05706 0.01314,0.0011 0.02754,0.0092 0.03941,0.0034 0.02041,-0.0099 0.03549,-0.08651 0.03703,-0.09326 0.0042,-0.01856 0.01298,-0.07502 0.0101,-0.0562 -0.05049,0.330492 0.0555,0.301293 -0.09777,0.320858 -0.0076,-0.0023 -0.02479,6.62e-4 -0.02274,-0.007 0.0051,-0.01902 0.02471,-0.03065 0.03694,-0.04608 0.02105,-0.02653 0.04529,-0.05085 0.06291,-0.07978 0.01686,-0.02768 0.07245,-0.150263 0.0745,-0.189846 9.52e-4,-0.01851 -0.01346,-0.03455 -0.02019,-0.05182 0.07336,-0.03011 -0.352452,-1.06759299 -0.425813,-1.03748299 z" />
    <path
       style="fill:#3a2524;fill-opacity:1;stroke-width:0.264583;stroke-dasharray:none"
       id="path9471"
       d="m 4.575314,4.1360273 c 0.05849,0.0372 0.146519,0.09721 0.20992,0.116234 0.238666,0.07163 0.512021,0.0377 0.743304,-0.04194 0.103446,-0.03562 0.199595,-0.08968 0.299393,-0.134513 0.0877,-0.06303 0.180989,-0.118928 0.263088,-0.189094 0.191001,-0.16324 0.353664,-0.370179 0.447659,-0.604616 0.04068,-0.101466 0.06811,-0.243303 0.09198,-0.350575 0.03128,-0.229319 0.07648,-0.476592 -0.02887,-0.700525 -0.06008,-0.127703 -0.210273,-0.191489 -0.332343,-0.262322 -0.05231,-0.03035 -0.118762,-0.02291 -0.178222,-0.03394 -0.0028,-5.02e-4 -0.01102,-0.0017 -0.0084,-6.88e-4 0.123356,0.049 0.247315,0.09647 0.370973,0.144698 0.04407,0.0216 0.08319,0.06719 0.132209,0.0648 0.08872,-0.0043 0.08083,-0.269094 0.109985,-0.208456 0.03673,0.07637 0.01156,0.169264 0.01079,0.254006 -1.57e-4,0.01735 -0.003,-0.03602 -0.01263,-0.05049 -0.0079,-0.01188 -0.02401,-0.01534 -0.03601,-0.02301 -0.02667,0.0088 -0.05335,0.01769 -0.08002,0.02653 -0.05531,0.02561 -0.108434,0.05661 -0.16593,0.07684 -0.04371,0.01538 -0.091,0.01781 -0.135879,0.02936 -0.01393,0.0036 -0.03679,0.0019 -0.0401,0.01593 -0.0016,0.0066 0.05067,0.04294 0.05643,0.04713 0.08787,0.05354 0.163549,0.125565 0.256997,0.170332 0.03419,0.01638 0.0706,0.02768 0.105898,0.04152 0.07827,0.03427 0.562943,-1.07261 0.4846745,-1.106881 v 0 c -0.00632,-0.03124 -0.033962,-0.04138 -0.055029,-0.06259 -0.1284817,-0.129384 -0.024797,-0.03682 -0.1700495,-0.158498 -0.04087,-0.028 -0.07951,-0.05957 -0.122611,-0.084 -0.09794,-0.05551 -0.247917,-0.110423 -0.355309,-0.12134199 -0.35732,-0.03633 -0.577429,0.05933 -0.848738,0.28174199 -0.05189,0.06604 -0.11388,0.12528 -0.155683,0.198132 -0.188394,0.328324 -0.198231,0.825928 0.0038,1.15432 0.04703,0.07645 0.105848,0.144988 0.158771,0.217481 0.136958,0.06918 0.271856,0.142603 0.410875,0.207543 0.01227,0.0057 0.05341,0.0075 0.04051,0.0033 -0.179203,-0.0576 -0.307044,-0.01619 -0.421792,-0.278164 -0.01977,-0.04514 -0.03083,-0.387729 -0.03667,-0.558562 -0.01067,-0.0036 -0.02102,-0.01312 -0.032,-0.01069 -0.07368,0.01626 -0.141448,0.08274 -0.190136,0.130685 -0.04448,0.0438 -0.08828,0.08878 -0.126081,0.138452 -0.0098,0.01293 -0.118662,0.203467 -0.131507,0.225846 -0.03225,0.06422 -0.04382,0.09993 -0.09198,0.151793 -0.07208,0.07761 -0.178082,0.09911 -0.254704,0.169415 -0.07883,-0.01319 -0.265393,1.101623 -0.186563,1.114815 z" />
    <path
       style="fill:#3a2524;fill-opacity:1;stroke-width:0.264583;stroke-dasharray:none"
       id="path9473"
       d="M 3.454275,8.1133987 C 3.388975,8.1795967 3.310764,8.2351743 3.258363,8.3119918 3.104301,8.5378415 3.029402,8.8028995 2.980979,9.0679667 c -0.03613,0.1977488 -0.06742,0.609546 -0.05297,0.819422 0.0071,0.1031949 0.03539,0.2038293 0.05308,0.3057433 0.03058,0.05402 0.04245,0.124319 0.09173,0.16206 0.04191,0.03209 0.103175,0.02925 0.155937,0.0276 0.445244,-0.01388 0.662895,-0.207282 0.97026,0.265923 0.08127,0.125119 -0.02934,0.541658 0.03301,0.289813 C 4.272606,10.496269 4.33943,10.364572 3.795881,9.9255002 3.673754,9.8268472 3.481349,9.9013672 3.325002,9.9156102 3.195462,9.9274082 3.039449,10.020094 2.943767,10.103602 c -0.04961,0.0433 -0.08824,0.09776 -0.132365,0.146646 -0.195935,0.304565 -0.226687,0.503146 -0.217582,0.899701 0.0015,0.06519 0.04192,0.123549 0.05953,0.186328 0.02737,0.09758 0.0253,0.1143 0.0341,0.207256 -2.1e-5,0.02672 0.0053,0.054 -6.1e-5,0.08017 -0.01848,0.08942 -0.07554,0.167154 -0.09909,0.25537 -0.01648,0.06172 0.009,0.239575 -0.03035,0.189226 -0.04302,-0.05509 0.0098,-0.139461 0.01475,-0.209191 -0.02865,0.10426 1.445816,0.509415 1.474465,0.405154 v 0 c 0.0075,-0.199429 0.02549,-0.398738 0.02256,-0.598288 -0.004,-0.272896 -0.158,-0.506212 -0.244162,-0.75657 -0.01745,-0.03416 -0.03361,-0.069 -0.05234,-0.102472 -0.0096,-0.01707 -0.01282,-0.0486 -0.03238,-0.04894 -0.0175,-2.91e-4 0.02067,0.03125 0.01957,0.04871 -0.03583,0.569803 0.01504,0.266193 -0.07864,0.463687 -7.15e-4,0.0015 0.0012,0.0031 0.0018,0.0046 0.01522,-0.01745 0.104524,-0.121419 0.05256,-0.145623 -0.09384,-0.04371 -0.23316,-8.99e-4 -0.300127,-0.07983 -0.428348,-0.504948 -0.405552,-0.483881 -0.344812,-0.833603 -0.02304,0.04957 -0.06001,0.0948 -0.06911,0.148699 -0.07719,0.456935 -0.191227,0.841566 0.370792,1.096475 0.250754,0.113731 0.721169,0.0059 0.965294,-0.142782 C 4.466968,11.252134 4.555089,11.156747 4.65355,11.07593 4.73444,10.957236 4.835745,10.850134 4.896218,10.719849 5.175225,10.118748 5.1484,9.3193113 4.866708,8.7249421 4.815658,8.6172173 4.736101,8.525478 4.670797,8.4257457 4.692887,8.3397247 3.476367,8.0273769 3.454281,8.1133977 Z" />
    <path
       style="fill:#3a2524;fill-opacity:1;stroke-width:0.264583;stroke-dasharray:none"
       id="path9475"
       d="m 3.669597,5.9671343 c -0.02684,-0.09629 0.01605,-0.191137 0.01092,-0.286603 -0.0037,-0.06959 -0.02208,-0.137633 -0.03226,-0.206579 -0.01906,-0.129027 -0.04526,-0.364859 -0.08399,-0.484543 -0.02595,-0.08018 -0.07063,-0.153033 -0.105946,-0.22955 -0.04814,-0.05808 -0.08958,-0.12244 -0.14441,-0.174249 -0.184735,-0.17455 -0.492187,-0.280906 -0.732934,-0.325248 -0.10977,-0.02022 -0.272124,0.0076 -0.151801,-0.01125 0.05046,-5.82e-4 0.251013,0.04247 0.29189,-0.06528 0.03572,-0.09415 -0.01401,-0.273864 -0.03223,-0.35586 -0.0455,-0.204866 -0.04105,-0.176505 -0.103172,-0.363574 -0.02215,-0.04444 -0.04429,-0.08888 -0.06644,-0.133328 -0.04608,-0.09695 -1.4172,0.554697 -1.371122,0.65165 v 0 c 0.0066,0.07894 0.01322,0.157878 0.01983,0.236818 0.02397,0.08999 0.03986,0.182521 0.07191,0.269955 0.09398,0.256396 0.251973,0.493151 0.459287,0.67132 0.07635,0.06562 0.153392,0.133975 0.243814,0.178229 0.116887,0.05721 0.247123,0.08168 0.370685,0.122517 0.05653,0.003 0.113143,0.01309 0.169593,0.0089 0.02017,-0.0015 -0.03896,-0.01093 -0.05818,-0.01721 -0.07336,-0.02399 -0.144708,-0.05469 -0.219538,-0.07359 -0.03596,-0.0091 -0.0815,-0.03257 -0.110828,-0.0099 -0.05542,0.04292 -0.0012,0.280373 8.62e-4,0.295431 0.02652,0.07019 0.04537,0.143766 0.07955,0.210558 0.03282,0.06415 0.188888,0.281663 0.239501,0.347628 0.01655,0.02157 0.134888,0.163123 0.157926,0.179768 0.01049,0.0076 0.02587,-6.35e-4 0.0388,-9.53e-4 0.03076,0.07483 1.089028,-0.360238 1.058263,-0.435069 z" />
    <path
       style="fill:#3a2524;fill-opacity:1;stroke-width:0.264583;stroke-dasharray:none"
       id="path9477"
       d="m 2.733325,13.372063 c -0.02729,-0.02767 -0.05101,-0.05941 -0.08188,-0.08301 -0.03494,-0.02671 -0.07625,-0.04386 -0.113862,-0.06665 -0.176191,-0.106779 -0.293247,-0.181712 -0.504759,-0.212437 -0.0653,-0.0095 -0.131771,-0.0071 -0.197656,-0.01073 -0.08587,0.01268 -0.174157,0.01413 -0.257596,0.03803 -0.298263,0.08546 -0.59566298,0.189706 -0.73709898,0.50992 -0.140941,0.319094 -0.101816,0.76162 -0.07811,1.110272 0.08324,0.373849 -0.0067,0.0087 0.09282,0.322808 0.01155,0.03645 0.01866,0.07417 0.02762,0.111348 0.0069,0.02845 0.01292,0.113959 0.01979,0.08552 0.06243,-0.258235 -0.05842,-0.314225 0.05043,-0.254516 0.12175498,-0.08732 -0.08213,0.0628 0.12799598,-0.120205 0.04851,-0.04225 0.06451,-0.047 0.111052,-0.06757 -0.081149,0.02506 0.273225,1.172557 0.354365,1.147499 v 0 c 0.04771,-0.01853 0.09784,-0.03173 0.14312,-0.05558 0.1988,-0.104685 0.337321,-0.247101 0.433497,-0.450215 0.0957,-0.287581 0.04977,-0.106474 0.07364,-0.60336 0.01125,-0.234111 0.0013,-0.08818 -2.4e-4,-0.331316 -0.0018,-0.289219 0.01528,-0.06213 -0.01762,-0.361037 -0.016,-0.05737 -0.02837,-0.115882 -0.048,-0.172115 -0.01054,-0.0302 -0.02706,-0.114394 -0.04217,-0.0862 -0.05862,0.109381 -0.0299,0.257627 -0.103329,0.357674 -0.167181,0.227795 -0.31823,0.118588 -0.522355,0.227471 -0.01885,0.01005 0.002,0.04267 0.003,0.06401 0.0554,0.03294 0.107574,0.07204 0.166203,0.09882 0.264685,0.120866 0.538281,0.150205 0.825631,0.116815 0.07541,-0.0088 0.15161,-0.01984 0.223312,-0.04479 0.05832,-0.0203 0.108179,-0.0596 0.162269,-0.08939 0.08351,-0.0078 -0.02659,-1.188835 -0.110099,-1.181049 z" />
    <path
       style="fill:#3a2524;fill-opacity:1;stroke-width:0.264583;stroke-dasharray:none"
       id="path9479"
       d="m 15.357863,3.5594103 c 0.519438,-0.21281 0.883158,-0.505159 1.108235,-1.035884 0.136953,-0.322929 0.119055,-0.426289 0.141232,-0.754408 -0.01081,-0.08608 -0.0124,-0.173815 -0.03242,-0.258224 -0.102568,-0.432515 -0.719967,-0.67610999 -1.006555,-0.81635999 -0.0546,-0.02672 -0.188387,0.181531 -0.202583,0.227557 -0.02053,0.06655 -0.02376,0.13723599 -0.03565,0.20585399 0.06486,0.195081 0.05534,0.433987 0.194571,0.585242 0.240494,0.261269 0.518332,0.167518 0.784899,0.122088 0.08006,-0.03755 -0.450987,-1.16979599 -0.531048,-1.13224499 v 0 c 0.175005,0.037 0.470643,0.08978 0.568343,0.209605 0.115156,0.14123099 0.101147,0.35013899 0.15172,0.52520999 -0.08304,0.196084 -0.0025,0.0551 -0.0491,0.03556 -0.02877,-0.01206 -0.06777,0.01798 -0.0936,4.77e-4 -0.314964,-0.213462 -0.606298,-0.459957 -0.914195,-0.68349099 -0.03045,-0.02211 -0.06221,-0.05201 -0.09984,-0.0527 -0.05262,-9.79e-4 -0.100247,0.03206 -0.150371,0.04809 -0.0675,0.05095 -0.143344,0.0924 -0.202492,0.152844 C 14.692022,1.2421073 14.527382,1.6485403 14.4718,2.0652223 c -0.01669,0.125107 -0.01218,0.252686 -0.0039,0.378627 0.0047,0.07167 0.02856,0.140786 0.04284,0.211179 -0.06395,0.0599 0.783117,0.964277 0.847067,0.90438 z" />
    <path
       style="fill:#3a2524;fill-opacity:1;stroke-width:0.264583;stroke-dasharray:none"
       id="path9481"
       d="m 12.160145,6.6674323 c -0.05828,0.01321 -0.119849,0.01625 -0.174852,0.03962 -0.351937,0.14953 -0.59711,0.4544456 -0.755628,0.7925405 -0.03361,0.071688 -0.05853,0.1471369 -0.0878,0.2207056 -0.02854,0.080438 -0.0631,0.1589902 -0.08562,0.2413156 -0.06724,0.2457175 -0.08337,0.5798433 -0.04266,0.810338 0.02556,0.1447216 0.207425,0.3233608 0.320803,0.4025474 0.05837,0.040768 0.127174,0.064055 0.190761,0.096082 0.07868,0.029625 0.497646,-1.0830706 0.418967,-1.112696 v 0 c 0.03085,0.017066 0.06398,0.030536 0.09255,0.051194 0.04702,0.034002 0.172961,0.1450176 0.182562,0.2084422 0.02012,0.1328692 -0.0071,0.2688405 -0.0024,0.4031427 0.0011,0.030956 0.209443,-0.061481 0.07736,-0.051474 0.1279,-0.1153001 0.191348,-0.1629752 0.300948,-0.3088429 0.09089,-0.1209616 0.190098,-0.3020181 0.238507,-0.4444931 0.02745,-0.080798 0.05841,-0.2942629 0.07305,-0.3859686 0.06805,-0.052789 -0.678497,-1.0152394 -0.746553,-0.9624504 z" />
    <path
       style="fill:#3a2524;fill-opacity:1;stroke-width:0.264583;stroke-dasharray:none"
       id="path9483"
       d="m 0.85981302,9.4612283 c 0.03171,-0.011967 0.06587,-0.018791 0.09512,-0.035901 C 1.209354,9.276515 1.441047,8.9335505 1.540976,8.6645724 c 0.03151,-0.084822 0.04201,-0.1760313 0.06301,-0.2640468 0.0024,-0.073202 0.01238,-0.1465365 0.0073,-0.2196049 -0.01533,-0.2218505 -0.07605,-0.136497 -0.21162,-0.06988 -0.02722,0.013377 -0.07195,0.00644 -0.08436,0.034118 -0.0091,0.020405 0.04462,0.00317 0.06692,0.00476 0.266198,-0.043177 0.458901,-0.1156425 0.627659,-0.3364053 0.05975,-0.060652 0.03351,-0.035596 0.07753,-0.076398 C 2.145195,7.6941764 1.537951,6.8770403 1.480171,6.9199793 v 0 c -0.06217,0.05994 -0.03737,0.033577 -0.07652,0.077045 -0.05464,0.024749 -0.104902,0.055049 -0.154493,0.090984 -0.02843,0.00917 -0.05655,0.019388 -0.0853,0.027517 -0.07036,0.019892 -0.144631,0.027966 -0.21193898,0.056523 -0.21431,0.090926 -0.226732,0.1307078 -0.386182,0.271268 -0.167224,0.1474131 -0.06887,0.040133 -0.214425,0.2243145 -0.0298,0.059808 -0.06612,0.1167887 -0.08939,0.1794241 -0.02531,0.068125 -0.03626,0.1407654 -0.05562,0.2108168 -0.07261,0.2627548 -0.154187,0.5236361 -0.156407,0.7993769 -0.04271,0.057266 0.767162,0.6612472 0.80987,0.6039805 z" />
    <path
       style="fill:#21141d;fill-opacity:1;stroke-width:0.264583;stroke-dasharray:none"
       id="path10215"
       d="m 10.330452,4.0286393 c 0.05971,-0.152416 7.67e-4,-0.28252 -0.03961,-0.431668 -0.04537,-0.167531 -0.05439,-0.236185 -0.134771,-0.396756 -0.03045,-0.06082 -0.07114,-0.115949 -0.106717,-0.173924 -0.1120011,-0.145682 -0.2504086,-0.244608 -0.4188476,-0.313529 -0.1250733,-0.05118 -0.1882159,-0.07564 -0.3229433,-0.07865 -0.017515,-3.97e-4 -0.033579,0.01001 -0.050368,0.01502 0.080657,0.265139 0.1371762,0.538858 0.2419705,0.795416 0.00971,0.02378 0.046988,-0.02125 0.068541,-0.03522 0.1496663,-0.09704 0.22714,-0.222836 0.3136161,-0.373716 0.041317,-0.09876 0.066167,-0.146056 0.089375,-0.252678 0.020714,-0.09517 0.01248,-0.194762 0.015126,-0.2912 0.00327,-0.119129 0.00781,-0.238219 0.011721,-0.357329 -0.028189,-0.124785 -0.047408,-0.250116 -0.085845,-0.372524 -0.034581,-0.06375 -0.9361805,0.425296 -0.9015998,0.489049 v 0 c 0.012094,0.04142 0.020516,0.07776 0.039247,0.116454 0.00354,0.0073 0.00996,0.01288 0.014129,0.01985 0.00449,0.0075 0.011584,0.0322 0.011774,0.02346 2.45e-4,-0.01129 -0.00773,-0.02121 -0.011594,-0.03182 0.00403,-0.0967 0.013854,-0.193327 0.012097,-0.290092 -3.969e-4,-0.02164 -0.041196,0.01841 -0.054266,0.03566 -0.058931,0.07779 -0.088102,0.169467 -0.122636,0.259488 -0.023029,0.09173 -0.061908,0.190293 -0.044864,0.286527 0.0031,0.01749 0.012917,0.0331 0.019376,0.04965 0.00751,0.0092 0.019219,0.01628 0.022516,0.02772 0.078297,0.271668 0.1476303,0.54584 0.2214457,0.81876 -0.053865,0.0797 -0.1157264,-0.01708 -0.1558473,0.02583 -0.04356,0.04659 0.046305,0.252045 0.060757,0.289896 0.027314,0.04987 0.050999,0.101901 0.081943,0.1496 0.057783,0.08907 0.1217271,0.149911 0.186949,0.232064 0.020704,0.02608 0.035068,0.05731 0.058501,0.08097 0.030089,0.03037 0.084121,0.02973 0.1068009,0.07102 0.027388,0.0618 0.9014158,-0.325519 0.8740278,-0.387322 z" />
    <path
       style="fill:#21141d;fill-opacity:1;stroke-width:0.264583;stroke-dasharray:none"
       id="path10266"
       d="M 9.6784562,9.5512041 C 9.6002914,9.5855155 9.5166614,9.6093963 9.4439624,9.6541381 9.0791218,9.8786752 8.8076008,10.228823 8.6754232,10.63641 c -0.1113335,0.343312 -0.08888,0.540757 -0.0942,0.892072 0.1375786,0.690542 -0.012925,0.07053 0.1869009,0.625258 0.053073,0.147333 0.094133,0.29872 0.1411988,0.44808 0.025069,0.07209 1.0445713,-0.282428 1.0195034,-0.354518 v 0 c 0.041735,0.09579 0.038375,0.229251 0.1252047,0.287375 0.122604,0.08207 0.223787,-0.47025 0.261144,-0.35737 0.03157,-0.11851 0.07238,-0.234936 0.09471,-0.35553 0.05428,-0.293239 0.07673,-0.569297 0.0092,-0.864093 -0.02836,-0.123834 -0.128896,-0.372876 -0.254518,-0.468142 -0.03165,-0.024 -0.07634,-0.02194 -0.114517,-0.03291 0.06402,-0.02628 -0.3075894,-0.9317043 -0.3716127,-0.9054275 z" />
    <path
       style="fill:#21141d;fill-opacity:1;stroke-width:0.264583;stroke-dasharray:none"
       id="path10268"
       d="m 14.314276,12.303475 c 0.397818,0.0071 0.78841,-0.178367 1.089359,-0.429725 0.08497,-0.07097 0.156175,-0.15695 0.234262,-0.235425 0.102427,-0.147827 0.200671,-0.261204 0.255159,-0.433378 0.01275,-0.04027 0.007,-0.08419 0.01048,-0.126287 0.07363,-0.04303 -0.534856,-1.0842944 -0.608485,-1.041268 v 0 c -0.06822,0.01015 -0.138001,0.01275 -0.204667,0.03045 -0.214809,0.05701 -0.268155,0.112108 -0.462513,0.232745 -0.07864,0.07347 -0.164245,0.140132 -0.23593,0.220404 -0.239928,0.268671 -0.356611,0.592357 -0.501423,0.914022 -0.06141,0.02996 0.362349,0.898432 0.423759,0.868467 z" />
    <path
       style="fill:#21141d;fill-opacity:1;stroke-width:0.264583;stroke-dasharray:none"
       id="path10270"
       d="m 13.120538,6.8829043 c 0.356098,-0.02413 0.626216,-0.200745 0.882896,-0.439498 0.06799,-0.06325 0.128734,-0.133872 0.193102,-0.200808 0.066,-0.07214 0.136923,-0.140066 0.197986,-0.21643 0.157355,-0.196783 0.331525,-0.483117 0.43154,-0.715993 0.07558,-0.175974 0.08472,-0.251183 0.12619,-0.432359 0.0495,-0.07475 -1.007649,-0.774815 -1.057151,-0.700063 v 0 c -0.06708,0.07632 -0.113154,0.126042 -0.175761,0.211402 -0.03992,0.05442 -0.07601,0.111554 -0.114337,0.167108 -0.12591,0.182497 -0.255082,0.362685 -0.38154,0.5448 -0.28564,0.347686 -0.01397,0.01005 -0.274026,0.353069 -0.166858,0.220089 -0.120776,0.127916 -0.24496,0.363262 -0.02563,0.04857 -0.05558,0.09585 -0.07157,0.148383 -0.0096,0.03147 -0.0024,0.06575 -0.0036,0.09862 -0.05788,0.03474 0.433363,0.853244 0.49124,0.818508 z" />
    <path
       style="fill:#21141d;fill-opacity:1;stroke-width:0.264583;stroke-dasharray:none"
       id="path10272"
       d="m 11.691158,14.197607 c -0.04349,0.02833 -0.09168,0.05049 -0.130466,0.08498 -0.286673,0.254927 -0.453042,0.633047 -0.505972,1.008508 -0.0096,0.06786 -0.0036,0.137014 -0.0054,0.205521 0.04922,0.168301 0.06415,0.08997 0.166745,0.01908 -0.08863,8.94e-4 -0.07598,1.254329 0.01265,1.253435 v 0 c 0.115377,-0.0106 0.234427,-0.001 0.346131,-0.03181 0.235876,-0.06496 0.434485,-0.204075 0.638279,-0.330034 0.07536,-0.07575 0.162741,-0.1412 0.226087,-0.227251 0.221016,-0.300237 0.303529,-0.676235 0.292387,-1.04287 -0.0032,-0.104471 -0.02147,-0.208199 -0.04121,-0.310838 -0.01387,-0.07214 -0.03957,-0.141489 -0.05935,-0.212234 0.02945,-0.06646 -0.91039,-0.482943 -0.93984,-0.416486 z" />
    <path
       style="fill:#21141d;fill-opacity:1;stroke-width:0.264583;stroke-dasharray:none"
       id="path10274"
       d="m 7.2190123,10.803909 c 0.026947,-0.04954 0.065185,-0.09444 0.080841,-0.148615 0.079383,-0.274686 0.067964,-0.435989 0.021677,-0.7224438 C 7.2775433,9.6606275 7.2195637,9.4588793 7.0905862,9.2177492 7.0467022,9.1357052 6.9864322,9.0635413 6.9343551,8.9864375 6.9902331,9.0621595 6.715048,8.7591551 6.670288,8.8479064 6.620418,8.9467824 6.683978,9.0885185 6.615548,9.1755831 6.408746,9.4386932 6.156049,9.5741329 5.87517,9.4119404 5.92451,9.4590844 6.591222,8.7613276 6.541883,8.7141839 v 0 C 6.510253,8.6862529 6.485963,8.6465859 6.447003,8.6303899 6.130506,8.4988328 5.935439,8.5048975 5.671897,8.8575657 5.587217,8.9708872 5.638587,9.1389395 5.609057,9.2772901 5.575177,9.435994 5.468234,9.575153 5.479754,9.7466427 c 0.0044,0.1237678 -0.0044,0.2487146 0.01322,0.3713033 0.0461,0.321006 0.130067,0.560883 0.308388,0.834477 0.077323,0.118635 0.166121,0.232292 0.27198,0.32635 0.191313,0.169983 0.33464,0.205141 0.554904,0.28675 0.053854,0.04177 0.644622,-0.71984 0.5907679,-0.761614 z" />
    <path
       style="fill:#21141d;fill-opacity:1;stroke-width:0.264583;stroke-dasharray:none"
       id="path10276"
       d="m 5.304958,13.85204 c -0.04482,-0.0086 -0.08887,-0.02356 -0.134452,-0.0257 -0.306031,-0.01433 -0.663265,0.138314 -0.910622,0.307741 -0.07418,0.05081 -0.140503,0.112223 -0.210754,0.168334 -0.153073,0.145895 -0.237042,0.291368 -0.308976,0.48567 -0.01887,0.05096 -0.04497,0.100287 -0.05368,0.153923 -0.02774,0.170764 -0.03677,0.344047 -0.05516,0.51607 0.02301,0.06208 0.900939,-0.263373 0.877926,-0.325452 v 0 c -0.02016,0.157725 -0.04313,0.315116 -0.06048,0.473175 -0.0023,0.02147 -0.01629,0.05243 0.0014,0.06478 0.02342,0.01632 0.0577,0.0021 0.08554,-0.0042 0.123671,-0.02797 0.175566,-0.07054 0.289253,-0.135208 0.25726,-0.20205 0.503478,-0.42449 0.684392,-0.69983 0.06925,-0.01445 -0.135172,-0.993781 -0.204421,-0.979326 z" />
    <path
       style="fill:#21141d;fill-opacity:1;stroke-width:0.264583;stroke-dasharray:none"
       id="path10278"
       d="m 1.331045,12.389824 c 0.44899,-0.123788 0.777292,-0.342486 1.078272,-0.704448 0.107889,-0.129749 0.211566,-0.264809 0.29443,-0.411806 0.08431,-0.149568 0.136175,-0.315236 0.204262,-0.472853 0.02975,-0.156866 0.0595,-0.313732 0.08924,-0.470597 C 3.060879,10.214592 1.427068,9.3147018 1.363436,9.4302297 v 0 C 1.313246,9.5316548 1.263052,9.6330799 1.21286,9.7345048 1.16972,9.8643387 1.11945,9.9920187 1.083439,10.124006 c -0.01701,0.06233 -0.14990498,0.696483 -0.16516698,0.782832 -6.03e-4,0.0034 -0.07142,0.440461 -0.0539,0.499234 0.01172,0.03935 0.06337,0.05222 0.09506,0.07832 -0.06402,0.02628 0.30758998,0.931705 0.37161298,0.905427 z" />
    <path
       style="fill:#21141d;fill-opacity:1;stroke-width:0.264583;stroke-dasharray:none"
       id="path10280"
       d="m 3.700808,2.7769273 c 0.01098,-0.02688 0.02866,-0.05191 0.03293,-0.08063 0.01605,-0.10793 -0.01896,-0.235468 -0.05425,-0.335943 -0.01648,-0.04691 -0.04969,-0.08935 -0.05451,-0.138839 -0.0068,-0.07004 0.01368,-0.140077 0.02051,-0.210116 -0.04057,-0.479574 -0.186159,-0.873147 -0.60078,-1.14871399 -0.03837,-0.0255 -0.08209,-0.04185 -0.123126,-0.06277 -0.03582,-0.01557 -0.0694,-0.03787 -0.107448,-0.0467 -0.03364,-0.0078 -0.0137,0.03725 -0.01065,0.05811 0.019,0.129959 0.03634,0.26015499 0.05451,0.39023199 0.02025,-0.06316 -0.87295,-0.34957899 -0.893203,-0.28641999 v 0 c 0.01713,0.14491599 0.02869,0.29059899 0.05138,0.43474799 0.0107,0.06798 0.05613,0.127304 0.06711,0.195241 0.0041,0.02555 -0.0043,0.05159 -0.0064,0.07739 0.02188,0.159765 0.03672,0.321775 0.09125,0.474963 0.07817,0.219571 0.202948,0.413001 0.359816,0.584402 0.04581,0.0387 0.09666,0.07212 0.137427,0.116093 0.0089,0.0096 0.01976,0.106506 0.02141,0.115851 0.01518,0.08589 0.03618,0.15374 0.09691,0.219352 0.02519,0.06485 0.94227,-0.291403 0.917079,-0.356251 z" />
    <path
       style="fill:#967952;fill-opacity:1;stroke-width:0.298916;stroke-dasharray:none"
       id="path20592"
       d="m 16.903708,7.6674748 c -0.200089,0.038888 -0.210919,-0.4694235 -0.376621,-0.4321962 -0.129584,0.029114 -0.0961,0.3953011 -0.226681,0.4156838 -0.128387,0.02004 -0.160064,-0.3060714 -0.287363,-0.335449 -0.100738,-0.023248 -0.161409,0.1763731 -0.260566,0.2089985 -0.08265,0.027195 -0.169368,-0.026448 -0.254051,-0.039675 -0.076,0.094092 -0.123736,0.2619149 -0.228008,0.2822785 -0.08167,0.015951 -0.111571,-0.1822955 -0.193027,-0.200053 -0.05931,-0.012932 -0.0927,0.11354 -0.152209,0.1247897 -0.03852,0.00728 -0.06519,-0.09877 -0.100267,-0.077071 -0.129554,0.080109 -0.05818,0.1398118 -0.02168,0.1748693 -0.09938,0.2800827 0.0763,-0.1621239 -0.07554,-0.04473 -0.08447,0.065316 -0.0868,0.2682474 -0.182319,0.2995196 -0.06052,0.019813 -0.06435,-0.1378619 -0.09264,-0.2094962 -0.04087,-0.103545 -0.04556,-0.2409073 -0.114637,-0.3156347 -0.03369,-0.036444 -0.08292,0.038078 -0.124362,0.057117 -0.128474,0.1366472 -0.08427,0.1657966 -0.220829,0.040244 -0.03882,-0.035697 -0.06124,-0.1144166 -0.108784,-0.1197493 -0.03166,-0.00355 -0.02236,0.093075 -0.05344,0.1015497 -0.02172,0.00592 -0.0081,-0.058411 -0.02159,-0.081091 -0.0064,-0.010778 -0.02073,-0.00495 -0.0311,-0.00742 -0.322133,0.5487167 0.05923,-0.034806 -0.05147,-0.2704873 -0.04646,-0.098911 -0.126217,0.1688673 -0.204197,0.226208 -0.01939,0.014261 -0.05817,-0.00173 -0.0629,-0.029812 -0.01388,-0.082441 0.05118,-0.1816267 0.01537,-0.2522921 -0.02394,-0.047286 -0.08669,0.017306 -0.130042,0.025963 -0.08682,0.032227 -0.240785,0.1384789 -0.332576,0.014506 -0.03599,-0.048617 -0.06328,-0.4151848 -0.231455,-0.2907908 -0.08089,0.05983 -0.07922,0.316898 -0.169515,0.2866285 -0.101442,-0.034009 -0.07234,-0.2532227 -0.108502,-0.3798345 -0.216381,0.8687941 0.01174,0.344635 -0.226138,0.2097982 -0.03326,-0.018856 -0.0099,0.12465 -0.04613,0.1271581 -0.08688,0.00601 -0.07711,-0.2279693 -0.195269,-0.1530703 -0.03477,0.022034 -0.03507,0.088939 -0.05261,0.1334081 -0.19373,0.045975 0.06228,0.010855 -0.164761,-0.074293 -0.02276,-0.00854 -0.04258,0.039762 -0.06593,0.034366 -0.03981,-0.0092 -0.06978,-0.095486 -0.106728,-0.074288 -0.245922,0.1411223 0.0084,0.4331232 -0.253589,-0.029849 -0.03076,0.026344 -0.06153,0.052688 -0.09228,0.079032 -0.02374,0.036107 -0.04243,0.078948 -0.07123,0.1083228 -0.02862,0.029181 -0.06797,0.036501 -0.09766,0.06387 -0.02792,0.025764 -0.04173,0.1116639 -0.0731,0.093583 -0.201995,-0.1164249 0.04349,-0.2865128 -0.160447,-0.099171 -0.09704,-0.036389 0.0027,0.3139154 -0.06211,0.2704172 -0.05016,-0.033691 -0.0053,-0.1779842 -0.05785,-0.2053222 -0.04095,-0.021352 -0.04494,0.1070604 -0.08509,0.1307955 -0.140305,0.082942 -0.155665,-0.2635727 -0.216064,-0.5034154 -0.245259,1.4749705 0.06786,0.088349 -0.181757,0.2244032 -0.08924,0.048645 -0.03088,0.2571528 -0.09034,0.3556517 -0.02955,0.048943 -0.199429,-0.062863 -0.2166557,-0.077393 -0.032599,-0.0275 -0.058827,-0.065842 -0.088236,-0.098764 -0.021299,0.00901 -0.049672,0.00472 -0.063895,0.027018 -0.027772,0.043603 -0.023362,0.1128801 -0.052312,0.1552319 -0.096338,0.1409273 -0.1193244,-0.300796 -0.2490158,-0.2273321 -0.057866,0.032779 -0.060253,0.1430545 -0.09038,0.2145815 -0.031919,-0.06515 -0.048984,-0.1474015 -0.095759,-0.195451 -0.017378,-0.017852 -0.047153,0.012034 -0.061178,0.034239 -0.021468,0.033995 -0.00635,0.139567 -0.037602,0.1221792 C 9.2088115,7.4636157 9.2479054,7.287485 9.2151835,7.3240581 9.1748475,7.3691441 9.2330655,7.6484332 9.1986775,7.4699719 9.0458846,7.1299348 9.0884578,7.639003 9.0343125,7.595724 8.5315712,7.1938782 9.3346273,7.161497 8.9402815,7.606219 8.7297241,7.8436731 8.9743315,7.0306311 8.8521065,7.472246 c -0.030794,0.020748 -0.072771,0.025319 -0.092383,0.062249 -0.034359,0.064698 -0.019112,0.1631862 -0.058863,0.2225506 -0.021289,0.03179 -0.06496,0.00754 -0.097464,0.010906 -0.026454,0.00274 -0.052937,0.00499 -0.079407,0.00747 C 8.4825985,7.7176556 8.4608005,7.5980539 8.3998187,7.6021098 8.3478077,7.6055698 8.3597397,7.7258268 8.3397007,7.7876854 8.2014195,7.9939237 8.3205097,7.8983719 8.139215,7.8054674 8.106072,7.7884824 8.065039,7.8137074 8.0325107,7.7948574 7.9779717,7.7632544 7.9416387,7.6275952 7.887178,7.6594225 7.817603,7.7000825 7.872891,7.9548057 7.798648,7.9315299 7.68394,7.8955679 7.6579493,7.6875112 7.5876003,7.5655015 7.6710983,8.8395294 7.740721,8.0538229 7.5358803,8.059646 7.5094123,8.060392 7.5009013,8.133611 7.4751793,8.125554 7.4259933,8.110149 7.4060383,8.0174106 7.3565864,8.0034876 c -0.08106,-0.022824 -0.056618,0.1454727 -0.054524,0.2576519 -0.036513,-0.016921 -0.0157,0.038883 -0.00546,0.038891 0.063963,5.11e-5 0.053124,-0.2007129 0.011057,-0.225572 -0.03114,-0.018402 -0.065788,0.024702 -0.098683,0.037054 -0.04165,-0.055726 -0.065355,-0.1573357 -0.1249487,-0.1671773 -0.060171,-0.00993 -0.1029592,0.082714 -0.155917,0.1207938 -0.04992,0.035897 -0.09591,0.090883 -0.15255,0.1010101 -0.04413,0.00789 -0.0853,-0.033217 -0.127676,-0.050913 -0.02451,-0.01024 -0.0545,-0.00973 -0.07296,-0.032863 -0.0083,-0.010419 0.02099,-0.012739 0.03149,-0.019107 0.01073,0.044916 -0.0034,0.1241311 0.0322,0.1347448 0.04088,0.012201 0.07049,-0.059251 0.102183,-0.09465 0.01941,-0.021684 0.07194,-0.092927 0.05011,-0.075445 -0.09534,0.076362 -0.186688,0.3463891 -0.273034,0.2539878 -0.606573,-0.6491171 0.5711264,-0.4136239 -0.142864,-0.5018966 -0.04428,-4.747e-4 -0.09501,-0.031053 -0.132844,-0.00142 -0.07644,0.059833 -0.09555,0.2507286 -0.18503,0.2502383 -0.07134,-4.069e-4 -0.05563,-0.1691708 -0.08684,-0.2517272 -0.02679,-0.070878 -0.04375,-0.1524848 -0.08703,-0.2082481 -0.06396,-0.082391 -0.170169,-0.09475 -0.252735,-0.1142616 -0.05296,0.048981 -0.107724,0.094889 -0.158883,0.1469433 -0.232915,0.2369912 -0.112814,0.2546149 -0.197621,-0.1863232 -0.01355,-0.070441 -0.0028,-0.2272511 -0.05655,-0.2051743 -0.493466,0.2028004 0.03686,0.3486584 -0.218019,0.2632041 -0.330472,0.1964971 0.140252,-0.037084 -0.194754,-0.035506 -0.04391,2.065e-4 -0.07379,0.1304396 -0.108586,0.095968 -0.0701,-0.06945 -0.02963,-0.2608947 -0.108895,-0.311445 -0.05336,-0.034028 0.0062,0.1604294 -0.02163,0.2282028 -0.01488,0.036282 -0.05973,0.028689 -0.0896,0.043035 -0.05629,-0.011637 -0.11187,-0.035956 -0.168879,-0.034919 -0.215331,0.00392 -0.04378,0.030755 -0.153112,0.1533595 -0.01065,0.011944 -0.02339,-0.029791 -0.02063,-0.047611 0.0087,-0.05611 0.01507,-0.1268197 0.05244,-0.1578174 0.02218,-0.018402 0.0122,0.066087 0.01831,0.099131 -0.0091,-0.00852 -0.01745,-0.032735 -0.02721,-0.025574 -0.0451,0.0331 -0.06653,0.1450212 -0.117408,0.1317027 -0.121031,-0.031684 0.07306,-0.2435067 -0.03226,-0.2890048 -0.349502,-0.1509757 0.111205,0.3079602 -0.17767,-0.012533 -0.140894,0.099352 -0.140626,0.1604929 -0.286855,0.058367 -0.07578,-0.052925 -0.127591,-0.1699601 -0.212399,-0.1899746 -0.268095,-0.063269 0.01653,0.4492324 -0.110955,0.2823393 0.218451,0.088388 -0.0303,-0.3633868 -0.09847,-0.299636 -0.03458,0.032332 -0.0426,0.1032861 -0.0807,0.1282223 -0.06005,0.039307 -0.07951,-0.083311 -0.15854,0.011739 0.0038,0.038427 0.0056,0.077253 0.01131,0.1152817 0.04444,0.2958307 0.02333,-0.055494 -0.05321,-0.034453 -0.04613,0.012688 -0.0068,0.128988 -0.0368,0.1758277 -0.01285,0.020057 -0.01712,-0.051727 -0.03511,-0.063555 -0.03753,-0.024676 -0.08168,-0.026734 -0.122516,-0.040098 -0.0088,0.2672807 0.01205,-0.015889 -0.02639,0.029985 -0.03262,0.038923 0.04519,0.1541575 -0.0067,0.1304874 -0.09425,-0.043012 0.102184,-0.205411 -0.103252,0.025416 -0.04099,-0.03425 -0.08431,-0.064267 -0.12297,-0.1027517 -0.05555,-0.055303 -0.156507,-0.231076 -0.257236,-0.1876241 -0.04828,0.020826 -0.06542,0.1005092 -0.09593,0.1529629 -0.02883,0.049562 -0.03401,0.148018 -0.08197,0.1528685 -0.05458,0.00552 -0.08568,-0.087721 -0.128527,-0.1315819 0.0054,0.071174 0.03115,0.1446326 0.01623,0.2135206 -0.0054,0.024977 -0.03733,-0.036061 -0.05644,-0.027856 -0.02029,0.00871 -0.02973,0.041746 -0.0366,0.067804 -0.0034,0.012926 0.01333,0.05155 0.0083,0.039549 -0.03427,-0.081312 -0.0305,-0.2109934 -0.09627,-0.2483205 -0.04492,-0.025496 -0.0052,0.1261803 -0.0078,0.1892696 -0.02334,0.099658 -0.0048,0.2374148 -0.07002,0.2989748 -0.04063,0.038354 -0.07066,-0.099694 -0.118158,-0.1213628 -0.03531,-0.016109 -0.07561,0.02966 -0.11165,0.016517 -0.04496,-0.016395 -0.07006,-0.098517 -0.116782,-0.099812 -0.03626,-0.00102 -0.0756,0.048089 -0.08038,0.094347 -0.01353,0.1308729 0.01992,0.2627987 0.02989,0.394197 -0.146519,0.3487398 -0.29598698,-0.2421408 -0.202667,-0.2586068 0.05406,-0.00953 0.101787,0.051851 0.149292,0.086395 0.03846,0.027968 0.06352,0.1081074 0.107267,0.1001629 0.03671,-0.00666 0.03262,-0.085689 0.04893,-0.1285322 -5.8e-5,0.043147 0.02388,0.099374 -1.74e-4,0.1294396 -0.01739,0.021736 -0.03289,-0.04713 -0.04297,-0.0755 -0.02707,-0.076177 -0.0043,-0.2549857 -0.06762,-0.23574 -0.083,0.025217 -0.03848,0.2524698 -0.117999,0.292131 -0.05309,0.026479 -0.04889,-0.133737 -0.08407,-0.191346 -0.02307,-0.03778 -0.05842,-0.059865 -0.08763,-0.089799 -0.161588,-0.1035951 -0.07774,-0.092488 -0.14756,0.2874802 -0.0031,0.016951 -2.28e-4,-0.044389 0.01268,-0.049641 0.02316,-0.00943 0.05148,-0.00169 0.07191,0.015215 0.0668,0.055264 0.03473,0.1319416 0.05966,0.04918 0.22029,-0.4285733 0.162903,-0.186739 0.08728,-0.2125897 -0.02631,-0.009 -0.06193,-0.00442 -0.07751,-0.033156 -0.03107,-0.057305 -0.008,-0.1539838 -0.04887,-0.1999583 -0.0273,-0.030699 -0.07139,0.0164 -0.107088,0.024599 -0.03072,-0.037446 -0.06144,-0.074891 -0.09215,-0.1123379 -0.038,0.036008 0.04627,-0.044005 -0.08156,0.082174 -0.303566,0.2996484 0.166001,-0.1086932 -0.168386,-0.2804634 -0.303446,-0.1558758 0.06377,0.8391988 -0.184739,0.047721 0.0078,0.00674 0.407485,0.3195091 0.04582,0.3321179 -0.073,0.00254 0.01422,-0.188069 0.0081,-0.2817103 -0.002,-0.03124 -0.02077,-0.1124662 -0.03193,-0.084597 -0.13419,0.3352632 -0.06536,0.6686998 -0.12554,0.060916 -0.02496,0.020796 -0.04991,0.041592 -0.07487,0.062387 -0.02126,0.073798 -0.01756,0.1698388 -0.06377,0.2213934 -0.02245,0.025045 -0.03214,-0.064313 -0.04821,-0.096471 -0.08732,0.0034 -0.05008,1.5923875 0.03724,1.5889994 v 0 c 0.05105,0.3198047 0.0092,-0.4173051 0.05148,-0.1313669 0.04506,-0.063962 -0.0063,-0.00214 0.02313,0.1142988 0.0035,0.013783 0.02312,0.024886 0.03161,0.015361 0.0293,-0.032874 0.02694,-0.1171759 0.06542,-0.124231 0.209588,-0.038422 -0.123822,0.4849017 0.169746,-0.099705 -0.03864,0.028225 -0.01905,0.020308 -0.0711,0.093746 -0.01476,0.020819 -0.02899,0.043151 -0.04722,0.058782 -0.0081,0.00695 0.01044,-0.021146 0.01567,-0.031718 0.0053,0.053926 0.01054,0.1078511 0.0158,0.161777 -0.0084,-0.024447 -0.0081,-0.05798 -0.02509,-0.073343 -0.0088,-0.008 -0.01444,0.020704 -0.02165,0.031056 0.02933,-0.086062 0.05865,-0.1721238 0.08798,-0.2581856 0.01069,-0.023112 0.05847,-0.070404 0.05218,-0.044753 -0.02962,0.1208508 -0.135829,0.2180903 -0.125551,0.3441169 0.0056,0.0692 0.0975,-0.060196 0.146253,-0.090293 0.09093,0.2419523 -0.03589,-0.008 0.220624,0.081826 0.05356,0.018759 0.0742,0.1254062 0.129181,0.1352431 0.03828,0.00684 0.06929,-0.1393805 0.08858,-0.096285 0.04653,0.1039295 -0.05767,0.3124466 0.02857,0.3579479 0.07762,0.040949 0.03119,-0.2121268 0.04678,-0.3181903 0.0176,0.031015 0.0429,0.05682 0.05281,0.093049 0.02262,0.082685 -0.02496,0.2507317 0.04299,0.2570979 0.06928,0.00648 0.03981,-0.1766926 0.08447,-0.245155 0.01316,-0.020178 0.04412,0.00755 0.05763,0.027354 0.02699,0.039555 0.01684,0.127795 0.05661,0.140095 0.04433,0.013709 0.07967,-0.057084 0.119512,-0.085627 0.0497,-0.016463 0.0997,-0.067308 0.149096,-0.049386 0.08772,0.031833 0.152021,0.2451031 0.231396,0.1874564 0.08828,-0.064116 -0.0027,-0.2713468 0.04374,-0.3872773 0.02168,-0.054063 0.09067,-0.035042 0.134589,-0.057542 0.03545,-0.018161 0.06734,-0.046862 0.103047,-0.064183 0.01013,-0.00491 -0.01678,0.017605 -0.02517,0.026408 -0.02088,0.029029 -0.03494,0.1041948 -0.06265,0.087085 -0.04947,-0.030538 -0.06581,-0.1146192 -0.08724,-0.1796173 -0.0052,-0.015868 0.0016,-0.060724 0.01172,-0.049468 0.06367,0.070633 0.02989,0.2383977 0.120434,0.2851449 0.01957,0.01989 4.5e-5,-0.064193 6.7e-5,-0.09629 0.06032,-0.033543 0.118372,-0.074244 0.180207,-0.1028684 0.03819,-0.017679 0.0849,-0.011816 0.116867,-0.044008 0.02172,-0.021882 0.01008,-0.072555 0.02685,-0.1007422 0.06242,-0.1049023 0.134137,0.059528 0.168059,0.098473 -0.114633,-0.7872724 -0.07669,-0.2972895 0.06862,-0.1028068 0.03808,0.050963 -0.01805,-0.1750307 0.03036,-0.2084637 0.05438,-0.037554 0.108352,0.1025518 0.120549,0.1252268 0.01573,-0.055955 0.0017,-0.1570112 0.04718,-0.1678667 0.04758,-0.011355 0.05515,0.1203376 0.102671,0.1320879 0.03274,0.0081 0.04227,-0.070465 0.07241,-0.088802 0.02387,-0.014523 0.05435,0.00818 0.07918,-0.00341 0.06918,-0.032294 0.06645,-0.088471 0.08573,-0.1664394 -0.01185,0.033984 -0.0291,0.065639 -0.03555,0.1019495 -0.0015,0.00834 0.01827,2.588e-4 0.0189,-0.00827 0.0022,-0.029093 0.0045,-0.1066157 -0.01187,-0.086332 -0.07199,0.089308 0.02698,0.1730797 0.07982,0.1689503 0.02976,-0.00235 0.04828,-0.045045 0.07242,-0.067567 0.09022,-0.067824 0.04232,-0.061869 0.144243,-0.00832 0.02866,-0.01247 0.02782,-0.1231647 0.05033,-0.09717 0.05373,0.062022 0.02589,0.3054164 0.08667,0.2553343 0.07776,-0.06407 -0.01947,-0.2561197 0.03298,-0.3539148 0.02493,-0.046485 0.08069,0.044458 0.121042,0.066687 0.04959,0.075155 0.0836,0.2773053 0.148777,0.2254663 0.07022,-0.055852 0.01328,-0.2299115 -0.03578,-0.3153399 -0.02933,-0.051068 0.0087,0.1940635 -0.03998,0.1834282 -0.08211,-0.017951 -0.116251,-0.153524 -0.174377,-0.2302862 -0.038,0.037685 -0.06623,0.1072206 -0.113989,0.113053 -0.02638,0.00322 0.0091,-0.067197 0.01362,-0.1007947 -0.01271,0.071591 -0.07853,0.2744478 0.02296,0.3343503 0.05191,0.030636 0.115136,-0.039451 0.170507,-0.021468 0.159651,0.051854 0.259161,0.4103622 0.448932,0.3723564 0.729951,-0.6619693 -0.335027,0.1672661 0.500711,0.028168 0.08096,-0.013476 0.05784,-0.1964662 0.08675,-0.2946997 0.01223,-0.046461 -5.8e-4,-0.1290613 0.03669,-0.1393824 0.03566,-0.00988 0.0402,0.1409002 0.06794,0.1104066 0.03152,-0.034656 -0.01733,-0.1043473 -0.02599,-0.1565208 0.02379,0.061159 0.02738,0.1450883 0.07137,0.1834773 0.02257,0.0197 0.05797,-0.030887 0.06438,-0.065003 0.01478,-0.078621 0.02837,-0.1752925 -0.0066,-0.2425142 -0.02646,-0.050872 -0.01705,0.1204478 -0.02557,0.1806717 -0.01201,0.00832 -0.02651,0.037495 -0.03605,0.02494 -0.0098,-0.012875 0.01191,-0.032587 0.01787,-0.048878 0.01668,0.019416 0.02901,0.048004 0.05004,0.058246 0.02949,0.014356 0.0725,-0.017565 0.09413,0.011944 0.04544,0.061986 0.02493,0.1937835 0.08432,0.2314777 0.04743,0.0301 0.09196,-0.1015381 0.143593,-0.086826 0.091272,0.025993 0.088243,0.2693582 0.2245963,0.2158924 0.228447,0.011906 0.121199,0.058344 0.299593,-0.2054107 0.06001,-0.00454 0.05124,0.1458431 0.09752,0.1952022 0.07782,0.082988 0.181651,-0.066907 0.237483,-0.1056225 -0.02491,0.062685 -0.04326,0.1304642 -0.07473,0.1880533 -0.01179,0.021573 7.12e-4,-0.057001 0.01405,-0.07702 0.0062,-0.00925 0.01375,0.019094 0.02305,0.021352 0.04281,0.010394 0.10228,-0.027282 0.130117,0.015842 0.399945,0.6195743 -0.289714,0.00532 0.239972,0.4229259 0.05987,0.043477 0.134878,0.063264 0.179617,0.1304328 0.06059,0.090964 0.04442,0.3884365 0.12243,0.3230455 0.05702,-0.0478 0.0158,-0.6929608 0.273792,-0.5579711 0.05953,0.031149 0.075904,0.16557 0.1400546,0.1704905 0.060408,0.00463 0.093207,-0.099349 0.1398111,-0.149024 0.019929,0.017436 0.2094606,0.1950709 0.246899,0.1823973 0.057859,-0.019585 0.07725,-0.1209502 0.1277532,-0.1622212 0.036092,-0.029493 0.094823,-0.00282 0.1237702,-0.04332 0.033194,-0.04643 -0.011035,-0.185915 0.037934,-0.1828672 0.069854,0.00434 0.09712,0.129529 0.1456801,0.1942934 -0.028327,-0.1114857 -0.070024,-0.218753 -0.084978,-0.3344566 -0.00452,-0.034991 0.036363,0.053478 0.05239,0.082338 0.015181,0.027333 0.1333833,0.2762684 0.138475,0.2705687 0.1836192,-0.2055517 -0.1522578,-0.4318246 0.1514607,-0.162078 0.04217,0.00997 0.084828,0.042861 0.126508,0.029921 0.033052,-0.010265 0.055376,-0.05432 0.072884,-0.091826 0.033931,-0.072691 0.013001,-0.2306513 0.078866,-0.2332701 0.083535,-0.00332 0.1019107,0.2567647 0.1812392,0.2229284 0.1090647,-0.04652 -0.01536,-0.335436 0.052904,-0.4383098 0.043332,0.1107078 0.075096,0.2302665 0.129995,0.3321219 0.00766,0.014218 0.020735,-0.022111 0.031851,-0.031847 0.011501,-0.010073 0.033578,-0.00979 0.035874,-0.027453 0.010424,-0.080166 -0.01124,-0.163725 -6.061e-4,-0.2438438 0.00574,-0.04332 0.016757,-0.1326466 0.048423,-0.1161866 0.042398,0.022037 0.031365,0.1105438 0.047048,0.1658159 0.1304449,-0.3659911 0.021737,-0.1948099 0.1663097,0.081912 0.01458,0.027906 0.064269,0.059558 0.0751,0.028955 0.03126,-0.088335 -0.014264,-0.202228 0.017397,-0.2903264 0.023951,-0.066642 0.093363,0.6343455 0.010085,-0.092176 0.017637,0.091625 0.035274,0.1832505 0.05291,0.2748758 0.02077,-0.00754 0.044166,-0.037635 0.062308,-0.022599 0.032732,0.027127 0.040555,0.167377 0.063068,0.1265045 0.047362,-0.085981 -0.0065,-0.2246411 0.039179,-0.3121234 0.024147,-0.046257 0.1153883,0.3001179 0.1299106,-0.00153 0.024256,0.011867 0.049217,0.021565 0.072765,0.035591 0.022546,0.013431 0.040979,0.053908 0.065157,0.046564 0.037603,-0.011419 0.051643,-0.097697 0.090157,-0.093744 0.041771,0.00429 0.053558,0.1377631 0.090493,0.1122906 0.1699177,-0.1171849 -0.032359,-0.5657169 0.1654247,0.066727 0.02279,0.030537 0.04667,0.059774 0.06835,0.091614 0.02387,0.035067 0.03807,0.1348412 0.06818,0.1089187 0.05168,-0.044486 0.01726,-0.1748602 0.06604,-0.2244675 0.03186,-0.032393 0.07787,0.033224 0.118358,0.036932 0.244863,0.022437 -0.002,-0.087197 0.254451,0.06168 0.03627,-0.072062 0.06147,-0.1556993 0.108832,-0.2161871 0.03873,-0.049478 0.235681,-0.088956 0.285761,-0.063811 0.04076,0.020467 0.05961,0.1012113 0.103309,0.1042128 0.0274,0.0019 0.02472,-0.063045 0.0371,-0.094568 0.168313,0.051096 0.03935,0.010676 0.13523,-0.1855099 0.0128,-0.026163 0.04854,-0.047292 0.06827,-0.02967 0.05045,0.045063 0.06481,0.1370024 0.110716,0.1895208 0.02917,0.033389 0.07162,0.040063 0.107425,0.060096 0.03247,-0.018561 0.07,-0.026571 0.09741,-0.055679 0.03391,-0.036037 0.03712,-0.1357588 0.08108,-0.1339596 0.05426,0.0022 0.06539,0.1396358 0.119635,0.1421732 0.05207,0.00245 0.06865,-0.1501519 0.118581,-0.1310299 0.08074,0.030918 0.08887,0.2731454 0.169392,0.241306 0.09109,-0.03602 0.0642,-0.2309151 0.09631,-0.3463725 0.04904,0.049292 0.08526,0.156554 0.147104,0.1478782 0.04677,-0.00656 0.03154,-0.1145909 0.04003,-0.1741257 0.01083,-0.075983 -4.21e-4,-0.1569773 0.01769,-0.2306341 0.0038,-0.015625 0.03426,-0.012047 0.03811,0.00358 0.02357,0.096163 0.0066,0.2054842 0.03606,0.2989253 0.02212,0.070143 -0.0088,-0.150964 -0.01321,-0.2264458 0.01004,-0.031623 0.01861,-0.1256625 0.0301,-0.094865 0.02566,0.068863 0.01295,0.1518317 0.01943,0.2277474 0.01877,-0.00129 0.04375,-0.021793 0.05634,-0.00382 0.02806,0.040062 0.0049,0.1412743 0.04634,0.1504119 0.07492,0.016575 0.09575,-0.2095909 0.193775,-0.15472 -0.0072,0.2391208 -0.0961,0.3851282 0.121013,0.3709977 0.0516,-0.00336 0.107238,-0.097425 0.148455,-0.057338 0.0428,0.041632 -0.02301,0.148478 0.0055,0.2070175 0.05367,0.1104348 0.248489,0.012265 0.290934,-3.729e-4 0.25264,0.1242861 0.126971,0.036648 0.368696,0.2817577 0.211448,0.118114 0.137244,-0.015975 0.295361,-0.042824 0.03035,-0.00515 0.06267,0.043463 0.08976,0.025119 0.04015,-0.027181 0.054,-0.093822 0.08102,-0.140733 0.02379,-0.010547 0.05098,-0.012662 0.07138,-0.031629 0.02533,-0.023569 0.03215,-0.1069079 0.06105,-0.091589 0.05616,0.029775 -0.02578,0.3515407 -0.0022,0.3520438 0.06986,0.00149 0.102857,-0.1217691 0.154288,-0.182654 0.02548,0.020677 0.228596,0.180966 0.248919,0.215491 0.05125,0.087054 0.04238,0.2381847 0.11653,0.2913067 0.05383,0.038572 0.122046,-0.039284 0.172992,-0.083898 0.08084,-0.070796 0.117988,-0.245413 0.21541,-0.2562464 0.09892,-0.010996 0.168056,0.1361727 0.252084,0.2042594 0.09189,-0.043379 0.17784,-0.1342477 0.275664,-0.1301373 1.076597,0.045233 -0.482462,0.2799412 0.598363,0.2440716 0.564378,-0.018731 -0.01175,-0.1825093 0.467272,-0.4988062 0.05697,-0.037617 0.09548,0.1098184 0.143221,0.1647284 0.0955,-0.00938 -0.0076,-1.7473632 -0.103053,-1.7379862 z" />
  </g>
</svg>
