<?xml version="1.0" encoding="UTF-8" standalone="no"?>
<!-- Created with Inkscape (http://www.inkscape.org/) -->

<svg
   width="64.457153"
   height="63.999996"
   viewBox="0 0 17.054288 16.933332"
   version="1.1"
   id="svg5"
   inkscape:version="1.2.2 (732a01da63, 2022-12-09)"
   sodipodi:docname="tiles_vine_right.svg"
   xmlns:inkscape="http://www.inkscape.org/namespaces/inkscape"
   xmlns:sodipodi="http://sodipodi.sourceforge.net/DTD/sodipodi-0.dtd"
   xmlns="http://www.w3.org/2000/svg"
   xmlns:svg="http://www.w3.org/2000/svg">
  <sodipodi:namedview
     id="namedview7"
     pagecolor="#ffffff"
     bordercolor="#000000"
     borderopacity="0.25"
     inkscape:showpageshadow="2"
     inkscape:pageopacity="0.0"
     inkscape:pagecheckerboard="true"
     inkscape:deskcolor="#d1d1d1"
     inkscape:document-units="px"
     showgrid="true"
     showguides="true"
     inkscape:zoom="7.796875"
     inkscape:cx="25.587174"
     inkscape:cy="32.256513"
     inkscape:window-width="958"
     inkscape:window-height="1008"
     inkscape:window-x="946"
     inkscape:window-y="0"
     inkscape:window-maximized="0"
     inkscape:current-layer="layer1">
    <inkscape:grid
       type="xygrid"
       id="grid88"
       spacingx="2.1166666"
       spacingy="2.1166666"
       empspacing="8" />
  </sodipodi:namedview>
  <defs
     id="defs2" />
  <g
     inkscape:label="Layer 1"
     inkscape:groupmode="layer"
     id="layer1"
     transform="translate(0.06047764,-0.06047821)">
    <circle
       id="path5383"
       style="fill:#3b2625;stroke:#000000;stroke-width:0.264583"
       cx="-15.938015"
       cy="10.017566"
       r="0.0063923118"
       transform="rotate(-90)" />
    <rect
       style="fill:#35201f;fill-opacity:1;stroke-width:0.264583;stroke-dasharray:none"
       id="rect7797"
       width="16.933332"
       height="16.933332"
       x="-16.993811"
       y="-0.060477644"
       transform="rotate(-90)" />
    <path
       style="fill:#3a2524;fill-opacity:1;stroke-width:0.264583;stroke-dasharray:none"
       id="path8684"
       d="m 7.7278952,5.1752981 c -0.1975173,0.119742 -0.3205118,0.18162 -0.4952124,0.358749 -0.3853953,0.390752 -0.7018705,0.959292 -0.7588774,1.511392 -0.021781,0.210943 0.026642,0.4232915 0.039963,0.6349372 -0.085044,0.247886 3.4205933,1.4505988 3.5056386,1.2027128 v 0 c 0.04995,-0.175836 0.131928,-0.3455956 0.149847,-0.5275083 0.02135,-0.2167263 -0.0057,-0.4364844 -0.03362,-0.6524601 C 10.062504,7.13779 9.8844993,6.5870211 9.593137,6.0966821 9.546972,6.0189921 9.4873246,5.9501471 9.4344185,5.8768791 9.4840275,5.7562091 7.7775003,5.0546281 7.7278912,5.1752981 Z" />
    <path
       style="fill:#3a2524;fill-opacity:1;stroke-width:0.264583;stroke-dasharray:none"
       id="path9461"
       d="m 15.955547,14.148678 c -0.165652,-0.121487 -0.375487,-0.1388 -0.570258,-0.08199 -0.148621,0.04335 -0.245922,0.117402 -0.377208,0.198577 -0.164432,0.159346 -0.183626,0.148259 -0.279549,0.346337 -0.0052,0.01067 -0.0079,0.04209 0.002,0.03552 0.05075,-0.03377 0.07839,-0.09853 0.133104,-0.125405 0.6284,-0.308723 0.265821,0.0029 0.546057,-0.261064 -0.01064,-0.06726 -0.01294,-0.136383 -0.03194,-0.201776 -0.0594,-0.204513 -0.184729,-0.387983 -0.36831,-0.499938 -0.05147,-0.03139 -0.386242,-0.1471 -0.386845,-0.147317 -0.809157,0.118133 -0.552823,-0.07287 -0.907021,0.311468 -0.04393,0.07762 1.053749,0.698917 1.097682,0.621299 v 0 c -0.347077,0.118212 -0.09004,0.04447 -0.797667,0.08538 -0.05451,-0.0088 -0.119346,-0.05955 -0.163534,-0.02643 -0.04085,0.03061 -0.01239,0.102479 -0.0054,0.153051 0.03829,0.278071 0.197864,0.534455 0.410164,0.714196 0.08376,0.07091 0.184508,0.118887 0.276762,0.17833 0.42763,0.147075 0.436549,0.213529 0.957473,0.03873 0.08217,-0.02757 0.12986,-0.114866 0.192906,-0.174338 0.01394,-0.01315 0.04941,-0.05859 0.03783,-0.04332 -0.06945,0.09155 -0.05133,0.0677 -0.146221,0.135823 -0.01552,0.0099 -0.04294,0.01162 -0.04655,0.02966 -0.0026,0.01306 0.02514,0.01087 0.03845,0.01082 0.02772,-9.8e-5 0.0552,-0.006 0.08241,-0.01125 0.04405,-0.0086 0.08955,-0.01359 0.131175,-0.03036 0.0135,-0.0054 0.153867,-0.09927 0.174527,-0.112975 0.08083,0 0.08083,-1.143037 0,-1.143037 z" />
    <path
       style="fill:#3a2524;fill-opacity:1;stroke-width:0.264583;stroke-dasharray:none"
       id="path9463"
       d="m 15.212727,9.2898378 c 0.01823,-0.00669 0.03884,-0.00886 0.0547,-0.020058 0.135092,-0.095367 0.251323,-0.22191 0.346831,-0.3554431 0.152049,-0.2125829 0.212113,-0.3471515 0.269565,-0.603446 0.01928,-0.08602 0.01996,-0.1751764 0.02994,-0.2627649 -0.0093,-0.060038 0.0092,-0.132021 -0.02795,-0.1801148 -0.02496,-0.032338 -0.08108,-0.017412 -0.121774,-0.013835 -0.09561,0.0084 -0.18768,0.050515 -0.283651,0.049462 -0.1056,-0.00116 -0.208119,-0.036082 -0.311831,-0.055995 -0.121646,-0.023357 -0.08564,-0.05616 -0.12779,0.00833 -0.0029,0.00838 -0.0087,0.034026 -0.0087,0.025157 -2.21e-4,-0.1043136 -0.01291,-0.2106544 0.0081,-0.3128378 0.0048,-0.023331 0.04189,-0.022696 0.06305,-0.033618 0.187685,-0.096851 0.355229,-0.2546103 0.563495,-0.2896989 0.575837,-0.097017 0.344506,0.3397155 0.489947,-0.019553 0.0273,-0.2167167 -0.0034,-0.3938472 -0.0883,-0.5937662 -0.02984,-0.07029 -0.06083,-0.140592 -0.100298,-0.205969 -0.06981,-0.115649 -0.18033,-0.236325 -0.268317,-0.338742 -0.08792,-0.07602 -0.145216,-0.134539 -0.245169,-0.190628 -0.02628,-0.01475 -0.06301,-0.05559 -0.08384,-0.03382 -0.01986,0.02076 0.04456,0.04348 0.04724,0.07208 0.02152,0.229848 0.0162,0.461421 0.02431,0.692131 0.04825,-0.06345 -0.849003,-0.745879 -0.897259,-0.682433 v 0 c -5.82e-4,0.247609 -0.02592,0.4964 -0.0017,0.742828 0.0054,0.05478 0.06402,0.09014 0.08829,0.139545 0.0136,0.02769 0.01674,0.147009 0.0287,0.1793059 0.02864,0.1890131 -0.0045,-0.057086 0.0097,0.1706492 0.0029,0.046796 0.01006,0.093241 0.01624,0.139719 0.03071,0.2311739 0.06831,0.4161184 0.2154,0.6069788 0.168568,0.1746165 0.392479,0.4368704 0.652681,0.4359095 0.225451,-8.202e-4 0.420988,-0.1671373 0.614017,-0.2836215 0.0484,-0.029207 0.08249,-0.086728 0.09203,-0.1424463 0.05591,-0.3265268 0.0282,-0.418397 -0.01475,-0.6802022 -0.02706,-0.066203 -0.04216,-0.1386774 -0.08119,-0.1986108 -0.160342,-0.2462166 -0.345584,-0.3850586 -0.658835,-0.4364406 -0.28727,-0.04712 -0.575285,0.06267 -0.815802,0.201846 -0.0936,0.05416 -0.173776,0.128755 -0.260665,0.1931325 -0.209533,0.2802345 -0.285363,0.3238765 -0.370056,0.6792526 -0.03383,0.1419611 -0.05056,0.2890234 -0.04989,0.4349589 0.0012,0.2574083 0.118819,0.4886655 0.124023,0.7433889 -0.02965,0.076337 1.04991,0.4957067 1.079564,0.4193701 z" />
    <path
       style="fill:#3a2524;fill-opacity:1;stroke-width:0.264583;stroke-dasharray:none"
       id="path9465"
       d="m 11.978484,10.899554 c -0.146872,0.0087 -0.27155,0.08091 -0.391582,0.160201 -0.181456,0.119864 -0.247432,0.157691 -0.37749,0.335874 -0.04716,0.06461 -0.08025,0.138396 -0.120369,0.207594 -0.20686,0.504252 -0.268316,0.799698 -0.126682,1.360854 0.02435,0.09649 0.221706,0.289587 0.276797,0.34902 -0.117384,-0.08952 0.398683,0.285615 0.345043,0.169275 -0.03856,-0.08364 -0.197608,-0.07924 -0.218662,-0.168897 -0.87157,-0.48652 0.157215,-0.634275 0.116313,-0.95101 -0.0078,-0.0601 -0.101283,-0.06657 -0.151924,-0.09986 -0.215573,-0.04779 -0.286033,-0.07648 -0.510612,-0.07272 -0.08218,0.0014 -0.163455,0.01743 -0.245182,0.02615 -0.122369,-0.0024 -0.155894,1.728185 -0.03353,1.730556 v 0 c 0.103544,0.01299 0.206286,0.03763 0.310634,0.03897 0.317119,0.0041 0.374599,-0.03903 0.670106,-0.131233 0.129922,-0.07242 0.605158,-0.317882 0.652623,-0.44238 0.353964,-0.928443 0.148646,-0.635976 -0.18786,-1.035088 -0.03423,-0.0406 0.194221,0.07061 0.151789,0.04835 0.02158,0.01342 0.03954,0.03693 0.06473,0.04025 0.01652,0.0022 0.03836,-0.0422 0.04263,-0.02609 0.02684,0.101234 0.03169,0.20771 0.03329,0.312431 2.64e-4,0.01757 -0.02118,-0.02824 -0.02919,-0.04388 -0.0074,-0.01448 -0.02058,-0.03001 -0.0168,-0.04584 0.0084,-0.03502 0.0337,-0.06363 0.05055,-0.09544 0.05739,-0.109359 0.09317,-0.159567 0.119677,-0.282084 0.0094,-0.04348 0.0027,-0.08942 0.01204,-0.132912 0.0068,-0.0316 0.02601,-0.05931 0.03578,-0.09012 0.0074,-0.02345 0.0229,-0.109338 0.02806,-0.13684 0.07249,-0.03537 -0.427712,-1.060496 -0.500199,-1.025127 z" />
    <path
       style="fill:#3a2524;fill-opacity:1;stroke-width:0.264583;stroke-dasharray:none"
       id="path9467"
       d="m 8.1097593,15.140262 c 0.091394,0.04458 0.058059,0.04707 0.184653,-0.05147 0.2341589,-0.182266 0.3796808,-0.406543 0.4726821,-0.68829 0.030382,-0.09204 0.042994,-0.189028 0.064491,-0.283542 0.00976,-0.265143 0.038934,-0.759439 -0.043234,-0.950652 -0.1694538,-0.394334 -0.6812744,-0.529235 -1.0605885,-0.492376 -0.067771,0.0066 -0.1333458,0.02764 -0.2000184,0.04146 -0.1298953,0.05093 -0.2583143,0.116252 -0.3666143,0.205849 -0.020857,0.01726 -0.040685,0.03646 -0.056122,0.0587 -0.00753,0.01085 -0.021415,0.02988 -0.011041,0.03805 0.018164,0.01431 0.045965,0.005 0.068947,0.0076 0.9303224,0.244577 0.079564,-0.04934 0.5583343,0.25139 0.014012,0.0088 0.038938,-0.0058 0.044869,-0.02123 0.016558,-0.04312 0.012692,-0.09158 0.016129,-0.137642 0.00992,-0.133085 0.00909,-0.267222 0.010541,-0.400509 -0.011647,-0.08806 -0.023297,-0.176114 -0.034944,-0.264171 -0.054228,-0.100987 -1.4823573,0.665898 -1.4281301,0.766882 v 0 c 0.03231,0.06063 0.064621,0.121253 0.096932,0.181879 0.033271,0.05481 0.062997,0.11193 0.099814,0.164421 0.132343,0.18869 0.031915,0.02425 0.1415773,0.148407 0.072597,0.08219 0.1383545,0.230494 0.2287889,0.279453 0.1308748,0.07085 0.2851933,0.0852 0.4277899,0.127792 0.036605,1.21e-4 0.073273,-0.0018 0.109814,3.71e-4 0.1766128,0.01045 -0.048802,0.01018 0.1304338,0.0182 0.098067,0.0044 0.1968783,-0.01247 0.2921479,-0.03332 0.031977,-0.01417 0.067738,-0.02182 0.095933,-0.04252 0.016817,-0.01235 0.047442,-0.03695 0.033765,-0.0527 -0.2244168,-0.258526 -0.2497948,0.07824 -0.4375889,-0.407124 -0.055208,-0.14269 0.012226,-0.31123 -0.031216,-0.457931 -0.010083,-0.03405 -0.057082,0.04225 -0.085624,0.06337 -0.041528,0.06098 -0.088851,0.118392 -0.1245843,0.182938 -0.093082,0.168128 -0.1711037,0.375361 -0.20794,0.563056 -0.048389,0.246557 -0.024477,0.50008 -0.048259,0.748643 -0.030764,0.07483 1.027499,0.5099 1.0582629,0.435069 z" />
    <path
       style="fill:#3a2524;fill-opacity:1;stroke-width:0.264583;stroke-dasharray:none"
       id="path9469"
       d="m 12.462661,0.77504809 c -0.221795,0.02311 -0.405728,0.09283 -0.55929,0.26155301 -0.108543,0.119259 -0.161873,0.228086 -0.244695,0.368079 -0.146315,0.314883 -0.20401,0.690597 -0.0883,1.024261 0.02993,0.0863 0.108528,0.222335 0.165729,0.293755 0.03652,0.0456 0.08075,0.08444 0.121129,0.126657 0.116459,0.106764 0.161159,0.163569 0.303598,0.233574 0.05196,0.02554 0.107726,0.04322 0.163667,0.05813 0.03405,0.0091 0.130007,0.03813 0.104854,0.01345 -0.483832,-0.474687 -0.210236,0.298242 -0.357467,-0.853328 0.0021,-0.02402 0.02489,-0.05672 0.0063,-0.07207 -0.01849,-0.01525 -0.04676,0.01133 -0.06896,0.02037 -0.122466,0.04983 -0.175268,0.09773 -0.256917,0.195325 -0.0041,0.03519 -0.05391,0.04835 -0.06083,0.08155 -0.002,0.0094 0.02617,0.01739 0.01805,0.02255 -0.207677,0.131895 -0.346963,0.07496 -0.448278,0.388229 -0.04704,0.145434 -0.0033,0.305682 -0.005,0.458524 -0.009,0.0064 -0.02074,0.01 -0.02693,0.01905 -0.008,0.0118 -0.01212,0.05476 -0.01368,0.04058 -0.01112,-0.100914 -0.08772,-0.303638 0.01381,-0.304261 -0.0081,0.01658 -0.0171,0.03276 -0.02439,0.04973 -0.01369,0.03188 -0.01822,0.05986 -0.01632,0.06052 0.01241,0.0043 0.0251,-0.0078 0.03748,-0.01224 0.04731,-0.01685 0.09138,-0.05348 0.141566,-0.05155 0.157949,0.0061 0.312152,0.05001 0.468228,0.07501 -0.06418,-0.04419 -0.689043,0.863403 -0.624867,0.907587 v 0 c 0.165118,0.0329 0.327101,0.09257 0.495352,0.09869 0.07077,0.0026 0.135685,-0.04244 0.199378,-0.0734 0.120422,-0.05854 0.207728,-0.173677 0.28056,-0.281192 0.02659,-0.04138 0.05689,-0.0806 0.07978,-0.124132 0.134057,-0.254932 0.168018,-0.591109 0.03338,-0.850885 -0.0055,0.132106 0.03061,0.27276 -0.01646,0.396317 -0.170404,0.447287 -0.188505,0.122571 -0.415572,0.333886 -0.02112,0.01966 0.05723,0.0074 0.08582,0.01124 0.120267,0.01615 0.04689,0.01177 0.200779,0.0057 0.124715,-0.026 0.220977,-0.03868 0.338445,-0.09573 0.257254,-0.124945 0.416476,-0.366494 0.557284,-0.604481 -0.01239,-0.260962 0.04704,-0.53557 -0.03716,-0.782888 -0.042,-0.123381 -0.208073,-0.157054 -0.310338,-0.237857 -0.0068,-0.0053 -0.01998,-0.0124 -0.01623,-0.02017 0.0077,-0.01593 0.07715,0.0541 0.08213,0.05706 0.01314,0.0011 0.02754,0.0092 0.03941,0.0034 0.02041,-0.0099 0.03549,-0.08651 0.03703,-0.09326 0.0042,-0.01856 0.01298,-0.07502 0.0101,-0.0562 -0.05049,0.330492 0.0555,0.301293 -0.09777,0.320858 -0.0076,-0.0023 -0.02479,6.62e-4 -0.02274,-0.007 0.0051,-0.01902 0.02471,-0.03065 0.03694,-0.04608 0.02105,-0.02653 0.04529,-0.05085 0.06291,-0.07978 0.01686,-0.02768 0.07245,-0.150263 0.0745,-0.189846 9.52e-4,-0.01851 -0.01346,-0.03455 -0.02019,-0.05182 0.07336,-0.03011 -0.352452,-1.06759301 -0.425813,-1.03748301 z" />
    <path
       style="fill:#3a2524;fill-opacity:1;stroke-width:0.264583;stroke-dasharray:none"
       id="path9471"
       d="m 4.5244475,4.1868451 c 0.058489,0.0372 0.1465188,0.09721 0.2099199,0.116234 0.2386661,0.07163 0.5120209,0.0377 0.7433048,-0.04194 0.1034457,-0.03562 0.199595,-0.08968 0.2993927,-0.134513 0.087696,-0.06303 0.1809893,-0.118928 0.2630882,-0.189094 0.1910003,-0.16324 0.3536635,-0.370179 0.4476583,-0.604616 0.040682,-0.101466 0.068108,-0.243303 0.091978,-0.350575 0.031278,-0.229319 0.076485,-0.476592 -0.028873,-0.700525 -0.060084,-0.127703 -0.2102731,-0.191489 -0.3323429,-0.262322 -0.052307,-0.03035 -0.1187619,-0.02291 -0.178222,-0.03394 -0.00276,-5.02e-4 -0.01102,-0.0017 -0.00841,-6.88e-4 0.1233567,0.049 0.2473153,0.09647 0.3709728,0.144698 0.04407,0.0216 0.08319,0.06719 0.1322094,0.0648 0.088718,-0.0043 0.080825,-0.269094 0.1099846,-0.208456 0.036726,0.07637 0.011557,0.169264 0.010795,0.254006 -1.561e-4,0.01735 -0.00305,-0.03602 -0.012626,-0.05049 -0.00786,-0.01188 -0.024008,-0.01534 -0.036012,-0.02301 -0.026675,0.0088 -0.05335,0.01769 -0.080024,0.02653 -0.05531,0.02561 -0.1084331,0.05661 -0.16593,0.07684 -0.043711,0.01538 -0.091002,0.01781 -0.1358781,0.02936 -0.013928,0.0036 -0.03679,0.0019 -0.0401,0.01593 -0.00156,0.0066 0.05067,0.04294 0.056432,0.04713 0.087867,0.05354 0.1635482,0.125565 0.2569964,0.170332 0.034194,0.01638 0.070599,0.02768 0.1058986,0.04152 0.078269,0.03427 0.5629426,-1.07261 0.4846741,-1.106881 v 0 c -0.00632,-0.03124 -0.033962,-0.04138 -0.055029,-0.06259 -0.1284817,-0.129384 -0.024797,-0.03682 -0.1700496,-0.158498 -0.04087,-0.028 -0.07951,-0.05957 -0.1226108,-0.084 -0.097937,-0.05551 -0.2479167,-0.110423 -0.3553092,-0.121342 -0.3573195,-0.03633 -0.5774288,0.05933 -0.8487381,0.281742 -0.051894,0.06604 -0.1138801,0.12528 -0.1556827,0.198132 -0.1883944,0.328324 -0.1982313,0.825928 0.00382,1.15432 0.047034,0.07645 0.1058474,0.144988 0.1587712,0.217481 0.1369581,0.06918 0.2718554,0.142603 0.4108744,0.207543 0.012274,0.0057 0.053408,0.0075 0.040509,0.0033 -0.1792029,-0.0576 -0.3070437,-0.01619 -0.4217914,-0.278164 -0.019772,-0.04514 -0.030834,-0.387729 -0.036675,-0.558562 -0.010665,-0.0036 -0.021019,-0.01312 -0.032,-0.01069 -0.073683,0.01626 -0.1414484,0.08274 -0.1901365,0.130685 -0.044476,0.0438 -0.08828,0.08878 -0.1260811,0.138452 -0.00984,0.01293 -0.1186621,0.203467 -0.1315071,0.225846 -0.032246,0.06422 -0.043815,0.09993 -0.091984,0.151793 -0.072081,0.07761 -0.1780816,0.09911 -0.2547041,0.169415 -0.078829,-0.01319 -0.2653922,1.101623 -0.1865627,1.114815 z" />
    <path
       style="fill:#3a2524;fill-opacity:1;stroke-width:0.264583;stroke-dasharray:none"
       id="path9473"
       d="M 3.4034087,8.1642164 C 3.3381048,8.2304141 3.2598974,8.285992 3.2074969,8.3628095 3.0534346,8.5886592 2.9785358,8.8537172 2.9301128,9.1187844 c -0.036125,0.1977488 -0.067423,0.609546 -0.052971,0.819422 0.00711,0.1031946 0.035389,0.2038286 0.053083,0.3057436 0.030578,0.05402 0.042452,0.124319 0.091735,0.162059 0.04191,0.03209 0.1031756,0.02925 0.155937,0.0276 0.4452445,-0.01388 0.662895,-0.207281 0.9702601,0.265924 0.08127,0.125119 -0.02934,0.541658 0.033013,0.289812 C 4.2217485,10.547087 4.2885736,10.415389 3.745025,9.9763179 3.6228981,9.8776649 3.4304926,9.9521849 3.2741455,9.9664279 3.144606,9.9782257 2.9885931,10.070912 2.8929111,10.15442 c -0.049612,0.0433 -0.088243,0.09776 -0.132365,0.146646 -0.1959358,0.304565 -0.2266878,0.503145 -0.2175825,0.8997 0.0015,0.06518 0.041922,0.123549 0.059533,0.186328 0.027375,0.09758 0.0253,0.1143 0.034095,0.207257 -2.04e-5,0.02672 0.00535,0.054 -6.12e-5,0.08017 -0.018476,0.08942 -0.075536,0.167153 -0.099091,0.25537 -0.01648,0.06172 0.00897,0.239574 -0.030346,0.189226 -0.043024,-0.05509 0.00984,-0.139461 0.014755,-0.209192 -0.028649,0.104261 1.4458162,0.509415 1.4744651,0.405155 v 0 c 0.00752,-0.199429 0.025487,-0.398739 0.022556,-0.598288 -0.00401,-0.272896 -0.1579994,-0.506213 -0.244162,-0.756571 -0.017447,-0.03416 -0.033614,-0.069 -0.052343,-0.102472 -0.00955,-0.01707 -0.012822,-0.0486 -0.032377,-0.04894 -0.017497,-2.91e-4 0.020669,0.03125 0.019571,0.04872 -0.035829,0.569804 0.015042,0.266193 -0.078636,0.463688 -7.144e-4,0.0015 0.00119,0.0031 0.00177,0.0046 0.015221,-0.01745 0.1045247,-0.121419 0.052562,-0.145623 -0.093841,-0.04371 -0.2331593,-9e-4 -0.3001272,-0.07983 -0.4283472,-0.504949 -0.4055515,-0.483882 -0.3448111,-0.833604 -0.023037,0.04957 -0.060006,0.0948 -0.06911,0.1487 -0.07719,0.456935 -0.1912273,0.841566 0.3707921,1.096475 0.2507536,0.113731 0.7211687,0.0059 0.9652939,-0.142783 0.1087986,-0.06625 0.1969204,-0.161633 0.2953806,-0.24245 0.080889,-0.118648 0.182195,-0.22575 0.2426682,-0.356036 C 5.1243481,10.169565 5.0975225,9.370129 4.815836,8.7757598 4.7647828,8.668035 4.6852284,8.5762957 4.6199245,8.4765634 4.6420119,8.3905429 3.4254948,8.0781946 3.4034084,8.1642154 Z" />
    <path
       style="fill:#3a2524;fill-opacity:1;stroke-width:0.264583;stroke-dasharray:none"
       id="path9475"
       d="m 3.6187306,6.0179521 c -0.026841,-0.09629 0.016055,-0.191137 0.010925,-0.286603 -0.00374,-0.06959 -0.02208,-0.137633 -0.032262,-0.206579 -0.019058,-0.129027 -0.04526,-0.364859 -0.083988,-0.484543 -0.025945,-0.08018 -0.07063,-0.153033 -0.1059455,-0.22955 -0.048137,-0.05808 -0.089578,-0.12244 -0.1444099,-0.174249 -0.1847352,-0.17455 -0.4921872,-0.280906 -0.7329343,-0.325248 -0.1097706,-0.02022 -0.2721244,0.0076 -0.1518015,-0.01125 0.050461,-5.82e-4 0.2510135,0.04247 0.2918903,-0.06528 0.035721,-0.09415 -0.014015,-0.273864 -0.032225,-0.35586 -0.045497,-0.204866 -0.041054,-0.176505 -0.1031721,-0.363574 -0.022145,-0.04444 -0.04429,-0.08888 -0.066435,-0.133328 -0.046079,-0.09695 -1.4171999,0.554697 -1.3711214,0.65165 v 0 c 0.00661,0.07894 0.013221,0.157878 0.019832,0.236818 0.02397,0.08999 0.03986,0.182521 0.071909,0.269955 0.093981,0.256396 0.2519729,0.493151 0.4592861,0.67132 0.076349,0.06562 0.1533922,0.133975 0.2438141,0.178229 0.1168876,0.05721 0.2471235,0.08168 0.3706852,0.122517 0.056531,0.003 0.1131428,0.01309 0.1695927,0.0089 0.020167,-0.0015 -0.038956,-0.01093 -0.058178,-0.01721 -0.073359,-0.02399 -0.1447071,-0.05469 -0.2195379,-0.07359 -0.035959,-0.0091 -0.081505,-0.03257 -0.1108281,-0.0099 -0.055424,0.04292 -0.00124,0.280373 8.626e-4,0.295431 0.026516,0.07019 0.045372,0.143766 0.079547,0.210558 0.032822,0.06415 0.1888879,0.281663 0.2395008,0.347628 0.01655,0.02157 0.1348877,0.163123 0.1579265,0.179768 0.010488,0.0076 0.025869,-6.35e-4 0.038804,-9.53e-4 0.030764,0.07483 1.0890272,-0.360238 1.058263,-0.435069 z" />
    <path
       style="fill:#3a2524;fill-opacity:1;stroke-width:0.264583;stroke-dasharray:none"
       id="path9477"
       d="m 2.6824588,13.422881 c -0.027294,-0.02767 -0.051006,-0.05941 -0.081883,-0.08301 -0.034937,-0.02671 -0.076252,-0.04386 -0.1138625,-0.06665 -0.1761905,-0.106779 -0.2932469,-0.181713 -0.5047586,-0.212437 -0.065297,-0.0095 -0.1317705,-0.0072 -0.1976557,-0.01073 -0.085866,0.01268 -0.1741576,0.01413 -0.2575964,0.03803 -0.298263,0.08546 -0.59566329,0.189707 -0.73709882,0.50992 -0.14094089,0.319094 -0.10181608,0.761621 -0.0781057,1.110272 0.0832355,0.373849 -0.006736,0.0087 0.0928158,0.322809 0.0115531,0.03645 0.018663,0.07417 0.027616,0.111347 0.00685,0.02845 0.012917,0.113959 0.019793,0.08552 0.062433,-0.258235 -0.0584183,-0.314225 0.0504258,-0.254516 0.12175522,-0.08732 -0.0821258,0.0628 0.12799632,-0.120205 0.048512,-0.04225 0.064511,-0.047 0.1110521,-0.06757 -0.081141,0.02506 0.2732325,1.172558 0.3543729,1.1475 v 0 c 0.047707,-0.01853 0.097837,-0.03173 0.1431195,-0.05558 0.1988005,-0.104685 0.337321,-0.247101 0.4334971,-0.450215 0.095702,-0.287581 0.049766,-0.106475 0.073639,-0.603361 0.011248,-0.234111 0.00132,-0.08818 -2.399e-4,-0.331316 -0.00185,-0.289218 0.015284,-0.06213 -0.017622,-0.361037 -0.016,-0.05737 -0.02837,-0.115881 -0.048,-0.172114 -0.010542,-0.0302 -0.027061,-0.114395 -0.042172,-0.0862 -0.058624,0.10938 -0.029903,0.257626 -0.1033287,0.357674 -0.1671811,0.227795 -0.3182302,0.118587 -0.5223548,0.22747 -0.018846,0.01005 0.00202,0.04267 0.00303,0.06401 0.055401,0.03294 0.1075734,0.07204 0.1662028,0.09882 0.2646844,0.120867 0.5382812,0.150206 0.8256311,0.116816 0.075412,-0.0088 0.1516094,-0.01984 0.2233112,-0.04479 0.058324,-0.0203 0.1081791,-0.0596 0.162269,-0.0894 0.083513,-0.0078 -0.026586,-1.188835 -0.1100985,-1.18105 z" />
    <path
       style="fill:#3a2524;fill-opacity:1;stroke-width:0.264583;stroke-dasharray:none"
       id="path9479"
       d="m 15.306996,3.6102281 c 0.519438,-0.21281 0.883158,-0.505159 1.108235,-1.035884 0.136953,-0.322929 0.119055,-0.426289 0.141232,-0.754408 -0.01081,-0.08608 -0.0124,-0.173815 -0.03242,-0.258224 -0.102568,-0.432515 -0.719967,-0.67611001 -1.006555,-0.81636001 -0.0546,-0.02672 -0.188387,0.181531 -0.202583,0.227557 -0.02053,0.06655 -0.02376,0.13723601 -0.03565,0.20585401 0.06486,0.195081 0.05534,0.433987 0.194571,0.585242 0.240494,0.261269 0.518332,0.167518 0.784899,0.122088 0.08006,-0.03755 -0.450987,-1.16979601 -0.531048,-1.13224501 v 0 c 0.175005,0.037 0.470643,0.08978 0.568343,0.209605 0.115156,0.14123101 0.101147,0.35013901 0.15172,0.52521001 -0.08304,0.196084 -0.0025,0.0551 -0.0491,0.03556 -0.02877,-0.01206 -0.06777,0.01798 -0.0936,4.77e-4 -0.314964,-0.213462 -0.606298,-0.459957 -0.914195,-0.68349101 -0.03045,-0.02211 -0.06221,-0.05201 -0.09984,-0.0527 -0.05262,-9.79e-4 -0.100247,0.03206 -0.150371,0.04809 -0.0675,0.05095 -0.143344,0.0924 -0.202492,0.152844 -0.296987,0.30348201 -0.461627,0.70991501 -0.517209,1.12659701 -0.01669,0.125107 -0.01218,0.252686 -0.0039,0.378627 0.0047,0.07167 0.02856,0.140786 0.04284,0.211179 -0.06395,0.0599 0.783117,0.964277 0.847067,0.90438 z" />
    <path
       style="fill:#3a2524;fill-opacity:1;stroke-width:0.264583;stroke-dasharray:none"
       id="path9481"
       d="m 12.109278,6.7182501 c -0.05828,0.01321 -0.119849,0.01625 -0.174852,0.03962 -0.351937,0.14953 -0.59711,0.4544455 -0.755628,0.7925404 -0.03361,0.071688 -0.05853,0.1471369 -0.0878,0.2207056 -0.02854,0.080438 -0.0631,0.1589902 -0.08562,0.2413156 -0.06724,0.2457175 -0.08337,0.5798433 -0.04266,0.810338 0.02556,0.1447216 0.207425,0.3233608 0.320803,0.4025474 0.05837,0.040768 0.127174,0.064055 0.190761,0.096082 0.07868,0.029625 0.497646,-1.0830706 0.418967,-1.112696 v 0 c 0.03085,0.017066 0.06398,0.030536 0.09255,0.051194 0.04702,0.034002 0.172961,0.1450176 0.182562,0.2084422 0.02012,0.1328692 -0.0071,0.2688405 -0.0024,0.4031427 0.0011,0.030956 0.209443,-0.061481 0.07736,-0.051474 0.1279,-0.1153001 0.191348,-0.1629752 0.300948,-0.3088429 0.09089,-0.1209616 0.190098,-0.3020181 0.238507,-0.4444931 0.02745,-0.080798 0.05841,-0.2942629 0.07305,-0.3859686 0.06805,-0.052789 -0.678497,-1.0152393 -0.746553,-0.9624503 z" />
    <path
       style="fill:#3a2524;fill-opacity:1;stroke-width:0.264583;stroke-dasharray:none"
       id="path9483"
       d="M 0.8089465,9.512046 C 0.8406539,9.500079 0.8748147,9.493255 0.9040687,9.476145 1.1584899,9.3273327 1.3901823,8.9843682 1.4901114,8.7153901 c 0.031513,-0.084822 0.042007,-0.1760313 0.063011,-0.2640468 0.00244,-0.073202 0.012384,-0.1465365 0.00734,-0.2196049 -0.015326,-0.2218505 -0.076051,-0.136497 -0.2116197,-0.06988 -0.027224,0.013377 -0.071948,0.00644 -0.084362,0.034118 -0.00915,0.020405 0.044616,0.00317 0.066924,0.00476 0.2661978,-0.043177 0.4589011,-0.1156425 0.627659,-0.3364053 0.059751,-0.060652 0.033508,-0.035596 0.077534,-0.076398 0.05778,-0.042939 -0.5494637,-0.860075 -0.6072439,-0.817136 v 0 c -0.062169,0.05994 -0.037371,0.033576 -0.076518,0.077045 -0.054637,0.024749 -0.1049024,0.055049 -0.154493,0.090984 -0.028435,0.00917 -0.056553,0.019388 -0.085303,0.027517 C 1.0426823,7.1862347 0.96840906,7.1943082 0.901101,7.2228652 0.68679094,7.3137911 0.67436825,7.353573 0.51491872,7.4941332 0.34769518,7.6415463 0.44605289,7.534266 0.30049369,7.7184477 0.27069615,7.7782558 0.23437578,7.8352364 0.21110104,7.8978718 0.18578624,7.9659969 0.1748412,8.0386372 0.15548345,8.1086886 0.08287455,8.3714434 0.00129673,8.6323247 -9.2357374e-4,8.9080655 -0.04363145,8.9653319 0.76623862,9.5693127 0.8089465,9.512046 Z" />
    <path
       style="fill:#21141d;fill-opacity:1;stroke-width:0.264583;stroke-dasharray:none"
       id="path10215"
       d="m 10.279585,4.0794571 c 0.05971,-0.152416 7.67e-4,-0.28252 -0.03961,-0.431668 -0.04537,-0.167531 -0.05439,-0.236185 -0.134771,-0.396756 -0.03045,-0.06082 -0.07114,-0.115949 -0.1067166,-0.173924 -0.1120007,-0.145682 -0.2504082,-0.244608 -0.4188472,-0.313529 -0.1250733,-0.05118 -0.1882159,-0.07564 -0.3229433,-0.07865 -0.017515,-3.97e-4 -0.033579,0.01001 -0.050368,0.01502 0.080657,0.265139 0.1371762,0.538858 0.2419705,0.795416 0.00971,0.02378 0.046988,-0.02125 0.068541,-0.03522 0.1496663,-0.09704 0.22714,-0.222836 0.3136161,-0.373716 0.041317,-0.09876 0.066167,-0.146056 0.089375,-0.252678 0.020714,-0.09517 0.01248,-0.194762 0.015126,-0.2912 0.00327,-0.119129 0.00781,-0.238219 0.011721,-0.357329 -0.028189,-0.124785 -0.047408,-0.250116 -0.085845,-0.372524 -0.034581,-0.06375 -0.9361805,0.425296 -0.9015998,0.489049 v 0 c 0.012094,0.04142 0.020516,0.07776 0.039247,0.116454 0.00354,0.0073 0.00996,0.01288 0.014129,0.01985 0.00449,0.0075 0.011584,0.0322 0.011774,0.02346 2.45e-4,-0.01129 -0.00773,-0.02121 -0.011594,-0.03182 0.00403,-0.0967 0.013854,-0.193327 0.012097,-0.290092 -3.969e-4,-0.02164 -0.041196,0.01841 -0.054266,0.03566 -0.058931,0.07779 -0.088102,0.169467 -0.122636,0.259488 -0.023029,0.09173 -0.061908,0.190293 -0.044864,0.286527 0.0031,0.01749 0.012917,0.0331 0.019376,0.04965 0.00751,0.0092 0.019219,0.01628 0.022516,0.02772 0.078297,0.271668 0.1476303,0.54584 0.2214457,0.81876 -0.053865,0.0797 -0.1157264,-0.01708 -0.1558473,0.02583 -0.04356,0.04659 0.046305,0.252045 0.060757,0.289896 0.027314,0.04987 0.050999,0.101901 0.081943,0.1496 0.057783,0.08907 0.1217271,0.149911 0.186949,0.232064 0.020704,0.02608 0.035068,0.05731 0.058501,0.08097 0.030089,0.03037 0.084121,0.02973 0.1068009,0.07102 0.027388,0.0618 0.901415,-0.325519 0.874027,-0.387322 z" />
    <path
       style="fill:#21141d;fill-opacity:1;stroke-width:0.264583;stroke-dasharray:none"
       id="path10266"
       d="M 9.62759,9.6020218 C 9.5494252,9.6363332 9.4657952,9.660214 9.3930962,9.7049558 9.0282556,9.9294929 8.7567346,10.27964 8.624557,10.687228 c -0.1113335,0.343312 -0.08888,0.540756 -0.0942,0.892072 0.1375786,0.690542 -0.012925,0.07053 0.1869009,0.625258 0.053073,0.147332 0.094133,0.298719 0.1411988,0.448079 0.025069,0.07209 1.0445713,-0.282427 1.0195034,-0.354517 v 0 c 0.041735,0.09579 0.038375,0.22925 0.1252039,0.287375 0.122604,0.08207 0.223787,-0.47025 0.261144,-0.357371 0.03157,-0.11851 0.07238,-0.234935 0.09471,-0.355529 0.05428,-0.293239 0.07673,-0.569298 0.0092,-0.864093 -0.02836,-0.123834 -0.128896,-0.372876 -0.254518,-0.468143 -0.03165,-0.024 -0.07634,-0.02194 -0.1145162,-0.03291 0.06402,-0.02628 -0.3075894,-0.9317036 -0.3716127,-0.9054268 z" />
    <path
       style="fill:#21141d;fill-opacity:1;stroke-width:0.264583;stroke-dasharray:none"
       id="path10268"
       d="m 14.263409,12.354293 c 0.397818,0.0071 0.78841,-0.178368 1.089359,-0.429725 0.08497,-0.07097 0.156175,-0.15695 0.234262,-0.235426 0.102427,-0.147826 0.200671,-0.261204 0.255159,-0.433377 0.01275,-0.04027 0.007,-0.08419 0.01048,-0.126287 0.07363,-0.04303 -0.534856,-1.084295 -0.608485,-1.041268 v 0 c -0.06822,0.01015 -0.138001,0.01275 -0.204667,0.03045 -0.214809,0.05701 -0.268155,0.112108 -0.462513,0.232744 -0.07864,0.07347 -0.164245,0.140132 -0.23593,0.220405 -0.239928,0.26867 -0.356611,0.592357 -0.501423,0.914022 -0.06141,0.02996 0.362349,0.898431 0.423759,0.868467 z" />
    <path
       style="fill:#21141d;fill-opacity:1;stroke-width:0.264583;stroke-dasharray:none"
       id="path10270"
       d="m 13.069671,6.9337221 c 0.356098,-0.02413 0.626216,-0.200745 0.882896,-0.439498 0.06799,-0.06325 0.128734,-0.133872 0.193102,-0.200808 0.066,-0.07214 0.136923,-0.140066 0.197986,-0.21643 0.157355,-0.196783 0.331525,-0.483117 0.43154,-0.715993 0.07558,-0.175974 0.08472,-0.251183 0.12619,-0.432359 0.0495,-0.07475 -1.007649,-0.774815 -1.057151,-0.700063 v 0 c -0.06708,0.07632 -0.113154,0.126042 -0.175761,0.211402 -0.03992,0.05442 -0.07601,0.111554 -0.114337,0.167108 -0.12591,0.182497 -0.255082,0.362685 -0.38154,0.5448 -0.28564,0.347686 -0.01397,0.01005 -0.274026,0.353069 -0.166858,0.220089 -0.120776,0.127916 -0.24496,0.363262 -0.02563,0.04857 -0.05558,0.09585 -0.07157,0.148383 -0.0096,0.03147 -0.0024,0.06575 -0.0036,0.09862 -0.05788,0.03474 0.433363,0.853244 0.49124,0.818508 z" />
    <path
       style="fill:#21141d;fill-opacity:1;stroke-width:0.264583;stroke-dasharray:none"
       id="path10272"
       d="m 11.640291,14.248424 c -0.04349,0.02833 -0.09168,0.05049 -0.130466,0.08498 -0.286673,0.254928 -0.453042,0.633047 -0.505972,1.008509 -0.0096,0.06786 -0.0036,0.137014 -0.0054,0.205521 0.04922,0.168301 0.06415,0.08997 0.166745,0.01908 -0.08863,8.94e-4 -0.07598,1.254329 0.01265,1.253434 v 0 c 0.115377,-0.0106 0.234427,-0.001 0.346131,-0.03181 0.235876,-0.06496 0.434485,-0.204075 0.638279,-0.330034 0.07536,-0.07575 0.162741,-0.141199 0.226087,-0.227251 0.221016,-0.300236 0.303529,-0.676235 0.292387,-1.04287 -0.0032,-0.104471 -0.02147,-0.208198 -0.04121,-0.310838 -0.01387,-0.07214 -0.03957,-0.141489 -0.05935,-0.212233 0.02945,-0.06646 -0.91039,-0.482943 -0.93984,-0.416486 z" />
    <path
       style="fill:#21141d;fill-opacity:1;stroke-width:0.264583;stroke-dasharray:none"
       id="path10274"
       d="m 7.1681461,10.854727 c 0.026947,-0.04954 0.065185,-0.09444 0.080841,-0.148616 0.079383,-0.274685 0.067964,-0.435988 0.021677,-0.7224431 C 7.2266775,9.7114452 7.1686975,9.509697 7.03972,9.2685669 6.9958357,9.1865228 6.935566,9.114359 6.8834889,9.0372552 6.9393673,9.1129776 6.6641818,8.8099728 6.6194215,8.8987241 6.5695549,8.9976 6.6331137,9.1393362 6.5646832,9.2264008 6.3578811,9.4895109 6.1051837,9.6249506 5.8243044,9.4627581 5.8736434,9.5099021 6.5403563,8.8121453 6.4910173,8.7650016 v 0 C 6.4593904,8.7370703 6.4350992,8.6974037 6.3961359,8.681208 6.0796387,8.5496509 5.8845717,8.5557156 5.6210295,8.9083838 5.5363464,9.0217053 5.5877232,9.1897576 5.5581915,9.3281082 5.5243151,9.4868121 5.4173689,9.6259711 5.4288888,9.7974608 c 0.00441,0.1237678 -0.00439,0.2487142 0.013219,0.3713032 0.0461,0.321005 0.1300673,0.560883 0.3083883,0.834476 0.077323,0.118635 0.1661208,0.232293 0.2719803,0.32635 0.1913123,0.169983 0.33464,0.205142 0.5549035,0.28675 0.053854,0.04177 0.6446223,-0.71984 0.5907682,-0.761613 z" />
    <path
       style="fill:#21141d;fill-opacity:1;stroke-width:0.264583;stroke-dasharray:none"
       id="path10276"
       d="m 5.2540916,13.902858 c -0.044817,-0.0086 -0.088873,-0.02356 -0.1344517,-0.0257 -0.3060311,-0.01433 -0.6632652,0.138314 -0.9106226,0.307741 -0.074177,0.05081 -0.1405022,0.112223 -0.2107533,0.168334 -0.1530731,0.145894 -0.2370418,0.291368 -0.3089767,0.485669 -0.018866,0.05096 -0.044967,0.100288 -0.053679,0.153923 -0.027739,0.170765 -0.036771,0.344047 -0.055156,0.516071 0.023013,0.06208 0.9009385,-0.263374 0.8779256,-0.325452 v 0 c -0.020159,0.157725 -0.043128,0.315116 -0.060477,0.473175 -0.00235,0.02147 -0.01629,0.05243 0.00143,0.06478 0.023421,0.01632 0.057695,0.0021 0.085538,-0.0042 0.123671,-0.02797 0.1755656,-0.07054 0.2892522,-0.135208 0.25726,-0.20205 0.5034786,-0.42449 0.6843925,-0.699831 0.069249,-0.01445 -0.1351725,-0.99378 -0.2044214,-0.979326 z" />
    <path
       style="fill:#21141d;fill-opacity:1;stroke-width:0.264583;stroke-dasharray:none"
       id="path10278"
       d="m 1.2801788,12.440642 c 0.4489899,-0.123788 0.777292,-0.342486 1.0782724,-0.704449 0.107889,-0.129748 0.2115654,-0.264808 0.2944296,-0.411805 0.084313,-0.149568 0.1361747,-0.315236 0.204262,-0.472854 0.029748,-0.156865 0.059496,-0.313731 0.089243,-0.470597 0.063632,-0.115528 -1.5701812,-1.0154175 -1.633813,-0.8998896 v 0 C 1.262381,9.5824725 1.2121887,9.6838976 1.1619964,9.7853225 1.1188563,9.9151564 1.0685918,10.042836 1.032576,10.174824 c -0.017008,0.06233 -0.14990569,0.696482 -0.16516765,0.782831 -6.0217e-4,0.0034 -0.0714163,0.440462 -0.0539037,0.499235 0.0117243,0.03935 0.063374,0.05222 0.0950611,0.07833 -0.0640234,0.02628 0.30758985,0.931704 0.37161315,0.905427 z" />
    <path
       style="fill:#21141d;fill-opacity:1;stroke-width:0.264583;stroke-dasharray:none"
       id="path10280"
       d="m 3.6499422,2.8277451 c 0.010975,-0.02688 0.028658,-0.05191 0.032928,-0.08063 0.016047,-0.10793 -0.018957,-0.235468 -0.054249,-0.335943 -0.016476,-0.04691 -0.04969,-0.08935 -0.054511,-0.138839 -0.00682,-0.07004 0.013676,-0.140077 0.020513,-0.210116 -0.040572,-0.479574 -0.1861595,-0.873147 -0.6007801,-1.14871401 -0.038367,-0.0255 -0.082085,-0.04185 -0.1231268,-0.06277 -0.035816,-0.01557 -0.069405,-0.03787 -0.1074473,-0.0467 -0.033636,-0.0078 -0.013695,0.03725 -0.010647,0.05811 C 2.771627,0.99210209 2.788964,1.1222981 2.807135,1.2523751 2.827389,1.1892151 1.9341845,0.90279609 1.9139316,0.96595509 v 0 c 0.017127,0.14491601 0.028689,0.29059901 0.051383,0.43474801 0.010702,0.06798 0.056134,0.127304 0.067114,0.195241 0.00413,0.02555 -0.00426,0.05159 -0.00638,0.07739 0.021876,0.159765 0.03672,0.321775 0.091255,0.474963 0.078167,0.219571 0.2029481,0.413001 0.359816,0.584402 0.045809,0.0387 0.096658,0.07212 0.137427,0.116093 0.00893,0.0096 0.019762,0.106506 0.021413,0.115851 0.015184,0.08589 0.036182,0.15374 0.096906,0.219352 0.025191,0.06485 0.9422697,-0.291403 0.9170789,-0.356251 z" />
    <path
       style="fill:#967952;fill-opacity:1;stroke-width:0.211275;stroke-dasharray:none"
       id="path20592"
       d="m 16.923461,7.7182925 c -0.09996,0.038888 -0.105369,-0.4694235 -0.18815,-0.4321962 -0.06473,0.029114 -0.04801,0.3953011 -0.113243,0.4156838 -0.06414,0.02004 -0.07997,-0.3060714 -0.14356,-0.335449 -0.05032,-0.023248 -0.08063,0.1763731 -0.130171,0.2089985 -0.04129,0.027195 -0.08461,-0.026448 -0.126918,-0.039675 -0.03797,0.094092 -0.06181,0.2619149 -0.113906,0.2822785 -0.0408,0.015951 -0.05574,-0.1822955 -0.09643,-0.200053 -0.02963,-0.012932 -0.04631,0.11354 -0.07604,0.1247897 -0.01924,0.00728 -0.03256,-0.09877 -0.05009,-0.077071 -0.06472,0.080109 -0.02907,0.1398118 -0.01083,0.1748693 -0.04965,0.2800827 0.03812,-0.1621239 -0.03774,-0.04473 -0.0422,0.065316 -0.04337,0.2682474 -0.09108,0.2995196 -0.03023,0.019813 -0.03215,-0.1378619 -0.04629,-0.2094962 -0.02042,-0.103545 -0.02276,-0.2409073 -0.05726,-0.3156347 -0.01683,-0.036444 -0.04142,0.038078 -0.06213,0.057117 -0.06418,0.1366472 -0.0421,0.1657966 -0.110319,0.040244 -0.01939,-0.035697 -0.03059,-0.1144166 -0.05435,-0.1197493 -0.01581,-0.00355 -0.01117,0.093075 -0.0267,0.1015497 -0.01085,0.00592 -0.0041,-0.058411 -0.01078,-0.081091 -0.0032,-0.010778 -0.01036,-0.00495 -0.01554,-0.00742 -0.160929,0.5487167 0.02959,-0.034806 -0.02571,-0.2704873 -0.02321,-0.098911 -0.06306,0.1688673 -0.102012,0.226208 -0.0097,0.014261 -0.02906,-0.00173 -0.03143,-0.029812 -0.0069,-0.082441 0.02557,-0.1816267 0.0077,-0.2522921 -0.01196,-0.047286 -0.04331,0.017306 -0.06497,0.025963 -0.04337,0.032227 -0.12029,0.1384789 -0.166146,0.014506 -0.01798,-0.048617 -0.03162,-0.4151847 -0.115629,-0.2907907 -0.04041,0.05983 -0.03958,0.3168979 -0.08469,0.2866284 -0.05068,-0.034009 -0.03614,-0.2532227 -0.05421,-0.3798344 -0.108098,0.868794 0.0059,0.3446349 -0.112973,0.2097981 -0.01662,-0.018856 -0.0049,0.12465 -0.02304,0.1271581 -0.0434,0.00601 -0.03852,-0.2279689 -0.09755,-0.1530703 -0.01737,0.022034 -0.01752,0.088939 -0.02628,0.1334081 -0.09678,0.045975 0.03111,0.010855 -0.08231,-0.074293 -0.01137,-0.00854 -0.02127,0.039762 -0.03293,0.034366 -0.01989,-0.0092 -0.03486,-0.095486 -0.05331,-0.074288 -0.122856,0.1411223 0.0042,0.4331232 -0.126686,-0.029849 -0.01537,0.026344 -0.03074,0.052688 -0.04611,0.079032 -0.01186,0.036107 -0.0212,0.078948 -0.03559,0.1083228 -0.0143,0.029181 -0.03396,0.036501 -0.04879,0.06387 -0.01395,0.025764 -0.02084,0.1116639 -0.03652,0.093583 -0.100911,-0.1164249 0.02173,-0.2865128 -0.08016,-0.099171 -0.04848,-0.036389 0.0013,0.3139154 -0.03103,0.2704172 -0.02506,-0.033691 -0.0027,-0.1779842 -0.0289,-0.2053222 -0.02046,-0.021352 -0.02246,0.1070604 -0.0425,0.1307955 -0.0701,0.082942 -0.07777,-0.2635727 -0.10794,-0.503415 -0.122525,1.4749701 0.0339,0.088349 -0.0908,0.2244028 -0.04458,0.048645 -0.01542,0.2571528 -0.04513,0.3556517 -0.01476,0.048943 -0.09963,-0.062863 -0.108234,-0.077393 -0.01629,-0.0275 -0.02939,-0.065842 -0.04408,-0.098764 -0.01064,0.00901 -0.02481,0.00472 -0.03192,0.027018 -0.01387,0.043603 -0.01167,0.1128801 -0.02613,0.1552319 -0.04813,0.1409273 -0.05961,-0.300796 -0.124402,-0.2273321 -0.02891,0.032779 -0.0301,0.1430545 -0.04515,0.2145815 -0.01595,-0.06515 -0.02447,-0.1474015 -0.04784,-0.195451 -0.0087,-0.017852 -0.02355,0.012034 -0.03057,0.034239 -0.01072,0.033995 -0.0032,0.139567 -0.01879,0.1221792 -0.01987,-0.022139 -3.42e-4,-0.1982697 -0.01669,-0.1616966 -0.02015,0.045086 0.0089,0.3243751 -0.0082,0.1459138 -0.07633,-0.3400371 -0.05506,0.1690311 -0.08211,0.1257521 -0.251156,-0.4018458 0.15003,-0.434227 -0.04698,0.010495 -0.105188,0.2374541 0.01701,-0.5755879 -0.04405,-0.133973 -0.01539,0.020748 -0.03635,0.025319 -0.04615,0.062249 -0.01719,0.064697 -0.0096,0.1631854 -0.02943,0.2225498 -0.01064,0.03179 -0.03245,0.00754 -0.04869,0.010906 -0.01322,0.00274 -0.02644,0.00499 -0.03967,0.00747 -0.02067,-0.057766 -0.03157,-0.1773677 -0.06203,-0.1733118 -0.02598,0.00346 -0.02002,0.123717 -0.03003,0.1855756 -0.06908,0.2062383 -0.0096,0.1106865 -0.100157,0.017782 -0.01656,-0.016985 -0.03706,0.00824 -0.05331,-0.01061 -0.02725,-0.031603 -0.04539,-0.1672622 -0.0726,-0.1354349 -0.03475,0.04066 -0.0071,0.2953832 -0.04423,0.2721074 -0.0573,-0.035962 -0.07028,-0.2440187 -0.105434,-0.3660284 0.04172,1.2740279 0.0765,0.4883214 -0.02584,0.4941445 -0.01323,7.46e-4 -0.01747,0.073965 -0.03033,0.065908 -0.02457,-0.015405 -0.03454,-0.1081434 -0.05925,-0.1220664 -0.04049,-0.022824 -0.02828,0.1454727 -0.02724,0.2576519 -0.01824,-0.016921 -0.0079,0.038883 -0.0027,0.038891 0.03196,5.11e-5 0.02654,-0.2007129 0.0055,-0.225572 -0.01556,-0.018402 -0.03287,0.024702 -0.0493,0.037054 -0.02081,-0.055726 -0.03265,-0.1573357 -0.06242,-0.1671773 -0.03006,-0.00993 -0.05144,0.082714 -0.07789,0.1207938 -0.02494,0.035897 -0.04791,0.090883 -0.07621,0.1010101 -0.02205,0.00789 -0.04261,-0.033217 -0.06378,-0.050913 -0.01224,-0.01024 -0.02723,-0.00973 -0.03645,-0.032863 -0.0042,-0.010419 0.01049,-0.012739 0.01573,-0.019107 0.0054,0.044916 -0.0017,0.1241311 0.01609,0.1347448 0.02043,0.012201 0.03521,-0.059251 0.05105,-0.09465 0.0097,-0.021684 0.03594,-0.092927 0.02503,-0.075445 C 11.823771,8.1550848 11.778131,8.4251119 11.735,8.3327106 11.431972,7.6835935 12.020319,7.9190867 11.66363,7.830814 11.64151,7.8303393 11.61616,7.799761 11.59727,7.829394 11.55908,7.889227 11.54954,8.0801226 11.50483,8.0796323 11.46919,8.0792254 11.47704,7.9104615 11.46145,7.8279051 11.44806,7.7570271 11.43959,7.6754203 11.41797,7.619657 11.38602,7.537266 11.33296,7.524907 11.29171,7.5053954 c -0.02645,0.048981 -0.05382,0.094889 -0.07937,0.1469433 -0.116358,0.2369912 -0.05636,0.2546149 -0.09873,-0.1863232 -0.0067,-0.070441 -0.0014,-0.2272511 -0.02825,-0.2051743 -0.246522,0.2028004 0.01841,0.3486584 -0.108916,0.2632041 -0.165095,0.1964971 0.07007,-0.037084 -0.09729,-0.035506 -0.02193,2.065e-4 -0.03687,0.1304396 -0.05424,0.095968 -0.03502,-0.06945 -0.0148,-0.2608947 -0.05441,-0.311445 -0.02665,-0.034028 0.0031,0.1604294 -0.0108,0.2282028 -0.0074,0.036282 -0.02984,0.028689 -0.04476,0.043035 -0.02812,-0.011637 -0.05588,-0.035956 -0.08436,-0.034919 -0.107574,0.00392 -0.02187,0.030755 -0.07649,0.1533595 -0.0053,0.011944 -0.01168,-0.029791 -0.01031,-0.047611 0.0044,-0.05611 0.0075,-0.1268197 0.0262,-0.1578174 0.01109,-0.018402 0.0061,0.066087 0.0092,0.099131 -0.0045,-0.00852 -0.0087,-0.032735 -0.0136,-0.025574 -0.02253,0.0331 -0.03324,0.1450212 -0.05865,0.1317027 -0.06047,-0.031684 0.0365,-0.2435067 -0.01612,-0.2890048 -0.174601,-0.1509757 0.05556,0.3079602 -0.08876,-0.012532 -0.07039,0.09935 -0.07025,0.160491 -0.143307,0.058365 -0.03786,-0.052925 -0.06374,-0.1699601 -0.106109,-0.1899746 -0.133933,-0.063269 0.0083,0.4492324 -0.05543,0.2823393 0.109132,0.088388 -0.01513,-0.3633868 -0.04919,-0.299636 -0.01727,0.032332 -0.02128,0.1032861 -0.04032,0.1282223 -0.03,0.039307 -0.03972,-0.083312 -0.079203,0.011739 0.00188,0.038427 0.0028,0.077253 0.00565,0.1152817 0.022201,0.2958307 0.011657,-0.055494 -0.026582,-0.034453 -0.023045,0.012688 -0.0034,0.128988 -0.018382,0.1758277 -0.00641,0.020057 -0.00856,-0.051727 -0.01754,-0.063555 C 9.852894,7.5205155 9.830837,7.5184575 9.810436,7.5050935 9.806016,7.7723742 9.816456,7.4892045 9.797254,7.5350785 9.780955,7.5740015 9.819831,7.689236 9.793914,7.6655659 9.746827,7.6225539 9.844962,7.4601549 9.742332,7.6909819 9.7218544,7.6567319 9.7002114,7.6267149 9.6808994,7.5882302 9.6531474,7.5329272 9.6027114,7.3571542 9.55239,7.4006061 9.528272,7.4214321 9.519707,7.5011153 9.504463,7.553569 9.490059,7.603131 9.487474,7.701587 9.463513,7.7064375 9.436246,7.7119575 9.420707,7.6187165 9.399304,7.5748556 c 0.0027,0.071174 0.015562,0.1446326 0.00811,0.2135206 -0.0027,0.024977 -0.018648,-0.036061 -0.028198,-0.027856 -0.010134,0.00871 -0.014851,0.041746 -0.018286,0.067804 -0.00171,0.012926 0.00666,0.05155 0.00414,0.039549 C 9.347948,7.7865612 9.349833,7.6568798 9.316975,7.6195527 9.294533,7.5940567 9.314375,7.745733 9.313095,7.8088223 9.301435,7.9084803 9.310695,8.0462371 9.278114,8.1077971 9.257814,8.1461511 9.242815,8.0081031 9.219086,7.9864343 9.201447,7.9703253 9.181315,8.0160943 9.163309,8.0029513 9.140848,7.9865563 9.128308,7.9044343 9.104967,7.9031393 9.086853,7.9021193 9.067199,7.9512283 9.064812,7.9974863 9.058052,8.1283592 9.074762,8.260285 9.079744,8.3916833 9.0064542,8.7404231 8.9317842,8.1495425 8.9784044,8.1330765 c 0.027006,-0.00953 0.05085,0.051851 0.074583,0.086395 0.019215,0.027968 0.031735,0.1081074 0.053588,0.1001629 0.018339,-0.00666 0.016296,-0.085689 0.024442,-0.1285322 -2.89e-5,0.043147 0.011928,0.099374 -8.68e-5,0.1294396 -0.00869,0.021736 -0.016431,-0.04713 -0.021468,-0.0755 -0.013522,-0.076177 -0.00213,-0.2549857 -0.03378,-0.23574 -0.041465,0.025217 -0.019222,0.2524698 -0.058949,0.292131 -0.026523,0.026479 -0.024423,-0.133737 -0.042,-0.191346 -0.011527,-0.03778 -0.029185,-0.059865 -0.043778,-0.089799 -0.080725,-0.1035951 -0.038838,-0.092488 -0.073717,0.2874802 -0.00155,0.016951 -1.136e-4,-0.044389 0.00633,-0.049641 0.011572,-0.00943 0.025717,-0.00169 0.035926,0.015215 0.033372,0.055264 0.017351,0.1319416 0.029805,0.04918 0.1100512,-0.4285733 0.081382,-0.186739 0.043601,-0.2125897 -0.013146,-0.009 -0.03094,-0.00442 -0.038723,-0.033156 -0.015521,-0.057305 -0.00399,-0.1539838 -0.024416,-0.1999583 -0.013641,-0.030699 -0.035666,0.0164 -0.053498,0.024599 -0.015346,-0.037446 -0.030692,-0.074891 -0.046038,-0.1123379 -0.018984,0.036008 0.023116,-0.044005 -0.040744,0.082174 -0.1516537,0.2996484 0.08293,-0.1086932 -0.084121,-0.2804634 -0.1515936,-0.1558758 0.031857,0.8391988 -0.09229,0.047721 0.00391,0.00674 0.2035688,0.3195091 0.022891,0.3321179 -0.036468,0.00254 0.00711,-0.188069 0.00406,-0.2817103 -0.00101,-0.03124 -0.010379,-0.1124662 -0.015951,-0.084597 -0.067035,0.3352632 -0.032652,0.6686998 -0.062714,0.060916 -0.012467,0.020796 -0.024934,0.041592 -0.037402,0.062387 -0.010619,0.073798 -0.00877,0.1698388 -0.031857,0.2213934 -0.011215,0.025045 -0.016057,-0.064313 -0.024085,-0.096471 -0.043621,0.0034 -0.025017,1.5923875 0.018603,1.5889994 v 0 C 8.492122,9.7613508 8.471226,9.024241 8.492334,9.3101792 8.514842,9.2462172 8.489194,9.3080392 8.503889,9.424478 8.505629,9.438261 8.51544,9.449364 8.519681,9.439839 8.534319,9.406965 8.533139,9.3226631 8.552364,9.315608 8.6570683,9.277186 8.490505,9.8005097 8.637164,9.215903 8.617859,9.244128 8.627644,9.236211 8.601643,9.309649 8.594273,9.330468 8.587158,9.3528 8.578056,9.368431 8.574006,9.375381 8.583276,9.347285 8.585886,9.336713 8.588516,9.390639 8.591146,9.4445641 8.593776,9.49849 8.589596,9.474043 8.589716,9.44051 8.581242,9.425147 8.576822,9.417147 8.574032,9.445851 8.570425,9.456203 8.585075,9.370141 8.599726,9.2840792 8.614377,9.1980174 8.619717,9.1749054 8.643585,9.1276134 8.640444,9.1532644 8.625647,9.2741152 8.572587,9.3713547 8.577722,9.4973813 c 0.00282,0.0692 0.048709,-0.060196 0.073064,-0.090293 0.045427,0.2419523 -0.017931,-0.008 0.1102181,0.081826 0.026759,0.018759 0.037067,0.1254062 0.064536,0.1352431 0.019125,0.00684 0.034613,-0.1393805 0.044253,-0.096285 0.023245,0.1039295 -0.028812,0.3124466 0.014273,0.3579479 0.038775,0.040949 0.015582,-0.2121268 0.023372,-0.3181903 0.00879,0.031015 0.021433,0.05682 0.026385,0.093049 0.011302,0.082685 -0.012468,0.2507317 0.021475,0.2570979 0.034612,0.00648 0.019888,-0.1766926 0.042202,-0.245155 0.00658,-0.020178 0.02204,0.00755 0.028788,0.027354 0.013482,0.039555 0.00841,0.127795 0.028282,0.140095 0.022147,0.013709 0.039803,-0.057084 0.059705,-0.085627 0.024829,-0.016463 0.049809,-0.067308 0.074484,-0.049386 0.043825,0.031833 0.075945,0.2451031 0.1155993,0.1874564 0.044104,-0.064116 -0.00136,-0.2713468 0.021853,-0.3872773 0.010828,-0.054063 0.045295,-0.035042 0.067238,-0.057542 0.017712,-0.018161 0.03364,-0.046862 0.051479,-0.064183 0.00506,-0.00491 -0.00839,0.017605 -0.012575,0.026408 -0.010434,0.029029 -0.017453,0.1041948 -0.0313,0.087085 -0.024714,-0.030538 -0.032878,-0.1146192 -0.043583,-0.1796173 -0.00262,-0.015868 7.843e-4,-0.060724 0.00586,-0.049468 0.031811,0.070633 0.014932,0.2383977 0.060165,0.2851449 0.00978,0.01989 2.23e-5,-0.064193 3.34e-5,-0.09629 0.030136,-0.033543 0.059135,-0.074244 0.090027,-0.1028684 0.01908,-0.017679 0.042416,-0.011816 0.058384,-0.044008 0.010853,-0.021882 0.00504,-0.072555 0.013416,-0.1007422 0.031182,-0.1049023 0.067011,0.059528 0.083958,0.098473 -0.057268,-0.7872724 -0.03831,-0.2972895 0.034281,-0.1028068 0.019023,0.050963 -0.00902,-0.1750307 0.015168,-0.2084637 0.027164,-0.037554 0.05413,0.1025518 0.060223,0.1252268 0.00785,-0.055955 8.592e-4,-0.1570112 0.023569,-0.1678667 0.02377,-0.011355 0.02755,0.1203376 0.051292,0.1320879 0.016358,0.0081 0.021116,-0.070465 0.036175,-0.088802 0.011927,-0.014523 0.027153,0.00818 0.039554,-0.00341 0.034561,-0.032294 0.033197,-0.088471 0.042831,-0.1664394 -0.0059,0.033984 -0.01454,0.065639 -0.01776,0.1019495 -7.35e-4,0.00834 0.0091,2.588e-4 0.0094,-0.00827 0.0011,-0.029093 0.0022,-0.1066157 -0.0059,-0.086332 -0.035965,0.089308 0.01348,0.1730797 0.03988,0.1689503 0.01487,-0.00235 0.02412,-0.045045 0.03618,-0.067567 0.04507,-0.067824 0.02114,-0.061869 0.07206,-0.00832 0.01432,-0.01247 0.0139,-0.1231647 0.02515,-0.09717 0.02684,0.062022 0.01293,0.3054164 0.0433,0.2553343 0.03885,-0.06407 -0.0097,-0.2561197 0.01647,-0.3539148 0.01245,-0.046485 0.04031,0.044458 0.06047,0.066687 0.02477,0.075155 0.04177,0.2773053 0.07433,0.2254663 0.03508,-0.055852 0.0066,-0.2299115 -0.01788,-0.3153399 -0.01465,-0.051068 0.0043,0.1940635 -0.01997,0.1834282 -0.04102,-0.017951 -0.05808,-0.153524 -0.08711,-0.2302862 -0.01898,0.037685 -0.03309,0.1072206 -0.05695,0.113053 -0.01318,0.00322 0.0045,-0.067197 0.0068,-0.1007947 -0.0063,0.071591 -0.03923,0.2744478 0.01147,0.3343503 0.02593,0.030636 0.05752,-0.039451 0.08518,-0.021468 0.07976,0.051854 0.12947,0.4103622 0.224274,0.3723564 0.364665,-0.6619693 -0.16737,0.1672661 0.250143,0.028168 0.04045,-0.013476 0.0289,-0.1964662 0.04334,-0.2946997 0.0061,-0.046461 -2.9e-4,-0.1290613 0.01833,-0.1393824 0.01781,-0.00988 0.02009,0.1409002 0.03394,0.1104066 0.01575,-0.034656 -0.0086,-0.1043473 -0.01299,-0.1565208 0.01188,0.061159 0.01368,0.1450883 0.03565,0.1834773 0.01127,0.0197 0.02896,-0.030887 0.03217,-0.065003 0.0074,-0.078621 0.01417,-0.1752925 -0.0033,-0.2425142 -0.01322,-0.050872 -0.0085,0.1204478 -0.01277,0.1806717 -0.006,0.00832 -0.01325,0.037495 -0.01801,0.02494 -0.0049,-0.012875 0.006,-0.032587 0.0089,-0.048878 0.0083,0.019416 0.0145,0.048004 0.025,0.058246 0.01473,0.014356 0.03622,-0.017565 0.04702,0.011944 0.0227,0.061986 0.01246,0.1937835 0.04213,0.2314777 0.0237,0.0301 0.04594,-0.1015381 0.07173,-0.086826 0.04557,0.025995 0.04406,0.2693599 0.112178,0.2158941 0.114126,0.011906 0.06054,0.058344 0.149669,-0.2054107 0.02998,-0.00454 0.02559,0.1458431 0.04872,0.1952022 0.03888,0.082988 0.09075,-0.066907 0.11864,-0.1056225 -0.01244,0.062685 -0.02161,0.1304642 -0.03733,0.1880533 -0.0059,0.021573 3.56e-4,-0.057001 0.007,-0.07702 0.0031,-0.00925 0.0068,0.019094 0.01151,0.021352 0.02138,0.010394 0.0511,-0.027282 0.06501,0.015842 0.199802,0.6195746 -0.144733,0.00532 0.119884,0.4229259 0.02991,0.043477 0.06738,0.063264 0.08974,0.1304328 0.03027,0.090964 0.02219,0.3884369 0.06116,0.3230459 0.02849,-0.0478 0.0079,-0.6929612 0.136779,-0.5579715 0.02974,0.031149 0.03792,0.16557 0.06997,0.1704905 0.03018,0.00463 0.04656,-0.099349 0.06985,-0.149024 0.01,0.017436 0.104641,0.1950709 0.123344,0.1823973 0.02891,-0.019585 0.03859,-0.1209502 0.06382,-0.1622212 0.01803,-0.029493 0.04737,-0.00282 0.06183,-0.04332 0.01658,-0.04643 -0.0055,-0.185915 0.01895,-0.1828672 0.0349,0.00434 0.04852,0.129529 0.07278,0.1942934 -0.01416,-0.1114857 -0.03498,-0.218753 -0.04246,-0.3344566 -0.0023,-0.034991 0.01816,0.053478 0.02617,0.082338 0.0076,0.027333 0.06664,0.2762684 0.06918,0.2705687 0.09173,-0.2055517 -0.07606,-0.4318246 0.07567,-0.162078 0.02106,0.00997 0.04238,0.042861 0.0632,0.029921 0.01652,-0.010265 0.02767,-0.05432 0.03641,-0.091826 0.01695,-0.072691 0.0065,-0.2306513 0.0394,-0.2332701 0.04174,-0.00332 0.05091,0.2567647 0.09054,0.2229284 0.05449,-0.04652 -0.0077,-0.335436 0.02643,-0.4383098 0.02165,0.1107078 0.03752,0.2302665 0.06494,0.3321219 0.0038,0.014218 0.01036,-0.022111 0.01591,-0.031847 0.0058,-0.010073 0.01677,-0.00979 0.01792,-0.027453 0.0052,-0.080166 -0.0056,-0.163725 -3.03e-4,-0.2438438 0.0028,-0.04332 0.0083,-0.1326466 0.0242,-0.1161866 0.02118,0.022037 0.01567,0.1105438 0.02351,0.1658159 0.06517,-0.3659911 0.01086,-0.1948099 0.08308,0.081912 0.0073,0.027906 0.03211,0.059558 0.03752,0.028955 0.01562,-0.088335 -0.0071,-0.202228 0.0087,-0.2903264 0.01197,-0.066642 0.04664,0.6343455 0.005,-0.092176 0.0088,0.091625 0.01762,0.1832505 0.02643,0.2748758 0.01037,-0.00754 0.02207,-0.037635 0.03113,-0.022599 0.01635,0.027127 0.02026,0.167377 0.0315,0.1265045 0.02366,-0.085981 -0.0032,-0.2246411 0.01957,-0.3121234 0.01206,-0.046257 0.05764,0.3001179 0.0649,-0.00153 0.01212,0.011867 0.02459,0.021565 0.03636,0.035591 0.01126,0.013431 0.02047,0.053908 0.03255,0.046564 0.01879,-0.011419 0.0258,-0.097697 0.04504,-0.093744 0.02086,0.00429 0.02676,0.1377631 0.0452,0.1122906 0.08488,-0.1171849 -0.01616,-0.5657169 0.08264,0.066727 0.01139,0.030537 0.02332,0.059774 0.03415,0.091614 0.01192,0.035067 0.01902,0.1348412 0.03406,0.1089187 0.02582,-0.044486 0.0086,-0.1748602 0.03299,-0.2244675 0.01592,-0.032393 0.0389,0.033224 0.05913,0.036932 0.122327,0.022437 -10e-4,-0.087197 0.127118,0.06168 0.01812,-0.072062 0.03071,-0.1556993 0.05437,-0.2161871 0.01935,-0.049478 0.11774,-0.088956 0.142759,-0.063811 0.02036,0.020467 0.02978,0.1012113 0.05161,0.1042128 0.01369,0.0019 0.01235,-0.063045 0.01853,-0.094568 0.08408,0.051096 0.01966,0.010676 0.06756,-0.1855099 0.0063,-0.026163 0.02425,-0.047292 0.03411,-0.02967 0.0252,0.045063 0.03238,0.1370024 0.05531,0.1895208 0.01457,0.033389 0.03578,0.040063 0.05366,0.060096 0.01622,-0.018561 0.03497,-0.026571 0.04866,-0.055679 0.01694,-0.036037 0.01854,-0.1357588 0.0405,-0.1339596 0.02711,0.0022 0.03267,0.1396358 0.05977,0.1421732 0.02601,0.00245 0.0343,-0.1501519 0.05924,-0.1310299 0.04033,0.030918 0.0444,0.2731454 0.08463,0.241306 0.04551,-0.03602 0.03207,-0.2309151 0.04811,-0.3463725 0.0245,0.049292 0.04259,0.156554 0.07349,0.1478782 0.02337,-0.00656 0.01576,-0.1145909 0.02,-0.1741257 0.0054,-0.075983 -2.1e-4,-0.1569773 0.0088,-0.2306341 0.0019,-0.015625 0.01712,-0.012047 0.01903,0.00358 0.01178,0.096163 0.0033,0.2054842 0.01801,0.2989253 0.01105,0.070143 -0.0044,-0.150964 -0.0066,-0.2264458 0.005,-0.031623 0.0093,-0.1256625 0.01504,-0.094865 0.01282,0.068863 0.0064,0.1518317 0.0097,0.2277474 0.0094,-0.00129 0.02186,-0.021793 0.02815,-0.00382 0.01401,0.040062 0.0025,0.1412743 0.02315,0.1504119 0.03742,0.016575 0.04784,-0.2095909 0.0968,-0.15472 -0.0036,0.2391208 -0.04801,0.3851282 0.06046,0.3709977 0.02578,-0.00336 0.05357,-0.097425 0.07417,-0.057338 0.02139,0.041632 -0.01149,0.148478 0.0027,0.2070175 0.02681,0.1104348 0.124138,0.012265 0.145343,-3.729e-4 0.126212,0.1242861 0.06343,0.036648 0.184191,0.2817577 0.105633,0.118114 0.06856,-0.015975 0.147554,-0.042824 0.01516,-0.00515 0.0313,0.043463 0.04485,0.025119 0.02006,-0.027181 0.02697,-0.093822 0.04048,-0.140733 0.01188,-0.010547 0.02547,-0.012662 0.03566,-0.031629 0.01266,-0.023569 0.01606,-0.1069079 0.0305,-0.091589 0.02805,0.029775 -0.01288,0.3515407 -0.0011,0.3520438 0.0349,0.00149 0.05138,-0.1217691 0.07708,-0.182654 0.01272,0.020677 0.1142,0.180966 0.124353,0.215491 0.0256,0.087054 0.02117,0.2381847 0.05821,0.2913067 0.02689,0.038572 0.06097,-0.039284 0.08642,-0.083898 0.04038,-0.070796 0.05894,-0.245413 0.107613,-0.2562464 0.04942,-0.010996 0.08396,0.1361727 0.125934,0.2042594 0.04591,-0.043379 0.08884,-0.1342477 0.137715,-0.1301373 0.537839,0.045233 -0.241025,0.2799412 0.298926,0.2440716 0.281949,-0.018731 -0.0059,-0.1825093 0.233437,-0.4988062 0.02846,-0.037617 0.0477,0.1098184 0.07155,0.1647284 0.04771,-0.00938 -0.0038,-1.7473632 -0.05149,-1.7379862 z" />
  </g>
</svg>
