<?xml version="1.0" encoding="UTF-8" standalone="no"?>
<!-- Created with Inkscape (http://www.inkscape.org/) -->

<svg
   width="63.999996"
   height="63.999996"
   viewBox="0 0 16.933332 16.933332"
   version="1.1"
   id="svg5"
   inkscape:version="1.2.2 (732a01da63, 2022-12-09)"
   sodipodi:docname="tiles_vine_left_top.svg"
   inkscape:export-filename="tiles_vine_left_bottom.svg"
   inkscape:export-xdpi="96"
   inkscape:export-ydpi="96"
   xmlns:inkscape="http://www.inkscape.org/namespaces/inkscape"
   xmlns:sodipodi="http://sodipodi.sourceforge.net/DTD/sodipodi-0.dtd"
   xmlns="http://www.w3.org/2000/svg"
   xmlns:svg="http://www.w3.org/2000/svg">
  <sodipodi:namedview
     id="namedview7"
     pagecolor="#ffffff"
     bordercolor="#000000"
     borderopacity="0.25"
     inkscape:showpageshadow="2"
     inkscape:pageopacity="0.0"
     inkscape:pagecheckerboard="true"
     inkscape:deskcolor="#d1d1d1"
     inkscape:document-units="px"
     showgrid="true"
     showguides="true"
     inkscape:zoom="7.796875"
     inkscape:cx="28.665331"
     inkscape:cy="32.256513"
     inkscape:window-width="958"
     inkscape:window-height="1008"
     inkscape:window-x="946"
     inkscape:window-y="0"
     inkscape:window-maximized="0"
     inkscape:current-layer="layer1">
    <inkscape:grid
       type="xygrid"
       id="grid88"
       spacingx="2.1166666"
       spacingy="2.1166666"
       empspacing="8" />
  </sodipodi:namedview>
  <defs
     id="defs2" />
  <g
     inkscape:label="Layer 1"
     inkscape:groupmode="layer"
     id="layer1">
    <circle
       id="path5383"
       style="fill:#3b2625;stroke:#000000;stroke-width:0.264583"
       cx="1.0557964"
       cy="-6.8552899"
       r="0.0063923118"
       transform="rotate(90)" />
    <rect
       style="fill:#35201f;fill-opacity:1;stroke-width:0.264583;stroke-dasharray:none"
       id="rect7797"
       width="16.933332"
       height="16.933332"
       x="7.1439058e-07"
       y="-16.933332"
       transform="rotate(90)" />
    <path
       style="fill:#3a2524;fill-opacity:1;stroke-width:0.264583;stroke-dasharray:none"
       id="path8684"
       d="m 9.1449598,11.818514 c 0.1975173,-0.119742 0.3205118,-0.18162 0.4952124,-0.358749 0.3853958,-0.390752 0.7018708,-0.959292 0.7588768,-1.5113924 0.02178,-0.210943 -0.02664,-0.4232915 -0.03996,-0.6349372 0.08505,-0.247886 -3.4205929,-1.4505988 -3.5056374,-1.2027128 v 0 c -0.04995,0.175836 -0.131928,0.3455956 -0.149847,0.5275083 -0.02135,0.2167263 0.0057,0.4364844 0.03362,0.6524601 0.073129,0.5653307 0.251134,1.1161 0.5424964,1.606439 0.046165,0.07769 0.1058124,0.146535 0.1587185,0.219803 -0.049609,0.12067 1.6569182,0.822251 1.7065273,0.701581 z" />
    <path
       style="fill:#3a2524;fill-opacity:1;stroke-width:0.264583;stroke-dasharray:none"
       id="path9461"
       d="m 0.91730749,2.8451342 c 0.16565191,0.121487 0.37548711,0.1388 0.57025811,0.08199 0.148621,-0.04335 0.245922,-0.117402 0.377208,-0.198577 0.164432,-0.159347 0.183626,-0.148259 0.279549,-0.346337 0.0052,-0.01067 0.0079,-0.04209 -0.002,-0.03552 -0.05075,0.03377 -0.07839,0.09853 -0.133104,0.125405 -0.6284,0.308722 -0.265821,-0.0029 -0.546057,0.261064 0.01064,0.06726 0.01294,0.136383 0.03194,0.201776 0.0594,0.204513 0.184729,0.387983 0.36831,0.499938 0.05147,0.03139 0.386242,0.1471 0.386845,0.147317 0.809157,-0.118133 0.552823,0.07287 0.907021,-0.311468 0.04393,-0.07762 -1.053749,-0.698917 -1.097682,-0.621299 v 0 c 0.347077,-0.118212 0.09004,-0.04447 0.797667,-0.08538 0.05451,0.0088 0.119346,0.05955 0.163534,0.02643 0.04085,-0.03061 0.01239,-0.10248 0.0054,-0.153052 -0.03829,-0.27807 -0.197864,-0.534454 -0.410164,-0.714195 -0.08376,-0.07091 -0.184508,-0.1188871 -0.276762,-0.1783301 -0.42763,-0.147075 -0.436549,-0.213529 -0.957473,-0.03873 -0.08217,0.02757 -0.12986,0.114866 -0.192906,0.174338 -0.01394,0.01315 -0.04941,0.05859 -0.03783,0.04332 0.06945,-0.09155 0.05133,-0.0677 0.146221,-0.135823 0.01552,-0.0099 0.04294,-0.01162 0.04655,-0.02966 0.0026,-0.01306 -0.02514,-0.01087 -0.03845,-0.01082 -0.02772,9.7e-5 -0.0552,0.006 -0.08241,0.01125 -0.04405,0.0086 -0.08955,0.01359 -0.1311752,0.03036 -0.0135,0.0054 -0.15386691,0.09927 -0.17452691,0.112975 -0.08083,0 -0.08083,1.143037 0,1.143037 z" />
    <path
       style="fill:#3a2524;fill-opacity:1;stroke-width:0.264583;stroke-dasharray:none"
       id="path9463"
       d="m 1.6601276,7.7039739 c -0.01823,0.00669 -0.03884,0.00886 -0.0547,0.020058 -0.135092,0.095367 -0.251323,0.22191 -0.346831,0.3554431 -0.1520492,0.2125829 -0.2121132,0.3471515 -0.26956511,0.603446 -0.01928,0.08602 -0.01996,0.1751764 -0.02994,0.2627649 0.0093,0.060038 -0.0092,0.132021 0.02795,0.1801148 0.02496,0.032338 0.08108,0.017412 0.12177391,0.013835 0.09561,-0.0084 0.1876802,-0.050515 0.2836512,-0.049462 0.1056,0.00116 0.208119,0.036082 0.311831,0.055995 0.121646,0.023357 0.08564,0.05616 0.12779,-0.00833 0.0029,-0.00838 0.0087,-0.034026 0.0087,-0.025157 2.21e-4,0.1043136 0.01291,0.2106544 -0.0081,0.3128378 -0.0048,0.023331 -0.04189,0.022696 -0.06305,0.033618 -0.187685,0.096851 -0.355229,0.2546103 -0.563495,0.2896989 -0.57583711,0.097017 -0.34450611,-0.3397155 -0.48994711,0.019553 -0.0273,0.2167167 0.0034,0.3938476 0.0883,0.5937666 0.02984,0.07029 0.06083,0.140592 0.100298,0.205969 0.06981,0.115649 0.18032991,0.236325 0.26831711,0.338742 0.08792,0.07602 0.145216,0.134539 0.245169,0.190628 0.02628,0.01475 0.06301,0.05559 0.08384,0.03382 0.01986,-0.02076 -0.04456,-0.04348 -0.04724,-0.07208 -0.02152,-0.229848 -0.0162,-0.461421 -0.02431,-0.692131 -0.04825,0.06345 0.849003,0.745879 0.897259,0.682433 v 0 c 5.82e-4,-0.247609 0.02592,-0.4964 0.0017,-0.742828 -0.0054,-0.05478 -0.06402,-0.09014 -0.08829,-0.139545 -0.0136,-0.02769 -0.01674,-0.147009 -0.0287,-0.1793063 -0.02864,-0.1890131 0.0045,0.057086 -0.0097,-0.1706492 -0.0029,-0.046796 -0.01006,-0.093241 -0.01624,-0.139719 -0.03071,-0.2311739 -0.06831,-0.4161184 -0.2154,-0.6069788 C 1.8026306,8.8958942 1.5787196,8.6336403 1.3185176,8.6346012 1.0930664,8.6354214 0.89752949,8.8017385 0.70450049,8.9182227 c -0.0484,0.029207 -0.08249,0.086728 -0.09203,0.1424463 -0.05591,0.3265268 -0.0282,0.418397 0.01475,0.6802022 0.02706,0.066203 0.04216,0.1386774 0.08119,0.1986108 0.160342,0.246217 0.34558391,0.385059 0.65883511,0.436441 0.28727,0.04712 0.575285,-0.06267 0.815802,-0.201846 0.0936,-0.05416 0.173776,-0.128755 0.260665,-0.1931329 0.209533,-0.2802345 0.285363,-0.3238765 0.370056,-0.6792526 0.03383,-0.1419611 0.05056,-0.2890234 0.04989,-0.4349589 -0.0012,-0.2574083 -0.118819,-0.4886655 -0.124023,-0.7433889 0.02965,-0.076337 -1.04991,-0.4957067 -1.079564,-0.4193701 z" />
    <path
       style="fill:#3a2524;fill-opacity:1;stroke-width:0.264583;stroke-dasharray:none"
       id="path9465"
       d="m 4.8943706,6.0942582 c 0.146872,-0.0087 0.27155,-0.08091 0.391582,-0.160202 0.181456,-0.119864 0.247432,-0.15769 0.37749,-0.335873 0.04716,-0.06461 0.08025,-0.138396 0.120369,-0.207595 0.20686,-0.504251 0.268316,-0.799697 0.126682,-1.360853 -0.02435,-0.09649 -0.221706,-0.289587 -0.276797,-0.34902 0.117384,0.08952 -0.398683,-0.285615 -0.345043,-0.169275 0.03856,0.08364 0.197608,0.07924 0.218662,0.168897 0.87157,0.486519 -0.157215,0.634274 -0.116313,0.95101 0.0078,0.0601 0.101283,0.06657 0.151924,0.09986 0.215573,0.04779 0.286033,0.07648 0.510612,0.07272 0.08218,-0.0014 0.163455,-0.01743 0.245182,-0.02615 0.122369,0.0024 0.155894,-1.728185 0.03353,-1.730556 v 0 c -0.103544,-0.01299 -0.206286,-0.03763 -0.310634,-0.03897 -0.317119,-0.0041 -0.374599,0.03903 -0.670106,0.131233 -0.129922,0.07242 -0.605158,0.317882 -0.652623,0.44238 -0.353964,0.928443 -0.148646,0.635976 0.18786,1.035088 0.03423,0.0406 -0.194221,-0.07061 -0.151789,-0.04835 -0.02158,-0.01342 -0.03954,-0.03693 -0.06473,-0.04025 -0.01652,-0.0022 -0.03836,0.0422 -0.04263,0.02609 -0.02684,-0.101234 -0.03169,-0.20771 -0.03329,-0.312431 -2.64e-4,-0.01757 0.02118,0.02824 0.02919,0.04388 0.0074,0.01448 0.02058,0.03001 0.0168,0.04584 -0.0084,0.03502 -0.0337,0.06363 -0.05055,0.09544 -0.05739,0.109359 -0.09317,0.159567 -0.119677,0.282084 -0.0094,0.04348 -0.0027,0.08942 -0.01204,0.132912 -0.0068,0.0316 -0.02601,0.05931 -0.03578,0.09012 -0.0074,0.02345 -0.0229,0.109338 -0.02806,0.13684 -0.07249,0.03537 0.427712,1.060496 0.500199,1.025126 z" />
    <path
       style="fill:#3a2524;fill-opacity:1;stroke-width:0.264583;stroke-dasharray:none"
       id="path9467"
       d="m 8.7630957,1.8535502 c -0.091394,-0.04458 -0.058059,-0.04707 -0.184653,0.05147 -0.2341589,0.182266 -0.3796808,0.406543 -0.4726821,0.68829 -0.030382,0.09204 -0.042994,0.189028 -0.064491,0.283542 -0.00976,0.265143 -0.038934,0.759439 0.043234,0.950652 0.1694538,0.394334 0.6812744,0.529235 1.0605885,0.492376 0.067771,-0.0066 0.1333458,-0.02764 0.2000184,-0.04146 0.1298953,-0.05093 0.2583143,-0.116252 0.3666143,-0.205849 0.020857,-0.01726 0.040685,-0.03646 0.056122,-0.0587 0.00753,-0.01085 0.021415,-0.02988 0.011041,-0.03805 -0.018164,-0.01431 -0.045965,-0.005 -0.068947,-0.0076 -0.9303224,-0.244577 -0.079564,0.04934 -0.5583343,-0.25139 -0.014012,-0.0088 -0.038938,0.0058 -0.044869,0.02123 -0.016558,0.04312 -0.012692,0.09158 -0.016129,0.137642 -0.00992,0.133085 -0.00909,0.267221 -0.010541,0.400509 0.011647,0.08806 0.023297,0.176114 0.034944,0.264171 0.054228,0.100987 1.4823575,-0.665898 1.4281295,-0.766882 v 0 c -0.03231,-0.06063 -0.06462,-0.121253 -0.09693,-0.18188 -0.03327,-0.05481 -0.063,-0.111929 -0.09981,-0.16442 -0.132343,-0.18869 -0.03191,-0.02425 -0.141577,-0.148407 -0.0726,-0.08219 -0.138354,-0.230494 -0.2287886,-0.279453 -0.1308748,-0.07085 -0.2851933,-0.08519 -0.4277899,-0.127792 -0.036605,-1.21e-4 -0.073273,0.0018 -0.109814,-3.71e-4 -0.1766128,-0.01045 0.048802,-0.01018 -0.1304338,-0.0182 -0.098067,-0.0044 -0.1968783,0.01247 -0.2921479,0.03332 -0.031977,0.01417 -0.067738,0.02182 -0.095933,0.04252 -0.016817,0.01235 -0.047442,0.03695 -0.033765,0.0527 0.2244168,0.258526 0.2497948,-0.07824 0.4375889,0.407124 0.055208,0.14269 -0.012226,0.31123 0.031216,0.457931 0.010083,0.03405 0.057082,-0.04225 0.085624,-0.06337 0.041528,-0.06098 0.088851,-0.118392 0.1245843,-0.182938 0.093082,-0.168128 0.1711037,-0.375362 0.20794,-0.563056 0.048389,-0.246557 0.024477,-0.50008 0.048259,-0.748643 0.030764,-0.07483 -1.027499,-0.5099 -1.0582629,-0.435069 z" />
    <path
       style="fill:#3a2524;fill-opacity:1;stroke-width:0.264583;stroke-dasharray:none"
       id="path9469"
       d="m 4.4101936,16.218764 c 0.221795,-0.02311 0.405728,-0.09283 0.55929,-0.261553 0.108543,-0.119259 0.161873,-0.228086 0.244695,-0.368079 0.146315,-0.314883 0.20401,-0.690597 0.0883,-1.024261 -0.02993,-0.0863 -0.108528,-0.222335 -0.165729,-0.293755 -0.03652,-0.0456 -0.08075,-0.08444 -0.121129,-0.126657 -0.116459,-0.106764 -0.161159,-0.163569 -0.303598,-0.233574 -0.05196,-0.02554 -0.107726,-0.04322 -0.163667,-0.05813 -0.03405,-0.0091 -0.130007,-0.03813 -0.104854,-0.01345 0.483832,0.474687 0.210236,-0.298242 0.357467,0.853328 -0.0021,0.02402 -0.02489,0.05672 -0.0063,0.07207 0.01849,0.01525 0.04676,-0.01133 0.06896,-0.02037 0.122466,-0.04983 0.175268,-0.09773 0.256917,-0.195325 0.0041,-0.03519 0.05391,-0.04835 0.06083,-0.08155 0.002,-0.0094 -0.02617,-0.01739 -0.01805,-0.02255 0.207677,-0.131895 0.346963,-0.07496 0.448278,-0.388229 0.04704,-0.145434 0.0033,-0.305682 0.005,-0.458524 0.009,-0.0064 0.02074,-0.01 0.02693,-0.01905 0.008,-0.0118 0.01212,-0.05476 0.01368,-0.04058 0.01112,0.100914 0.08772,0.303638 -0.01381,0.304261 0.0081,-0.01658 0.0171,-0.03276 0.02439,-0.04973 0.01369,-0.03188 0.01822,-0.05986 0.01632,-0.06052 -0.01241,-0.0043 -0.0251,0.0078 -0.03748,0.01224 -0.04731,0.01685 -0.09138,0.05348 -0.141566,0.05155 -0.157949,-0.0061 -0.312152,-0.05001 -0.468228,-0.07501 0.06418,0.04419 0.689043,-0.863403 0.624867,-0.907587 v 0 c -0.165118,-0.0329 -0.327101,-0.09257 -0.495352,-0.09869 -0.07077,-0.0026 -0.135685,0.04244 -0.199378,0.0734 -0.120422,0.05854 -0.207728,0.173677 -0.28056,0.281192 -0.02659,0.04138 -0.05689,0.0806 -0.07978,0.124132 -0.134057,0.254932 -0.168018,0.591109 -0.03338,0.850885 0.0055,-0.132106 -0.03061,-0.27276 0.01646,-0.396317 0.170404,-0.447287 0.188505,-0.122571 0.415572,-0.333886 0.02112,-0.01966 -0.05723,-0.0074 -0.08582,-0.01124 -0.120267,-0.01615 -0.04689,-0.01177 -0.200779,-0.0057 -0.124715,0.026 -0.220977,0.03868 -0.338445,0.09573 -0.257254,0.124945 -0.416476,0.366494 -0.557284,0.604481 0.01239,0.260962 -0.04704,0.53557 0.03716,0.782888 0.042,0.123381 0.208073,0.157054 0.310338,0.237857 0.0068,0.0053 0.01998,0.0124 0.01623,0.02017 -0.0077,0.01593 -0.07715,-0.0541 -0.08213,-0.05706 -0.01314,-0.0011 -0.02754,-0.0092 -0.03941,-0.0034 -0.02041,0.0099 -0.03549,0.08651 -0.03703,0.09326 -0.0042,0.01856 -0.01298,0.07502 -0.0101,0.0562 0.05049,-0.330492 -0.0555,-0.301293 0.09777,-0.320858 0.0076,0.0023 0.02479,-6.62e-4 0.02274,0.007 -0.0051,0.01902 -0.02471,0.03065 -0.03694,0.04608 -0.02105,0.02653 -0.04529,0.05085 -0.06291,0.07978 -0.01686,0.02768 -0.07245,0.150263 -0.0745,0.189846 -9.52e-4,0.01851 0.01346,0.03455 0.02019,0.05182 -0.07336,0.03011 0.352452,1.067593 0.425813,1.037483 z" />
    <path
       style="fill:#3a2524;fill-opacity:1;stroke-width:0.264583;stroke-dasharray:none"
       id="path9471"
       d="m 12.348407,12.806967 c -0.05849,-0.0372 -0.146518,-0.09721 -0.20992,-0.116234 -0.238666,-0.07163 -0.51202,-0.0377 -0.743304,0.04194 -0.103446,0.03562 -0.199595,0.08968 -0.299393,0.134513 -0.0877,0.06303 -0.180989,0.118928 -0.263088,0.189094 -0.191001,0.16324 -0.353664,0.370179 -0.447659,0.604616 -0.04068,0.101466 -0.06811,0.243303 -0.09198,0.350575 -0.03128,0.229319 -0.07648,0.476592 0.02887,0.700525 0.06008,0.127703 0.210274,0.191489 0.332343,0.262322 0.05231,0.03035 0.118762,0.02291 0.178222,0.03394 0.0028,5.02e-4 0.01102,0.0017 0.0084,6.88e-4 -0.123356,-0.049 -0.247315,-0.09647 -0.370972,-0.144698 -0.04407,-0.0216 -0.08319,-0.06719 -0.13221,-0.0648 -0.08872,0.0043 -0.08082,0.269094 -0.109984,0.208456 -0.03673,-0.07637 -0.01156,-0.169264 -0.0108,-0.254006 1.56e-4,-0.01735 0.003,0.03602 0.01263,0.05049 0.0079,0.01188 0.02401,0.01534 0.03601,0.02301 0.02668,-0.0088 0.05335,-0.01769 0.08002,-0.02653 0.05531,-0.02561 0.108433,-0.05661 0.16593,-0.07684 0.04371,-0.01538 0.091,-0.01781 0.135878,-0.02936 0.01393,-0.0036 0.03679,-0.0019 0.0401,-0.01593 0.0016,-0.0066 -0.05067,-0.04294 -0.05643,-0.04713 -0.08787,-0.05354 -0.163549,-0.125565 -0.256997,-0.170332 -0.03419,-0.01638 -0.0706,-0.02768 -0.105898,-0.04152 -0.07827,-0.03427 -0.5629428,1.07261 -0.4846743,1.106881 v 0 c 0.00632,0.03124 0.033962,0.04138 0.055029,0.06259 0.1284817,0.129384 0.024797,0.03682 0.1700493,0.158498 0.04087,0.028 0.07951,0.05957 0.122611,0.084 0.09794,0.05551 0.247917,0.110423 0.355309,0.121342 0.35732,0.03633 0.577429,-0.05933 0.848738,-0.281742 0.05189,-0.06604 0.11388,-0.12528 0.155683,-0.198132 0.188394,-0.328324 0.198231,-0.825928 -0.0038,-1.15432 -0.04703,-0.07645 -0.105847,-0.144988 -0.158771,-0.217481 -0.136958,-0.06918 -0.271856,-0.142603 -0.410875,-0.207543 -0.01227,-0.0057 -0.05341,-0.0075 -0.04051,-0.0033 0.179203,0.0576 0.307044,0.01619 0.421792,0.278164 0.01977,0.04514 0.03083,0.387729 0.03668,0.558562 0.01066,0.0036 0.02102,0.01312 0.032,0.01069 0.07368,-0.01626 0.141448,-0.08274 0.190136,-0.130685 0.04448,-0.0438 0.08828,-0.08878 0.126081,-0.138452 0.0098,-0.01293 0.118662,-0.203467 0.131507,-0.225846 0.03225,-0.06422 0.04382,-0.09993 0.09198,-0.151793 0.07208,-0.07761 0.178082,-0.09911 0.254705,-0.169415 0.07883,0.01319 0.265392,-1.101623 0.186562,-1.114815 z" />
    <path
       style="fill:#3a2524;fill-opacity:1;stroke-width:0.264583;stroke-dasharray:none"
       id="path9473"
       d="m 13.469446,8.8295953 c 0.0653,-0.066198 0.143511,-0.1217756 0.195912,-0.1985931 0.154062,-0.2258497 0.228961,-0.4909077 0.277384,-0.7559749 0.03612,-0.1977488 0.06742,-0.6095456 0.05297,-0.8194216 -0.0071,-0.103195 -0.03539,-0.2038285 -0.05308,-0.3057435 -0.03058,-0.05402 -0.04245,-0.124319 -0.09173,-0.162059 -0.04191,-0.03209 -0.103175,-0.02925 -0.155937,-0.0276 -0.445244,0.01388 -0.662895,0.207281 -0.97026,-0.265924 -0.08127,-0.125119 0.02934,-0.541658 -0.03301,-0.289812 -0.04058,0.44226 -0.107404,0.573958 0.436145,1.0130285 0.122127,0.09865 0.314532,0.02413 0.470879,0.0099 0.12954,-0.0118 0.285553,-0.1044835 0.381235,-0.1879915 0.04961,-0.0433 0.08824,-0.09776 0.132365,-0.146646 0.195936,-0.304565 0.226688,-0.503145 0.217582,-0.8997 -0.0015,-0.06518 -0.04192,-0.123549 -0.05953,-0.186328 -0.02737,-0.09758 -0.0253,-0.1143 -0.0341,-0.207257 2.1e-5,-0.02672 -0.0053,-0.054 6.1e-5,-0.08017 0.01848,-0.08942 0.07554,-0.167154 0.09909,-0.25537 0.01648,-0.06172 -0.009,-0.239574 0.03035,-0.189226 0.04302,0.05509 -0.0098,0.139461 -0.01475,0.209192 0.02865,-0.104261 -1.445816,-0.509415 -1.474465,-0.405155 v 0 c -0.0075,0.199429 -0.02549,0.398738 -0.02256,0.598288 0.004,0.272896 0.158,0.506212 0.244162,0.756571 0.01745,0.03416 0.03361,0.069 0.05234,0.102471 0.0096,0.01707 0.01282,0.0486 0.03238,0.04894 0.0175,2.91e-4 -0.02067,-0.03125 -0.01957,-0.04871 0.03583,-0.569803 -0.01504,-0.266192 0.07864,-0.463687 7.15e-4,-0.0015 -0.0012,-0.0031 -0.0018,-0.0046 -0.01522,0.01745 -0.104524,0.121419 -0.05256,0.145623 0.09384,0.04371 0.23316,9e-4 0.300128,0.07983 0.428347,0.504949 0.405551,0.483882 0.344811,0.833604 0.02304,-0.04957 0.06001,-0.0948 0.06911,-0.1487 0.07719,-0.456935 0.191227,-0.841566 -0.370792,-1.096475 -0.250754,-0.113731 -0.721169,-0.0059 -0.965294,0.142783 -0.108799,0.06625 -0.196921,0.161633 -0.295381,0.24245 -0.08089,0.118694 -0.182195,0.225796 -0.242669,0.356081 -0.279006,0.601034 -0.252181,1.4004695 0.02951,1.9948387 0.05105,0.1077248 0.130607,0.1994641 0.195911,0.2991964 -0.02209,0.086021 1.19443,0.3983688 1.216516,0.312348 z" />
    <path
       style="fill:#3a2524;fill-opacity:1;stroke-width:0.264583;stroke-dasharray:none"
       id="path9475"
       d="m 13.254124,10.97586 c 0.02684,0.09629 -0.01605,0.191137 -0.01092,0.286603 0.0037,0.06959 0.02208,0.137633 0.03226,0.206579 0.01906,0.129027 0.04526,0.364859 0.08399,0.484543 0.02595,0.08018 0.07063,0.153033 0.105946,0.22955 0.04814,0.05808 0.08958,0.12244 0.14441,0.174249 0.184735,0.17455 0.492187,0.280906 0.732934,0.325248 0.109771,0.02022 0.272124,-0.0076 0.151801,0.01125 -0.05046,5.82e-4 -0.251013,-0.04247 -0.29189,0.06528 -0.03572,0.09415 0.01402,0.273864 0.03223,0.35586 0.0455,0.204866 0.04105,0.176505 0.103172,0.363574 0.02215,0.04444 0.04429,0.08888 0.06644,0.133328 0.04608,0.09695 1.4172,-0.554697 1.371122,-0.65165 v 0 c -0.0066,-0.07894 -0.01322,-0.157878 -0.01983,-0.236818 -0.02397,-0.08999 -0.03986,-0.182521 -0.07191,-0.269955 -0.09398,-0.256396 -0.251973,-0.493151 -0.459286,-0.67132 -0.07635,-0.06562 -0.153393,-0.133975 -0.243815,-0.178229 -0.116887,-0.05721 -0.247123,-0.08168 -0.370685,-0.122517 -0.05653,-0.003 -0.113143,-0.01309 -0.169592,-0.0089 -0.02017,0.0015 0.03896,0.01093 0.05818,0.01721 0.07336,0.02399 0.144707,0.05469 0.219537,0.07359 0.03596,0.0091 0.0815,0.03257 0.110829,0.0099 0.05542,-0.04292 0.0012,-0.280373 -8.63e-4,-0.295431 -0.02652,-0.07019 -0.04537,-0.143766 -0.07955,-0.210558 -0.03282,-0.06415 -0.188888,-0.281663 -0.239501,-0.347628 -0.01655,-0.02157 -0.134888,-0.163123 -0.157926,-0.179768 -0.01049,-0.0076 -0.02587,6.35e-4 -0.0388,9.53e-4 -0.03076,-0.07483 -1.089028,0.360238 -1.058263,0.435069 z" />
    <path
       style="fill:#3a2524;fill-opacity:1;stroke-width:0.264583;stroke-dasharray:none"
       id="path9477"
       d="m 14.190396,3.5709312 c 0.02729,0.02767 0.05101,0.05941 0.08188,0.08301 0.03494,0.02671 0.07625,0.04386 0.113863,0.06665 0.17619,0.106779 0.293246,0.181712 0.504758,0.212437 0.0653,0.0095 0.131771,0.0072 0.197656,0.01073 0.08587,-0.01268 0.174157,-0.01413 0.257596,-0.03803 0.298263,-0.08546 0.595664,-0.189707 0.737099,-0.50992 0.140941,-0.319094 0.101816,-0.761621 0.07811,-1.110272 -0.08324,-0.37385 0.0067,-0.0087 -0.09282,-0.322809 -0.01155,-0.03645 -0.01866,-0.07417 -0.02762,-0.111347 -0.0069,-0.02845 -0.01292,-0.113959 -0.01979,-0.08552 -0.06243,0.258235 0.05842,0.314224 -0.05043,0.254516 -0.121755,0.08732 0.08213,-0.0628 -0.127996,0.120205 -0.04851,0.04225 -0.06451,0.047 -0.111052,0.06757 0.08114,-0.02506 -0.273233,-1.1725581 -0.354373,-1.1475001 v 0 c -0.04771,0.01853 -0.09784,0.03173 -0.14312,0.05558 -0.1988,0.104685 -0.337321,0.247101 -0.433497,0.450215 -0.0957,0.2875811 -0.04977,0.106474 -0.07364,0.6033611 -0.01125,0.234111 -0.0013,0.08818 2.4e-4,0.331315 0.0019,0.289219 -0.01528,0.06213 0.01762,0.361038 0.016,0.05737 0.02837,0.115881 0.048,0.172114 0.01054,0.0302 0.02706,0.114395 0.04217,0.0862 0.05862,-0.10938 0.0299,-0.257626 0.103329,-0.357674 0.167181,-0.227795 0.31823,-0.118587 0.522355,-0.22747 0.01885,-0.01005 -0.002,-0.04267 -0.003,-0.06401 -0.0554,-0.03294 -0.107574,-0.07204 -0.166203,-0.09882 -0.264685,-0.120867 -0.538281,-0.150206 -0.825631,-0.116816 -0.07541,0.0088 -0.15161,0.01984 -0.223312,0.04479 -0.05832,0.0203 -0.108179,0.0596 -0.162269,0.0894 -0.08351,0.0078 0.02659,1.188835 0.110099,1.18105 z" />
    <path
       style="fill:#3a2524;fill-opacity:1;stroke-width:0.264583;stroke-dasharray:none"
       id="path9479"
       d="m 1.5658586,13.383584 c -0.5194382,0.21281 -0.88315811,0.505159 -1.10823511,1.035884 -0.136953,0.322929 -0.119055,0.426289 -0.141232,0.754408 0.01081,0.08608 0.0124,0.173815 0.03242,0.258224 0.102568,0.432515 0.71996691,0.67611 1.00655511,0.81636 0.0546,0.02672 0.188387,-0.181531 0.202583,-0.227557 0.02053,-0.06655 0.02376,-0.137236 0.03565,-0.205854 -0.06486,-0.195081 -0.05534,-0.433987 -0.194571,-0.585242 -0.240494,-0.261269 -0.51833211,-0.167518 -0.78489911,-0.122088 -0.08006,0.03755 0.45098691,1.169796 0.53104811,1.132245 v 0 c -0.17500511,-0.037 -0.47064311,-0.08978 -0.56834311,-0.209605 -0.115156,-0.141231 -0.101147,-0.350139 -0.15172,-0.52521 0.08304,-0.196084 0.0025,-0.0551 0.0491,-0.03556 0.02877,0.01206 0.06777,-0.01798 0.0936,-4.77e-4 0.314964,0.213462 0.60629811,0.459957 0.91419511,0.683491 0.03045,0.02211 0.06221,0.05201 0.09984,0.0527 0.05262,9.79e-4 0.100247,-0.03206 0.150371,-0.04809 0.0675,-0.05095 0.143344,-0.0924 0.202492,-0.152844 0.296987,-0.303482 0.461627,-0.709915 0.517209,-1.126597 0.01669,-0.125107 0.01218,-0.252686 0.0039,-0.378627 -0.0047,-0.07167 -0.02856,-0.140786 -0.04284,-0.211179 0.06395,-0.0599 -0.783117,-0.964277 -0.847067,-0.90438 z" />
    <path
       style="fill:#3a2524;fill-opacity:1;stroke-width:0.264583;stroke-dasharray:none"
       id="path9481"
       d="m 4.7635766,10.275562 c 0.05828,-0.01321 0.119849,-0.01625 0.174852,-0.03962 0.351937,-0.14953 0.59711,-0.4544459 0.755628,-0.7925408 0.03361,-0.071688 0.05853,-0.1471369 0.0878,-0.2207056 0.02854,-0.080438 0.0631,-0.1589902 0.08562,-0.2413156 0.06724,-0.2457175 0.08337,-0.5798433 0.04266,-0.810338 -0.02556,-0.1447216 -0.207425,-0.3233608 -0.320803,-0.4025474 -0.05837,-0.040768 -0.127174,-0.064055 -0.190761,-0.096082 -0.07868,-0.029625 -0.497646,1.0830706 -0.418967,1.112696 v 0 c -0.03085,-0.017066 -0.06398,-0.030536 -0.09255,-0.051194 -0.04702,-0.034002 -0.172961,-0.1450176 -0.182562,-0.2084422 -0.02012,-0.1328692 0.0071,-0.2688405 0.0024,-0.4031427 -0.0011,-0.030956 -0.209443,0.061481 -0.07736,0.051474 -0.1279,0.1153001 -0.191348,0.1629752 -0.300948,0.3088429 -0.09089,0.1209616 -0.190098,0.3020181 -0.238507,0.4444931 -0.02745,0.080798 -0.05841,0.2942629 -0.07305,0.3859686 -0.06805,0.052789 0.678497,1.0152397 0.746553,0.9624507 z" />
    <path
       style="fill:#3a2524;fill-opacity:1;stroke-width:0.264583;stroke-dasharray:none"
       id="path9483"
       d="m 16.063908,7.4817657 c -0.03171,0.01197 -0.06587,0.01879 -0.09512,0.0359 -0.254421,0.1488133 -0.486113,0.4917778 -0.586043,0.7607559 -0.03151,0.084822 -0.04201,0.1760313 -0.06301,0.2640468 -0.0024,0.073202 -0.01238,0.1465365 -0.0073,0.2196049 0.01533,0.2218505 0.07605,0.136497 0.21162,0.06988 0.02722,-0.013377 0.07195,-0.00644 0.08436,-0.034118 0.0091,-0.020405 -0.04462,-0.00317 -0.06692,-0.00476 -0.266198,0.043177 -0.458901,0.1156425 -0.627659,0.3364053 -0.05975,0.060652 -0.03351,0.035596 -0.07753,0.076398 -0.05778,0.042939 0.549464,0.8600754 0.607244,0.8171364 v 0 c 0.06217,-0.05994 0.03737,-0.033576 0.07652,-0.077045 0.05464,-0.024749 0.104902,-0.055049 0.154493,-0.090984 0.02843,-0.00917 0.05655,-0.019388 0.0853,-0.027517 0.07036,-0.019893 0.144631,-0.027966 0.211939,-0.056523 0.21431,-0.090925 0.226733,-0.1307069 0.386182,-0.2712671 0.167224,-0.1474131 0.06887,-0.040133 0.214425,-0.2243145 0.0298,-0.059808 0.06612,-0.1167887 0.08939,-0.1794241 0.02531,-0.068125 0.03626,-0.1407654 0.05562,-0.2108168 0.07261,-0.2627548 0.154187,-0.5236361 0.156407,-0.7993769 0.04271,-0.057266 -0.767162,-0.6612475 -0.80987,-0.6039805 z" />
    <path
       style="fill:#21141d;fill-opacity:1;stroke-width:0.264583;stroke-dasharray:none"
       id="path10215"
       d="m 6.5932696,12.914355 c -0.05971,0.152416 -7.67e-4,0.28252 0.03961,0.431668 0.04537,0.167531 0.05439,0.236185 0.134771,0.396756 0.03045,0.06082 0.07114,0.115949 0.106717,0.173924 0.112001,0.145682 0.2504082,0.244608 0.4188472,0.313529 0.1250733,0.05118 0.1882159,0.07564 0.3229433,0.07865 0.017515,3.97e-4 0.033579,-0.01001 0.050368,-0.01502 -0.080657,-0.265139 -0.1371762,-0.538858 -0.2419705,-0.795416 -0.00971,-0.02378 -0.046988,0.02125 -0.068541,0.03522 -0.1496663,0.09704 -0.22714,0.222836 -0.313616,0.373716 -0.04132,0.09876 -0.06617,0.146056 -0.08938,0.252678 -0.02071,0.09517 -0.01248,0.194762 -0.01513,0.2912 -0.0033,0.119129 -0.0078,0.238219 -0.01172,0.357329 0.02819,0.124785 0.04741,0.250116 0.08585,0.372524 0.03458,0.06375 0.9361804,-0.425296 0.9015997,-0.489049 v 0 c -0.012094,-0.04142 -0.020516,-0.07776 -0.039247,-0.116454 -0.00354,-0.0073 -0.00996,-0.01288 -0.014129,-0.01985 -0.00449,-0.0075 -0.011584,-0.0322 -0.011774,-0.02346 -2.45e-4,0.01129 0.00773,0.02121 0.011594,0.03182 -0.00403,0.0967 -0.013854,0.193327 -0.012097,0.290092 3.969e-4,0.02164 0.041196,-0.01841 0.054266,-0.03566 0.058931,-0.07779 0.088102,-0.169467 0.122636,-0.259488 0.023029,-0.09173 0.061908,-0.190293 0.044864,-0.286527 -0.0031,-0.01749 -0.012917,-0.0331 -0.019376,-0.04965 -0.00751,-0.0092 -0.019219,-0.01628 -0.022516,-0.02772 -0.078297,-0.271668 -0.1476303,-0.54584 -0.2214457,-0.81876 0.053865,-0.0797 0.1157264,0.01708 0.1558473,-0.02583 0.04356,-0.04659 -0.046305,-0.252045 -0.060757,-0.289896 -0.027314,-0.04987 -0.050999,-0.101901 -0.081943,-0.1496 -0.057783,-0.08907 -0.1217271,-0.149911 -0.186949,-0.232064 -0.020704,-0.02608 -0.035068,-0.05731 -0.058501,-0.08097 -0.030089,-0.03037 -0.084121,-0.02973 -0.1068009,-0.07102 -0.027388,-0.0618 -0.9014154,0.325519 -0.8740274,0.387322 z" />
    <path
       style="fill:#21141d;fill-opacity:1;stroke-width:0.264583;stroke-dasharray:none"
       id="path10266"
       d="m 7.245265,7.3917897 c 0.078165,-0.03431 0.1617948,-0.05819 0.2344938,-0.102934 0.3648406,-0.224537 0.6363616,-0.5746835 0.7685392,-0.9822715 0.1113335,-0.343312 0.08888,-0.540756 0.0942,-0.892072 -0.1375786,-0.690542 0.012925,-0.07053 -0.1869009,-0.625258 -0.053073,-0.147332 -0.094133,-0.29872 -0.1411988,-0.448079 -0.025069,-0.07209 -1.0445711,0.282427 -1.0195031,0.354517 v 0 c -0.04173,-0.09579 -0.03838,-0.22925 -0.1252046,-0.287375 -0.122604,-0.08207 -0.223787,0.47025 -0.261144,0.357371 -0.03157,0.118509 -0.07238,0.234935 -0.09471,0.355529 -0.05428,0.293239 -0.07673,0.569298 -0.0092,0.864093 0.02836,0.123834 0.128896,0.372876 0.254518,0.468143 0.03165,0.024 0.07634,0.02194 0.114517,0.03291 -0.06402,0.02628 0.307589,0.9317035 0.3716123,0.9054265 z" />
    <path
       style="fill:#21141d;fill-opacity:1;stroke-width:0.264583;stroke-dasharray:none"
       id="path10268"
       d="m 2.6094456,4.6395192 c -0.397818,-0.0071 -0.78841,0.178367 -1.089359,0.429725 -0.08497,0.07097 -0.156175,0.15695 -0.234262,0.235426 -0.102427,0.147826 -0.2006712,0.261204 -0.2551592,0.433377 -0.01275,0.04027 -0.007,0.08419 -0.01048,0.126287 -0.0736299,0.04303 0.5348562,1.0842945 0.6084852,1.041268 v 0 c 0.06822,-0.01015 0.138001,-0.01275 0.204667,-0.03045 0.214809,-0.05701 0.268155,-0.112108 0.462513,-0.232744 0.07864,-0.07347 0.164245,-0.140132 0.23593,-0.220405 0.239928,-0.26867 0.356611,-0.592357 0.501423,-0.914022 0.06141,-0.02996 -0.362349,-0.898431 -0.423759,-0.868467 z" />
    <path
       style="fill:#21141d;fill-opacity:1;stroke-width:0.264583;stroke-dasharray:none"
       id="path10270"
       d="m 3.8031836,10.06009 c -0.356098,0.02413 -0.626216,0.200745 -0.882896,0.439498 -0.06799,0.06325 -0.128734,0.133872 -0.193102,0.200808 -0.066,0.07214 -0.136923,0.140066 -0.197986,0.21643 -0.157355,0.196783 -0.331525,0.483117 -0.43154,0.715993 -0.07558,0.175974 -0.08472,0.251183 -0.12619,0.432359 -0.0495,0.07475 1.007649,0.774815 1.057151,0.700063 v 0 c 0.06708,-0.07632 0.113154,-0.126042 0.175761,-0.211402 0.03992,-0.05442 0.07601,-0.111554 0.114337,-0.167108 0.12591,-0.182497 0.255082,-0.362685 0.38154,-0.5448 0.28564,-0.347686 0.01397,-0.01005 0.274026,-0.353069 0.166858,-0.220089 0.120776,-0.127916 0.24496,-0.363262 0.02563,-0.04857 0.05558,-0.09585 0.07157,-0.148383 0.0096,-0.03147 0.0024,-0.06575 0.0036,-0.09862 0.05788,-0.03474 -0.433363,-0.853244 -0.49124,-0.818508 z" />
    <path
       style="fill:#21141d;fill-opacity:1;stroke-width:0.264583;stroke-dasharray:none"
       id="path10272"
       d="m 5.2325636,2.7453882 c 0.04349,-0.02833 0.09168,-0.05049 0.130466,-0.08498 0.286673,-0.254928 0.453042,-0.633048 0.505972,-1.0085091 0.0096,-0.06786 0.0036,-0.137014 0.0054,-0.205521 -0.04922,-0.168301 -0.06415,-0.08997 -0.166745,-0.01908 0.08863,-8.94e-4 0.07598,-1.25432895 -0.01265,-1.25343495 v 0 c -0.115377,0.0106 -0.234427,0.001 -0.346131,0.03181 -0.235876,0.06496 -0.434485,0.204075 -0.638279,0.330035 -0.07536,0.07575 -0.162741,0.141199 -0.226087,0.227251 -0.221016,0.30023595 -0.303529,0.67623395 -0.292387,1.04286905 0.0032,0.104471 0.02147,0.208199 0.04121,0.310839 0.01387,0.07214 0.03957,0.141488 0.05935,0.212233 -0.02945,0.06646 0.91039,0.482943 0.93984,0.416486 z" />
    <path
       style="fill:#21141d;fill-opacity:1;stroke-width:0.264583;stroke-dasharray:none"
       id="path10274"
       d="m 9.7047089,6.1390852 c -0.026947,0.04954 -0.065185,0.09444 -0.080841,0.148616 -0.079383,0.274685 -0.067964,0.435988 -0.021677,0.7224425 0.043987,0.272223 0.1019666,0.473971 0.2309441,0.7151011 0.043884,0.082044 0.104154,0.1542079 0.1562311,0.2313117 -0.055878,-0.075722 0.2193069,0.2272824 0.2640669,0.1385311 0.04987,-0.098876 -0.01369,-0.2406121 0.05474,-0.3276767 0.206802,-0.2631102 0.459499,-0.3985502 0.740378,-0.2363572 -0.04934,-0.04714 -0.716051,0.6506127 -0.666712,0.6977564 v 0 c 0.03163,0.027931 0.05592,0.067598 0.09488,0.083794 0.316497,0.1315571 0.511564,0.1254924 0.775106,-0.2271758 0.08468,-0.1133215 0.03331,-0.2813738 0.06284,-0.4197244 0.03388,-0.1587038 0.140823,-0.2978628 0.129303,-0.4693528 -0.0044,-0.123768 0.0044,-0.248714 -0.01322,-0.3713029 -0.0461,-0.321005 -0.130067,-0.560883 -0.308388,-0.834477 -0.07732,-0.118635 -0.166121,-0.232292 -0.271981,-0.326349 -0.191312,-0.169983 -0.33464,-0.205142 -0.554903,-0.28675 -0.05385,-0.04177 -0.6446222,0.71984 -0.5907681,0.761613 z" />
    <path
       style="fill:#21141d;fill-opacity:1;stroke-width:0.264583;stroke-dasharray:none"
       id="path10276"
       d="m 11.618763,3.0909542 c 0.04482,0.0086 0.08887,0.02356 0.134452,0.0257 0.306031,0.01433 0.663265,-0.138314 0.910623,-0.307741 0.07418,-0.05081 0.140502,-0.112223 0.210753,-0.168334 0.153073,-0.145894 0.237042,-0.291368 0.308977,-0.485669 0.01887,-0.05096 0.04497,-0.100288 0.05368,-0.153923 0.02774,-0.170765 0.03677,-0.3440471 0.05516,-0.5160711 -0.02301,-0.06208 -0.900939,0.2633741 -0.877926,0.3254521 v 0 c 0.02016,-0.1577251 0.04313,-0.3151161 0.06048,-0.4731751 0.0023,-0.02147 0.01629,-0.05243 -0.0014,-0.06478 -0.02342,-0.01632 -0.05769,-0.0021 -0.08554,0.0042 -0.123671,0.02797 -0.175566,0.07054 -0.289252,0.135208 -0.25726,0.20205 -0.503479,0.4244901 -0.684393,0.6998311 -0.06925,0.01445 0.135173,0.99378 0.204422,0.979326 z" />
    <path
       style="fill:#21141d;fill-opacity:1;stroke-width:0.264583;stroke-dasharray:none"
       id="path10278"
       d="m 15.592676,4.5531702 c -0.44899,0.123788 -0.777292,0.342486 -1.078272,0.704448 -0.107889,0.129749 -0.211566,0.264809 -0.29443,0.411806 -0.08431,0.149568 -0.136175,0.315236 -0.204262,0.472854 -0.02975,0.156865 -0.0595,0.313731 -0.08924,0.470597 -0.06363,0.115527 1.570181,1.015417 1.633813,0.8998895 v 0 c 0.05019,-0.101426 0.100384,-0.202851 0.150576,-0.304276 0.04314,-0.129833 0.09341,-0.257513 0.129421,-0.3895005 0.01701,-0.06233 0.149906,-0.696482 0.165168,-0.782831 6.02e-4,-0.0034 0.07142,-0.440462 0.0539,-0.499235 -0.01172,-0.03935 -0.06337,-0.05222 -0.09506,-0.07833 0.06402,-0.02628 -0.30759,-0.931704 -0.371613,-0.905427 z" />
    <path
       style="fill:#21141d;fill-opacity:1;stroke-width:0.264583;stroke-dasharray:none"
       id="path10280"
       d="m 13.222913,14.166067 c -0.01098,0.02688 -0.02866,0.05191 -0.03293,0.08063 -0.01605,0.10793 0.01896,0.235468 0.05425,0.335943 0.01648,0.04691 0.04969,0.08935 0.05451,0.138839 0.0068,0.07004 -0.01368,0.140077 -0.02051,0.210116 0.04057,0.479574 0.186159,0.873147 0.60078,1.148714 0.03837,0.0255 0.08209,0.04185 0.123127,0.06277 0.03582,0.01557 0.0694,0.03787 0.107447,0.0467 0.03364,0.0078 0.0137,-0.03725 0.01065,-0.05811 -0.019,-0.129959 -0.03634,-0.260155 -0.05451,-0.390232 -0.02025,0.06316 0.87295,0.349579 0.893203,0.28642 v 0 c -0.01713,-0.144916 -0.02869,-0.290599 -0.05138,-0.434748 -0.0107,-0.06798 -0.05613,-0.127304 -0.06711,-0.195241 -0.0041,-0.02555 0.0043,-0.05159 0.0064,-0.07739 -0.02188,-0.159765 -0.03672,-0.321775 -0.09126,-0.474963 -0.07817,-0.219571 -0.202948,-0.413001 -0.359816,-0.584402 -0.04581,-0.0387 -0.09666,-0.07212 -0.137427,-0.116093 -0.0089,-0.0096 -0.01976,-0.106506 -0.02141,-0.115851 -0.01518,-0.08589 -0.03618,-0.15374 -0.09691,-0.219352 -0.02519,-0.06485 -0.942269,0.291403 -0.917079,0.356251 z" />
    <path
       style="fill:#967952;stroke-width:0.264583"
       id="path3972"
       d="m 0.12003749,9.5374528 c -0.01113,-0.5570879 -0.07287,-0.2080453 0.228418,-0.061879 0.03453,0.016751 0.0365,-0.096153 0.07404,-0.088165 0.06958,0.014806 0.09307,0.1545061 0.162378,0.1384755 0.06031,-0.013949 0.01813,-0.1225322 0.03071,-0.1831382 0.0072,-0.034562 0.01899,-0.067995 0.02849,-0.1019927 -0.143932,-0.8139051 -0.01943,-0.1947584 -0.04864,-0.082001 -0.0073,0.028263 -0.06236,0.024493 -0.08712,0.00903 -0.03573,-0.022307 -0.04183,-0.07358 -0.06849,-0.1061855 -0.07248,-0.088629 -0.07132,0.1154393 -0.07653,0.1357307 0.04367,-0.066249 0.05555,-0.1741979 0.130999,-0.1987489 0.08848,-0.028791 0.06412,0.2248911 0.06046,0.2419803 -0.115465,0.539184 -0.03929,0.0304 -0.03234,0.019307 0.02738,-0.043676 -0.0066,0.1028896 -0.01,0.1543344 -0.0066,-0.00614 -0.02854,-0.020108 -0.01971,-0.018407 0.0161,0.0031 0.02713,0.024125 0.04349,0.022984 0.08549,-0.00596 0.215377,-0.083991 0.276651,-0.1218139 0.05818,-0.035915 0.120022,-0.1636774 0.169113,-0.1160844 0.09898,0.095962 0.0797,0.2639552 0.11954191,0.3959331 0.1886472,0.1302872 0.1174822,-0.3377348 0.2435372,-0.3052665 0.243293,0.062665 -0.03031,0.3371112 0.130702,0.053731 0.0086,-0.01515 -0.0054,0.069345 -0.0059,0.051931 -6.08e-4,-0.019283 0.0038,-0.038394 0.0058,-0.057591 -6.35e-4,0.03982 -0.0013,0.079641 -0.0019,0.119461 0.0066,-0.012512 0.01105,-0.048713 0.01969,-0.037537 0.01741,0.022511 0.03799,0.065632 0.01612,0.083844 -0.02268,0.018889 -0.07971,0.00209 -0.08432,-0.02706 -0.01093,-0.069136 -9e-4,-0.1541132 0.04769,-0.2044986 0.03658,-0.037932 -0.0019,0.1053735 -0.0029,0.1580605 0.09511,0.052185 0.206335,0.1500601 0.310404,0.043704 0.03551,-0.036292 0.105502,-0.2546562 0.145423,-0.1682605 0.04014,0.086868 0.04195,0.1867326 0.06292,0.2800991 0.009,-0.4608246 -0.0827,-0.1821942 -0.07689,-0.1316956 0.002,0.017261 0.01627,0.031045 0.02065,0.047857 0.01193,0.045738 -0.01509,0.1197327 0.02808,0.1389952 0.03626,0.016182 0.0644,-0.054955 0.07377,-0.093545 0.01441,-0.059338 -0.0044,-0.1220428 -0.0066,-0.1830642 -0.118997,0.6051934 -0.02095,0.00996 0.04537,0.03488 0.08343,0.031355 0.02881,0.1825959 0.08105,0.2548112 0.04561,0.063054 0.109335,-0.2338025 0.157303,-0.1725207 0.06191,0.079093 0.03138,0.1984176 0.04708,0.2976266 0.12194,-0.050407 0.110262,-0.2406335 0.218945,-0.2998047 0.0294,-0.016007 0.05687,0.075327 0.08377,0.055402 0.05331,-0.03948 0.05238,-0.2380882 0.08462,-0.1801153 0.155072,0.2788541 0.0221,0.8814463 0.139556,0.1287917 0.11741,-0.3123546 -0.03072,0.010427 0.106817,0.1424242 0.04435,0.042567 -0.01158,-0.1466162 0.04002,-0.1800275 0.03744,-0.024241 -0.0011,0.1144579 0.04161,0.1271733 0.04722,0.014044 0.08306,-0.0531 0.125948,-0.077338 0.02461,-0.013907 0.05087,-0.024641 0.07631,-0.036962 0.0068,-0.058005 0.05424,0.1068668 0.08037,0.079664 0.01589,-0.016542 -0.0041,-0.051591 0.01215,-0.067733 0.01019,-0.010096 0.0047,0.031002 0.01583,0.040024 0.0059,0.00481 -0.0012,-0.022373 0.0064,-0.022013 0.04118,0.00193 0.08031,0.018653 0.120464,0.02798 0.198474,0.2108001 0.02469,0.090833 0.18468,-0.1319364 0.01492,-0.02078 0.04657,0.021407 0.07077,0.029706 0.0071,0.00243 0.01625,0.00657 0.02234,0.00222 0.15206,-0.1084897 0.01854,-0.1772515 0.19401,0.1930072 -0.200647,-0.6245085 -0.03088,-0.457653 -0.137744,-0.3528867 -0.0097,0.00949 -0.04392,0.022648 -0.0309,0.02644 0.0242,0.00705 0.0503,-0.021323 0.07435,-0.01378 0.07555,0.023701 0.04769,0.1351251 0.05786,-0.03099 0.04187,0.057408 0.06562,0.1341509 0.12561,0.1722229 0.125031,0.079344 -0.07462,-0.2523993 0.08955,-0.2115579 0.0666,0.016568 0.05043,0.1328375 0.100642,0.1796317 0.04018,0.037445 -0.01911,-0.1661557 0.01315,-0.047778 -0.03953,0.013137 -0.08006,0.055236 -0.118591,0.03941 -0.04582,-0.018817 -0.04041,-0.098995 -0.08395,-0.1225968 -0.06371,-0.03453 -0.19779,0.099967 -0.193204,0.011359 0.0046,-0.087903 0.06478,-0.163712 0.09929,-0.2446817 0.02573,-0.060352 -0.04861,0.1218777 -0.07292,0.1828165 -0.0251,0.060696 -0.165265,0.233376 0.02127,0.2065671 0.04501,-0.00647 0.07667,-0.057987 0.122046,-0.060917 0.132632,-0.00856 0.122234,0.1572712 0.198219,0.2089221 0.02779,0.018891 0.06422,-0.019794 0.09634,-0.02969 0.0309,0.03092 0.06181,0.06184 0.09271,0.092761 0.01187,-0.048012 -0.0049,-0.1724547 0.03562,-0.1440366 0.04264,0.029931 -0.02333,0.1030023 -0.02002,0.154989 0.0026,0.040567 0.0057,0.1416264 0.03731,0.1161023 0.23765,-0.1917327 0.07058,-0.4057859 0.216667,-0.1514739 0.114522,-0.030575 0.110128,0.1381315 0.190053,0.1519777 0.04393,0.00761 0.06073,-0.073281 0.103971,-0.084144 0.02957,-0.00743 0.05897,0.019106 0.08365,0.037011 0.134946,0.097906 0.01185,0.1294718 0.200093,-0.026884 0.03176,-0.0023 0.07837,0.020048 0.09528,-0.00694 0.04628,-0.073844 0.0071,-0.189675 0.06739,-0.2526144 0.02919,-0.030478 0.06948,0.048715 0.09917,0.078701 0.05566,0.056204 0.08832,0.1378178 0.155924,0.1788877 0.02061,0.012517 0.02224,-0.042906 0.03082,-0.065441 0.02477,-0.065098 0.04608,-0.1314615 0.06911,-0.1971919 0.04683,0.046498 0.09366,0.092996 0.140487,0.1394944 -0.0066,-0.00411 -0.01285,-0.015682 -0.01991,-0.012345 -0.01299,0.00614 -0.01434,0.042172 -0.02629,0.034181 -0.158484,-0.1060085 0.02673,-0.134997 -0.212803,-0.2086866 -0.08923,-0.027451 -0.186167,-0.014298 -0.27925,-0.02145 -0.06959,0.00618 -0.140436,0.00401 -0.208772,0.018547 -0.0097,0.00206 0.02616,0.013507 0.02038,0.021524 -0.06703,0.093074 -0.302126,0.1772468 -0.223983,0.2612033 0.07859,0.084435 0.264692,-0.3071574 0.286616,-0.1939102 0.09298,0.4802844 -0.531494,0.1771536 -0.138833,0.3380237 0.576803,0.037041 -0.019,-0.073703 0.152837,0.219015 0.03354,0.057136 0.16153,-0.044414 0.198478,0.010581 0.03426,0.050998 -0.0938,0.1063861 -0.07971,0.1661901 0.01006,0.04272 0.08468,0.02313 0.127017,0.0347 -0.0066,0.06272 -0.01328,0.125436 -0.01993,0.188154 0.369321,-0.150697 0.291116,-0.217564 0.275678,0.0081 -0.0025,0.0373 -0.0085,0.07586 3.97e-4,0.112174 0.01553,0.06335 0.07048,0.05482 0.07572,0.124395 0.0013,0.01764 -0.01706,0.031 -0.02559,0.0465 0.02566,0.0545 0.101552,-0.07986 0.0741,-0.06273 -0.041,0.02559 -0.148527,0.107514 -0.100272,0.104745 0.09563,-0.0055 0.168119,-0.108327 0.263732,-0.114125 0.09997,-0.0061 0.03751,0.14324 0.03099,0.165145 0.16879,-0.03945 0.147684,0.168992 0.247981,0.209759 0.05201,0.02114 0.116037,-0.04588 0.166943,-0.02222 0.245198,0.113983 0.01704,0.192523 0.207425,0.339718 0.02522,0.0195 0.04927,-0.04046 0.07391,-0.06069 0.0019,-0.06181 0.03719,-0.132158 0.0058,-0.185418 -0.0168,-0.02848 -0.05353,0.04032 -0.08444,0.05206 -0.04823,0.01831 -0.09886,0.04135 -0.150276,0.03705 -0.02069,-0.0017 -0.01438,-0.06017 -0.03364,-0.05243 -0.04547,0.01827 -0.0662,0.07232 -0.101194,0.106617 -0.03185,0.03121 -0.06614,0.05984 -0.09921,0.08975 0.04083,-0.0049 0.08187,-0.0084 0.122488,-0.01484 0.0093,-0.0015 0.241143,-0.07675 0.269982,0.01091 0.05725,0.174017 -0.15843,0.210776 -0.02508,0.399899 0.03665,0.05199 0.123547,0.03035 0.18532,0.04552 0.4057461,-0.06626 0.02032,0.111566 0.06373,0.113769 0.04409,0.0022 0.08715,-0.0249 0.1215636,-0.05254 0.03634,-0.02919 0.080094,-0.158674 0.08349,-0.112184 0.012274,0.168031 -0.2008556,0.333779 0.035164,0.11452 0.00222,0.09384 0.080923,0.158524 0.1030613,0.243991 0.00833,0.03214 -0.040589,0.09825 -0.00741,0.09932 0.067324,0.0022 0.1117164,-0.09082 0.1790118,-0.09376 0.029716,-0.0013 0.051858,0.0669 0.028038,0.08471 -0.061231,0.04579 -0.1476121,0.03994 -0.2214185,0.05991 0.020849,-0.07245 0.089394,-0.146894 0.062544,-0.217336 -0.018701,-0.04906 -0.07345,0.07677 -0.098542,0.122895 -0.022863,0.04203 -0.048142,0.292679 -0.045338,0.293255 0.4026691,0.0827 0.4415911,-0.35709 0.3428801,0.08093 0.0022,0.171661 -0.073823,0.356125 0.1736249,0.387027 0.09743,0.01217 0.1937475,-0.06686 0.2903799,-0.04946 0.3040166,0.05475 0.1966786,0.271934 0.5241613,0.318696 0.080713,0.01153 0.148399,-0.06758 0.2225985,-0.101372 0.3858506,-0.913165 -0.4193636,0.836483 0.3102316,0.07881 0.102389,-0.106329 -0.097566,-0.293968 -0.065261,-0.438002 0.011644,-0.05191 0.1053955,0.0162 0.1567286,0.03018 0.040599,0.01106 0.1562476,0.06235 0.1180703,0.04466 -0.080513,-0.03731 -0.1634895,-0.06906 -0.2452341,-0.103585 -0.2176282,-0.803251 -0.7980111,-0.02583 -1.1378522,-0.207955 -0.062291,-0.03338 0.1994281,0.01487 0.2045935,-0.05561 0.010567,-0.144196 -0.081007,-0.285573 -0.1713132,-0.398485 -0.028056,-0.03508 -0.154755,-0.02249 -0.1336608,0.01716 0.038051,0.07154 0.13927,0.08287 0.2089049,0.1243 0.00652,0.02012 0.013031,0.04024 0.019547,0.06036 -0.029481,0.01801 -0.094173,0.01998 -0.088442,0.05405 0.00987,0.05871 0.085574,0.08375 0.1198092,0.132449 0.022564,0.0321 0.030731,0.07228 0.04864,0.107188 0.05855,0.114127 0.098726,0.05836 -0.1723676,0.04824 0.4860388,0.207913 0.1167529,0.03663 0.014872,0.04168 -0.03793,0.0019 0.085793,0.02143 0.098524,0.05721 0.00827,0.02325 -0.042132,0.03222 -0.06681,0.03191 -0.011835,-1.48e-4 -0.021471,-0.0415 -0.013319,-0.03292 0.056508,0.05946 0.1065646,0.124735 0.1598467,0.187103 -0.067355,-0.02175 -0.1343557,-0.04462 -0.202065,-0.06524 -0.488806,-0.148828 0.2043145,0.05158 0.1490949,0.31682 -0.1116243,0.536173 -0.5783982,-0.517497 -0.3131077,0.06769 0.024416,0.05386 0.053433,0.105504 0.080149,0.158256 -0.069091,-0.0035 -0.1411256,-0.03085 -0.207273,-0.01059 -0.027788,0.0085 -0.034354,0.05429 -0.027861,0.08262 0.00931,0.04063 0.041939,0.0729 0.070467,0.103287 0.044233,0.04711 0.1418929,0.191889 0.1461283,0.127405 0.027734,-0.422272 -0.3085795,-0.09119 -0.031257,-0.315404 0.1256596,0.237677 0.2733818,-0.143492 0.1918531,-0.157113 -0.074292,-0.01241 -0.1148387,0.09811 -0.1778191,0.139428 -0.04912,0.03222 -0.1106604,0.04399 -0.1569463,0.08017 -0.092307,0.07214 -0.1366274,0.192148 -0.1863937,0.291126 -0.1091906,0.202353 -0.081243,0.16967 -0.2337927,0.364565 -0.049009,0.06261 -0.1516195,0.103726 -0.1527326,0.183232 -0.00285,0.203925 0.1162056,0.392841 0.1418347,0.595169 0.00826,0.06523 -0.032104,0.127732 -0.042031,0.192733 -0.010956,0.07175 -0.013671,0.144519 -0.020508,0.216778 0.05792,0.01336 0.1143471,0.04191 0.1737614,0.04009 0.071503,-0.0022 0.1400024,-0.07319 0.2082644,-0.0518 0.043421,0.01361 0.034462,0.0851 0.041457,0.130063 0.024328,0.15637 -0.081211,0.206422 0.064529,0.386586 0.033356,0.04124 0.1058172,0.0074 0.1587259,0.01107 0.1566101,-0.02758 0.00971,-0.02571 0.064357,0.171398 0.010216,0.03685 0.03539,-0.07409 0.027216,-0.111439 -0.00596,-0.02722 -0.047313,-0.03169 -0.063498,-0.05438 -0.1582526,-0.221815 -4.233e-4,-0.124938 -0.2221447,-0.216611 -0.031208,0.02702 -0.089207,0.04001 -0.093625,0.08106 -0.00306,0.02842 0.097967,-0.03169 0.08554,-0.006 -0.021307,0.04413 -0.081731,0.0541 -0.1221592,0.08179 -0.020786,0.01424 -0.054705,0.01972 -0.061466,0.04399 -0.00881,0.03161 -0.00801,0.08379 0.022516,0.09583 0.097377,0.03842 0.2079734,0.02408 0.3119599,0.03612 -0.2269175,0.211143 -0.2835259,0.130874 -0.1389001,0.326789 0.022627,0.03065 0.041986,0.06838 0.076155,0.08524 0.038155,0.01882 0.087911,-0.0025 0.1267653,0.01486 0.012517,0.0056 -0.016827,0.02373 -0.029698,0.02844 -0.057271,0.02096 -0.1178547,0.03141 -0.1767822,0.04711 0.2546419,-0.345095 -0.3075479,0.456231 0.059151,-0.598982 0.019254,-0.0554 0.1907924,0.02529 0.1592807,0.07476 -0.035702,0.05604 -0.1362712,-0.03451 -0.1989603,-0.01247 -0.024839,0.0087 0.01247,0.05164 0.01265,0.07797 1.64e-4,0.02409 -0.00775,0.04756 -0.011634,0.07134 0.05775,0.04323 0.1926529,0.0602 0.17325,0.129683 -0.019344,0.06927 -0.143342,0.01198 -0.2148774,0.01938 -0.00196,2.02e-4 0.0038,0.0012 0.00543,0.0023 0.013877,0.0093 0.030117,0.01616 0.040989,0.02884 0.033693,0.03931 -0.024865,0.03702 -0.045813,0.04308 0.1274297,0.005 0.3512564,0.100113 0.2571602,-0.123586 -0.013462,-0.032 -0.064925,-0.09527 -0.081551,-0.0648 -0.031975,0.05862 -0.014833,0.137315 0.00771,0.200169 0.0215,0.05996 0.1805286,0.138346 0.1179695,0.15032 -0.1111385,0.02127 -0.2137487,-0.07435 -0.3206232,-0.111532 -0.03592,0.09022 -0.075088,0.155871 -0.052282,0.261552 0.011755,0.05448 0.075232,0.09381 0.074778,0.149535 -0.00251,0.309478 -0.2012278,0.426329 -0.025331,0.598237 0.020838,0.02036 0.047507,0.03375 0.07126,0.05063 -0.073712,0.04385 -0.1698577,0.0628 -0.2211366,0.131554 -0.008,0.01073 0.1807821,-0.0033 0.1889667,0.03792 0.0056,0.02815 -0.072547,0.04452 -0.054383,0.06674 0.025612,0.03133 0.1299914,0.05355 0.1205598,0.0142 -0.033917,-0.141511 -0.1393449,-0.25551 -0.2090174,-0.383265 -0.010766,0.0078 -0.043627,0.0164 -0.032294,0.02332 0.1583111,0.09665 0.3783087,0.108026 0.033523,0.06515 -0.036589,0.129725 1.7979972,0.647178 1.8345867,0.517453 v 0 c -0.066189,-0.02977 -0.1382868,-0.0489 -0.1985661,-0.08932 -0.011041,-0.0074 -0.00655,-0.03904 0.00674,-0.03931 0.1060571,-0.0021 0.2110192,0.02193 0.3165289,0.0329 -0.03976,-0.186589 -0.075365,-0.374113 -0.1192815,-0.559769 -0.00514,-0.02171 -0.026616,-0.0387 -0.027557,-0.06099 -0.0038,-0.09005 0.06565,-0.121404 0.1114081,-0.18972 0.017928,-0.02677 0.072356,-0.07959 0.041118,-0.08747 -0.082913,-0.02092 -0.1695411,0.02246 -0.2543117,0.03368 -0.035703,-0.0038 -0.1080953,0.02442 -0.10711,-0.01147 0.00114,-0.0417 0.081347,-0.09241 0.1091073,-0.06128 0.1288037,0.144455 0.3081504,0.312664 0.2865321,0.504993 -0.012832,0.114155 -0.2203251,-0.06728 -0.3335575,-0.08663 -0.01555,-0.0027 -0.052803,0.01137 -0.041631,0.0225 0.068398,0.06818 0.1564463,0.113286 0.2346693,0.169929 -0.073217,-0.04551 -0.151443,-0.0838 -0.2196499,-0.136521 -0.023916,-0.01848 -0.022347,-0.07433 -0.052568,-0.07389 -0.025286,3.7e-4 0.00748,0.09033 -0.012499,0.07483 -0.2759123,-0.214029 0.1105209,-0.276962 0.2400215,-0.310436 -0.1645354,-0.167473 -0.03328,0.0042 0.084817,-0.08423 0.027801,-0.02081 0.00108,-0.07114 -0.011337,-0.10357 -0.019891,-0.05187 -0.1067258,-0.0936 -0.083659,-0.144135 0.056125,-0.122963 0.3322079,0.121539 0.038539,-0.09697 0.03533,-0.0069 0.076511,-6.2e-5 0.1059884,-0.02073 0.041898,-0.02937 -0.030076,-0.07776 -0.079262,-0.132875 -0.02477,-0.02776 -0.07109,-0.04874 -0.071201,-0.08594 -0.00101,-0.338971 0.033811,-0.399807 0.1225246,-0.63396 -0.035189,-0.01921 -0.069737,-0.03964 -0.1055661,-0.05763 -0.027056,-0.01358 -0.082898,-0.0067 -0.082942,-0.037 -5.45e-5,-0.038 0.081813,-0.04041 0.082776,-0.0784 6.88e-4,-0.02709 -0.055839,0.01753 -0.080976,0.0074 -0.011821,-0.0048 0.00364,-0.02523 0.00546,-0.03785 0.066564,-0.05175 0.1331288,-0.103501 0.1996934,-0.155252 -0.4392266,0.02517 -0.1404114,0.0567 -0.1012856,-0.104822 0.00959,-0.03961 -0.071557,-0.06621 -0.061462,-0.105692 0.018095,-0.07077 0.102066,-0.107981 0.1330114,-0.174147 0.072123,-0.154208 0.016984,-0.151267 -0.082114,-0.22995 -0.098401,-0.03418 -0.2258523,-0.0248 -0.295203,-0.102527 -0.071938,-0.08062 -0.0093,-0.230771 -0.077188,-0.314833 -0.040386,-0.05001 -0.1427451,0.02293 -0.1919539,-0.01843 -0.047264,-0.03972 0.0051,-0.142527 -0.044038,-0.179903 -0.077973,-0.05931 -0.091954,0.364557 -0.1633461,0.244322 0.3155823,-0.285014 -0.01596,-0.04974 0.1487998,0.08294 0.040505,0.03262 0.077316,-0.07357 0.1258811,-0.09217 0.026501,-0.01015 0.058953,0.02436 0.084332,0.01166 0.034189,-0.0171 0.028769,-0.07484 0.060983,-0.09713 -0.036377,0.02933 -0.1457436,0.05895 -0.1091314,0.08799 0.044756,0.03549 0.1558293,-0.09921 0.1658879,-0.04298 0.062933,0.351806 0.00906,0.446857 -0.1743652,0.60212 -0.040278,0.0341 -0.088937,0.05874 -0.1246899,0.09755 -0.022807,0.02476 -0.031562,0.05948 -0.047343,0.08921 -0.040439,-0.02466 -0.075564,-0.08626 -0.1213159,-0.07399 -0.017023,0.0046 0.1821233,0.318435 0.066452,0.276273 -0.090739,-0.03308 -0.177483,-0.137699 -0.170792,-0.234046 0.00853,-0.122885 0.4435462,0.415219 0.3574312,-0.09383 0.068197,-0.02633 0.1321652,-0.06906 0.2045912,-0.07898 0.1054777,-0.01444 0.2377532,0.07568 0.3193044,0.0072 0.059535,-0.04996 -0.077557,-0.150002 -0.059193,-0.225522 0.01143,-0.04701 0.099276,-0.02738 0.1298159,-0.06491 0.030597,-0.03759 0.011335,-0.19846 0.00883,-0.235896 0.1769819,-0.162527 0.016724,0.03374 -0.029878,-0.252092 -0.012409,-0.07611 0.1683525,0.01136 0.1361315,-0.04452 -0.054308,-0.09418 -0.2085609,-0.140144 -0.2108382,-0.248836 -0.00148,-0.07092 0.137791,0.0338 0.2066867,0.0507 0.1260295,-0.02454 0.1388118,0.0047 0.1189013,-0.188841 -0.00382,-0.03713 -0.057987,-0.06366 -0.050105,-0.100147 0.027193,-0.125885 0.1889943,-0.08244 0.2572491,-0.121218 0.046893,-0.02664 0.070861,-0.08132 0.1062919,-0.121987 0.031568,-0.02529 0.1046033,-0.03664 0.094703,-0.07586 -0.019714,-0.07808 -0.1090455,-0.118691 -0.1596375,-0.18135 -0.017814,-0.02206 -0.030035,-0.0481 -0.045052,-0.07216 0.020545,-0.01026 0.073432,-0.01107 0.061632,-0.03077 -0.045829,-0.07651 -0.1860423,-0.07131 -0.192106,-0.186228 0.3189856,-0.130551 -0.040918,0.0608 -0.08484,-0.2255 C 9.5608888,12.250665 9.6432228,12.076572 9.6962,11.909536 9.7192966,11.836716 9.83183,11.786481 9.8131078,11.712417 9.707805,11.295849 8.3642853,11.598938 8.647667,11.161682 c -0.1026761,-0.02223 -0.2037334,-0.05407 -0.3080285,-0.06668 -0.013716,-0.0017 0.013354,0.02628 0.025667,0.03255 0.018201,0.0093 0.041272,0.0036 0.060234,0.01116 0.011266,0.0045 -0.024609,-0.0046 -0.036361,-0.0016 -0.018087,0.0046 0.1439362,0.02438 0.018389,0.05291 0.029874,-0.05802 0.151851,-0.433221 0.3509804,-0.206775 0.082103,0.09337 0.022005,0.250143 0.062356,0.367745 0.0074,0.02157 0.048649,0.02362 0.067542,0.01085 0.0306,-0.02068 0.307762,-0.317962 0.090376,-0.0861 -0.00564,-0.0369 -0.024781,-0.07422 -0.01692,-0.110713 0.00491,-0.02279 0.1657977,-0.229198 0.017862,-0.266695 -0.082382,-0.02088 -0.1826191,0.05069 -0.2548922,0.006 -0.048115,-0.02977 -0.00625,-0.112985 -0.00938,-0.169478 -0.086222,-0.0025 -0.1724446,-0.005 -0.258667,-0.0075 -0.3286932,0.107987 -0.3320447,0.177445 -0.1202375,-0.197623 0.00979,-0.01735 0.055062,-0.02362 0.044145,-0.04028 -0.012486,-0.01906 -0.048974,0.01561 -0.068257,0.0035 -0.00373,-0.0024 0.1284862,-0.06716 -0.010009,0.0087 0.1882466,-0.496843 0.1110517,-0.199559 -0.038403,-0.106257 -0.2076429,0.129628 -0.1333522,0.01716 -0.1314167,-0.0522 0.00175,-0.06242 -0.020685,-0.126578 -0.00588,-0.187243 0.00404,-0.01657 0.03408,0.0012 0.05112,0.0019 0.1130038,0.0712 0.042722,0.0056 -0.095258,0.20255 -0.020532,0.02931 0.048801,-0.05239 0.074292,-0.07751 0.052199,-0.05144 0.222698,-0.116359 0.1587302,-0.152119 C 8.0263566,9.9690511 8.0080051,10.430427 8.0528438,10.082334 8.0283278,9.9021722 8.0409988,9.9190055 7.9758798,9.7475873 7.9472758,9.6722933 7.9470278,9.5729303 7.8824988,9.5247295 7.8083798,9.4693655 7.6846916,9.5280995 7.6096309,9.4740145 7.2939769,9.2465696 7.7354908,9.1174251 7.2534414,9.3694955 c -0.020161,-0.029584 -0.034694,-0.063923 -0.060485,-0.088753 -0.00574,-0.00552 -0.02041,0.00153 -0.021997,0.00935 -0.00853,0.041979 -0.00284,0.085649 -0.00597,0.1283708 -6.614e-4,0.00883 -0.01306,0.021648 -0.00536,0.02603 0.03098,0.017632 0.068388,-0.1345766 0.1067752,-0.00586 -0.023731,0.00243 -0.072258,0.031121 -0.071193,0.00729 0.00114,-0.025604 0.048043,-0.017865 0.072065,-0.026797 -0.00674,0.012226 -0.018497,0.050531 -0.020233,0.036677 C 7.2406536,9.4047793 7.2897186,9.2190636 7.2292106,9.181954 7.1847616,9.154693 7.1291195,9.21123 7.0790739,9.225868 7.0799734,8.9293738 7.1226509,9.0958382 6.9038554,9.201341 c -0.01591,0.00767 -0.03482,-0.026632 -0.03005,-0.043636 0.01901,-0.067761 0.138843,-0.1332746 0.09517,-0.1884654 -0.0044,-0.00549 -0.37284,0.3024511 -0.0093,0.018828 -0.03732,0.038292 -0.152814,0.1493914 -0.111971,0.114877 0.05334,-0.045079 0.112781,-0.087343 0.14961,-0.1466839 0.03283,-0.052891 -0.05913,-0.050375 -0.065,-0.070901 -0.04207,-0.1472803 0.2909985,-0.364757 0.2700012,-0.3718222 -0.147308,0.030752 -0.309132,0.1630477 -0.441925,0.092257 -0.08591,-0.045798 0.0927,-0.177133 0.100699,-0.2741605 0.03906,-0.4739753 -0.111333,-0.065164 -0.32026,-0.2072476 -0.05937,-0.040372 -0.01256,-0.1430353 -0.01884,-0.2145527 -0.109184,-0.048513 -0.218368,-0.097027 -0.327553,-0.1455399 -0.144757,-0.048303 -0.292759,-0.087793 -0.434271,-0.1449073 -0.09581,-0.03867 -0.178491,-0.1766158 -0.275714,-0.1416408 -0.0901,0.03241 -0.03182,0.1964921 -0.08942,0.272989 -0.02611,0.034675 -0.08979,-0.00124 -0.129071,0.017211 -0.153274,0.072037 -0.02646,0.1435793 -0.163651,0.016335 0.02829,0.05599 0.09176,0.1056183 0.08487,0.1679702 -0.0051,0.045997 -0.06576,-0.065862 -0.09193,-0.1040278 -0.01869,-0.027254 -0.01792,-0.066721 -0.04122,-0.090161 -0.0085,-0.00854 -0.01608,0.020159 -0.01638,0.032198 -2.35e-4,0.00936 0.01077,-0.015312 0.01615,-0.022966 0.002,0.045645 0.0041,0.091289 0.0061,0.1369333 0.0039,0.00742 0.01471,0.030042 0.01161,0.02227 -0.01576,-0.039418 -0.02763,-0.1536216 -0.0496,-0.1172993 -0.04411,0.072918 0.04037,0.2972006 -0.03283,0.2535512 -0.0798,-0.047585 -0.0055,-0.185733 -0.0091,-0.2785671 -0.002,-0.04999 -0.0055,0.1009193 0.0041,0.1500294 0.0039,0.020188 0.0089,-0.040155 0.01337,-0.060233 -0.0042,-0.089783 0.0094,0.1179248 -0.0377,0.04365 -0.02295,-0.036192 0.02899,-0.1002564 -0.0032,-0.1285224 -0.08122,-0.071271 -0.314195,0.5002649 -0.131539,0.1322134 -0.01323,0.083475 -0.0055,-0.013785 0.104395,-0.037719 0.01434,-0.00312 -0.0072,0.057482 -0.0013,0.044021 0.01644,-0.037793 0.02262,-0.079265 0.03393,-0.1188974 -0.01123,0.00465 -0.0249,0.022331 -0.0337,0.013938 -0.0224,-0.021376 -0.02647,-0.055983 -0.0397,-0.083975 -0.14665,-0.040614 -0.04928,-0.027089 -0.274573,0.01846 -0.0602,0.012171 -0.121403,0.019719 -0.180968,0.034708 -0.05547,0.013957 -0.123623,0.092947 -0.163532,0.051973 -0.08589,-0.088183 -0.0089,-0.3052405 -0.124488,-0.3476815 -0.091,-0.03343 -0.105945,0.1623917 -0.158918,0.2435878 -0.03678,-0.039157 -0.07357,-0.078313 -0.110348,-0.1174697 -0.03024,-0.016581 -0.06485,-0.026946 -0.09073,-0.049746 -0.03364,-0.02964 -0.04256,-0.08884 -0.08452,-0.104636 -0.02455,-0.0092 0.01051,0.05152 0.01282,0.07765 0.0074,0.083618 0.01355,0.167407 0.01627,0.2513077 0.0012,0.03692 -0.0078,-0.073466 -0.01171,-0.1101982 -0.0099,0.038511 -0.01973,0.077023 -0.02959,0.1155338 -0.0109,-0.017158 -0.01445,-0.060416 -0.0327,-0.051473 -0.01862,0.00912 0.0094,0.040377 0.01414,0.060566 -0.05266,-0.102245 -0.105329,-0.2044903 -0.157994,-0.3067353 -0.102996,-0.06736 -0.08169,0.4305516 -0.09785,0.3560061 -0.02968,-0.041656 -0.05937,-0.083312 -0.08905,-0.1249683 0.0082,0.025548 0.04821,0.089235 0.02452,0.076647 -0.0449,-0.02386 -0.06505,-0.078193 -0.09887,-0.1161558 -0.0097,-0.010856 -0.03821,-0.043067 -0.0315,-0.030165 0.117523,0.2262095 0.06056,0.021855 0.106743,0.2535016 0.08235,-0.00421 0.03374,0.00677 -0.04686,-0.1481593 -0.02982,-0.057328 -0.02908,-0.1520545 -0.09076,-0.1713013 -0.04408,-0.01375 -0.01714,0.1267052 -0.06318,0.1232699 -0.151109,-0.011274 -0.0604,-0.4512469 -0.112484,0.092717 -0.0043,-0.022945 -0.03564,-0.073589 -0.0128,-0.068836 0.03028,0.0063 0.05367,0.046081 0.05185,0.076959 -0.0012,0.021151 -0.04388,-0.051165 -0.05445,-0.032801 -0.03707,0.064409 0.02086,0.233716 -0.05153,0.2169152 -0.13097,-0.030394 -0.0047,-0.3222302 -0.123509,-0.3839763 -0.124738,-0.052837 0.06142,0.00853 -0.08821,0.062412 -0.08408,0.030274 0.0069,-0.2093908 -0.06422,-0.1532268 -0.07101,0.05607 -0.0021,0.2020305 -0.0882,0.2566923 -0.01387,-0.027173 -0.01408,-0.068366 -0.04161,-0.081519 -0.106446,-0.050864 -0.03155,0.1667878 -0.149644,0.1982679 -0.05462,0.01456 0.05184,-0.1030163 0.05855,-0.1591387 0.004,-0.033662 -0.158717,0.4193236 -0.08383,-0.057585 -0.270346,0.5960059 -0.110359,0.352956 -0.131133,-0.076429 -0.001,-0.02157 -0.0333,0.027928 -0.04686,0.044735 -0.02794,0.03462 -0.03468,0.1222084 -0.07713,0.1089147 -0.329374,-0.1031383 0.184436,-0.2808282 -0.230466,-0.088065 -0.0061,0.020246 -0.01513,0.03983 -0.01827,0.060738 -0.0042,0.028239 -0.0071,0.1139386 -0.0037,0.085587 0.01147,-0.095579 -0.0564,-0.2410172 0.02793,-0.2874402 0.07654,-0.04213 -0.03268,0.1912293 0.01938,0.2613949 0.03049,0.041094 0.02943,-0.1111144 0.07532,-0.1337651 0.02724,-0.013446 0.0086,0.060146 0.0129,0.090219 0.01108,-0.043649 0.04276,-0.086935 0.03323,-0.1309484 -0.0058,-0.026977 -0.04357,-0.038697 -0.07086,-0.042852 -0.05135,-0.0078 -0.109494,-0.01555 -0.155599,0.0084 -0.03538,0.01836 -0.02945,0.1291322 -0.05995,0.1034663 -0.197395,-0.1661333 0.0931,-0.2599853 -0.152161,-0.1457233 -0.4621762,0.0029 0.2838,-0.01788 -0.261234,0.06294 -0.02812,0.0042 -0.06606,-0.0543 -0.08001,-0.02953 -0.03771,0.066969 0.02475,0.280237 -0.03194,0.2283464 -0.06071,-0.055564 -0.1027462,-0.4022784 0.03144,-0.2448834 0.02938,0.03099 0.05876,0.061971 0.08813,0.092957 0.02468,-0.00974 0.05064,-0.041745 0.07403,-0.029223 0.01927,0.010319 -0.01564,0.08521 -0.0068,0.065232 0.03205,-0.072154 0.154985,-0.2377234 0.07725,-0.2239054 -0.10332,0.01836 -0.100594,0.2047046 -0.197381,0.2452594 -0.04697,0.019682 -0.05674,-0.084593 -0.08512,-0.1268894 -0.24142611,0.1360437 0.10106,-0.01875 -0.1690982,-0.08428 -0.04641,-0.01126 -0.06898,0.07254 -0.11492791,0.08555 -0.01926,0.0054 -0.0246,-0.03726 -0.04435,-0.04046 -0.02024,-0.0033 0.106806,0.1246815 0.05892,-0.01765 -0.0049,-0.03673 0.0026,-0.07751 -0.01484,-0.110196 -0.03644,-0.0682 -0.202147,-0.182706 -0.264726,-0.192184 -0.06457,-0.0098 -0.128727,0.02271 -0.19208,0.03855 -0.05444,0.01361 -0.123463,0.0078 -0.16084,0.04969 -0.05792,0.06485 -0.06603,0.160875 -0.09905,0.241313 -0.702262,-0.6977876 0.229074,0.1102634 -0.274683,0.05476 -0.131989,-0.01454 -0.136854,-0.280155 -0.26893,-0.293889 -0.08813,-0.0092 -0.02347,0.177047 -0.05369,0.260339 -0.0089,0.02464 -0.03396,0.057566 -0.05945,0.05148 -0.03685,-0.00879 -0.05107,-0.055969 -0.0766,-0.083953 -0.140702,0.04657 0.517874,2.0363819 0.658575,1.9898134 z" />
  </g>
</svg>
