<?xml version="1.0" encoding="UTF-8" standalone="no"?>
<!-- Created with Inkscape (http://www.inkscape.org/) -->

<svg
   width="63.999996"
   height="63.999996"
   viewBox="0 0 16.933332 16.933332"
   version="1.1"
   id="svg5"
   inkscape:version="1.2.2 (732a01da63, 2022-12-09)"
   sodipodi:docname="tiles_vine_left_top.svg"
   inkscape:export-filename="tiles_vine_top_right.svg"
   inkscape:export-xdpi="96"
   inkscape:export-ydpi="96"
   xmlns:inkscape="http://www.inkscape.org/namespaces/inkscape"
   xmlns:sodipodi="http://sodipodi.sourceforge.net/DTD/sodipodi-0.dtd"
   xmlns="http://www.w3.org/2000/svg"
   xmlns:svg="http://www.w3.org/2000/svg">
  <sodipodi:namedview
     id="namedview7"
     pagecolor="#ffffff"
     bordercolor="#000000"
     borderopacity="0.25"
     inkscape:showpageshadow="2"
     inkscape:pageopacity="0.0"
     inkscape:pagecheckerboard="true"
     inkscape:deskcolor="#d1d1d1"
     inkscape:document-units="px"
     showgrid="true"
     showguides="true"
     inkscape:zoom="7.796875"
     inkscape:cx="28.665331"
     inkscape:cy="32.256513"
     inkscape:window-width="958"
     inkscape:window-height="1008"
     inkscape:window-x="946"
     inkscape:window-y="0"
     inkscape:window-maximized="0"
     inkscape:current-layer="layer1">
    <inkscape:grid
       type="xygrid"
       id="grid88"
       spacingx="2.1166666"
       spacingy="2.1166666"
       empspacing="8" />
  </sodipodi:namedview>
  <defs
     id="defs2" />
  <g
     inkscape:label="Layer 1"
     inkscape:groupmode="layer"
     id="layer1">
    <circle
       id="path5383"
       style="fill:#3b2625;stroke:#000000;stroke-width:0.264583"
       cx="-15.877537"
       cy="-6.8552899"
       r="0.0063923118"
       transform="scale(-1)" />
    <rect
       style="fill:#35201f;fill-opacity:1;stroke-width:0.264583;stroke-dasharray:none"
       id="rect7797"
       width="16.933332"
       height="16.933332"
       x="-16.933332"
       y="-16.933332"
       transform="scale(-1)" />
    <path
       style="fill:#3a2524;fill-opacity:1;stroke-width:0.264583;stroke-dasharray:none"
       id="path8684"
       d="m 5.1148196,9.1449599 c 0.119742,0.1975173 0.18162,0.3205118 0.358749,0.4952124 0.390752,0.3853957 0.959292,0.7018707 1.511392,0.7588767 0.210943,0.02178 0.4232915,-0.02664 0.6349372,-0.03996 0.247886,0.08505 1.4505988,-3.4205928 1.2027128,-3.5056373 v 0 c -0.175836,-0.04995 -0.3455956,-0.131928 -0.5275083,-0.149847 -0.2167263,-0.02135 -0.4364844,0.0057 -0.6524601,0.03362 -0.5653307,0.073129 -1.1160996,0.251134 -1.6064386,0.5424964 -0.07769,0.046165 -0.146535,0.1058124 -0.219803,0.1587185 -0.12067,-0.049609 -0.822251,1.6569182 -0.701581,1.7065273 z" />
    <path
       style="fill:#3a2524;fill-opacity:1;stroke-width:0.264583;stroke-dasharray:none"
       id="path9461"
       d="m 14.088199,0.91730764 c -0.121487,0.16565196 -0.1388,0.37548706 -0.08199,0.57025806 0.04335,0.148621 0.117402,0.245922 0.198577,0.377208 0.159347,0.164432 0.148259,0.183626 0.346337,0.279549 0.01067,0.0052 0.04209,0.0079 0.03552,-0.002 -0.03377,-0.05075 -0.09853,-0.07839 -0.125405,-0.133104 -0.308722,-0.6284 0.0029,-0.265821 -0.261064,-0.546057 -0.06726,0.01064 -0.136383,0.01294 -0.201776,0.03194 -0.204513,0.0594 -0.387983,0.184729 -0.499938,0.36831 -0.03139,0.05147 -0.1471,0.386242 -0.147317,0.386845 0.118133,0.809157 -0.07287,0.552823 0.311468,0.907021 0.07762,0.04393 0.698917,-1.053749 0.621299,-1.097682 v 0 c 0.118212,0.347077 0.04447,0.09004 0.08538,0.797667 -0.0088,0.05451 -0.05955,0.119346 -0.02643,0.163534 0.03061,0.04085 0.10248,0.01239 0.153052,0.0054 0.27807,-0.03829 0.534454,-0.197864 0.714195,-0.410164 0.07091,-0.08376 0.118887,-0.184508 0.17833,-0.276762 0.147075,-0.42763 0.213529,-0.436549 0.03873,-0.957473 -0.02757,-0.08217 -0.114866,-0.12986 -0.174338,-0.192906 -0.01315,-0.01394 -0.05859,-0.04941 -0.04332,-0.03783 0.09155,0.06945 0.0677,0.05133 0.135823,0.146221 0.0099,0.01552 0.01162,0.04294 0.02966,0.04655 0.01306,0.0026 0.01087,-0.02514 0.01082,-0.03845 -9.7e-5,-0.02772 -0.006,-0.0552 -0.01125,-0.08241 -0.0086,-0.04405 -0.01359,-0.08955 -0.03036,-0.1311751 -0.0054,-0.0135 -0.09927,-0.15386696 -0.112975,-0.17452696 0,-0.08083 -1.143037,-0.08083 -1.143037,0 z" />
    <path
       style="fill:#3a2524;fill-opacity:1;stroke-width:0.264583;stroke-dasharray:none"
       id="path9463"
       d="m 9.2293593,1.6601277 c -0.00669,-0.01823 -0.00886,-0.03884 -0.020058,-0.0547 C 9.1139343,1.4703357 8.9873913,1.3541047 8.8538582,1.2585967 8.6412753,1.1065476 8.5067067,1.0464836 8.2504122,0.98903164 c -0.08602,-0.01928 -0.1751764,-0.01996 -0.2627649,-0.02994 -0.060038,0.0093 -0.132021,-0.0092 -0.1801148,0.02795 -0.032338,0.02496 -0.017412,0.08108 -0.013835,0.12177396 0.0084,0.09561 0.050515,0.1876801 0.049462,0.2836511 -0.00116,0.1056 -0.036082,0.208119 -0.055995,0.311831 -0.023357,0.121646 -0.05616,0.08564 0.00833,0.12779 0.00838,0.0029 0.034026,0.0087 0.025157,0.0087 -0.1043136,2.21e-4 -0.2106544,0.01291 -0.3128378,-0.0081 -0.023331,-0.0048 -0.022696,-0.04189 -0.033618,-0.06305 C 7.3773447,1.5819527 7.2195854,1.4144087 7.1844968,1.2061427 7.0874798,0.63030564 7.5242123,0.86163664 7.1649438,0.71619564 c -0.2167167,-0.0273 -0.3938472,0.0034 -0.5937662,0.0883 -0.07029,0.02984 -0.140592,0.06083 -0.205969,0.100298 -0.115649,0.06981 -0.236325,0.18032996 -0.338742,0.26831706 -0.07602,0.08792 -0.134539,0.145216 -0.190628,0.245169 -0.01475,0.02628 -0.05559,0.06301 -0.03382,0.08384 0.02076,0.01986 0.04348,-0.04456 0.07208,-0.04724 0.229848,-0.02152 0.461421,-0.0162 0.692131,-0.02431 -0.06345,-0.04825 -0.745879,0.849003 -0.682433,0.897259 v 0 c 0.247609,5.82e-4 0.4964,0.02592 0.742828,0.0017 0.05478,-0.0054 0.09014,-0.06402 0.139545,-0.08829 0.02769,-0.0136 0.147009,-0.01674 0.1793059,-0.0287 0.1890131,-0.02864 -0.057086,0.0045 0.1706492,-0.0097 0.046796,-0.0029 0.093241,-0.01006 0.139719,-0.01624 0.2311739,-0.03071 0.4161184,-0.06831 0.6069788,-0.2154 C 8.037439,1.8026307 8.2996929,1.5787197 8.298732,1.3185177 8.2979118,1.0930666 8.1315947,0.89752964 8.0151105,0.70450064 c -0.029207,-0.0484 -0.086728,-0.08249 -0.1424463,-0.09203 -0.3265268,-0.05591 -0.418397,-0.0282 -0.6802022,0.01475 -0.066203,0.02706 -0.1386774,0.04216 -0.1986108,0.08119 -0.2462166,0.160342 -0.3850586,0.34558396 -0.4364406,0.65883506 -0.04712,0.28727 0.06267,0.575285 0.201846,0.815802 0.05416,0.0936 0.128755,0.173776 0.1931325,0.260665 0.2802345,0.209533 0.3238765,0.285363 0.6792526,0.370056 0.1419611,0.03383 0.2890234,0.05056 0.4349589,0.04989 0.2574083,-0.0012 0.4886655,-0.118819 0.7433889,-0.124023 0.076337,0.02965 0.4957067,-1.04991 0.4193701,-1.079564 z" />
    <path
       style="fill:#3a2524;fill-opacity:1;stroke-width:0.264583;stroke-dasharray:none"
       id="path9465"
       d="m 10.839075,4.8943707 c 0.0087,0.146872 0.08091,0.27155 0.160202,0.391582 0.119864,0.181456 0.15769,0.247432 0.335873,0.37749 0.06461,0.04716 0.138396,0.08025 0.207595,0.120369 0.504251,0.20686 0.799697,0.268316 1.360853,0.126682 0.09649,-0.02435 0.289587,-0.221706 0.34902,-0.276797 -0.08952,0.117384 0.285615,-0.398683 0.169275,-0.345043 -0.08364,0.03856 -0.07924,0.197608 -0.168897,0.218662 -0.486519,0.87157 -0.634274,-0.157215 -0.95101,-0.116313 -0.0601,0.0078 -0.06657,0.101283 -0.09986,0.151924 -0.04779,0.215573 -0.07648,0.286033 -0.07272,0.510612 0.0014,0.08218 0.01743,0.163455 0.02615,0.245182 -0.0024,0.122369 1.728185,0.155894 1.730556,0.03353 v 0 c 0.01299,-0.103544 0.03763,-0.206286 0.03897,-0.310634 0.0041,-0.317119 -0.03903,-0.374599 -0.131233,-0.670106 -0.07242,-0.129922 -0.317882,-0.605158 -0.44238,-0.652623 -0.928443,-0.353964 -0.635976,-0.148646 -1.035088,0.18786 -0.0406,0.03423 0.07061,-0.194221 0.04835,-0.151789 0.01342,-0.02158 0.03693,-0.03954 0.04025,-0.06473 0.0022,-0.01652 -0.0422,-0.03836 -0.02609,-0.04263 0.101234,-0.02684 0.20771,-0.03169 0.312431,-0.03329 0.01757,-2.64e-4 -0.02824,0.02118 -0.04388,0.02919 -0.01448,0.0074 -0.03001,0.02058 -0.04584,0.0168 -0.03502,-0.0084 -0.06363,-0.0337 -0.09544,-0.05055 -0.109359,-0.05739 -0.159567,-0.09317 -0.282084,-0.119677 -0.04348,-0.0094 -0.08942,-0.0027 -0.132912,-0.01204 -0.0316,-0.0068 -0.05931,-0.02601 -0.09012,-0.03578 -0.02345,-0.0074 -0.109338,-0.0229 -0.13684,-0.02806 -0.03537,-0.07249 -1.060496,0.427712 -1.025126,0.500199 z" />
    <path
       style="fill:#3a2524;fill-opacity:1;stroke-width:0.264583;stroke-dasharray:none"
       id="path9467"
       d="m 15.079783,8.7630958 c 0.04458,-0.091394 0.04707,-0.058059 -0.05147,-0.184653 -0.182266,-0.2341589 -0.406543,-0.3796808 -0.68829,-0.4726821 -0.09204,-0.030382 -0.189028,-0.042994 -0.283542,-0.064491 -0.265143,-0.00976 -0.759439,-0.038934 -0.950652,0.043234 -0.394334,0.1694538 -0.529235,0.6812744 -0.492376,1.0605885 0.0066,0.067771 0.02764,0.1333458 0.04146,0.2000184 0.05093,0.1298953 0.116252,0.2583143 0.205849,0.3666143 0.01726,0.020857 0.03646,0.040685 0.0587,0.056122 0.01085,0.00753 0.02988,0.021415 0.03805,0.011041 0.01431,-0.018164 0.005,-0.045965 0.0076,-0.068947 0.244577,-0.9303224 -0.04934,-0.079564 0.25139,-0.5583343 0.0088,-0.014012 -0.0058,-0.038938 -0.02123,-0.044869 -0.04312,-0.016558 -0.09158,-0.012692 -0.137642,-0.016129 -0.133085,-0.00992 -0.267221,-0.00909 -0.400509,-0.010541 -0.08806,0.011647 -0.176114,0.023297 -0.264171,0.034944 -0.100987,0.054228 0.665898,1.4823574 0.766882,1.4281294 v 0 c 0.06063,-0.03231 0.121253,-0.06462 0.18188,-0.09693 0.05481,-0.03327 0.111929,-0.063 0.16442,-0.09981 0.18869,-0.132343 0.02425,-0.03191 0.148407,-0.141577 0.08219,-0.0726 0.230494,-0.138354 0.279453,-0.2287885 0.07085,-0.1308748 0.08519,-0.2851933 0.127792,-0.4277899 1.21e-4,-0.036605 -0.0018,-0.073273 3.71e-4,-0.109814 0.01045,-0.1766128 0.01018,0.048802 0.0182,-0.1304338 0.0044,-0.098067 -0.01247,-0.1968783 -0.03332,-0.2921479 -0.01417,-0.031977 -0.02182,-0.067738 -0.04252,-0.095933 -0.01235,-0.016817 -0.03695,-0.047442 -0.0527,-0.033765 -0.258526,0.2244168 0.07824,0.2497948 -0.407124,0.4375889 -0.14269,0.055208 -0.31123,-0.012226 -0.457931,0.031216 -0.03405,0.010083 0.04225,0.057082 0.06337,0.085624 0.06098,0.041528 0.118392,0.088851 0.182938,0.1245843 0.168128,0.093082 0.375362,0.1711037 0.563056,0.20794 0.246557,0.048389 0.50008,0.024477 0.748643,0.048259 0.07483,0.030764 0.5099,-1.027499 0.435069,-1.0582629 z" />
    <path
       style="fill:#3a2524;fill-opacity:1;stroke-width:0.264583;stroke-dasharray:none"
       id="path9469"
       d="m 0.71456968,4.4101937 c 0.02311,0.221795 0.09283,0.405728 0.261553,0.55929 0.11925892,0.108543 0.22808592,0.161873 0.36807892,0.244695 0.314883,0.146315 0.690597,0.20401 1.024261,0.0883 0.0863,-0.02993 0.222335,-0.108528 0.293755,-0.165729 0.0456,-0.03652 0.08444,-0.08075 0.126657,-0.121129 0.106764,-0.116459 0.163569,-0.161159 0.233574,-0.303598 0.02554,-0.05196 0.04322,-0.107726 0.05813,-0.163667 0.0091,-0.03405 0.03813,-0.130007 0.01345,-0.104854 -0.474687,0.483832 0.298242,0.210236 -0.853328,0.357467 -0.02402,-0.0021 -0.05672,-0.02489 -0.07207,-0.0063 -0.01525,0.01849 0.01133,0.04676 0.02037,0.06896 0.04983,0.122466 0.09773,0.175268 0.195325,0.256917 0.03519,0.0041 0.04835,0.05391 0.08155,0.06083 0.0094,0.002 0.01739,-0.02617 0.02255,-0.01805 0.131895,0.207677 0.07496,0.346963 0.388229,0.448278 0.145434,0.04704 0.305682,0.0033 0.458524,0.005 0.0064,0.009 0.01,0.02074 0.01905,0.02693 0.0118,0.008 0.05476,0.01212 0.04058,0.01368 -0.100914,0.01112 -0.303638,0.08772 -0.304261,-0.01381 0.01658,0.0081 0.03276,0.0171 0.04973,0.02439 0.03188,0.01369 0.05986,0.01822 0.06052,0.01632 0.0043,-0.01241 -0.0078,-0.0251 -0.01224,-0.03748 -0.01685,-0.04731 -0.05348,-0.09138 -0.05155,-0.141566 0.0061,-0.157949 0.05001,-0.312152 0.07501,-0.468228 -0.04419,0.06418 0.863403,0.689043 0.907587,0.624867 v 0 c 0.0329,-0.165118 0.09257,-0.327101 0.09869,-0.495352 0.0026,-0.07077 -0.04244,-0.135685 -0.0734,-0.199378 -0.05854,-0.120422 -0.173677,-0.207728 -0.281192,-0.28056 -0.04138,-0.02659 -0.0806,-0.05689 -0.124132,-0.07978 -0.254932,-0.134057 -0.591109,-0.168018 -0.850885,-0.03338 0.132106,0.0055 0.27276,-0.03061 0.396317,0.01646 0.447287,0.170404 0.122571,0.188505 0.333886,0.415572 0.01966,0.02112 0.0074,-0.05723 0.01124,-0.08582 0.01615,-0.120267 0.01177,-0.04689 0.0057,-0.200779 -0.026,-0.124715 -0.03868,-0.220977 -0.09573,-0.338445 -0.124945,-0.257254 -0.366494,-0.416476 -0.604481,-0.557284 -0.260962,0.01239 -0.53557,-0.04704 -0.782888,0.03716 -0.123381,0.042 -0.157054,0.208073 -0.237857,0.310338 -0.0053,0.0068 -0.0124,0.01998 -0.02017,0.01623 -0.01593,-0.0077 0.0541,-0.07715 0.05706,-0.08213 0.0011,-0.01314 0.0092,-0.02754 0.0034,-0.03941 -0.0099,-0.02041 -0.08651,-0.03549 -0.09326,-0.03703 -0.01856,-0.0042 -0.07502,-0.01298 -0.0562,-0.0101 0.330492,0.05049 0.301293,-0.0555 0.320858,0.09777 -0.0023,0.0076 6.62e-4,0.02479 -0.007,0.02274 -0.01902,-0.0051 -0.03065,-0.02471 -0.04608,-0.03694 -0.02653,-0.02105 -0.05085,-0.04529 -0.07978,-0.06291 -0.02768,-0.01686 -0.150263,-0.07245 -0.189846,-0.0745 -0.01851,-9.52e-4 -0.03455,0.01346 -0.05182,0.02019 -0.03011,-0.07336 -1.06759292,0.352452 -1.03748292,0.425813 z" />
    <path
       style="fill:#3a2524;fill-opacity:1;stroke-width:0.264583;stroke-dasharray:none"
       id="path9471"
       d="m 4.1263666,12.348407 c 0.0372,-0.05849 0.09721,-0.146518 0.116234,-0.20992 0.07163,-0.238666 0.0377,-0.51202 -0.04194,-0.743304 -0.03562,-0.103446 -0.08968,-0.199595 -0.134513,-0.299393 -0.06303,-0.0877 -0.118928,-0.180989 -0.189094,-0.263088 -0.16324,-0.191001 -0.370179,-0.353664 -0.604616,-0.447659 -0.101466,-0.04068 -0.243303,-0.06811 -0.350575,-0.09198 -0.229319,-0.03128 -0.476592,-0.07648 -0.700525,0.02887 -0.127703,0.06008 -0.191489,0.210274 -0.262322,0.332343 -0.03035,0.05231 -0.02291,0.118762 -0.03394,0.178222 -5.02e-4,0.0028 -0.0017,0.01102 -6.88e-4,0.0084 0.049,-0.123356 0.09647,-0.247315 0.144698,-0.370972 0.0216,-0.04407 0.06719,-0.08319 0.0648,-0.13221 -0.0043,-0.08872 -0.269094,-0.08082 -0.208456,-0.109984 0.07637,-0.03673 0.169264,-0.01156 0.254006,-0.0108 0.01735,1.56e-4 -0.03602,0.003 -0.05049,0.01263 -0.01188,0.0079 -0.01534,0.02401 -0.02301,0.03601 0.0088,0.02668 0.01769,0.05335 0.02653,0.08002 0.02561,0.05531 0.05661,0.108433 0.07684,0.16593 0.01538,0.04371 0.01781,0.091 0.02936,0.135878 0.0036,0.01393 0.0019,0.03679 0.01593,0.0401 0.0066,0.0016 0.04294,-0.05067 0.04713,-0.05643 0.05354,-0.08787 0.125565,-0.163549 0.170332,-0.256997 0.01638,-0.03419 0.02768,-0.0706 0.04152,-0.105898 0.03427,-0.07827 -1.07261,-0.5629427 -1.106881,-0.4846742 v 0 c -0.03124,0.00632 -0.04138,0.033962 -0.06259,0.055029 -0.129384,0.1284817 -0.03682,0.024797 -0.158498,0.1700492 -0.028,0.04087 -0.05957,0.07951 -0.084,0.122611 -0.05551,0.09794 -0.11042292,0.247917 -0.12134192,0.355309 -0.03633,0.35732 0.05933,0.577429 0.28174192,0.848738 0.06604,0.05189 0.12528,0.11388 0.198132,0.155683 0.328324,0.188394 0.825928,0.198231 1.15432,-0.0038 0.07645,-0.04703 0.144988,-0.105847 0.217481,-0.158771 0.06918,-0.136958 0.142603,-0.271856 0.207543,-0.410875 0.0057,-0.01227 0.0075,-0.05341 0.0033,-0.04051 -0.0576,0.179203 -0.01619,0.307044 -0.278164,0.421792 -0.04514,0.01977 -0.387729,0.03083 -0.558562,0.03668 -0.0036,0.01066 -0.01312,0.02102 -0.01069,0.032 0.01626,0.07368 0.08274,0.141448 0.130685,0.190136 0.0438,0.04448 0.08878,0.08828 0.138452,0.126081 0.01293,0.0098 0.203467,0.118662 0.225846,0.131507 0.06422,0.03225 0.09993,0.04382 0.151793,0.09198 0.07761,0.07208 0.09911,0.178082 0.169415,0.254705 -0.01319,0.07883 1.101623,0.265392 1.114815,0.186562 z" />
    <path
       style="fill:#3a2524;fill-opacity:1;stroke-width:0.264583;stroke-dasharray:none"
       id="path9473"
       d="m 8.1037379,13.469446 c 0.066198,0.0653 0.1217756,0.143511 0.1985931,0.195912 0.2258497,0.154062 0.4909077,0.228961 0.7559749,0.277384 0.1977488,0.03612 0.6095456,0.06742 0.8194216,0.05297 0.103195,-0.0071 0.2038285,-0.03539 0.3057435,-0.05308 0.05402,-0.03058 0.124319,-0.04245 0.162059,-0.09173 0.03209,-0.04191 0.02925,-0.103175 0.0276,-0.155937 -0.01388,-0.445244 -0.207281,-0.662895 0.265924,-0.97026 0.125119,-0.08127 0.541658,0.02934 0.289812,-0.03301 -0.44226,-0.04058 -0.573958,-0.107404 -1.0130285,0.436145 -0.09865,0.122127 -0.02413,0.314532 -0.0099,0.470879 0.0118,0.12954 0.1044835,0.285553 0.1879915,0.381235 0.0433,0.04961 0.09776,0.08824 0.146646,0.132365 0.304565,0.195936 0.503145,0.226688 0.8997,0.217582 0.06518,-0.0015 0.123549,-0.04192 0.186328,-0.05953 0.09758,-0.02737 0.1143,-0.0253 0.207257,-0.0341 0.02672,2.1e-5 0.054,-0.0053 0.08017,6.1e-5 0.08942,0.01848 0.167154,0.07554 0.25537,0.09909 0.06172,0.01648 0.239574,-0.009 0.189226,0.03035 -0.05509,0.04302 -0.139461,-0.0098 -0.209192,-0.01475 0.104261,0.02865 0.509415,-1.445816 0.405155,-1.474465 v 0 c -0.199429,-0.0075 -0.398738,-0.02549 -0.598288,-0.02256 -0.272896,0.004 -0.506212,0.158 -0.756571,0.244162 -0.03416,0.01745 -0.069,0.03361 -0.102471,0.05234 -0.01707,0.0096 -0.0486,0.01282 -0.04894,0.03238 -2.91e-4,0.0175 0.03125,-0.02067 0.04871,-0.01957 0.569803,0.03583 0.266192,-0.01504 0.463687,0.07864 0.0015,7.15e-4 0.0031,-0.0012 0.0046,-0.0018 -0.01745,-0.01522 -0.121419,-0.104524 -0.145623,-0.05256 -0.04371,0.09384 -9e-4,0.23316 -0.07983,0.300128 -0.504949,0.428347 -0.483882,0.405551 -0.833604,0.344811 0.04957,0.02304 0.0948,0.06001 0.1487,0.06911 0.456935,0.07719 0.841566,0.191227 1.096475,-0.370792 0.113731,-0.250754 0.0059,-0.721169 -0.142783,-0.965294 -0.06625,-0.108799 -0.161633,-0.196921 -0.24245,-0.295381 -0.118694,-0.08089 -0.225796,-0.182195 -0.356081,-0.242669 -0.601034,-0.279006 -1.4004695,-0.252181 -1.9948387,0.02951 -0.1077248,0.05105 -0.1994641,0.130607 -0.2991964,0.195911 -0.086021,-0.02209 -0.3983688,1.19443 -0.312348,1.216516 z" />
    <path
       style="fill:#3a2524;fill-opacity:1;stroke-width:0.264583;stroke-dasharray:none"
       id="path9475"
       d="m 5.9574736,13.254124 c -0.09629,0.02684 -0.191137,-0.01605 -0.286603,-0.01092 -0.06959,0.0037 -0.137633,0.02208 -0.206579,0.03226 -0.129027,0.01906 -0.364859,0.04526 -0.484543,0.08399 -0.08018,0.02595 -0.153033,0.07063 -0.22955,0.105946 -0.05808,0.04814 -0.12244,0.08958 -0.174249,0.14441 -0.17455,0.184735 -0.280906,0.492187 -0.325248,0.732934 -0.02022,0.109771 0.0076,0.272124 -0.01125,0.151801 -5.82e-4,-0.05046 0.04247,-0.251013 -0.06528,-0.29189 -0.09415,-0.03572 -0.273864,0.01402 -0.35586,0.03223 -0.204866,0.0455 -0.176505,0.04105 -0.363574,0.103172 -0.04444,0.02215 -0.08888,0.04429 -0.133328,0.06644 -0.09695,0.04608 0.554697,1.4172 0.65165,1.371122 v 0 c 0.07894,-0.0066 0.157878,-0.01322 0.236818,-0.01983 0.08999,-0.02397 0.182521,-0.03986 0.269955,-0.07191 0.256396,-0.09398 0.493151,-0.251973 0.67132,-0.459286 0.06562,-0.07635 0.133975,-0.153393 0.178229,-0.243815 0.05721,-0.116887 0.08168,-0.247123 0.122517,-0.370685 0.003,-0.05653 0.01309,-0.113143 0.0089,-0.169592 -0.0015,-0.02017 -0.01093,0.03896 -0.01721,0.05818 -0.02399,0.07336 -0.05469,0.144707 -0.07359,0.219537 -0.0091,0.03596 -0.03257,0.0815 -0.0099,0.110829 0.04292,0.05542 0.280373,0.0012 0.295431,-8.63e-4 0.07019,-0.02652 0.143766,-0.04537 0.210558,-0.07955 0.06415,-0.03282 0.281663,-0.188888 0.347628,-0.239501 0.02157,-0.01655 0.163123,-0.134888 0.179768,-0.157926 0.0076,-0.01049 -6.35e-4,-0.02587 -9.53e-4,-0.0388 0.07483,-0.03076 -0.360238,-1.089028 -0.435069,-1.058263 z" />
    <path
       style="fill:#3a2524;fill-opacity:1;stroke-width:0.264583;stroke-dasharray:none"
       id="path9477"
       d="m 13.362402,14.190396 c -0.02767,0.02729 -0.05941,0.05101 -0.08301,0.08188 -0.02671,0.03494 -0.04386,0.07625 -0.06665,0.113863 -0.106779,0.17619 -0.181712,0.293246 -0.212437,0.504758 -0.0095,0.0653 -0.0072,0.131771 -0.01073,0.197656 0.01268,0.08587 0.01413,0.174157 0.03803,0.257596 0.08546,0.298263 0.189707,0.595664 0.50992,0.737099 0.319094,0.140941 0.761621,0.101816 1.110272,0.07811 0.37385,-0.08324 0.0087,0.0067 0.322809,-0.09282 0.03645,-0.01155 0.07417,-0.01866 0.111347,-0.02762 0.02845,-0.0069 0.113959,-0.01292 0.08552,-0.01979 -0.258235,-0.06243 -0.314224,0.05842 -0.254516,-0.05043 -0.08732,-0.121755 0.0628,0.08213 -0.120205,-0.127996 -0.04225,-0.04851 -0.047,-0.06451 -0.06757,-0.111052 0.02506,0.08114 1.172558,-0.273233 1.1475,-0.354373 v 0 c -0.01853,-0.04771 -0.03173,-0.09784 -0.05558,-0.14312 -0.104685,-0.1988 -0.247101,-0.337321 -0.450215,-0.433497 -0.287581,-0.0957 -0.106474,-0.04977 -0.603361,-0.07364 -0.234111,-0.01125 -0.08818,-0.0013 -0.331315,2.4e-4 -0.289219,0.0019 -0.06213,-0.01528 -0.361038,0.01762 -0.05737,0.016 -0.115881,0.02837 -0.172114,0.048 -0.0302,0.01054 -0.114395,0.02706 -0.0862,0.04217 0.10938,0.05862 0.257626,0.0299 0.357674,0.103329 0.227795,0.167181 0.118587,0.31823 0.22747,0.522355 0.01005,0.01885 0.04267,-0.002 0.06401,-0.003 0.03294,-0.0554 0.07204,-0.107574 0.09882,-0.166203 0.120867,-0.264685 0.150206,-0.538281 0.116816,-0.825631 -0.0088,-0.07541 -0.01984,-0.15161 -0.04479,-0.223312 -0.0203,-0.05832 -0.0596,-0.108179 -0.0894,-0.162269 -0.0078,-0.08351 -1.188835,0.02659 -1.18105,0.110099 z" />
    <path
       style="fill:#3a2524;fill-opacity:1;stroke-width:0.264583;stroke-dasharray:none"
       id="path9479"
       d="m 3.5497496,1.5658587 c -0.21281,-0.5194381 -0.505159,-0.88315806 -1.035884,-1.10823506 -0.322929,-0.136953 -0.426289,-0.119055 -0.754408,-0.141232 -0.08608,0.01081 -0.173815,0.0124 -0.258224,0.03242 -0.432515,0.102568 -0.67610992,0.71996696 -0.81635992,1.00655506 -0.02672,0.0546 0.181531,0.188387 0.227557,0.202583 0.06655,0.02053 0.13723592,0.02376 0.20585392,0.03565 0.195081,-0.06486 0.433987,-0.05534 0.585242,-0.194571 0.261269,-0.240494 0.167518,-0.51833206 0.122088,-0.78489906 -0.03755,-0.08006 -1.16979592,0.45098696 -1.13224492,0.53104806 v 0 c 0.037,-0.17500506 0.08978,-0.47064306 0.209605,-0.56834306 0.14123092,-0.115156 0.35013892,-0.101147 0.52520992,-0.15172 0.196084,0.08304 0.0551,0.0025 0.03556,0.0491 -0.01206,0.02877 0.01798,0.06777 4.77e-4,0.0936 -0.213462,0.314964 -0.459957,0.60629806 -0.68349092,0.91419506 -0.02211,0.03045 -0.05201,0.06221 -0.0527,0.09984 -9.79e-4,0.05262 0.03206,0.100247 0.04809,0.150371 0.05095,0.0675 0.0924,0.143344 0.152844,0.202492 0.30348192,0.296987 0.70991492,0.461627 1.12659692,0.517209 0.125107,0.01669 0.252686,0.01218 0.378627,0.0039 0.07167,-0.0047 0.140786,-0.02856 0.211179,-0.04284 0.0599,0.06395 0.964277,-0.783117 0.90438,-0.847067 z" />
    <path
       style="fill:#3a2524;fill-opacity:1;stroke-width:0.264583;stroke-dasharray:none"
       id="path9481"
       d="m 6.6577716,4.7635767 c 0.01321,0.05828 0.01625,0.119849 0.03962,0.174852 0.14953,0.351937 0.4544455,0.59711 0.7925404,0.755628 0.071688,0.03361 0.1471369,0.05853 0.2207056,0.0878 0.080438,0.02854 0.1589902,0.0631 0.2413156,0.08562 0.2457175,0.06724 0.5798433,0.08337 0.810338,0.04266 0.1447216,-0.02556 0.3233608,-0.207425 0.4025474,-0.320803 0.040768,-0.05837 0.064055,-0.127174 0.096082,-0.190761 0.029625,-0.07868 -1.0830706,-0.497646 -1.112696,-0.418967 v 0 c 0.017066,-0.03085 0.030536,-0.06398 0.051194,-0.09255 0.034002,-0.04702 0.1450176,-0.172961 0.2084422,-0.182562 0.1328692,-0.02012 0.2688405,0.0071 0.4031427,0.0024 0.030956,-0.0011 -0.061481,-0.209443 -0.051474,-0.07736 -0.1153001,-0.1279 -0.1629752,-0.191348 -0.3088429,-0.300948 -0.1209616,-0.09089 -0.3020181,-0.190098 -0.4444931,-0.238507 -0.080798,-0.02745 -0.2942629,-0.05841 -0.3859686,-0.07305 -0.052789,-0.06805 -1.0152393,0.678497 -0.9624503,0.746553 z" />
    <path
       style="fill:#3a2524;fill-opacity:1;stroke-width:0.264583;stroke-dasharray:none"
       id="path9483"
       d="m 9.4515675,16.063908 c -0.01197,-0.03171 -0.01879,-0.06587 -0.0359,-0.09512 -0.1488133,-0.254421 -0.4917778,-0.486113 -0.7607559,-0.586043 -0.084822,-0.03151 -0.1760313,-0.04201 -0.2640468,-0.06301 -0.073202,-0.0024 -0.1465365,-0.01238 -0.2196049,-0.0073 -0.2218505,0.01533 -0.136497,0.07605 -0.06988,0.21162 0.013377,0.02722 0.00644,0.07195 0.034118,0.08436 0.020405,0.0091 0.00317,-0.04462 0.00476,-0.06692 -0.043177,-0.266198 -0.1156425,-0.458901 -0.3364053,-0.627659 -0.060652,-0.05975 -0.035596,-0.03351 -0.076398,-0.07753 -0.042939,-0.05778 -0.860075,0.549464 -0.817136,0.607244 v 0 c 0.05994,0.06217 0.033576,0.03737 0.077045,0.07652 0.024749,0.05464 0.055049,0.104902 0.090984,0.154493 0.00917,0.02843 0.019388,0.05655 0.027517,0.0853 0.019893,0.07036 0.027966,0.144631 0.056523,0.211939 0.090925,0.21431 0.1307069,0.226733 0.2712671,0.386182 0.1474131,0.167224 0.040133,0.06887 0.2243145,0.214425 0.059808,0.0298 0.1167887,0.06612 0.1794241,0.08939 0.068125,0.02531 0.1407654,0.03626 0.2108168,0.05562 0.2627548,0.07261 0.5236361,0.154187 0.7993769,0.156407 0.057266,0.04271 0.6612475,-0.767162 0.6039805,-0.80987 z" />
    <path
       style="fill:#21141d;fill-opacity:1;stroke-width:0.264583;stroke-dasharray:none"
       id="path10215"
       d="m 4.0189786,6.5932697 c -0.152416,-0.05971 -0.28252,-7.67e-4 -0.431668,0.03961 -0.167531,0.04537 -0.236185,0.05439 -0.396756,0.134771 -0.06082,0.03045 -0.115949,0.07114 -0.173924,0.106717 -0.145682,0.112001 -0.244608,0.2504082 -0.313529,0.4188472 -0.05118,0.1250733 -0.07564,0.1882159 -0.07865,0.3229433 -3.97e-4,0.017515 0.01001,0.033579 0.01502,0.050368 0.265139,-0.080657 0.538858,-0.1371762 0.795416,-0.2419705 0.02378,-0.00971 -0.02125,-0.046988 -0.03522,-0.068541 -0.09704,-0.1496663 -0.222836,-0.22714 -0.373716,-0.313616 -0.09876,-0.04132 -0.146056,-0.06617 -0.252678,-0.08938 -0.09517,-0.02071 -0.194762,-0.01248 -0.2912,-0.01513 -0.119129,-0.0033 -0.238219,-0.0078 -0.357329,-0.01172 -0.124785,0.02819 -0.250116,0.04741 -0.372524,0.08585 -0.06375,0.03458 0.425296,0.9361804 0.489049,0.9015997 v 0 c 0.04142,-0.012094 0.07776,-0.020516 0.116454,-0.039247 0.0073,-0.00354 0.01288,-0.00996 0.01985,-0.014129 0.0075,-0.00449 0.0322,-0.011584 0.02346,-0.011774 -0.01129,-2.45e-4 -0.02121,0.00773 -0.03182,0.011594 -0.0967,-0.00403 -0.193327,-0.013854 -0.290092,-0.012097 -0.02164,3.969e-4 0.01841,0.041196 0.03566,0.054266 0.07779,0.058931 0.169467,0.088102 0.259488,0.122636 0.09173,0.023029 0.190293,0.061908 0.286527,0.044864 0.01749,-0.0031 0.0331,-0.012917 0.04965,-0.019376 0.0092,-0.00751 0.01628,-0.019219 0.02772,-0.022516 0.271668,-0.078297 0.54584,-0.1476303 0.81876,-0.2214457 0.0797,0.053865 -0.01708,0.1157264 0.02583,0.1558473 0.04659,0.04356 0.252045,-0.046305 0.289896,-0.060757 0.04987,-0.027314 0.101901,-0.050999 0.1496,-0.081943 0.08907,-0.057783 0.149911,-0.1217271 0.232064,-0.186949 0.02608,-0.020704 0.05731,-0.035068 0.08097,-0.058501 0.03037,-0.030089 0.02973,-0.084121 0.07102,-0.1068009 0.0618,-0.027388 -0.325519,-0.9014154 -0.387322,-0.8740274 z" />
    <path
       style="fill:#21141d;fill-opacity:1;stroke-width:0.264583;stroke-dasharray:none"
       id="path10266"
       d="m 9.5415435,7.2452651 c 0.03431,0.078165 0.05819,0.1617948 0.102934,0.2344938 0.224537,0.3648406 0.5746835,0.6363616 0.9822715,0.7685392 0.343312,0.1113335 0.540756,0.08888 0.892072,0.0942 0.690542,-0.1375786 0.07053,0.012925 0.625258,-0.1869009 0.147332,-0.053073 0.29872,-0.094133 0.448079,-0.1411988 0.07209,-0.025069 -0.282427,-1.0445711 -0.354517,-1.0195031 v 0 c 0.09579,-0.04173 0.22925,-0.03838 0.287375,-0.1252046 0.08207,-0.122604 -0.47025,-0.223787 -0.357371,-0.261144 -0.118509,-0.03157 -0.234935,-0.07238 -0.355529,-0.09471 -0.293239,-0.05428 -0.569298,-0.07673 -0.864093,-0.0092 -0.123834,0.02836 -0.372876,0.128896 -0.468143,0.254518 -0.024,0.03165 -0.02194,0.07634 -0.03291,0.114517 -0.02628,-0.06402 -0.9317035,0.307589 -0.9054265,0.3716123 z" />
    <path
       style="fill:#21141d;fill-opacity:1;stroke-width:0.264583;stroke-dasharray:none"
       id="path10268"
       d="m 12.293814,2.6094457 c 0.0071,-0.397818 -0.178367,-0.78841 -0.429725,-1.089359 -0.07097,-0.08497 -0.15695,-0.156175 -0.235426,-0.234262 -0.147826,-0.102427 -0.261204,-0.2006711 -0.433377,-0.2551591 -0.04027,-0.01275 -0.08419,-0.007 -0.126287,-0.01048 -0.04303,-0.07363 -1.0842945,0.5348561 -1.041268,0.6084851 v 0 c 0.01015,0.06822 0.01275,0.138001 0.03045,0.204667 0.05701,0.214809 0.112108,0.268155 0.232744,0.462513 0.07347,0.07864 0.140132,0.164245 0.220405,0.23593 0.26867,0.239928 0.592357,0.356611 0.914022,0.501423 0.02996,0.06141 0.898431,-0.362349 0.868467,-0.423759 z" />
    <path
       style="fill:#21141d;fill-opacity:1;stroke-width:0.264583;stroke-dasharray:none"
       id="path10270"
       d="m 6.8732436,3.8031837 c -0.02413,-0.356098 -0.200745,-0.626216 -0.439498,-0.882896 -0.06325,-0.06799 -0.133872,-0.128734 -0.200808,-0.193102 -0.07214,-0.066 -0.140066,-0.136923 -0.21643,-0.197986 -0.196783,-0.157355 -0.483117,-0.331525 -0.715993,-0.43154 -0.175974,-0.07558 -0.251183,-0.08472 -0.432359,-0.12619 -0.07475,-0.0495 -0.774815,1.007649 -0.700063,1.057151 v 0 c 0.07632,0.06708 0.126042,0.113154 0.211402,0.175761 0.05442,0.03992 0.111554,0.07601 0.167108,0.114337 0.182497,0.12591 0.362685,0.255082 0.5448,0.38154 0.347686,0.28564 0.01005,0.01397 0.353069,0.274026 0.220089,0.166858 0.127916,0.120776 0.363262,0.24496 0.04857,0.02563 0.09585,0.05558 0.148383,0.07157 0.03147,0.0096 0.06575,0.0024 0.09862,0.0036 0.03474,0.05788 0.853244,-0.433363 0.818508,-0.49124 z" />
    <path
       style="fill:#21141d;fill-opacity:1;stroke-width:0.264583;stroke-dasharray:none"
       id="path10272"
       d="m 14.187945,5.2325637 c 0.02833,0.04349 0.05049,0.09168 0.08498,0.130466 0.254928,0.286673 0.633048,0.453042 1.008509,0.505972 0.06786,0.0096 0.137014,0.0036 0.205521,0.0054 0.168301,-0.04922 0.08997,-0.06415 0.01908,-0.166745 8.94e-4,0.08863 1.254329,0.07598 1.253435,-0.01265 v 0 c -0.0106,-0.115377 -0.001,-0.234427 -0.03181,-0.346131 -0.06496,-0.235876 -0.204075,-0.434485 -0.330035,-0.638279 -0.07575,-0.07536 -0.141199,-0.162741 -0.227251,-0.226087 -0.300236,-0.221016 -0.676234,-0.303529 -1.042869,-0.292387 -0.104471,0.0032 -0.208199,0.02147 -0.310839,0.04121 -0.07214,0.01387 -0.141488,0.03957 -0.212233,0.05935 -0.06646,-0.02945 -0.482943,0.91039 -0.416486,0.93984 z" />
    <path
       style="fill:#21141d;fill-opacity:1;stroke-width:0.264583;stroke-dasharray:none"
       id="path10274"
       d="M 10.794248,9.704709 C 10.744708,9.677762 10.699808,9.639524 10.645632,9.623868 10.370947,9.544485 10.209644,9.555904 9.9231895,9.602191 9.6509665,9.646178 9.4492185,9.7041576 9.2080884,9.8331351 9.1260444,9.8770191 9.0538805,9.9372891 8.9767767,9.9893662 9.0524987,9.9334882 8.7494943,10.208673 8.8382456,10.253433 c 0.098876,0.04987 0.2406121,-0.01369 0.3276767,0.05474 0.2631102,0.206802 0.3985502,0.459499 0.2363572,0.740378 0.04714,-0.04934 -0.6506127,-0.716051 -0.6977564,-0.666712 v 0 c -0.027931,0.03163 -0.067598,0.05592 -0.083794,0.09488 -0.1315571,0.316497 -0.1254924,0.511564 0.2271758,0.775106 0.1133215,0.08468 0.2813738,0.03331 0.4197244,0.06284 0.1587038,0.03388 0.2978628,0.140823 0.4693528,0.129303 0.123768,-0.0044 0.248714,0.0044 0.3713029,-0.01322 0.321005,-0.0461 0.560883,-0.130067 0.834477,-0.308388 0.118635,-0.07732 0.232292,-0.166121 0.326349,-0.271981 0.169983,-0.191312 0.205142,-0.33464 0.28675,-0.554903 0.04177,-0.05385 -0.71984,-0.6446221 -0.761613,-0.590768 z" />
    <path
       style="fill:#21141d;fill-opacity:1;stroke-width:0.264583;stroke-dasharray:none"
       id="path10276"
       d="m 13.842379,11.618763 c -0.0086,0.04482 -0.02356,0.08887 -0.0257,0.134452 -0.01433,0.306031 0.138314,0.663265 0.307741,0.910623 0.05081,0.07418 0.112223,0.140502 0.168334,0.210753 0.145894,0.153073 0.291368,0.237042 0.485669,0.308977 0.05096,0.01887 0.100288,0.04497 0.153923,0.05368 0.170765,0.02774 0.344047,0.03677 0.516071,0.05516 0.06208,-0.02301 -0.263374,-0.900939 -0.325452,-0.877926 v 0 c 0.157725,0.02016 0.315116,0.04313 0.473175,0.06048 0.02147,0.0023 0.05243,0.01629 0.06478,-0.0014 0.01632,-0.02342 0.0021,-0.05769 -0.0042,-0.08554 -0.02797,-0.123671 -0.07054,-0.175566 -0.135208,-0.289252 -0.20205,-0.25726 -0.42449,-0.503479 -0.699831,-0.684393 -0.01445,-0.06925 -0.99378,0.135173 -0.979326,0.204422 z" />
    <path
       style="fill:#21141d;fill-opacity:1;stroke-width:0.264583;stroke-dasharray:none"
       id="path10278"
       d="m 12.380163,15.592676 c -0.123788,-0.44899 -0.342486,-0.777292 -0.704448,-1.078272 -0.129749,-0.107889 -0.264809,-0.211566 -0.411806,-0.29443 -0.149568,-0.08431 -0.315236,-0.136175 -0.472854,-0.204262 -0.156865,-0.02975 -0.313731,-0.0595 -0.470597,-0.08924 -0.115527,-0.06363 -1.015417,1.570181 -0.8998895,1.633813 v 0 c 0.101426,0.05019 0.202851,0.100384 0.304276,0.150576 0.129833,0.04314 0.257513,0.09341 0.3895005,0.129421 0.06233,0.01701 0.696482,0.149906 0.782831,0.165168 0.0034,6.02e-4 0.440462,0.07142 0.499235,0.0539 0.03935,-0.01172 0.05222,-0.06337 0.07833,-0.09506 0.02628,0.06402 0.931704,-0.30759 0.905427,-0.371613 z" />
    <path
       style="fill:#21141d;fill-opacity:1;stroke-width:0.264583;stroke-dasharray:none"
       id="path10280"
       d="m 2.7672666,13.222913 c -0.02688,-0.01098 -0.05191,-0.02866 -0.08063,-0.03293 -0.10793,-0.01605 -0.235468,0.01896 -0.335943,0.05425 -0.04691,0.01648 -0.08935,0.04969 -0.138839,0.05451 -0.07004,0.0068 -0.140077,-0.01368 -0.210116,-0.02051 -0.479574,0.04057 -0.873147,0.186159 -1.14871392,0.60078 -0.0255,0.03837 -0.04185,0.08209 -0.06277,0.123127 -0.01557,0.03582 -0.03787,0.0694 -0.0467,0.107447 -0.0078,0.03364 0.03725,0.0137 0.05811,0.01065 0.129959,-0.019 0.26015492,-0.03634 0.39023192,-0.05451 -0.06316,-0.02025 -0.34957892,0.87295 -0.28641992,0.893203 v 0 C 1.0503926,14.9418 1.1960756,14.93024 1.3402246,14.90755 c 0.06798,-0.0107 0.127304,-0.05613 0.195241,-0.06711 0.02555,-0.0041 0.05159,0.0043 0.07739,0.0064 0.159765,-0.02188 0.321775,-0.03672 0.474963,-0.09126 0.219571,-0.07817 0.413001,-0.202948 0.584402,-0.359816 0.0387,-0.04581 0.07212,-0.09666 0.116093,-0.137427 0.0096,-0.0089 0.106506,-0.01976 0.115851,-0.02141 0.08589,-0.01518 0.15374,-0.03618 0.219352,-0.09691 0.06485,-0.02519 -0.291403,-0.942269 -0.356251,-0.917079 z" />
    <path
       style="fill:#967952;stroke-width:0.264583"
       id="path3972"
       d="m 7.3958804,0.12003764 c 0.5570879,-0.01113 0.2080453,-0.07287 0.061879,0.228418 -0.016751,0.03453 0.096153,0.0365 0.088165,0.07404 -0.014806,0.06958 -0.1545061,0.09307 -0.1384755,0.162378 0.013949,0.06031 0.1225322,0.01813 0.1831382,0.03071 0.034562,0.0072 0.067995,0.01899 0.1019927,0.02849 0.8139051,-0.143932 0.1947584,-0.01943 0.082001,-0.04864 -0.028263,-0.0073 -0.024493,-0.06236 -0.00903,-0.08712 0.022307,-0.03573 0.07358,-0.04183 0.1061855,-0.06849 0.088629,-0.07248 -0.1154393,-0.07132 -0.1357307,-0.07653 0.066249,0.04367 0.1741979,0.05555 0.1987489,0.130999 0.028791,0.08848 -0.2248911,0.06412 -0.2419803,0.06046 -0.539184,-0.115465 -0.0304,-0.03929 -0.019307,-0.03234 0.043676,0.02738 -0.1028896,-0.0066 -0.1543344,-0.01 0.00614,-0.0066 0.020108,-0.02854 0.018407,-0.01971 -0.0031,0.0161 -0.024125,0.02713 -0.022984,0.04349 0.00596,0.08549 0.083991,0.215377 0.1218139,0.276651 0.035915,0.05818 0.1636774,0.120022 0.1160844,0.169113 -0.095962,0.09898 -0.2639552,0.0797 -0.3959331,0.11954196 -0.1302872,0.1886471 0.3377348,0.1174821 0.3052665,0.2435371 -0.062665,0.243293 -0.3371112,-0.03031 -0.053731,0.130702 0.01515,0.0086 -0.069345,-0.0054 -0.051931,-0.0059 0.019283,-6.08e-4 0.038394,0.0038 0.057591,0.0058 -0.03982,-6.35e-4 -0.079641,-0.0013 -0.119461,-0.0019 0.012512,0.0066 0.048713,0.01105 0.037537,0.01969 -0.022511,0.01741 -0.065632,0.03799 -0.083844,0.01612 -0.018889,-0.02268 -0.00209,-0.07971 0.02706,-0.08432 0.069136,-0.01093 0.1541132,-9e-4 0.2044986,0.04769 0.037932,0.03658 -0.1053735,-0.0019 -0.1580605,-0.0029 -0.052185,0.09511 -0.1500601,0.206335 -0.043704,0.310404 0.036292,0.03551 0.2546562,0.105502 0.1682605,0.145423 -0.086868,0.04014 -0.1867326,0.04195 -0.2800991,0.06292 0.4608246,0.009 0.1821942,-0.0827 0.1316956,-0.07689 -0.017261,0.002 -0.031045,0.01627 -0.047857,0.02065 -0.045738,0.01193 -0.1197327,-0.01509 -0.1389952,0.02808 -0.016182,0.03626 0.054955,0.0644 0.093545,0.07377 0.059338,0.01441 0.1220428,-0.0044 0.1830642,-0.0066 -0.6051934,-0.118997 -0.00996,-0.02095 -0.03488,0.04537 -0.031355,0.08343 -0.1825959,0.02881 -0.2548112,0.08105 -0.063054,0.04561 0.2338025,0.109335 0.1725207,0.157303 -0.079093,0.06191 -0.1984176,0.03138 -0.2976266,0.04708 0.050407,0.12194 0.2406335,0.110262 0.2998047,0.218945 0.016007,0.0294 -0.075327,0.05687 -0.055402,0.08377 0.03948,0.05331 0.2380882,0.05238 0.1801153,0.08462 -0.2788541,0.155072 -0.8814459,0.0221 -0.1287917,0.139556 0.3123546,0.11741 -0.010427,-0.03072 -0.1424242,0.106817 -0.042567,0.04435 0.1466162,-0.01158 0.1800275,0.04002 0.024241,0.03744 -0.1144579,-0.0011 -0.1271733,0.04161 -0.014044,0.04722 0.0531,0.08306 0.077338,0.125948 0.013907,0.02461 0.024641,0.05087 0.036962,0.07631 0.058005,0.0068 -0.1068668,0.05424 -0.079664,0.08037 0.016542,0.01589 0.051591,-0.0041 0.067733,0.01215 0.010096,0.01019 -0.031002,0.0047 -0.040024,0.01583 -0.00481,0.0059 0.022373,-0.0012 0.022013,0.0064 -0.00193,0.04118 -0.018653,0.08031 -0.02798,0.120464 -0.2108001,0.198474 -0.090833,0.02469 0.1319364,0.18468 0.02078,0.01492 -0.021407,0.04657 -0.029706,0.07077 -0.00243,0.0071 -0.00657,0.01625 -0.00222,0.02234 0.1084897,0.15206 0.1772515,0.01854 -0.1930072,0.19401 0.6245085,-0.200647 0.457653,-0.03088 0.3528867,-0.137744 -0.00949,-0.0097 -0.022648,-0.04392 -0.02644,-0.0309 -0.00705,0.0242 0.021323,0.0503 0.01378,0.07435 -0.023701,0.07555 -0.1351251,0.04769 0.03099,0.05786 -0.057408,0.04187 -0.1341509,0.06562 -0.1722229,0.12561 -0.079344,0.125031 0.2523993,-0.07462 0.2115579,0.08955 -0.016568,0.0666 -0.1328375,0.05043 -0.1796317,0.100642 -0.037445,0.04018 0.1661557,-0.01911 0.047778,0.01315 -0.013137,-0.03953 -0.055236,-0.08006 -0.03941,-0.118591 0.018817,-0.04582 0.098995,-0.04041 0.1225968,-0.08395 0.03453,-0.06371 -0.099967,-0.19779 -0.011359,-0.193204 0.087903,0.0046 0.163712,0.06478 0.2446817,0.09929 0.060352,0.02573 -0.1218777,-0.04861 -0.1828165,-0.07292 -0.060696,-0.0251 -0.233376,-0.165265 -0.2065671,0.02127 0.00647,0.04501 0.057987,0.07667 0.060917,0.122046 0.00856,0.132632 -0.1572712,0.122234 -0.2089221,0.198219 -0.018891,0.02779 0.019794,0.06422 0.02969,0.09634 -0.03092,0.0309 -0.06184,0.06181 -0.092761,0.09271 0.048012,0.01187 0.1724547,-0.0049 0.1440366,0.03562 -0.029931,0.04264 -0.1030023,-0.02333 -0.154989,-0.02002 -0.040567,0.0026 -0.1416264,0.0057 -0.1161023,0.03731 0.1917327,0.23765 0.4057859,0.07058 0.1514739,0.216667 0.030575,0.114522 -0.1381315,0.110128 -0.1519777,0.190053 -0.00761,0.04393 0.073281,0.06073 0.084144,0.103971 0.00743,0.02957 -0.019106,0.05897 -0.037011,0.08365 -0.097906,0.134946 -0.1294718,0.01185 0.026884,0.200093 0.0023,0.03176 -0.020048,0.07837 0.00694,0.09528 0.073844,0.04628 0.189675,0.0071 0.2526144,0.06739 0.030478,0.02919 -0.048715,0.06948 -0.078701,0.09917 -0.056204,0.05566 -0.1378178,0.08832 -0.1788877,0.155924 -0.012517,0.02061 0.042906,0.02224 0.065441,0.03082 0.065098,0.02477 0.1314615,0.04608 0.1971919,0.06911 -0.046498,0.04683 -0.092996,0.09366 -0.1394944,0.140487 0.00411,-0.0066 0.015682,-0.01285 0.012345,-0.01991 -0.00614,-0.01299 -0.042172,-0.01434 -0.034181,-0.02629 0.1060085,-0.158484 0.134997,0.02673 0.2086866,-0.212803 0.027451,-0.08923 0.014298,-0.186167 0.02145,-0.27925 -0.00618,-0.06959 -0.00401,-0.140436 -0.018547,-0.208772 -0.00206,-0.0097 -0.013507,0.02616 -0.021524,0.02038 -0.093074,-0.06703 -0.1772468,-0.302126 -0.2612033,-0.223983 -0.084435,0.07859 0.3071574,0.264692 0.1939102,0.286616 -0.4802844,0.09298 -0.1771536,-0.531494 -0.3380237,-0.138833 -0.037041,0.576803 0.073703,-0.019 -0.219015,0.152837 -0.057136,0.03354 0.044414,0.16153 -0.010581,0.198478 -0.050998,0.03426 -0.1063857,-0.0938 -0.1661897,-0.07971 -0.04272,0.01006 -0.02313,0.08468 -0.0347,0.127017 -0.06272,-0.0066 -0.125436,-0.01328 -0.188154,-0.01993 0.150697,0.369321 0.217564,0.291116 -0.0081,0.275678 -0.0373,-0.0025 -0.07586,-0.0085 -0.112174,3.97e-4 -0.06335,0.01553 -0.05482,0.07048 -0.124395,0.07572 -0.01764,0.0013 -0.031,-0.01706 -0.0465,-0.02559 -0.0545,0.02566 0.07986,0.101552 0.06273,0.0741 -0.02559,-0.041 -0.107514,-0.148527 -0.104745,-0.100272 0.0055,0.09563 0.108327,0.168119 0.114125,0.263732 0.0061,0.09997 -0.14324,0.03751 -0.165145,0.03099 0.03945,0.16879 -0.168992,0.147684 -0.209759,0.247981 -0.02114,0.05201 0.04588,0.116037 0.02222,0.166943 -0.113983,0.245198 -0.192523,0.01704 -0.339718,0.207425 -0.0195,0.02522 0.04046,0.04927 0.06069,0.07391 0.06181,0.0019 0.132158,0.03719 0.185418,0.0058 0.02848,-0.0168 -0.04032,-0.05353 -0.05206,-0.08444 -0.01831,-0.04823 -0.04135,-0.09886 -0.03705,-0.150276 0.0017,-0.02069 0.06017,-0.01438 0.05243,-0.03364 -0.01827,-0.04547 -0.07232,-0.0662 -0.106617,-0.101194 -0.03121,-0.03185 -0.05984,-0.06614 -0.08975,-0.09921 0.0049,0.04083 0.0084,0.08187 0.01484,0.122488 0.0015,0.0093 0.07675,0.241143 -0.01091,0.269982 -0.174017,0.05725 -0.210776,-0.15843 -0.399899,-0.02508 -0.05199,0.03665 -0.03035,0.123547 -0.04552,0.18532 0.06626,0.4057461 -0.111566,0.02032 -0.113769,0.06373 -0.0022,0.04409 0.0249,0.08715 0.05254,0.1215636 0.02919,0.03634 0.158674,0.080094 0.112184,0.08349 -0.168031,0.012274 -0.333779,-0.2008556 -0.11452,0.035164 -0.09384,0.00222 -0.158524,0.080923 -0.243991,0.1030613 -0.03214,0.00833 -0.09825,-0.040589 -0.09932,-0.00741 -0.0022,0.067324 0.09082,0.1117164 0.09376,0.1790118 0.0013,0.029716 -0.0669,0.051858 -0.08471,0.028038 -0.04579,-0.061231 -0.03994,-0.1476121 -0.05991,-0.2214185 0.07245,0.020849 0.146894,0.089394 0.217336,0.062544 0.04906,-0.018701 -0.07677,-0.07345 -0.122895,-0.098542 -0.04203,-0.022863 -0.292679,-0.048142 -0.293255,-0.045338 -0.0827,0.4026691 0.35709,0.4415911 -0.08093,0.3428801 -0.171661,0.0022 -0.356125,-0.073823 -0.387027,0.1736249 -0.01217,0.09743 0.06686,0.1937475 0.04946,0.2903799 -0.05475,0.3040166 -0.271934,0.1966786 -0.318696,0.5241613 -0.01153,0.080713 0.06758,0.148399 0.101372,0.2225985 0.913165,0.3858506 -0.836483,-0.4193636 -0.07881,0.3102316 0.106329,0.102389 0.293968,-0.097566 0.438002,-0.065261 0.05191,0.011644 -0.0162,0.1053955 -0.03018,0.1567286 -0.01106,0.040599 -0.06235,0.1562476 -0.04466,0.1180703 0.03731,-0.080513 0.06906,-0.1634895 0.103585,-0.2452341 0.803251,-0.2176282 0.02583,-0.7980111 0.207955,-1.1378522 0.03338,-0.062291 -0.01487,0.1994281 0.05561,0.2045935 0.144196,0.010567 0.285573,-0.081007 0.398485,-0.1713132 0.03508,-0.028056 0.02249,-0.154755 -0.01716,-0.1336608 -0.07154,0.038051 -0.08287,0.13927 -0.1243,0.2089049 -0.02012,0.00652 -0.04024,0.013031 -0.06036,0.019547 -0.01801,-0.029481 -0.01998,-0.094173 -0.05405,-0.088442 -0.05871,0.00987 -0.08375,0.085574 -0.132449,0.1198092 -0.0321,0.022564 -0.07228,0.030731 -0.107188,0.04864 -0.114127,0.05855 -0.05836,0.098726 -0.04824,-0.1723676 -0.207913,0.4860388 -0.03663,0.1167529 -0.04168,0.014872 -0.0019,-0.03793 -0.02143,0.085793 -0.05721,0.098524 -0.02325,0.00827 -0.03222,-0.042132 -0.03191,-0.06681 1.48e-4,-0.011835 0.0415,-0.021471 0.03292,-0.013319 -0.05946,0.056508 -0.124735,0.1065646 -0.187103,0.1598467 0.02175,-0.067355 0.04462,-0.1343557 0.06524,-0.202065 0.148828,-0.488806 -0.05158,0.2043145 -0.31682,0.1490949 -0.536173,-0.1116243 0.517497,-0.5783982 -0.06769,-0.3131077 -0.05386,0.024416 -0.105504,0.053433 -0.158256,0.080149 0.0035,-0.069091 0.03085,-0.1411256 0.01059,-0.207273 -0.0085,-0.027788 -0.05429,-0.034354 -0.08262,-0.027861 -0.04063,0.00931 -0.0729,0.041939 -0.103287,0.070467 -0.04711,0.044233 -0.191889,0.1418929 -0.127405,0.1461283 0.422272,0.027734 0.09119,-0.3085795 0.315404,-0.031257 -0.237677,0.1256596 0.143492,0.2733818 0.157113,0.1918531 0.01241,-0.074292 -0.09811,-0.1148387 -0.139428,-0.1778191 -0.03222,-0.04912 -0.04399,-0.1106604 -0.08017,-0.1569463 C 3.5422086,7.5511547 3.4222006,7.5068343 3.3232226,7.457068 3.1208696,7.3478774 3.1535526,7.375825 2.9586576,7.2232753 2.8960476,7.1742663 2.8549316,7.0716558 2.7754256,7.0705427 c -0.203925,-0.00285 -0.392841,0.1162056 -0.595169,0.1418347 -0.06523,0.00826 -0.127732,-0.032104 -0.192733,-0.042031 -0.07175,-0.010956 -0.144519,-0.013671 -0.216778,-0.020508 -0.01336,0.05792 -0.04191,0.1143471 -0.04009,0.1737614 0.0022,0.071503 0.07319,0.1400024 0.0518,0.2082644 -0.01361,0.043421 -0.0851,0.034462 -0.130063,0.041457 -0.15637,0.024328 -0.206422,-0.081211 -0.386586,0.064529 -0.04124,0.033356 -0.0074,0.1058172 -0.01107,0.1587259 0.02758,0.1566101 0.02571,0.00971 -0.171398,0.064357 -0.03685,0.010216 0.07409,0.03539 0.111439,0.027216 0.02722,-0.00596 0.03169,-0.047313 0.05438,-0.063498 0.221815,-0.1582526 0.124938,-4.233e-4 0.216611,-0.2221447 -0.02702,-0.031208 -0.04001,-0.089207 -0.08106,-0.093625 -0.02842,-0.00306 0.03169,0.097967 0.006,0.08554 -0.04413,-0.021307 -0.0541,-0.081731 -0.08179,-0.1221592 -0.01424,-0.020786 -0.01972,-0.054705 -0.04399,-0.061466 -0.03161,-0.00881 -0.08379,-0.00801 -0.09583,0.022516 -0.03842,0.097377 -0.02408,0.2079734 -0.03612,0.3119599 C 0.92183568,7.5183546 1.0021046,7.4617462 0.80618968,7.606372 c -0.03065,0.022627 -0.06838,0.041986 -0.08524,0.076155 -0.01882,0.038155 0.0025,0.087911 -0.01486,0.1267653 -0.0056,0.012517 -0.02373,-0.016827 -0.02844,-0.029698 -0.02096,-0.057271 -0.03141,-0.1178547 -0.04711,-0.1767822 0.345095,0.2546419 -0.456231,-0.3075479 0.59898192,0.059151 0.0554,0.019254 -0.02529,0.1907924 -0.07476,0.1592807 -0.05604,-0.035702 0.03451,-0.1362712 0.01247,-0.1989603 -0.0087,-0.024839 -0.05164,0.01247 -0.07797,0.01265 -0.02409,1.64e-4 -0.04756,-0.00775 -0.07134,-0.011634 -0.04323,0.05775 -0.0602,0.1926529 -0.12968292,0.17325 -0.06927,-0.019344 -0.01198,-0.143342 -0.01938,-0.2148774 -2.02e-4,-0.00196 -0.0012,0.0038 -0.0023,0.00543 -0.0093,0.013877 -0.01616,0.030117 -0.02884,0.040989 -0.03931,0.033693 -0.03702,-0.024865 -0.04308,-0.045813 -0.005,0.1274297 -0.100113,0.3512564 0.123586,0.2571602 0.032,-0.013462 0.09527,-0.064925 0.0648,-0.081551 -0.05862,-0.031975 -0.137315,-0.014833 -0.200169,0.00771 -0.05996,0.0215 -0.138346,0.1805286 -0.15032,0.1179695 -0.02127,-0.1111385 0.07435,-0.2137487 0.111532,-0.3206232 -0.09022,-0.03592 -0.155871,-0.075088 -0.261552,-0.052282 -0.05448,0.011755 -0.09381,0.075232 -0.149535,0.074778 -0.309478,-0.00251 -0.426329,-0.2012278 -0.598237,-0.025331 -0.02036,0.020838 -0.03375,0.047507 -0.05063,0.07126 -0.04385,-0.073712 -0.0628,-0.1698577 -0.131554,-0.2211366 -0.01073,-0.008 0.0033,0.1807821 -0.03792,0.1889667 -0.02815,0.0056 -0.04452,-0.072547 -0.06674,-0.054383 -0.03133,0.025612 -0.05355,0.1299914 -0.0142,0.1205598 0.141511,-0.033917 0.25551,-0.1393449 0.383265,-0.2090174 -0.0078,-0.010766 -0.0164,-0.043627 -0.02332,-0.032294 -0.09665,0.1583111 -0.108026,0.3783087 -0.06515,0.033523 -0.129725,-0.036589 -0.647178,1.7979972 -0.517453,1.8345867 v 0 c 0.02977,-0.066189 0.0489,-0.1382868 0.08932,-0.1985661 0.0074,-0.011041 0.03904,-0.00655 0.03931,0.00674 0.0021,0.1060571 -0.02193,0.2110192 -0.0329,0.3165289 0.186589,-0.03976 0.374113,-0.075365 0.559769,-0.1192815 0.02171,-0.00514 0.0387,-0.026616 0.06099,-0.027557 0.09005,-0.0038 0.121404,0.06565 0.18972,0.1114081 0.02677,0.017928 0.07959,0.072356 0.08747,0.041118 0.02092,-0.082913 -0.02246,-0.1695411 -0.03368,-0.2543117 0.0038,-0.035703 -0.02442,-0.1080953 0.01147,-0.10711 0.0417,0.00114 0.09241,0.081347 0.06128,0.1091073 -0.144455,0.1288037 -0.312664,0.3081504 -0.504993,0.2865321 -0.114155,-0.012832 0.06728,-0.2203251 0.08663,-0.3335575 0.0027,-0.01555 -0.01137,-0.052803 -0.0225,-0.041631 -0.06818,0.068398 -0.113286,0.1564463 -0.169929,0.2346693 0.04551,-0.073217 0.0838,-0.151443 0.136521,-0.2196499 0.01848,-0.023916 0.07433,-0.022347 0.07389,-0.052568 -3.7e-4,-0.025286 -0.09033,0.00748 -0.07483,-0.012499 0.214029,-0.2759123 0.276962,0.1105209 0.310436,0.2400215 0.167473,-0.1645354 -0.0042,-0.03328 0.08423,0.084817 0.02081,0.027801 0.07114,0.00108 0.10357,-0.011337 0.05187,-0.019891 0.0936,-0.1067258 0.144135,-0.083659 0.122963,0.056125 -0.121539,0.3322079 0.09697,0.038539 0.0069,0.03533 6.2e-5,0.076511 0.02073,0.1059884 0.02937,0.041898 0.07776,-0.030076 0.132875,-0.079262 0.02776,-0.02477 0.04874,-0.07109 0.08594,-0.071201 0.33897092,-0.00101 0.39980692,0.033811 0.63395992,0.1225246 0.01921,-0.035189 0.03964,-0.069737 0.05763,-0.1055661 0.01358,-0.027056 0.0067,-0.082898 0.037,-0.082942 0.038,-5.45e-5 0.04041,0.081813 0.0784,0.082776 0.02709,6.88e-4 -0.01753,-0.055839 -0.0074,-0.080976 0.0048,-0.011821 0.02523,0.00364 0.03785,0.00546 0.05175,0.066564 0.103501,0.1331288 0.155252,0.1996934 -0.02517,-0.4392266 -0.0567,-0.1404114 0.104822,-0.1012856 0.03961,0.00959 0.06621,-0.071557 0.105692,-0.061462 0.07077,0.018095 0.107981,0.102066 0.174147,0.1330114 0.154208,0.072123 0.151267,0.016984 0.22995,-0.082114 0.03418,-0.098401 0.0248,-0.2258523 0.102527,-0.295203 0.08062,-0.071938 0.230771,-0.0093 0.314833,-0.077188 0.05001,-0.040386 -0.02293,-0.1427451 0.01843,-0.1919539 0.03972,-0.047264 0.142527,0.0051 0.179903,-0.044038 0.05931,-0.077973 -0.364557,-0.091954 -0.244322,-0.1633461 0.285014,0.3155823 0.04974,-0.01596 -0.08294,0.1487998 -0.03262,0.040505 0.07357,0.077316 0.09217,0.1258811 0.01015,0.026501 -0.02436,0.058953 -0.01166,0.084332 0.0171,0.034189 0.07484,0.028769 0.09713,0.060983 -0.02933,-0.036377 -0.05895,-0.1457436 -0.08799,-0.1091314 -0.03549,0.044756 0.09921,0.1558293 0.04298,0.1658879 -0.351806,0.062933 -0.446857,0.00906 -0.60212,-0.1743652 -0.0341,-0.040278 -0.05874,-0.088937 -0.09755,-0.1246899 -0.02476,-0.022807 -0.05948,-0.031562 -0.08921,-0.047343 0.02466,-0.040439 0.08626,-0.075564 0.07399,-0.1213159 -0.0046,-0.017023 -0.318435,0.1821233 -0.276273,0.066452 0.03308,-0.090739 0.137699,-0.177483 0.234046,-0.170792 0.122885,0.00853 -0.415219,0.4435462 0.09383,0.3574312 0.02633,0.068197 0.06906,0.1321652 0.07898,0.2045912 0.01444,0.1054777 -0.07568,0.2377532 -0.0072,0.3193044 0.04996,0.059535 0.150002,-0.077557 0.225522,-0.059193 0.04701,0.01143 0.02738,0.099276 0.06491,0.1298159 0.03759,0.030597 0.19846,0.011335 0.235896,0.00883 0.162527,0.1769819 -0.03374,0.016724 0.252092,-0.029878 0.07611,-0.012409 -0.01136,0.1683525 0.04452,0.1361315 0.09418,-0.054308 0.140144,-0.2085609 0.248836,-0.2108382 0.07092,-0.00148 -0.0338,0.137791 -0.0507,0.2066867 0.02454,0.1260295 -0.0047,0.1388118 0.188841,0.1189013 0.03713,-0.00382 0.06366,-0.057987 0.100147,-0.050105 0.125885,0.027193 0.08244,0.1889943 0.121218,0.2572491 0.02664,0.046893 0.08132,0.070861 0.121987,0.1062919 0.02529,0.031568 0.03664,0.1046032 0.07586,0.094703 0.07808,-0.019714 0.118691,-0.1090448 0.18135,-0.1596368 0.02206,-0.017814 0.0481,-0.030035 0.07216,-0.045052 0.01026,0.020545 0.01107,0.073432 0.03077,0.061632 0.07651,-0.045829 0.07131,-0.1860423 0.186228,-0.192106 0.130551,0.3189856 -0.0608,-0.040918 0.2255,-0.08484 0.173209,-0.026572 0.347302,0.055762 0.514338,0.1087392 0.07282,0.023096 0.123055,0.1356294 0.197119,0.1169072 0.416568,-0.1053031 0.113479,-1.4488228 0.550735,-1.1654411 0.02223,-0.1026761 0.05407,-0.2037334 0.06668,-0.3080285 0.0017,-0.013716 -0.02628,0.013354 -0.03255,0.025667 -0.0093,0.018201 -0.0036,0.041272 -0.01116,0.060234 -0.0045,0.011266 0.0046,-0.024609 0.0016,-0.036361 -0.0046,-0.018087 -0.02438,0.1439362 -0.05291,0.018389 0.05802,0.029874 0.433221,0.151851 0.206775,0.3509804 -0.09337,0.082103 -0.250143,0.022005 -0.367745,0.062356 -0.02157,0.0074 -0.02362,0.048649 -0.01085,0.067542 0.02068,0.0306 0.317962,0.307762 0.0861,0.090376 0.0369,-0.00564 0.07422,-0.024781 0.110713,-0.01692 0.02279,0.00491 0.229198,0.1657977 0.266695,0.017862 0.02088,-0.082382 -0.05069,-0.1826191 -0.006,-0.2548922 0.02977,-0.048115 0.112985,-0.00625 0.169478,-0.00938 0.0025,-0.086222 0.005,-0.1724446 0.0075,-0.258667 -0.107987,-0.3286932 -0.177445,-0.3320447 0.197623,-0.1202375 0.01735,0.00979 0.02362,0.055062 0.04028,0.044145 0.01906,-0.012486 -0.01561,-0.048974 -0.0035,-0.068257 0.0024,-0.00373 0.06716,0.1284862 -0.0087,-0.010009 0.496843,0.1882466 0.199559,0.1110517 0.106257,-0.038403 -0.129628,-0.2076429 -0.01716,-0.1333522 0.0522,-0.1314167 0.06242,0.00175 0.126578,-0.020685 0.187243,-0.00588 0.01657,0.00404 -0.0012,0.03408 -0.0019,0.05112 -0.0712,0.1130038 -0.0056,0.042722 -0.20255,-0.095258 -0.02931,-0.020532 0.05239,0.048801 0.07751,0.074292 0.05144,0.052199 0.116359,0.222698 0.152119,0.1587302 0.1617225,-0.2892941 -0.299653,-0.3076456 0.04844,-0.2628069 0.1801614,-0.024516 0.1633281,-0.011845 0.3347463,-0.076964 0.075294,-0.028604 0.174657,-0.028852 0.2228578,-0.093381 0.055364,-0.074119 -0.00337,-0.1978072 0.050715,-0.2728679 0.2274449,-0.315654 0.3565894,0.1258599 0.104519,-0.3561895 0.029584,-0.020161 0.063923,-0.034694 0.088753,-0.060485 0.00552,-0.00574 -0.00153,-0.02041 -0.00935,-0.021997 -0.041979,-0.00853 -0.085649,-0.00284 -0.1283708,-0.00597 -0.00883,-6.614e-4 -0.021648,-0.01306 -0.02603,-0.00536 -0.017632,0.03098 0.1345766,0.068388 0.00586,0.1067752 -0.00243,-0.023731 -0.031121,-0.072258 -0.00729,-0.071193 0.025604,0.00114 0.017865,0.048043 0.026797,0.072065 -0.012226,-0.00674 -0.050531,-0.018497 -0.036677,-0.020233 0.051024,-0.00639 0.2367397,0.042675 0.2738493,-0.017833 0.027261,-0.044449 -0.029276,-0.1000911 -0.043914,-0.1501367 0.2964942,8.995e-4 0.1300298,0.043577 0.024527,-0.1752185 -0.00767,-0.01591 0.026632,-0.03482 0.043636,-0.03005 0.067761,0.01901 0.1332746,0.138843 0.1884654,0.09517 0.00549,-0.0044 -0.3024511,-0.37284 -0.018828,-0.0093 -0.038292,-0.03732 -0.1493914,-0.152814 -0.114877,-0.111971 0.045079,0.05334 0.087343,0.112781 0.1466839,0.14961 0.052891,0.03283 0.050375,-0.05913 0.070901,-0.065 0.1472803,-0.04207 0.364757,0.2909985 0.3718222,0.2700012 -0.030752,-0.147308 -0.1630477,-0.309132 -0.092257,-0.441925 0.045798,-0.08591 0.177133,0.0927 0.2741605,0.100699 0.4739753,0.03906 0.065164,-0.111333 0.2072476,-0.32026 0.040372,-0.05937 0.1430353,-0.01256 0.2145527,-0.01884 0.048513,-0.109184 0.097027,-0.218368 0.1455399,-0.327553 0.048303,-0.144757 0.087793,-0.292759 0.1449073,-0.434271 0.03867,-0.09581 0.1766158,-0.178491 0.1416408,-0.275714 -0.03241,-0.0901 -0.1964921,-0.03182 -0.272989,-0.08942 -0.034675,-0.02611 0.00124,-0.08979 -0.017211,-0.129071 -0.072037,-0.153274 -0.1435793,-0.02646 -0.016335,-0.163651 -0.05599,0.02829 -0.1056183,0.09176 -0.1679702,0.08487 -0.045997,-0.0051 0.065862,-0.06576 0.1040278,-0.09193 0.027254,-0.01869 0.066721,-0.01792 0.090161,-0.04122 0.00854,-0.0085 -0.020159,-0.01608 -0.032198,-0.01638 -0.00936,-2.35e-4 0.015312,0.01077 0.022966,0.01615 -0.045645,0.002 -0.091289,0.0041 -0.1369333,0.0061 -0.00742,0.0039 -0.030042,0.01471 -0.02227,0.01161 0.039418,-0.01576 0.1536216,-0.02763 0.1172993,-0.0496 -0.072918,-0.04411 -0.2972006,0.04037 -0.2535512,-0.03283 0.047585,-0.0798 0.185733,-0.0055 0.2785671,-0.0091 0.04999,-0.002 -0.1009193,-0.0055 -0.1500294,0.0041 -0.020188,0.0039 0.040155,0.0089 0.060233,0.01337 0.089783,-0.0042 -0.1179248,0.0094 -0.04365,-0.0377 0.036192,-0.02295 0.1002564,0.02899 0.1285224,-0.0032 0.071271,-0.08122 -0.5002649,-0.314195 -0.1322134,-0.131539 -0.083475,-0.01323 0.013785,-0.0055 0.037719,0.104395 0.00312,0.01434 -0.057482,-0.0072 -0.044021,-0.0013 0.037793,0.01644 0.079265,0.02262 0.1188974,0.03393 -0.00465,-0.01123 -0.022331,-0.0249 -0.013938,-0.0337 0.021376,-0.0224 0.055983,-0.02647 0.083975,-0.0397 0.040614,-0.14665 0.027089,-0.04928 -0.01846,-0.274573 -0.012171,-0.0602 -0.019719,-0.121403 -0.034708,-0.180968 -0.013957,-0.05547 -0.092947,-0.123623 -0.051973,-0.163532 0.088183,-0.08589 0.3052405,-0.0089 0.3476815,-0.124488 0.03343,-0.091 -0.1623917,-0.105945 -0.2435878,-0.158918 0.039157,-0.03678 0.078313,-0.07357 0.1174697,-0.110348 0.016581,-0.03024 0.026946,-0.06485 0.049746,-0.09073 0.02964,-0.03364 0.08884,-0.04256 0.104636,-0.08452 0.0092,-0.02455 -0.05152,0.01051 -0.07765,0.01282 -0.083618,0.0074 -0.167407,0.01355 -0.2513077,0.01627 -0.03692,0.0012 0.073466,-0.0078 0.1101982,-0.01171 -0.038511,-0.0099 -0.077023,-0.01973 -0.1155338,-0.02959 0.017158,-0.0109 0.060416,-0.01445 0.051473,-0.0327 -0.00912,-0.01862 -0.040377,0.0094 -0.060566,0.01414 0.102245,-0.05266 0.2044903,-0.105329 0.3067353,-0.157994 0.06736,-0.102996 -0.4305516,-0.08169 -0.3560061,-0.09785 0.041656,-0.02968 0.083312,-0.05937 0.1249683,-0.08905 -0.025548,0.0082 -0.089235,0.04821 -0.076647,0.02452 0.02386,-0.0449 0.078193,-0.06505 0.1161558,-0.09887 0.010856,-0.0097 0.043067,-0.03821 0.030165,-0.0315 -0.2262095,0.117523 -0.021855,0.06056 -0.2535016,0.106743 0.00421,0.08235 -0.00677,0.03374 0.1481593,-0.04686 0.057328,-0.02982 0.1520545,-0.02908 0.1713013,-0.09076 0.01375,-0.04408 -0.1267052,-0.01714 -0.1232699,-0.06318 0.011274,-0.151109 0.4512469,-0.0604 -0.092717,-0.112484 0.022945,-0.0043 0.073589,-0.03564 0.068836,-0.0128 -0.0063,0.03028 -0.046081,0.05367 -0.076959,0.05185 -0.021151,-0.0012 0.051165,-0.04388 0.032801,-0.05445 -0.064409,-0.03707 -0.233716,0.02086 -0.2169152,-0.05153 0.030394,-0.13097 0.3222302,-0.0047 0.3839763,-0.123509 0.052837,-0.124738 -0.00853,0.06142 -0.062412,-0.08821 -0.030274,-0.08408 0.2093908,0.0069 0.1532268,-0.06422 -0.05607,-0.07101 -0.2020305,-0.0021 -0.2566923,-0.0882 0.027173,-0.01387 0.068366,-0.01408 0.081519,-0.04161 0.050864,-0.106446 -0.1667878,-0.03155 -0.1982679,-0.149644 -0.01456,-0.05462 0.1030163,0.05184 0.1591387,0.05855 0.033662,0.004 -0.4193236,-0.158717 0.057585,-0.08383 -0.5960059,-0.270346 -0.352956,-0.110359 0.076429,-0.131133 0.02157,-0.001 -0.027928,-0.0333 -0.044735,-0.04686 -0.03462,-0.02794 -0.1222084,-0.03468 -0.1089147,-0.07713 0.1031383,-0.329374 0.2808282,0.184436 0.088065,-0.230466 -0.020246,-0.0061 -0.03983,-0.01513 -0.060738,-0.01827 -0.028239,-0.0042 -0.1139386,-0.0071 -0.085587,-0.0037 0.095579,0.01147 0.2410172,-0.0564 0.2874402,0.02793 0.04213,0.07654 -0.1912293,-0.03268 -0.2613949,0.01938 -0.041094,0.03049 0.1111144,0.02943 0.1337651,0.07532 0.013446,0.02724 -0.060146,0.0086 -0.090219,0.0129 0.043649,0.01108 0.086935,0.04276 0.1309484,0.03323 0.026977,-0.0058 0.038697,-0.04357 0.042852,-0.07086 0.0078,-0.05135 0.01555,-0.109494 -0.0084,-0.155599 -0.01836,-0.03538 -0.1291322,-0.02945 -0.1034663,-0.05995 0.1661333,-0.197395 0.2599853,0.0931 0.1457233,-0.152161 -0.0029,-0.4621761 0.01788,0.2838 -0.06294,-0.261234 -0.0042,-0.02812 0.0543,-0.06606 0.02953,-0.08001 -0.066969,-0.03771 -0.280237,0.02475 -0.2283464,-0.03194 0.055564,-0.06071 0.4022784,-0.1027461 0.2448834,0.03144 -0.03099,0.02938 -0.061971,0.05876 -0.092957,0.08813 0.00974,0.02468 0.041745,0.05064 0.029223,0.07403 -0.010319,0.01927 -0.08521,-0.01564 -0.065232,-0.0068 0.072154,0.03205 0.2377234,0.154985 0.2239054,0.07725 -0.01836,-0.10332 -0.2047046,-0.100594 -0.2452594,-0.197381 -0.019682,-0.04697 0.084593,-0.05674 0.1268894,-0.08512 -0.1360437,-0.24142606 0.01875,0.10106 0.08428,-0.1690981 0.01126,-0.04641 -0.07254,-0.06898 -0.08555,-0.11492796 -0.0054,-0.01926 0.03726,-0.0246 0.04046,-0.04435 0.0033,-0.02024 -0.1246815,0.106806 0.01765,0.05892 0.03673,-0.0049 0.07751,0.0026 0.110196,-0.01484 0.0682,-0.03644 0.182706,-0.202147 0.192184,-0.264726 0.0098,-0.06457 -0.02271,-0.128727 -0.03855,-0.19208 -0.01361,-0.05444 -0.0078,-0.123463 -0.04969,-0.16084 -0.06485,-0.05792 -0.160875,-0.06603 -0.241313,-0.09905 0.6977876,-0.702262 -0.1102634,0.229074 -0.05476,-0.274683 0.01454,-0.131989 0.280155,-0.136854 0.293889,-0.26893 0.0092,-0.08813 -0.177047,-0.02347 -0.260339,-0.05369 -0.02464,-0.0089 -0.057566,-0.03396 -0.05148,-0.05945 0.00879,-0.03685 0.055969,-0.05107 0.083953,-0.0766 -0.04657,-0.140702 -2.0363819,0.517874 -1.9898134,0.658575 z" />
  </g>
</svg>
