<?xml version="1.0" encoding="UTF-8" standalone="no"?>
<!-- Created with Inkscape (http://www.inkscape.org/) -->

<svg
   width="63.999996"
   height="64.842705"
   viewBox="0 0 16.933332 17.156299"
   version="1.1"
   id="svg5"
   inkscape:version="1.2.2 (732a01da63, 2022-12-09)"
   sodipodi:docname="tiles_vine_top_bottom.svg"
   xmlns:inkscape="http://www.inkscape.org/namespaces/inkscape"
   xmlns:sodipodi="http://sodipodi.sourceforge.net/DTD/sodipodi-0.dtd"
   xmlns="http://www.w3.org/2000/svg"
   xmlns:svg="http://www.w3.org/2000/svg">
  <sodipodi:namedview
     id="namedview7"
     pagecolor="#ffffff"
     bordercolor="#000000"
     borderopacity="0.25"
     inkscape:showpageshadow="2"
     inkscape:pageopacity="0.0"
     inkscape:pagecheckerboard="true"
     inkscape:deskcolor="#d1d1d1"
     inkscape:document-units="px"
     showgrid="true"
     showguides="true"
     inkscape:zoom="7.796875"
     inkscape:cx="25.587174"
     inkscape:cy="32.256513"
     inkscape:window-width="958"
     inkscape:window-height="1008"
     inkscape:window-x="946"
     inkscape:window-y="0"
     inkscape:window-maximized="0"
     inkscape:current-layer="layer1">
    <inkscape:grid
       type="xygrid"
       id="grid88"
       spacingx="2.1166666"
       spacingy="2.1166666"
       empspacing="8" />
  </sodipodi:namedview>
  <defs
     id="defs2" />
  <g
     inkscape:label="Layer 1"
     inkscape:groupmode="layer"
     id="layer1"
     transform="translate(0,0.1018036)">
    <circle
       id="path5383"
       style="fill:#3b2625;stroke:#000000;stroke-width:0.264583"
       cx="-15.877538"
       cy="-6.8746095"
       r="0.0063923118"
       transform="scale(-1)" />
    <rect
       style="fill:#35201f;fill-opacity:1;stroke-width:0.264583;stroke-dasharray:none"
       id="rect7797"
       width="16.933332"
       height="16.933332"
       x="-16.933332"
       y="-16.952652"
       transform="scale(-1)" />
    <path
       style="fill:#3a2524;fill-opacity:1;stroke-width:0.264583;stroke-dasharray:none"
       id="path8684"
       d="m 5.1148204,9.1642795 c 0.119742,0.1975173 0.18162,0.3205118 0.358749,0.4952124 0.390752,0.3853951 0.959292,0.7018701 1.511392,0.7588771 0.210943,0.02178 0.4232915,-0.02664 0.6349372,-0.03996 0.247886,0.08504 1.4505988,-3.4205935 1.2027128,-3.5056387 v 0 c -0.175836,-0.04995 -0.3455956,-0.131928 -0.5275083,-0.149847 -0.2167263,-0.02135 -0.4364844,0.0057 -0.6524601,0.03362 -0.5653307,0.07313 -1.1160996,0.2511351 -1.6064386,0.5424974 -0.07769,0.046165 -0.146535,0.1058124 -0.219803,0.1587185 -0.12067,-0.049609 -0.822251,1.6569182 -0.701581,1.7065273 z" />
    <path
       style="fill:#3a2524;fill-opacity:1;stroke-width:0.264583;stroke-dasharray:none"
       id="path9461"
       d="M 14.0882,0.93662731 C 13.966713,1.1022793 13.9494,1.3121143 14.00621,1.5068853 c 0.04335,0.148621 0.117402,0.245922 0.198578,0.377208 0.159346,0.164432 0.148259,0.183626 0.346336,0.279549 0.01067,0.0052 0.04209,0.0079 0.03552,-0.002 -0.03377,-0.05075 -0.09853,-0.07839 -0.125404,-0.133104 -0.308723,-0.6284 0.0029,-0.265821 -0.261065,-0.546057 -0.06726,0.01064 -0.136383,0.01294 -0.201776,0.03194 -0.204513,0.0594 -0.387983,0.184729 -0.499937,0.36831 -0.03139,0.05147 -0.147101,0.386242 -0.147318,0.386845 0.118133,0.809157 -0.07287,0.552823 0.311469,0.907021 0.07762,0.04393 0.698916,-1.053749 0.621299,-1.097682 v 0 c 0.118211,0.347077 0.04447,0.09004 0.08538,0.797667 -0.0088,0.05451 -0.05955,0.119346 -0.02643,0.163534 0.03061,0.04085 0.102479,0.01239 0.153051,0.0054 0.278071,-0.03829 0.534454,-0.197864 0.714196,-0.410164 0.07091,-0.08376 0.118886,-0.184508 0.17833,-0.276762 0.147075,-0.42763 0.213529,-0.436549 0.03873,-0.957473 -0.02757,-0.08217 -0.114866,-0.12986 -0.174339,-0.192906 -0.01315,-0.01394 -0.05859,-0.04941 -0.04332,-0.03783 0.09155,0.06945 0.0677,0.05133 0.135823,0.146221 0.0099,0.01552 0.01162,0.04294 0.02966,0.04655 0.01306,0.0026 0.01087,-0.02514 0.01082,-0.03845 -9.7e-5,-0.02772 -0.006,-0.0552 -0.01125,-0.08241 -0.0086,-0.04405 -0.01359,-0.08955 -0.03036,-0.131175 -0.0054,-0.0135 -0.09927,-0.15386699 -0.112975,-0.17452699 0,-0.08083 -1.143036,-0.08083 -1.143037,0 z" />
    <path
       style="fill:#3a2524;fill-opacity:1;stroke-width:0.264583;stroke-dasharray:none"
       id="path9463"
       d="m 9.2293601,1.6794473 c -0.00669,-0.01823 -0.00886,-0.03884 -0.020058,-0.0547 -0.095367,-0.135092 -0.22191,-0.251323 -0.3554431,-0.346831 -0.2125829,-0.152049 -0.3471515,-0.212113 -0.603446,-0.269565 -0.08602,-0.01928 -0.1751764,-0.01996 -0.2627649,-0.02994 -0.060038,0.0093 -0.132021,-0.0092 -0.1801148,0.02795 -0.032338,0.02496 -0.017412,0.08108 -0.013835,0.121774 0.0084,0.09561 0.050515,0.18768 0.049462,0.283651 -0.00116,0.1056 -0.036082,0.208119 -0.055995,0.311831 -0.023357,0.121646 -0.05616,0.08564 0.00833,0.12779 0.00838,0.0029 0.034026,0.0087 0.025157,0.0087 -0.1043136,2.21e-4 -0.2106544,0.01291 -0.3128378,-0.0081 -0.023331,-0.0048 -0.022696,-0.04189 -0.033618,-0.06305 C 7.3773455,1.6012723 7.2195862,1.4337283 7.1844976,1.2254623 7.0874806,0.64962531 7.5242131,0.88095631 7.1649446,0.73551531 c -0.2167167,-0.0273 -0.3938472,0.0034 -0.5937662,0.0883 -0.07029,0.02984 -0.140592,0.06083 -0.205969,0.100298 -0.115649,0.06981 -0.236325,0.18032999 -0.338742,0.26831699 -0.07602,0.08792 -0.134539,0.145216 -0.190628,0.245169 -0.01475,0.02628 -0.05559,0.06301 -0.03382,0.08384 0.02076,0.01986 0.04348,-0.04456 0.07208,-0.04724 0.229848,-0.02152 0.461421,-0.0162 0.692131,-0.02431 -0.06345,-0.04825 -0.745879,0.849003 -0.682433,0.897259 v 0 c 0.247609,5.82e-4 0.4964,0.02592 0.742828,0.0017 0.05478,-0.0054 0.09014,-0.06402 0.139545,-0.08829 0.02769,-0.0136 0.147009,-0.01674 0.1793059,-0.0287 0.1890131,-0.02864 -0.057086,0.0045 0.1706492,-0.0097 0.046796,-0.0029 0.093241,-0.01006 0.139719,-0.01624 0.2311739,-0.03071 0.4161184,-0.06831 0.6069788,-0.2154 0.1746165,-0.168568 0.4368704,-0.392479 0.4359095,-0.652681 -8.202e-4,-0.225451 -0.1671373,-0.42098799 -0.2836215,-0.61401699 -0.029207,-0.0484 -0.086728,-0.08249 -0.1424463,-0.09203 -0.3265268,-0.05591 -0.418397,-0.0282 -0.6802022,0.01475 -0.066203,0.02706 -0.1386774,0.04216 -0.1986108,0.08119 -0.2462166,0.160342 -0.3850586,0.34558399 -0.4364406,0.65883499 -0.04712,0.28727 0.06267,0.575285 0.201846,0.815802 0.05416,0.0936 0.128755,0.173776 0.1931325,0.260665 0.2802345,0.209533 0.3238765,0.285363 0.6792526,0.370056 0.1419611,0.03383 0.2890234,0.05056 0.4349589,0.04989 0.2574083,-0.0012 0.4886655,-0.118819 0.7433889,-0.124023 0.076337,0.02965 0.4957067,-1.04991 0.4193701,-1.079564 z" />
    <path
       style="fill:#3a2524;fill-opacity:1;stroke-width:0.264583;stroke-dasharray:none"
       id="path9465"
       d="m 10.839076,4.9136903 c 0.0087,0.146872 0.08091,0.27155 0.160202,0.391582 0.119864,0.181456 0.157691,0.247432 0.335873,0.37749 0.06461,0.047158 0.138397,0.080246 0.207595,0.120369 0.504251,0.20686 0.799697,0.268316 1.360854,0.126682 0.09649,-0.02435 0.289586,-0.221706 0.349019,-0.276797 -0.08952,0.117384 0.285615,-0.398683 0.169276,-0.345043 -0.08364,0.03856 -0.07924,0.197608 -0.168898,0.218662 -0.486519,0.87157 -0.634274,-0.157215 -0.951009,-0.116313 -0.0601,0.0078 -0.06657,0.101283 -0.09986,0.151924 -0.0478,0.215573 -0.07648,0.286033 -0.07272,0.510612 0.0014,0.08218 0.01743,0.163455 0.02615,0.245182 -0.0024,0.122369 1.728185,0.155894 1.730555,0.03353 v 0 c 0.01299,-0.103544 0.03763,-0.206286 0.03897,-0.310634 0.0041,-0.317119 -0.03903,-0.374599 -0.131232,-0.670106 -0.07241,-0.129922 -0.317882,-0.605158 -0.44238,-0.652623 -0.928444,-0.353964 -0.635977,-0.148646 -1.035089,0.18786 -0.0406,0.03423 0.07061,-0.194221 0.04835,-0.151789 0.01342,-0.02158 0.03693,-0.03954 0.04025,-0.06473 0.0022,-0.01652 -0.0422,-0.03836 -0.02609,-0.04263 0.101235,-0.02684 0.20771,-0.03169 0.312431,-0.03329 0.01757,-2.64e-4 -0.02824,0.02118 -0.04388,0.02919 -0.01448,0.0074 -0.03001,0.02058 -0.04584,0.0168 -0.03502,-0.0084 -0.06363,-0.0337 -0.09544,-0.05055 -0.109359,-0.05739 -0.159566,-0.09317 -0.282084,-0.119677 -0.04348,-0.0094 -0.08941,-0.0027 -0.132911,-0.01204 -0.0316,-0.0068 -0.05931,-0.02601 -0.09012,-0.03578 -0.02345,-0.0074 -0.109339,-0.0229 -0.136841,-0.02806 -0.03537,-0.07249 -1.060496,0.427712 -1.025126,0.500199 z" />
    <path
       style="fill:#3a2524;fill-opacity:1;stroke-width:0.264583;stroke-dasharray:none"
       id="path9467"
       d="m 15.079785,8.7824154 c 0.04458,-0.091394 0.04707,-0.058059 -0.05147,-0.184653 -0.182266,-0.2341589 -0.406543,-0.3796808 -0.68829,-0.4726821 -0.09204,-0.030382 -0.189028,-0.042994 -0.283542,-0.064491 -0.265144,-0.00976 -0.75944,-0.038934 -0.950653,0.043234 -0.394334,0.1694538 -0.529235,0.6812744 -0.492376,1.0605885 0.0066,0.067771 0.02764,0.1333458 0.04146,0.2000184 0.05093,0.1298953 0.116252,0.2583143 0.205849,0.3666143 0.01726,0.020857 0.03646,0.040685 0.0587,0.056122 0.01085,0.00753 0.02988,0.021415 0.03805,0.011041 0.01431,-0.018164 0.005,-0.045965 0.0076,-0.068947 0.244576,-0.9303224 -0.04934,-0.079564 0.251389,-0.5583343 0.0088,-0.014012 -0.0058,-0.038938 -0.02123,-0.044869 -0.04312,-0.016558 -0.09158,-0.012692 -0.137642,-0.016129 -0.133085,-0.00992 -0.267221,-0.00909 -0.400509,-0.010541 -0.08806,0.011647 -0.176114,0.023297 -0.264171,0.034944 -0.100987,0.054228 0.665898,1.4823568 0.766882,1.4281298 v 0 c 0.06063,-0.03231 0.121253,-0.06462 0.18188,-0.09693 0.05481,-0.03327 0.111929,-0.063 0.164421,-0.09981 0.18869,-0.132343 0.02425,-0.03191 0.148407,-0.141577 0.08219,-0.0726 0.230493,-0.138355 0.279452,-0.2287889 0.07085,-0.1308748 0.0852,-0.2851933 0.127793,-0.4277899 1.2e-4,-0.036605 -0.0018,-0.073273 3.7e-4,-0.109814 0.01045,-0.1766128 0.01018,0.048802 0.0182,-0.1304338 0.0044,-0.098067 -0.01247,-0.1968783 -0.03332,-0.2921479 -0.01417,-0.031977 -0.02182,-0.067738 -0.04252,-0.095933 -0.01235,-0.016817 -0.03695,-0.047442 -0.0527,-0.033765 -0.258526,0.2244168 0.07824,0.2497948 -0.407124,0.4375889 -0.14269,0.055209 -0.31123,-0.012226 -0.457931,0.031216 -0.03405,0.010083 0.04225,0.057083 0.06337,0.085624 0.06098,0.041528 0.118392,0.088851 0.182938,0.1245843 0.168128,0.093082 0.375362,0.1711037 0.563056,0.20794 0.246558,0.048389 0.50008,0.024477 0.748644,0.04826 0.07483,0.030764 0.509899,-1.027499 0.435069,-1.0582629 z" />
    <path
       style="fill:#3a2524;fill-opacity:1;stroke-width:0.264583;stroke-dasharray:none"
       id="path9469"
       d="m 0.71457044,4.4295133 c 0.02311,0.221795 0.09283,0.405728 0.261553,0.55929 0.11925896,0.108543 0.22808596,0.161873 0.36807896,0.244695 0.314883,0.146315 0.690597,0.20401 1.024261,0.0883 0.0863,-0.02993 0.222335,-0.108528 0.293755,-0.165729 0.0456,-0.03652 0.08444,-0.08075 0.126657,-0.121129 0.106764,-0.116459 0.163569,-0.161159 0.233574,-0.303598 0.02554,-0.05196 0.04322,-0.107726 0.05813,-0.163667 0.0091,-0.03405 0.03813,-0.130007 0.01345,-0.104854 -0.474687,0.483832 0.298242,0.210236 -0.853328,0.357467 -0.02402,-0.0021 -0.05672,-0.02489 -0.07207,-0.0063 -0.01525,0.01849 0.01133,0.04676 0.02037,0.06896 0.04983,0.122466 0.09773,0.175268 0.195325,0.256917 0.03519,0.0041 0.04835,0.05391 0.08155,0.06083 0.0094,0.002 0.01739,-0.02617 0.02255,-0.01805 0.131895,0.207677 0.07496,0.346963 0.388229,0.448278 0.145434,0.04704 0.305682,0.0033 0.458524,0.005 0.0064,0.009 0.01,0.02074 0.01905,0.02693 0.0118,0.008 0.05476,0.01212 0.04058,0.01368 -0.100914,0.01112 -0.303638,0.08772 -0.304261,-0.01381 0.01658,0.0081 0.03276,0.0171 0.04973,0.02439 0.03188,0.01369 0.05986,0.01822 0.06052,0.01632 0.0043,-0.01241 -0.0078,-0.0251 -0.01224,-0.03748 -0.01685,-0.04731 -0.05348,-0.09138 -0.05155,-0.141566 0.0061,-0.157949 0.05001,-0.312152 0.07501,-0.468228 -0.04419,0.06418 0.863403,0.689043 0.907587,0.624867 v 0 c 0.0329,-0.165118 0.09257,-0.327101 0.09869,-0.495352 0.0026,-0.07077 -0.04244,-0.135685 -0.0734,-0.199378 -0.05854,-0.120422 -0.173677,-0.207728 -0.281192,-0.28056 -0.04138,-0.02659 -0.0806,-0.05689 -0.124132,-0.07978 -0.254932,-0.134057 -0.591109,-0.168018 -0.850885,-0.03338 0.132106,0.0055 0.27276,-0.03061 0.396317,0.01646 0.447287,0.170404 0.122571,0.188505 0.333886,0.415572 0.01966,0.02112 0.0074,-0.05723 0.01124,-0.08582 0.01615,-0.120267 0.01177,-0.04689 0.0057,-0.200779 -0.026,-0.124715 -0.03868,-0.220977 -0.09573,-0.338445 -0.124945,-0.257254 -0.366494,-0.416476 -0.604481,-0.557284 -0.260962,0.01239 -0.53557,-0.04704 -0.782888,0.03716 -0.123381,0.042 -0.157054,0.208073 -0.237857,0.310338 -0.0053,0.0068 -0.0124,0.01998 -0.02017,0.01623 -0.01593,-0.0077 0.0541,-0.07715 0.05706,-0.08213 0.0011,-0.01314 0.0092,-0.02754 0.0034,-0.03941 -0.0099,-0.02041 -0.08651,-0.03549 -0.09326,-0.03703 -0.01856,-0.0042 -0.07502,-0.01298 -0.0562,-0.0101 0.330492,0.05049 0.301293,-0.0555 0.320858,0.09777 -0.0023,0.0076 6.62e-4,0.02479 -0.007,0.02274 -0.01902,-0.0051 -0.03065,-0.02471 -0.04608,-0.03694 -0.02653,-0.02105 -0.05085,-0.04529 -0.07978,-0.06291 -0.02768,-0.01686 -0.150263,-0.07245 -0.189846,-0.0745 -0.01851,-9.52e-4 -0.03455,0.01346 -0.05182,0.02019 -0.03011,-0.07336 -1.06759296,0.352452 -1.03748296,0.425813 z" />
    <path
       style="fill:#3a2524;fill-opacity:1;stroke-width:0.264583;stroke-dasharray:none"
       id="path9471"
       d="m 4.1263674,12.367727 c 0.0372,-0.05849 0.09721,-0.146519 0.116234,-0.20992 0.07163,-0.238666 0.0377,-0.512021 -0.04194,-0.743304 -0.03562,-0.103446 -0.08968,-0.199595 -0.134513,-0.299393 -0.06303,-0.0877 -0.118928,-0.180989 -0.189094,-0.263088 -0.16324,-0.191001 -0.370179,-0.353664 -0.604616,-0.447659 -0.101466,-0.04068 -0.243303,-0.06811 -0.350575,-0.09198 -0.229319,-0.03128 -0.476592,-0.07648 -0.700525,0.02887 -0.127703,0.06008 -0.191489,0.210273 -0.262322,0.332343 -0.03035,0.05231 -0.02291,0.118762 -0.03394,0.178222 -5.02e-4,0.0028 -0.0017,0.01102 -6.88e-4,0.0084 0.049,-0.123356 0.09647,-0.247315 0.144698,-0.370973 0.0216,-0.04407 0.06719,-0.08319 0.0648,-0.132209 -0.0043,-0.08872 -0.269094,-0.08083 -0.208456,-0.109985 0.07637,-0.03673 0.169264,-0.01156 0.254006,-0.01079 0.01735,1.57e-4 -0.03602,0.003 -0.05049,0.01263 -0.01188,0.0079 -0.01534,0.02401 -0.02301,0.03601 0.0088,0.02667 0.01769,0.05335 0.02653,0.08002 0.02561,0.05531 0.05661,0.108434 0.07684,0.16593 0.01538,0.04371 0.01781,0.091 0.02936,0.135879 0.0036,0.01393 0.0019,0.03679 0.01593,0.0401 0.0066,0.0016 0.04294,-0.05067 0.04713,-0.05643 0.05354,-0.08787 0.125565,-0.163549 0.170332,-0.256997 0.01638,-0.03419 0.02768,-0.0706 0.04152,-0.105898 0.03427,-0.07827 -1.07261,-0.5629431 -1.106881,-0.4846746 v 0 c -0.03124,0.00632 -0.04138,0.033962 -0.06259,0.055029 -0.129384,0.1284817 -0.03682,0.024797 -0.158498,0.1700496 -0.028,0.04087 -0.05957,0.07951 -0.084,0.122611 -0.05551,0.09794 -0.11042296,0.247917 -0.12134196,0.355309 -0.03633,0.35732 0.05933,0.577429 0.28174196,0.848738 0.06604,0.05189 0.12528,0.11388 0.198132,0.155683 0.328324,0.188394 0.825928,0.198231 1.15432,-0.0038 0.07645,-0.04703 0.144988,-0.105848 0.217481,-0.158771 0.06918,-0.136958 0.142603,-0.271856 0.207543,-0.410875 0.0057,-0.01227 0.0075,-0.05341 0.0033,-0.04051 -0.0576,0.179203 -0.01619,0.307044 -0.278164,0.421792 -0.04514,0.01977 -0.387729,0.03083 -0.558562,0.03667 -0.0036,0.01067 -0.01312,0.02102 -0.01069,0.032 0.01626,0.07368 0.08274,0.141448 0.130685,0.190136 0.0438,0.04448 0.08878,0.08828 0.138452,0.126081 0.01293,0.0098 0.203467,0.118662 0.225846,0.131507 0.06422,0.03225 0.09993,0.04382 0.151793,0.09198 0.07761,0.07208 0.09911,0.178082 0.169415,0.254704 -0.01319,0.07883 1.101623,0.265393 1.114815,0.186563 z" />
    <path
       style="fill:#3a2524;fill-opacity:1;stroke-width:0.264583;stroke-dasharray:none"
       id="path9473"
       d="m 8.1037387,13.488766 c 0.066198,0.0653 0.1217756,0.143511 0.1985931,0.195912 0.2258497,0.154062 0.4909077,0.228961 0.7559749,0.277384 0.1977488,0.03613 0.609546,0.06742 0.819422,0.05297 0.1031949,-0.0071 0.2038293,-0.03539 0.3057433,-0.05308 0.05402,-0.03058 0.124319,-0.04245 0.16206,-0.09173 0.03209,-0.04191 0.02925,-0.103175 0.0276,-0.155937 -0.01388,-0.445244 -0.207282,-0.662895 0.265923,-0.97026 0.125119,-0.08127 0.541658,0.02934 0.289813,-0.03301 -0.442261,-0.04058 -0.573958,-0.107404 -1.0130298,0.436145 -0.098653,0.122127 -0.024133,0.314532 -0.00989,0.470879 0.011798,0.12954 0.1044838,0.285553 0.1879918,0.381235 0.0433,0.04961 0.09776,0.08824 0.146646,0.132365 0.304565,0.195935 0.503146,0.226687 0.899701,0.217582 0.06519,-0.0015 0.123549,-0.04192 0.186328,-0.05953 0.09758,-0.02738 0.1143,-0.0253 0.207256,-0.0341 0.02672,2.1e-5 0.054,-0.0053 0.08017,6.1e-5 0.08942,0.01848 0.167154,0.07554 0.25537,0.09909 0.06172,0.01648 0.239575,-0.009 0.189226,0.03035 -0.05509,0.04302 -0.139461,-0.0098 -0.209191,-0.01475 0.10426,0.02865 0.509415,-1.445816 0.405154,-1.474465 v 0 c -0.199429,-0.0075 -0.398738,-0.02549 -0.598288,-0.02256 -0.272896,0.004 -0.506212,0.158 -0.75657,0.244162 -0.03416,0.01745 -0.069,0.03361 -0.102472,0.05234 -0.01707,0.0096 -0.0486,0.01282 -0.04894,0.03238 -2.91e-4,0.0175 0.03125,-0.02067 0.04871,-0.01957 0.569803,0.03583 0.266193,-0.01504 0.463687,0.07864 0.0015,7.15e-4 0.0031,-0.0012 0.0046,-0.0018 -0.01745,-0.01522 -0.121419,-0.104524 -0.145623,-0.05256 -0.04371,0.09384 -8.99e-4,0.23316 -0.07983,0.300127 -0.504948,0.428348 -0.483881,0.405552 -0.833603,0.344812 0.04957,0.02304 0.0948,0.06001 0.148699,0.06911 0.456935,0.07719 0.841566,0.191227 1.096475,-0.370792 0.113731,-0.250754 0.0059,-0.721169 -0.142782,-0.965294 -0.06625,-0.108799 -0.161634,-0.19692 -0.242451,-0.295381 -0.118694,-0.08089 -0.225796,-0.182195 -0.356081,-0.242668 -0.601101,-0.279007 -1.4005377,-0.252182 -1.9949069,0.02951 -0.1077248,0.05105 -0.1994641,0.130607 -0.2991964,0.195911 -0.086021,-0.02209 -0.3983688,1.19443 -0.312348,1.216516 z" />
    <path
       style="fill:#3a2524;fill-opacity:1;stroke-width:0.264583;stroke-dasharray:none"
       id="path9475"
       d="m 5.9574744,13.273444 c -0.09629,0.02684 -0.191137,-0.01605 -0.286603,-0.01093 -0.06959,0.0037 -0.137633,0.02208 -0.206579,0.03226 -0.129027,0.01906 -0.364859,0.04526 -0.484543,0.08399 -0.08018,0.02595 -0.153033,0.07063 -0.22955,0.105946 -0.05808,0.04814 -0.12244,0.08958 -0.174249,0.14441 -0.17455,0.184735 -0.280906,0.492187 -0.325248,0.732934 -0.02022,0.10977 0.0076,0.272124 -0.01125,0.151801 -5.82e-4,-0.05046 0.04247,-0.251013 -0.06528,-0.29189 -0.09415,-0.03572 -0.273864,0.01401 -0.35586,0.03222 -0.204866,0.0455 -0.176505,0.04105 -0.363574,0.103172 -0.04444,0.02215 -0.08888,0.04429 -0.133328,0.06644 -0.09695,0.04608 0.554697,1.4172 0.65165,1.371122 v 0 c 0.07894,-0.0066 0.157878,-0.01322 0.236818,-0.01983 0.08999,-0.02397 0.182521,-0.03986 0.269955,-0.07191 0.256396,-0.09398 0.493151,-0.251973 0.67132,-0.459287 0.06562,-0.07635 0.133975,-0.153392 0.178229,-0.243814 0.05721,-0.116887 0.08168,-0.247123 0.122517,-0.370685 0.003,-0.05653 0.01309,-0.113143 0.0089,-0.169593 -0.0015,-0.02017 -0.01093,0.03896 -0.01721,0.05818 -0.02399,0.07336 -0.05469,0.144708 -0.07359,0.219538 -0.0091,0.03596 -0.03257,0.0815 -0.0099,0.110828 0.04292,0.05542 0.280373,0.0012 0.295431,-8.62e-4 0.07019,-0.02652 0.143766,-0.04537 0.210558,-0.07955 0.06415,-0.03282 0.281663,-0.188888 0.347628,-0.239501 0.02157,-0.01655 0.163123,-0.134888 0.179768,-0.157926 0.0076,-0.01049 -6.35e-4,-0.02587 -9.53e-4,-0.0388 0.07483,-0.03076 -0.360238,-1.089028 -0.435069,-1.058263 z" />
    <path
       style="fill:#3a2524;fill-opacity:1;stroke-width:0.264583;stroke-dasharray:none"
       id="path9477"
       d="m 13.362403,14.209716 c -0.02767,0.02729 -0.05941,0.05101 -0.08301,0.08188 -0.02671,0.03494 -0.04386,0.07625 -0.06665,0.113862 -0.106779,0.176191 -0.181712,0.293247 -0.212437,0.504759 -0.0095,0.0653 -0.0072,0.131771 -0.01073,0.197656 0.01268,0.08587 0.01413,0.174157 0.03803,0.257596 0.08546,0.298263 0.189706,0.595663 0.50992,0.737099 0.319093,0.140941 0.76162,0.101816 1.110272,0.07811 0.373849,-0.08324 0.0087,0.0067 0.322808,-0.09282 0.03645,-0.01155 0.07417,-0.01866 0.111347,-0.02762 0.02845,-0.0069 0.11396,-0.01292 0.08552,-0.01979 -0.258235,-0.06243 -0.314224,0.05842 -0.254516,-0.05043 -0.08732,-0.121755 0.0628,0.08213 -0.120204,-0.127996 -0.04225,-0.04851 -0.047,-0.06451 -0.06757,-0.111052 0.02506,0.08114 1.172557,-0.273233 1.147499,-0.354373 v 0 c -0.01853,-0.04771 -0.03173,-0.09784 -0.05558,-0.14312 -0.104685,-0.1988 -0.247101,-0.337321 -0.450215,-0.433497 -0.287581,-0.0957 -0.106474,-0.04977 -0.60336,-0.07364 -0.234111,-0.01125 -0.08818,-0.0013 -0.331316,2.4e-4 -0.289219,0.0018 -0.06213,-0.01528 -0.361037,0.01762 -0.05737,0.016 -0.115882,0.02837 -0.172115,0.048 -0.0302,0.01054 -0.114394,0.02706 -0.0862,0.04217 0.109381,0.05862 0.257627,0.0299 0.357674,0.103329 0.227795,0.167181 0.118588,0.31823 0.227471,0.522355 0.01005,0.01885 0.04267,-0.002 0.06401,-0.003 0.03294,-0.0554 0.07204,-0.107574 0.09882,-0.166203 0.120866,-0.264685 0.150205,-0.538281 0.116815,-0.825631 -0.0088,-0.07541 -0.01984,-0.15161 -0.04479,-0.223312 -0.0203,-0.05832 -0.0596,-0.108179 -0.08939,-0.162269 -0.0078,-0.08351 -1.188835,0.02659 -1.181049,0.110099 z" />
    <path
       style="fill:#3a2524;fill-opacity:1;stroke-width:0.264583;stroke-dasharray:none"
       id="path9479"
       d="m 3.5497504,1.5851783 c -0.21281,-0.519438 -0.505159,-0.88315799 -1.035884,-1.10823499 -0.322929,-0.136953 -0.426289,-0.119055 -0.754408,-0.141232 -0.08608,0.01081 -0.173815,0.0124 -0.258224,0.03242 -0.432515,0.102568 -0.67610996,0.71996699 -0.81635996,1.00655499 -0.02672,0.0546 0.181531,0.188387 0.227557,0.202583 0.06655,0.02053 0.13723596,0.02376 0.20585396,0.03565 0.195081,-0.06486 0.433987,-0.05534 0.585242,-0.194571 0.261269,-0.240494 0.167518,-0.51833199 0.122088,-0.78489899 -0.03755,-0.08006 -1.16979596,0.45098699 -1.13224496,0.53104799 v 0 c 0.037,-0.17500499 0.08978,-0.47064299 0.209605,-0.56834299 0.14123096,-0.115156 0.35013896,-0.101147 0.52520996,-0.15172 0.196084,0.08304 0.0551,0.0025 0.03556,0.0491 -0.01206,0.02877 0.01798,0.06777 4.77e-4,0.0936 -0.213462,0.314964 -0.459957,0.60629799 -0.68349096,0.91419499 -0.02211,0.03045 -0.05201,0.06221 -0.0527,0.09984 -9.79e-4,0.05262 0.03206,0.100247 0.04809,0.150371 0.05095,0.0675 0.0924,0.143344 0.152844,0.202492 0.30348196,0.296987 0.70991496,0.461627 1.12659696,0.517209 0.125107,0.01669 0.252686,0.01218 0.378627,0.0039 0.07167,-0.0047 0.140786,-0.02856 0.211179,-0.04284 0.0599,0.06395 0.964277,-0.783117 0.90438,-0.847067 z" />
    <path
       style="fill:#3a2524;fill-opacity:1;stroke-width:0.264583;stroke-dasharray:none"
       id="path9481"
       d="m 6.6577724,4.7828963 c 0.01321,0.05828 0.01625,0.119849 0.03962,0.174852 0.14953,0.351937 0.4544455,0.59711 0.7925404,0.755628 0.071688,0.03361 0.1471369,0.05853 0.2207056,0.0878 0.080438,0.02854 0.1589902,0.0631 0.2413156,0.08562 0.2457175,0.06724 0.5798433,0.08337 0.810338,0.04266 0.1447216,-0.02556 0.3233608,-0.207425 0.4025474,-0.320803 0.040768,-0.05837 0.064055,-0.127174 0.096082,-0.190761 0.029625,-0.07868 -1.0830706,-0.497646 -1.112696,-0.418967 v 0 c 0.017066,-0.03085 0.030536,-0.06398 0.051194,-0.09255 0.034002,-0.04702 0.1450176,-0.172961 0.2084422,-0.182562 0.1328692,-0.02012 0.2688405,0.0071 0.4031427,0.0024 0.030956,-0.0011 -0.061481,-0.209443 -0.051474,-0.07736 -0.1153001,-0.1279 -0.1629752,-0.191348 -0.3088429,-0.300948 -0.1209616,-0.09089 -0.3020181,-0.190098 -0.4444931,-0.238507 -0.080798,-0.02745 -0.2942629,-0.05841 -0.3859686,-0.07305 -0.052789,-0.06805 -1.0152393,0.678497 -0.9624503,0.746553 z" />
    <path
       style="fill:#3a2524;fill-opacity:1;stroke-width:0.264583;stroke-dasharray:none"
       id="path9483"
       d="m 9.4515683,16.083228 c -0.011967,-0.03171 -0.018791,-0.06587 -0.035901,-0.09512 -0.1488123,-0.254421 -0.4917768,-0.486114 -0.7607549,-0.586043 -0.084822,-0.03151 -0.1760313,-0.04201 -0.2640468,-0.06301 -0.073202,-0.0024 -0.1465365,-0.01238 -0.2196049,-0.0073 -0.2218505,0.01533 -0.136497,0.07605 -0.06988,0.21162 0.013377,0.02722 0.00644,0.07195 0.034118,0.08436 0.020405,0.0091 0.00317,-0.04462 0.00476,-0.06692 -0.043177,-0.266198 -0.1156425,-0.458901 -0.3364053,-0.627659 -0.060652,-0.05975 -0.035596,-0.03351 -0.076398,-0.07753 -0.042939,-0.05778 -0.860075,0.549464 -0.817136,0.607244 v 0 c 0.05994,0.06217 0.033577,0.03737 0.077045,0.07652 0.024749,0.05464 0.055049,0.104902 0.090984,0.154493 0.00917,0.02843 0.019388,0.05655 0.027517,0.0853 0.019893,0.07036 0.027966,0.144631 0.056523,0.211939 0.090926,0.21431 0.1307078,0.226732 0.271268,0.386182 0.1474131,0.167223 0.040133,0.06887 0.2243145,0.214425 0.059808,0.0298 0.1167887,0.06612 0.1794241,0.08939 0.068125,0.02531 0.1407654,0.03626 0.2108168,0.05562 0.2627548,0.07261 0.5236361,0.154187 0.7993769,0.156407 0.057266,0.04271 0.6612472,-0.767162 0.6039805,-0.80987 z" />
    <path
       style="fill:#21141d;fill-opacity:1;stroke-width:0.264583;stroke-dasharray:none"
       id="path10215"
       d="m 4.0189794,6.6125893 c -0.152416,-0.05971 -0.28252,-7.67e-4 -0.431668,0.03961 -0.167531,0.04537 -0.236185,0.05439 -0.396756,0.134771 -0.06082,0.03045 -0.115949,0.07114 -0.173924,0.106717 -0.145682,0.1120007 -0.244608,0.2504082 -0.313529,0.4188472 -0.05118,0.1250733 -0.07564,0.1882159 -0.07865,0.3229433 -3.97e-4,0.017515 0.01001,0.033579 0.01502,0.050368 0.265139,-0.080657 0.538858,-0.1371762 0.795416,-0.2419705 0.02378,-0.00971 -0.02125,-0.046988 -0.03522,-0.068541 -0.09704,-0.1496663 -0.222836,-0.22714 -0.373716,-0.3136161 -0.09876,-0.041317 -0.146056,-0.066167 -0.252678,-0.089375 -0.09517,-0.020714 -0.194762,-0.01248 -0.2912,-0.015126 -0.119129,-0.00327 -0.238219,-0.00781 -0.357329,-0.011721 -0.124785,0.028189 -0.250116,0.047408 -0.372524,0.085845 -0.06375,0.034581 0.425296,0.9361805 0.489049,0.9015998 v 0 c 0.04142,-0.012094 0.07776,-0.020516 0.116454,-0.039247 0.0073,-0.00354 0.01288,-0.00996 0.01985,-0.014129 0.0075,-0.00449 0.0322,-0.011584 0.02346,-0.011774 -0.01129,-2.45e-4 -0.02121,0.00773 -0.03182,0.011594 -0.0967,-0.00403 -0.193327,-0.013854 -0.290092,-0.012097 -0.02164,3.969e-4 0.01841,0.041196 0.03566,0.054266 0.07779,0.058931 0.169467,0.088102 0.259488,0.122636 0.09173,0.023029 0.190293,0.061908 0.286527,0.044864 0.01749,-0.0031 0.0331,-0.012917 0.04965,-0.019376 0.0092,-0.00751 0.01628,-0.019219 0.02772,-0.022516 0.271668,-0.078297 0.54584,-0.1476303 0.81876,-0.2214457 0.0797,0.053865 -0.01708,0.1157264 0.02583,0.1558473 0.04659,0.04356 0.252045,-0.046305 0.289896,-0.060757 0.04987,-0.027314 0.101901,-0.050999 0.1496,-0.081943 0.08907,-0.057783 0.149911,-0.1217271 0.232064,-0.186949 0.02608,-0.020704 0.05731,-0.035068 0.08097,-0.058501 0.03037,-0.030089 0.02973,-0.084121 0.07102,-0.1068009 0.0618,-0.027388 -0.325519,-0.9014154 -0.387322,-0.8740274 z" />
    <path
       style="fill:#21141d;fill-opacity:1;stroke-width:0.264583;stroke-dasharray:none"
       id="path10266"
       d="m 9.5415441,7.2645847 c 0.034311,0.078165 0.058192,0.1617948 0.102934,0.2344938 0.2245371,0.3648406 0.5746849,0.6363616 0.9822719,0.7685392 0.343312,0.1113335 0.540757,0.08888 0.892072,0.0942 0.690542,-0.1375786 0.07053,0.012925 0.625258,-0.1869009 0.147333,-0.053073 0.29872,-0.094133 0.44808,-0.1411988 0.07209,-0.025069 -0.282428,-1.0445713 -0.354518,-1.0195034 v 0 c 0.09579,-0.041735 0.229251,-0.038375 0.287375,-0.1252047 0.08207,-0.122604 -0.47025,-0.223787 -0.35737,-0.261144 -0.11851,-0.03157 -0.234936,-0.07238 -0.35553,-0.09471 -0.293239,-0.05428 -0.569297,-0.07673 -0.864093,-0.0092 -0.123834,0.02836 -0.372876,0.128896 -0.468142,0.254518 -0.024,0.03165 -0.02194,0.07634 -0.03291,0.114517 -0.02628,-0.06402 -0.9317043,0.3075894 -0.9054275,0.3716127 z" />
    <path
       style="fill:#21141d;fill-opacity:1;stroke-width:0.264583;stroke-dasharray:none"
       id="path10268"
       d="m 12.293815,2.6287653 c 0.0071,-0.397818 -0.178367,-0.78841 -0.429725,-1.089359 -0.07097,-0.08497 -0.15695,-0.156175 -0.235425,-0.234262 -0.147827,-0.102427 -0.261204,-0.200671 -0.433378,-0.255159 -0.04027,-0.01275 -0.08419,-0.007 -0.126287,-0.01048 -0.04303,-0.07363 -1.0842944,0.534856 -1.041268,0.608485 v 0 c 0.01015,0.068221 0.01275,0.138001 0.03045,0.204667 0.05701,0.214809 0.112108,0.268155 0.232744,0.462513 0.07347,0.078644 0.140133,0.164245 0.220405,0.23593 0.268671,0.239928 0.592357,0.356611 0.914022,0.501423 0.02996,0.06141 0.898431,-0.362349 0.868467,-0.423759 z" />
    <path
       style="fill:#21141d;fill-opacity:1;stroke-width:0.264583;stroke-dasharray:none"
       id="path10270"
       d="m 6.8732444,3.8225033 c -0.02413,-0.356098 -0.200745,-0.626216 -0.439498,-0.882896 -0.06325,-0.06799 -0.133872,-0.128734 -0.200808,-0.193102 -0.07214,-0.066 -0.140066,-0.136923 -0.21643,-0.197986 -0.196783,-0.157355 -0.483117,-0.331525 -0.715993,-0.43154 -0.175974,-0.07558 -0.251183,-0.08472 -0.432359,-0.12619 -0.07475,-0.0495 -0.774815,1.007649 -0.700063,1.057151 v 0 c 0.07632,0.06708 0.126042,0.113154 0.211402,0.175761 0.05442,0.03992 0.111554,0.07601 0.167108,0.114337 0.182497,0.12591 0.362685,0.255082 0.5448,0.38154 0.347686,0.28564 0.01005,0.01397 0.353069,0.274026 0.220089,0.166858 0.127916,0.120776 0.363262,0.24496 0.04857,0.02563 0.09585,0.05558 0.148383,0.07157 0.03147,0.0096 0.06575,0.0024 0.09862,0.0036 0.03474,0.05788 0.853244,-0.433363 0.818508,-0.49124 z" />
    <path
       style="fill:#21141d;fill-opacity:1;stroke-width:0.264583;stroke-dasharray:none"
       id="path10272"
       d="m 14.187947,5.2518833 c 0.02833,0.04349 0.05049,0.09168 0.08498,0.130466 0.254927,0.286673 0.633047,0.453042 1.008508,0.505972 0.06786,0.0096 0.137014,0.0036 0.205521,0.0054 0.168301,-0.04922 0.08997,-0.06415 0.01908,-0.166745 8.94e-4,0.08863 1.254329,0.07598 1.253435,-0.01265 v 0 c -0.0106,-0.115377 -0.001,-0.234427 -0.03181,-0.346131 -0.06496,-0.235876 -0.204075,-0.434485 -0.330034,-0.638279 -0.07575,-0.07536 -0.1412,-0.162741 -0.227251,-0.226087 -0.300237,-0.221016 -0.676235,-0.303529 -1.04287,-0.292387 -0.104471,0.0032 -0.208199,0.02147 -0.310838,0.04121 -0.07214,0.01387 -0.141489,0.03957 -0.212234,0.05935 -0.06646,-0.02945 -0.482943,0.91039 -0.416486,0.93984 z" />
    <path
       style="fill:#21141d;fill-opacity:1;stroke-width:0.264583;stroke-dasharray:none"
       id="path10274"
       d="m 10.794249,9.7240286 c -0.04954,-0.026947 -0.09444,-0.065185 -0.148615,-0.080841 -0.274686,-0.079383 -0.435989,-0.067964 -0.7224438,-0.021677 -0.2722227,0.043987 -0.4739709,0.1019666 -0.715101,0.2309441 -0.082044,0.043884 -0.1542079,0.104154 -0.2313117,0.1562313 0.075722,-0.055879 -0.2272824,0.219307 -0.1385311,0.264067 0.098876,0.04987 0.2406121,-0.01369 0.3276767,0.05474 0.2631101,0.206802 0.3985498,0.459499 0.2363573,0.740378 0.047144,-0.04934 -0.6506128,-0.716052 -0.6977565,-0.666713 v 0 c -0.027931,0.03163 -0.067598,0.05592 -0.083794,0.09488 -0.1315571,0.316497 -0.1254924,0.511564 0.2271758,0.775106 0.1133215,0.08468 0.2813738,0.03331 0.4197244,0.06284 0.1587039,0.03388 0.2978629,0.140823 0.4693526,0.129303 0.1237678,-0.0044 0.2487146,0.0044 0.3713033,-0.01322 0.321006,-0.0461 0.560883,-0.130067 0.834477,-0.308388 0.118635,-0.07732 0.232292,-0.166121 0.32635,-0.27198 0.169983,-0.191313 0.205141,-0.33464 0.28675,-0.554904 0.04177,-0.05385 -0.71984,-0.6446221 -0.761614,-0.590768 z" />
    <path
       style="fill:#21141d;fill-opacity:1;stroke-width:0.264583;stroke-dasharray:none"
       id="path10276"
       d="m 13.84238,11.638083 c -0.0086,0.04482 -0.02356,0.08887 -0.0257,0.134452 -0.01433,0.306031 0.138314,0.663265 0.307741,0.910622 0.05081,0.07418 0.112223,0.140503 0.168334,0.210754 0.145895,0.153073 0.291368,0.237042 0.48567,0.308976 0.05096,0.01887 0.100288,0.04497 0.153923,0.05368 0.170765,0.02774 0.344047,0.03677 0.51607,0.05516 0.06208,-0.02301 -0.263373,-0.900939 -0.325452,-0.877926 v 0 c 0.157725,0.02016 0.315116,0.04313 0.473175,0.06048 0.02147,0.0023 0.05243,0.01629 0.06478,-0.0014 0.01632,-0.02342 0.0021,-0.0577 -0.0042,-0.08554 -0.02797,-0.123671 -0.07054,-0.175566 -0.135208,-0.289253 -0.20205,-0.25726 -0.42449,-0.503478 -0.69983,-0.684392 -0.01445,-0.06925 -0.993781,0.135172 -0.979326,0.204421 z" />
    <path
       style="fill:#21141d;fill-opacity:1;stroke-width:0.264583;stroke-dasharray:none"
       id="path10278"
       d="m 12.380164,15.611996 c -0.123788,-0.44899 -0.342486,-0.777292 -0.704448,-1.078272 -0.129749,-0.107889 -0.264809,-0.211566 -0.411806,-0.29443 -0.149568,-0.08431 -0.315236,-0.136175 -0.472853,-0.204262 -0.156866,-0.02975 -0.313732,-0.0595 -0.470597,-0.08924 -0.115528,-0.06363 -1.0154182,1.570181 -0.8998903,1.633813 v 0 c 0.1014251,0.05019 0.2028502,0.100384 0.3042751,0.150576 0.1298339,0.04314 0.2575139,0.0934 0.3895012,0.129421 0.06233,0.01701 0.696483,0.149905 0.782832,0.165167 0.0034,6.02e-4 0.440461,0.07142 0.499234,0.0539 0.03935,-0.01172 0.05222,-0.06337 0.07832,-0.09506 0.02628,0.06402 0.931704,-0.30759 0.905427,-0.371613 z" />
    <path
       style="fill:#21141d;fill-opacity:1;stroke-width:0.264583;stroke-dasharray:none"
       id="path10280"
       d="m 2.7672674,13.242233 c -0.02688,-0.01098 -0.05191,-0.02866 -0.08063,-0.03293 -0.10793,-0.01605 -0.235468,0.01896 -0.335943,0.05425 -0.04691,0.01648 -0.08935,0.04969 -0.138839,0.05451 -0.07004,0.0068 -0.140077,-0.01368 -0.210116,-0.02051 -0.479574,0.04057 -0.873147,0.186159 -1.14871396,0.60078 -0.0255,0.03837 -0.04185,0.08208 -0.06277,0.123126 -0.01557,0.03582 -0.03787,0.0694 -0.0467,0.107448 -0.0078,0.03364 0.03725,0.0137 0.05811,0.01065 0.129959,-0.019 0.26015496,-0.03634 0.39023196,-0.05451 -0.06316,-0.02025 -0.34957896,0.87295 -0.28641996,0.893203 v 0 C 1.0503934,14.96112 1.1960764,14.94956 1.3402254,14.92687 c 0.06798,-0.0107 0.127304,-0.05613 0.195241,-0.06711 0.02555,-0.0041 0.05159,0.0043 0.07739,0.0064 0.159765,-0.02188 0.321775,-0.03672 0.474963,-0.09126 0.219571,-0.07817 0.413001,-0.202948 0.584402,-0.359816 0.0387,-0.04581 0.07212,-0.09666 0.116093,-0.137427 0.0096,-0.0089 0.106506,-0.01976 0.115851,-0.02141 0.08589,-0.01518 0.15374,-0.03618 0.219352,-0.09691 0.06485,-0.02519 -0.291403,-0.94227 -0.356251,-0.917079 z" />
    <path
       style="fill:#967952;fill-opacity:1;stroke-width:0.298916;stroke-dasharray:none"
       id="path20592"
       d="m 7.6578148,0.03933331 c 0.038888,0.200089 -0.4694235,0.210919 -0.4321962,0.376621 0.029114,0.129584 0.3953011,0.096098 0.4156838,0.226681 0.02004,0.128387 -0.3060714,0.160064 -0.335449,0.287363 -0.023248,0.10073799 0.1763731,0.16140899 0.2089985,0.26056599 0.027195,0.08265 -0.026448,0.169368 -0.039675,0.254051 0.094092,0.076 0.2619149,0.123736 0.2822785,0.228008 0.015951,0.08167 -0.1822955,0.111571 -0.200053,0.193027 -0.012932,0.05931 0.11354,0.0927 0.1247897,0.152209 0.00728,0.03852 -0.09877,0.06519 -0.077071,0.100267 0.080109,0.129554 0.1398118,0.05818 0.1748693,0.02168 0.2800827,0.09938 -0.1621239,-0.0763 -0.04473,0.07554 0.065316,0.08447 0.2682474,0.0868 0.2995196,0.182319 0.019813,0.06052 -0.1378619,0.06435 -0.2094962,0.09264 -0.103545,0.04087 -0.2409073,0.04556 -0.3156347,0.114637 -0.036444,0.03369 0.038078,0.08292 0.057117,0.124362 0.1366472,0.128474 0.1657966,0.08427 0.040244,0.220829 -0.035697,0.03882 -0.1144166,0.06124 -0.1197493,0.108784 -0.00355,0.03166 0.093075,0.02236 0.1015497,0.05344 0.00592,0.02172 -0.058411,0.0081 -0.081091,0.02159 -0.010778,0.0064 -0.00495,0.02073 -0.00742,0.0311 0.5487167,0.322133 -0.034806,-0.05923 -0.2704873,0.05147 -0.098911,0.04646 0.1688673,0.126217 0.226208,0.204197 0.014261,0.01939 -0.00173,0.05817 -0.029812,0.0629 -0.082441,0.01388 -0.1816267,-0.05118 -0.2522921,-0.01537 -0.047286,0.02394 0.017306,0.08669 0.025963,0.130042 0.032227,0.08682 0.1384789,0.240785 0.014506,0.332576 -0.048617,0.03599 -0.4151847,0.06328 -0.2907907,0.231455 0.05983,0.08089 0.3168979,0.07922 0.2866284,0.169515 -0.034009,0.101442 -0.2532227,0.07234 -0.3798344,0.108502 0.868794,0.216381 0.3446349,-0.01174 0.2097981,0.226138 -0.018856,0.03326 0.12465,0.0099 0.1271581,0.04613 0.00601,0.08688 -0.2279689,0.07711 -0.1530703,0.195269 0.022034,0.03477 0.088939,0.03507 0.1334081,0.05261 0.045975,0.19373 0.010855,-0.06228 -0.074293,0.164761 -0.00854,0.02276 0.039762,0.04258 0.034366,0.06593 -0.0092,0.03981 -0.095486,0.06978 -0.074288,0.106728 0.1411223,0.245922 0.4331232,-0.0084 -0.029849,0.253589 0.026344,0.03076 0.052688,0.06153 0.079032,0.09228 0.036107,0.02374 0.078948,0.04243 0.1083228,0.07123 0.029181,0.02862 0.036501,0.06797 0.06387,0.09766 0.025764,0.02792 0.1116639,0.04173 0.093583,0.0731 -0.1164249,0.201995 -0.2865128,-0.04349 -0.099171,0.160447 -0.036389,0.09704 0.3139154,-0.0027 0.2704172,0.06211 -0.033691,0.05016 -0.1779842,0.0053 -0.2053222,0.05785 -0.021352,0.04095 0.1070604,0.04494 0.1307955,0.08509 0.082942,0.140305 -0.2635727,0.155665 -0.503415,0.216064 1.4749701,0.245259 0.088349,-0.06786 0.2244028,0.181757 0.048645,0.08924 0.2571528,0.03088 0.3556517,0.09034 0.048943,0.02955 -0.062863,0.199429 -0.077393,0.2166553 -0.0275,0.032599 -0.065842,0.058827 -0.098764,0.088236 0.00901,0.021299 0.00472,0.049672 0.027018,0.063895 0.043603,0.027772 0.1128801,0.023362 0.1552319,0.052312 0.1409273,0.096338 -0.300796,0.1193244 -0.2273321,0.2490158 0.032779,0.057866 0.1430545,0.060253 0.2145815,0.09038 -0.06515,0.031919 -0.1474015,0.048984 -0.195451,0.095759 -0.017852,0.017378 0.012034,0.047153 0.034239,0.061178 0.033995,0.021468 0.139567,0.00635 0.1221792,0.037602 -0.022139,0.039779 -0.1982697,6.851e-4 -0.1616966,0.033407 0.045086,0.040336 0.3243751,-0.017882 0.1459138,0.016506 -0.3400371,0.1527929 0.1690311,0.1102197 0.1257521,0.164365 -0.4018458,0.5027413 -0.434227,-0.3003148 0.010495,0.094031 0.2374541,0.2105574 -0.5755879,-0.03405 -0.133973,0.088175 0.020748,0.030794 0.025319,0.072771 0.062249,0.092383 0.064698,0.034359 0.1631862,0.019112 0.2225506,0.058863 0.03179,0.021289 0.00754,0.06496 0.010906,0.097464 0.00274,0.026454 0.00499,0.052937 0.00747,0.079407 -0.057766,0.041391 -0.1773677,0.063189 -0.1733118,0.1241708 0.00346,0.052011 0.123717,0.040079 0.1855756,0.060118 0.2062383,0.1382812 0.1106865,0.019191 0.017782,0.2004857 -0.016985,0.033143 0.00824,0.074176 -0.01061,0.1067043 -0.031603,0.054539 -0.1672622,0.090872 -0.1354349,0.1453327 0.04066,0.069575 0.2953832,0.014287 0.2721074,0.088531 -0.035962,0.114708 -0.2440187,0.1406987 -0.3660284,0.2110477 1.2740279,-0.083498 0.4883214,-0.1531207 0.4941445,0.05172 7.46e-4,0.026468 0.073965,0.034979 0.065908,0.060701 -0.015405,0.049186 -0.1081434,0.069141 -0.1220664,0.1185929 -0.022824,0.08106 0.1454727,0.056618 0.2576519,0.054524 -0.016921,0.036513 0.038883,0.0157 0.038891,0.00546 5.11e-5,-0.063963 -0.2007129,-0.053124 -0.225572,-0.011057 -0.018402,0.03114 0.024702,0.065788 0.037054,0.098683 -0.055726,0.04165 -0.1573357,0.065355 -0.1671773,0.1249487 -0.00993,0.060171 0.082714,0.1029592 0.1207938,0.1559168 0.035897,0.04992 0.090883,0.09591 0.1010101,0.15255 0.00789,0.04413 -0.033217,0.0853 -0.050913,0.127676 -0.01024,0.02451 -0.00973,0.0545 -0.032863,0.07296 -0.010419,0.0083 -0.012739,-0.02099 -0.019107,-0.03149 0.044916,-0.01074 0.1241311,0.0034 0.1347448,-0.0322 0.012201,-0.04088 -0.059251,-0.07049 -0.09465,-0.102183 -0.021684,-0.01942 -0.092927,-0.07194 -0.075445,-0.05011 0.076362,0.09534 0.3463891,0.186688 0.2539878,0.273034 -0.6491171,0.606573 -0.4136239,-0.5711262 -0.5018966,0.142864 -4.747e-4,0.04428 -0.031053,0.09501 -0.00142,0.132844 0.059833,0.07644 0.2507286,0.09555 0.2502383,0.18503 -4.069e-4,0.07134 -0.1691708,0.05563 -0.2517272,0.08684 -0.070878,0.02679 -0.1524848,0.04375 -0.2082481,0.08703 -0.082391,0.06396 -0.09475,0.170169 -0.1142616,0.252735 0.048981,0.05296 0.094889,0.107724 0.1469433,0.158883 0.2369912,0.232915 0.2546149,0.112814 -0.1863232,0.197621 -0.070441,0.01355 -0.2272511,0.0028 -0.2051743,0.05655 0.2028004,0.493466 0.3486584,-0.03686 0.2632041,0.218019 0.1964971,0.330472 -0.037084,-0.140252 -0.035506,0.194754 2.065e-4,0.04391 0.1304396,0.07379 0.095968,0.108586 -0.06945,0.0701 -0.2608947,0.02963 -0.311445,0.108895 -0.034028,0.05336 0.1604294,-0.0062 0.2282028,0.02163 0.036282,0.01488 0.028689,0.05973 0.043035,0.0896 -0.011637,0.05629 -0.035956,0.11187 -0.034919,0.168879 0.00392,0.215331 0.030755,0.04378 0.1533595,0.153112 0.011944,0.01065 -0.029791,0.02339 -0.047611,0.02063 -0.05611,-0.0087 -0.1268197,-0.01507 -0.1578174,-0.05245 -0.018402,-0.02218 0.066087,-0.0122 0.099131,-0.01831 -0.00852,0.0091 -0.032735,0.01745 -0.025574,0.02721 0.0331,0.0451 0.1450212,0.06653 0.1317027,0.117408 -0.031684,0.121031 -0.2435067,-0.07306 -0.2890048,0.03226 -0.1509757,0.349502 0.3079602,-0.111205 -0.012532,0.17767 0.099352,0.140894 0.1604929,0.140626 0.058367,0.286855 -0.052925,0.07578 -0.1699601,0.127591 -0.1899746,0.212399 -0.063269,0.268095 0.4492324,-0.01654 0.2823393,0.110955 0.088388,-0.218451 -0.3633868,0.0303 -0.299636,0.09847 0.032332,0.03458 0.1032861,0.0426 0.1282223,0.0807 0.039307,0.06005 -0.083311,0.07951 0.011739,0.15854 0.038427,-0.0038 0.077253,-0.0056 0.1152817,-0.01131 0.2958307,-0.04444 -0.055494,-0.02333 -0.034453,0.05321 0.012688,0.04613 0.128988,0.0068 0.1758277,0.0368 0.020057,0.01285 -0.051727,0.01712 -0.063555,0.03511 -0.024676,0.03753 -0.026734,0.08168 -0.040098,0.122516 0.2672807,0.0088 -0.015889,-0.01205 0.029985,0.02639 0.038923,0.03262 0.1541575,-0.04519 0.1304874,0.0067 -0.043012,0.09425 -0.205411,-0.102184 0.025416,0.103252 -0.03425,0.04099 -0.064267,0.08431 -0.1027517,0.12297 -0.055303,0.05555 -0.231076,0.156507 -0.1876241,0.257236 0.020826,0.04828 0.1005092,0.06542 0.1529629,0.09593 0.049562,0.02883 0.148018,0.03401 0.1528685,0.08197 0.00552,0.05458 -0.087721,0.08568 -0.1315819,0.128527 0.071174,-0.0054 0.1446326,-0.03115 0.2135206,-0.01623 0.024977,0.0054 -0.036061,0.03733 -0.027856,0.05644 0.00871,0.02029 0.041746,0.02973 0.067804,0.0366 0.012926,0.0034 0.05155,-0.01333 0.039549,-0.0083 -0.081312,0.03427 -0.2109934,0.0305 -0.2483205,0.09627 -0.025496,0.04492 0.1261803,0.0052 0.1892696,0.0078 0.099658,0.02334 0.2374148,0.0048 0.2989748,0.07002 0.038354,0.04063 -0.099694,0.07066 -0.1213628,0.118158 -0.016109,0.03531 0.02966,0.07561 0.016517,0.11165 -0.016395,0.04496 -0.098517,0.07006 -0.099812,0.116782 -0.00102,0.03626 0.048089,0.0756 0.094347,0.08038 0.1308729,0.01353 0.2627987,-0.01992 0.394197,-0.02989 0.3487398,0.146519 -0.2421408,0.295987 -0.2586068,0.202667 -0.00953,-0.05406 0.051851,-0.101787 0.086395,-0.149292 0.027968,-0.03846 0.1081074,-0.06352 0.1001629,-0.107267 -0.00666,-0.03671 -0.085689,-0.03262 -0.1285322,-0.04893 0.043147,5.8e-5 0.099374,-0.02388 0.1294396,1.74e-4 0.021736,0.01739 -0.04713,0.03289 -0.0755,0.04297 -0.076177,0.02707 -0.2549857,0.0043 -0.23574,0.06762 0.025217,0.083 0.2524698,0.03848 0.292131,0.117999 0.026479,0.05309 -0.133737,0.04889 -0.191346,0.08407 -0.03778,0.02307 -0.059865,0.05842 -0.089799,0.08763 -0.1035951,0.161588 -0.092488,0.07774 0.2874802,0.14756 0.016951,0.0031 -0.044389,2.28e-4 -0.049641,-0.01268 -0.00943,-0.02316 -0.00169,-0.05148 0.015215,-0.07191 0.055264,-0.0668 0.1319416,-0.03473 0.04918,-0.05966 -0.4285733,-0.22029 -0.186739,-0.162903 -0.2125897,-0.08728 -0.009,0.02631 -0.00442,0.06193 -0.033156,0.07751 -0.057305,0.03107 -0.1539838,0.008 -0.1999583,0.04887 -0.030699,0.0273 0.0164,0.07139 0.024599,0.107087 -0.037446,0.03072 -0.074891,0.06144 -0.1123379,0.09215 0.036008,0.038 -0.044005,-0.04627 0.082174,0.08156 0.2996484,0.303566 -0.1086932,-0.166001 -0.2804634,0.168386 -0.1558758,0.303446 0.8391988,-0.06377 0.047721,0.184739 0.00674,-0.0078 0.3195091,-0.407485 0.3321179,-0.04582 0.00254,0.073 -0.188069,-0.01422 -0.2817103,-0.0081 -0.03124,0.002 -0.1124662,0.02077 -0.084597,0.03193 0.3352632,0.13419 0.6686998,0.06536 0.060916,0.12554 0.020796,0.02496 0.041592,0.04991 0.062387,0.07487 0.073798,0.02126 0.1698388,0.01756 0.2213934,0.06377 0.025045,0.02245 -0.064313,0.03214 -0.096471,0.04821 0.0034,0.08732 1.5923875,0.05008 1.5889994,-0.03724 v 0 c 0.3198047,-0.05105 -0.4173051,-0.0092 -0.1313669,-0.05148 -0.063962,-0.04506 -0.00214,0.0063 0.1142988,-0.02313 0.013783,-0.0035 0.024886,-0.02312 0.015361,-0.03161 -0.032874,-0.0293 -0.1171759,-0.02694 -0.124231,-0.06542 -0.038422,-0.209587 0.4849017,0.123823 -0.099705,-0.169745 0.028225,0.03864 0.020308,0.01905 0.093746,0.0711 0.020819,0.01476 0.043151,0.02899 0.058782,0.04722 0.00695,0.0081 -0.021146,-0.01044 -0.031718,-0.01567 0.053926,-0.0053 0.1078511,-0.01054 0.161777,-0.0158 -0.024447,0.0084 -0.05798,0.0081 -0.073343,0.02509 -0.008,0.0088 0.020704,0.01444 0.031056,0.02165 -0.086062,-0.02933 -0.1721238,-0.05865 -0.2581856,-0.08798 -0.023112,-0.01069 -0.070404,-0.05847 -0.044753,-0.05218 0.1208508,0.02962 0.2180903,0.135829 0.3441169,0.125551 0.0692,-0.0056 -0.060196,-0.0975 -0.090293,-0.146253 0.2419523,-0.09093 -0.008,0.03589 0.081826,-0.220624 0.018759,-0.05356 0.1254062,-0.0742 0.1352431,-0.129181 0.00684,-0.03828 -0.1393805,-0.06929 -0.096285,-0.08858 0.1039295,-0.04653 0.3124466,0.05767 0.3579479,-0.02857 0.040949,-0.07762 -0.2121268,-0.03119 -0.3181903,-0.04679 0.031015,-0.0176 0.05682,-0.0429 0.093049,-0.05281 0.082685,-0.02262 0.2507317,0.02496 0.2570979,-0.04299 0.00648,-0.06928 -0.1766926,-0.03981 -0.245155,-0.08447 -0.020178,-0.01316 0.00755,-0.04412 0.027354,-0.05763 0.039555,-0.02699 0.127795,-0.01684 0.140095,-0.05661 0.013709,-0.04433 -0.057084,-0.07967 -0.085627,-0.119512 -0.016463,-0.0497 -0.067308,-0.0997 -0.049386,-0.149096 0.031833,-0.08772 0.2451031,-0.152021 0.1874564,-0.231396 -0.064116,-0.08828 -0.2713468,0.0027 -0.3872773,-0.04374 -0.054063,-0.02168 -0.035042,-0.09067 -0.057542,-0.13459 -0.018161,-0.03545 -0.046862,-0.06734 -0.064183,-0.103046 -0.00491,-0.01013 0.017605,0.01678 0.026408,0.02517 0.029029,0.02088 0.1041948,0.03494 0.087085,0.06265 -0.030538,0.04947 -0.1146192,0.06581 -0.1796173,0.08724 -0.015868,0.0052 -0.060724,-0.0016 -0.049468,-0.01172 0.070633,-0.06367 0.2383977,-0.02989 0.2851449,-0.120434 0.01989,-0.01957 -0.064193,-4.5e-5 -0.09629,-6.7e-5 -0.033543,-0.06032 -0.074244,-0.118372 -0.1028684,-0.180207 -0.017679,-0.03819 -0.011816,-0.0849 -0.044008,-0.116867 -0.021882,-0.02172 -0.072555,-0.01008 -0.1007422,-0.02685 -0.1049023,-0.06242 0.059528,-0.134138 0.098473,-0.168059 -0.7872724,0.114633 -0.2972895,0.07669 -0.1028068,-0.06862 0.050963,-0.03808 -0.1750307,0.01805 -0.2084637,-0.03036 -0.037554,-0.05438 0.1025518,-0.108352 0.1252268,-0.120549 -0.055955,-0.01573 -0.1570112,-0.0017 -0.1678667,-0.04718 -0.011355,-0.04758 0.1203376,-0.05515 0.1320879,-0.102671 0.0081,-0.03274 -0.070465,-0.04227 -0.088802,-0.07241 -0.014523,-0.02387 0.00818,-0.05435 -0.00341,-0.07918 -0.032294,-0.06918 -0.088471,-0.06645 -0.1664394,-0.08573 0.033984,0.01185 0.065639,0.0291 0.1019495,0.03555 0.00834,0.0015 2.588e-4,-0.01827 -0.00827,-0.0189 -0.029093,-0.0022 -0.1066157,-0.0045 -0.086332,0.01187 0.089308,0.07199 0.1730797,-0.02698 0.1689503,-0.07982 -0.00235,-0.02976 -0.045045,-0.04828 -0.067567,-0.07242 -0.067824,-0.09022 -0.061869,-0.04232 -0.00832,-0.144244 -0.01247,-0.02866 -0.1231647,-0.02782 -0.09717,-0.05033 0.062022,-0.05373 0.3054164,-0.02589 0.2553343,-0.08667 -0.06407,-0.07776 -0.2561197,0.01947 -0.3539148,-0.03298 -0.046485,-0.02493 0.044458,-0.08069 0.066687,-0.121041 0.075155,-0.04959 0.2773053,-0.0836 0.2254663,-0.148777 -0.055852,-0.07022 -0.2299115,-0.01328 -0.3153399,0.03578 -0.051068,0.02933 0.1940635,-0.0087 0.1834282,0.03998 -0.017951,0.08211 -0.153524,0.116251 -0.2302862,0.174377 0.037685,0.038 0.1072206,0.06623 0.113053,0.113989 0.00322,0.02638 -0.067197,-0.0091 -0.1007947,-0.01362 0.071591,0.01271 0.2744478,0.07853 0.3343503,-0.02296 0.030636,-0.05191 -0.039451,-0.115136 -0.021468,-0.170507 0.051854,-0.159651 0.4103622,-0.259161 0.3723564,-0.448932 -0.6619693,-0.729951 0.1672661,0.335027 0.028168,-0.500711 -0.013476,-0.08096 -0.1964662,-0.05784 -0.2946997,-0.08675 -0.046461,-0.01223 -0.1290613,5.8e-4 -0.1393824,-0.03669 -0.00988,-0.03566 0.1409002,-0.0402 0.1104066,-0.06794 -0.034656,-0.03152 -0.1043473,0.01733 -0.1565208,0.02599 0.061159,-0.02379 0.1450883,-0.02738 0.1834773,-0.07137 0.0197,-0.02257 -0.030887,-0.05797 -0.065003,-0.06438 -0.078621,-0.01478 -0.1752925,-0.02837 -0.2425142,0.0066 -0.050872,0.02646 0.1204478,0.01705 0.1806717,0.02557 0.00832,0.01201 0.037495,0.02651 0.02494,0.03605 -0.012875,0.0098 -0.032587,-0.01191 -0.048878,-0.01787 0.019416,-0.01668 0.048004,-0.02901 0.058246,-0.05004 0.014356,-0.02949 -0.017565,-0.0725 0.011944,-0.09413 0.061986,-0.04544 0.1937835,-0.02493 0.2314777,-0.08433 0.0301,-0.04743 -0.1015381,-0.09196 -0.086826,-0.143593 0.025995,-0.09122 0.2693599,-0.0882 0.2158941,-0.224549 0.011906,-0.228447 0.058344,-0.121199 -0.2054107,-0.299593 -0.00454,-0.06001 0.1458431,-0.05124 0.1952022,-0.09752 0.082988,-0.07782 -0.066907,-0.181651 -0.1056225,-0.237483 0.062685,0.02491 0.1304642,0.04326 0.1880533,0.07473 0.021573,0.01179 -0.057001,-7.12e-4 -0.07702,-0.01405 -0.00925,-0.0062 0.019094,-0.01375 0.021352,-0.02305 0.010394,-0.04281 -0.027282,-0.10228 0.015842,-0.130117 0.6195743,-0.399945 0.00532,0.289714 0.4229259,-0.239972 0.043477,-0.05987 0.063264,-0.134878 0.1304328,-0.179617 0.090964,-0.06059 0.3884368,-0.04442 0.3230458,-0.12243 -0.0478,-0.05702 -0.6929611,-0.0158 -0.5579714,-0.273792 0.031149,-0.05953 0.16557,-0.075904 0.1704905,-0.1400544 0.00463,-0.060408 -0.099349,-0.093207 -0.149024,-0.1398111 C 9.6999261,9.7628685 9.877561,9.5733369 9.8648874,9.5358985 9.8453024,9.4780395 9.7439372,9.4586485 9.7026662,9.4081453 9.6731732,9.3720533 9.6998462,9.3133223 9.6593462,9.2843751 9.6129162,9.2511811 9.4734312,9.2954101 9.476479,9.2464411 9.480819,9.1765871 9.606008,9.1493211 9.6707724,9.100761 9.5592867,9.129088 9.4520194,9.170785 9.3363158,9.185739 9.3013248,9.190259 9.3897938,9.149376 9.4186538,9.133349 9.4459841,9.1181587 9.6949195,8.9999564 9.6892198,8.9948647 9.4836681,8.8112455 9.2573952,9.1471225 9.5271418,8.843404 9.5371118,8.801234 9.5700028,8.758576 9.5570628,8.716896 9.5467978,8.683844 9.5027428,8.66152 9.4652368,8.644012 9.3925458,8.610081 9.2345855,8.631011 9.2319667,8.565146 9.2286467,8.481611 9.4887314,8.4632353 9.4548951,8.3839068 c -0.04652,-0.1090647 -0.335436,0.01536 -0.4383098,-0.052904 0.1107078,-0.043332 0.2302665,-0.075096 0.3321219,-0.129995 0.014218,-0.00766 -0.022111,-0.020735 -0.031847,-0.031851 -0.010073,-0.011501 -0.00979,-0.033578 -0.027453,-0.035874 -0.080166,-0.010424 -0.163725,0.01124 -0.2438438,6.061e-4 -0.04332,-0.00575 -0.1326466,-0.016766 -0.1161866,-0.048432 0.022037,-0.042398 0.1105438,-0.031365 0.1658159,-0.047048 -0.3659911,-0.1304449 -0.1948099,-0.021737 0.081912,-0.1663097 0.027906,-0.01458 0.059558,-0.064269 0.028955,-0.0751 -0.088335,-0.03126 -0.202228,0.014264 -0.2903264,-0.017397 -0.066642,-0.023951 0.6343455,-0.093363 -0.092176,-0.010085 0.091625,-0.017637 0.1832505,-0.035274 0.2748758,-0.05291 -0.00754,-0.02077 -0.037635,-0.044166 -0.022599,-0.062308 0.027127,-0.032732 0.167377,-0.040555 0.1265045,-0.063068 -0.085981,-0.047362 -0.2246411,0.0065 -0.3121234,-0.039179 -0.046257,-0.024147 0.3001179,-0.1153883 -0.00153,-0.1299106 0.011867,-0.024256 0.021565,-0.049217 0.035591,-0.072765 0.013431,-0.022546 0.053908,-0.040979 0.046564,-0.065157 -0.011419,-0.037603 -0.097697,-0.051643 -0.093744,-0.090157 0.00429,-0.041771 0.1377631,-0.053558 0.1122906,-0.090493 -0.1171849,-0.1699173 -0.5657169,0.032359 0.066727,-0.1654243 0.030537,-0.02279 0.059774,-0.04667 0.091614,-0.06835 0.035067,-0.02387 0.1348412,-0.03807 0.1089187,-0.06818 -0.044486,-0.05168 -0.1748602,-0.01726 -0.2244675,-0.06604 -0.032393,-0.03186 0.033224,-0.07787 0.036932,-0.118358 0.022437,-0.244863 -0.087197,0.002 0.06168,-0.254451 -0.072062,-0.03627 -0.1556993,-0.06147 -0.2161871,-0.108832 -0.049478,-0.03873 -0.088956,-0.235681 -0.063811,-0.285761 0.020467,-0.04076 0.1012113,-0.05961 0.1042128,-0.103309 0.0019,-0.0274 -0.063045,-0.02472 -0.094568,-0.0371 0.051096,-0.168313 0.010676,-0.03935 -0.1855099,-0.13523 -0.026163,-0.0128 -0.047292,-0.04854 -0.02967,-0.06827 0.045063,-0.05045 0.1370024,-0.06481 0.1895208,-0.110716 0.033389,-0.02917 0.040063,-0.07162 0.060096,-0.107425 -0.018561,-0.03247 -0.026571,-0.07 -0.055679,-0.09741 -0.036037,-0.03391 -0.1357588,-0.03712 -0.1339596,-0.08108 0.0022,-0.05426 0.1396358,-0.06539 0.1421732,-0.119635 0.00245,-0.05207 -0.1501519,-0.06865 -0.1310299,-0.118581 0.030918,-0.08074 0.2731454,-0.08887 0.241306,-0.169392 -0.03602,-0.09109 -0.2309151,-0.0642 -0.3463725,-0.09631 0.049292,-0.04904 0.156554,-0.08526 0.1478782,-0.147104 -0.00656,-0.04677 -0.1145909,-0.03154 -0.1741257,-0.04003 -0.075983,-0.01083 -0.1569773,4.21e-4 -0.2306341,-0.01769 -0.015625,-0.0038 -0.012047,-0.03426 0.00358,-0.03811 0.096163,-0.02357 0.2054842,-0.0066 0.2989253,-0.03606 0.070143,-0.02212 -0.150964,0.0088 -0.2264458,0.01321 -0.031623,-0.01004 -0.1256625,-0.01861 -0.094865,-0.0301 0.068863,-0.02566 0.1518317,-0.01295 0.2277474,-0.01943 -0.00129,-0.01877 -0.021793,-0.04375 -0.00382,-0.05634 0.040062,-0.02806 0.1412743,-0.0049 0.1504119,-0.04634 0.016575,-0.07492 -0.2095909,-0.09575 -0.15472,-0.193775 0.2391208,0.0072 0.3851282,0.0961 0.3709977,-0.121013 -0.00336,-0.0516 -0.097425,-0.107238 -0.057338,-0.148455 0.041632,-0.0428 0.148478,0.02301 0.2070175,-0.0055 0.1104348,-0.05367 0.012265,-0.248489 -3.729e-4,-0.290934 0.1242861,-0.25264 0.036648,-0.126971 0.2817577,-0.368696 0.118114,-0.211448 -0.015975,-0.137244 -0.042824,-0.295361 -0.00515,-0.03035 0.043463,-0.06267 0.025119,-0.08976 -0.027181,-0.04015 -0.093822,-0.054 -0.140733,-0.08102 -0.010547,-0.02379 -0.012662,-0.05098 -0.031629,-0.07138 -0.023569,-0.02533 -0.1069079,-0.03215 -0.091589,-0.06105 0.029775,-0.05616 0.3515407,0.02578 0.3520438,0.0022 0.00149,-0.06986 -0.1217691,-0.102857 -0.182654,-0.154288 0.020677,-0.02548 0.180966,-0.228596 0.215491,-0.248919 0.087054,-0.05125 0.2381847,-0.04238 0.2913067,-0.11653 0.038572,-0.05383 -0.039284,-0.122046 -0.083898,-0.172992 -0.070796,-0.08084 -0.245413,-0.117988 -0.2562464,-0.21541 -0.010996,-0.09892 0.1361727,-0.168056 0.2042594,-0.252084 -0.043379,-0.09189 -0.1342477,-0.17784 -0.1301373,-0.275664 0.045233,-1.07659699 0.2799412,0.482462 0.2440716,-0.59836299 -0.018731,-0.564378 -0.1825093,0.01175 -0.4988062,-0.467272 -0.037617,-0.05697 0.1098184,-0.09548 0.1647284,-0.143221 -0.00938,-0.0955 -1.7473632,0.0076 -1.7379862,0.103053 z" />
  </g>
</svg>
