<?xml version="1.0" encoding="UTF-8" standalone="no"?>
<!-- Created with Inkscape (http://www.inkscape.org/) -->

<svg
   width="63.999996"
   height="63.999996"
   viewBox="0 0 16.933332 16.933332"
   version="1.1"
   id="svg5"
   inkscape:version="1.2.2 (732a01da63, 2022-12-09)"
   sodipodi:docname="tiles_branch_left.svg"
   inkscape:export-filename="tiles_branch_left.png"
   inkscape:export-xdpi="96"
   inkscape:export-ydpi="96"
   xmlns:inkscape="http://www.inkscape.org/namespaces/inkscape"
   xmlns:sodipodi="http://sodipodi.sourceforge.net/DTD/sodipodi-0.dtd"
   xmlns="http://www.w3.org/2000/svg"
   xmlns:svg="http://www.w3.org/2000/svg">
  <sodipodi:namedview
     id="namedview7"
     pagecolor="#ffffff"
     bordercolor="#000000"
     borderopacity="0.25"
     inkscape:showpageshadow="2"
     inkscape:pageopacity="0.0"
     inkscape:pagecheckerboard="true"
     inkscape:deskcolor="#d1d1d1"
     inkscape:document-units="px"
     showgrid="true"
     showguides="true"
     inkscape:zoom="7.796875"
     inkscape:cx="35.719439"
     inkscape:cy="29.0501"
     inkscape:window-width="958"
     inkscape:window-height="1008"
     inkscape:window-x="946"
     inkscape:window-y="0"
     inkscape:window-maximized="0"
     inkscape:current-layer="layer1"
     inkscape:rotation="90">
    <inkscape:grid
       type="xygrid"
       id="grid88"
       spacingx="2.1166666"
       spacingy="2.1166666"
       empspacing="8" />
  </sodipodi:namedview>
  <defs
     id="defs2" />
  <g
     inkscape:label="Layer 1"
     inkscape:groupmode="layer"
     id="layer1">
    <circle
       id="path5383"
       style="fill:#3b2625;stroke:#000000;stroke-width:0.264583"
       cx="1.055795"
       cy="-6.8552899"
       r="0.0063923118"
       transform="rotate(90)" />
    <rect
       style="fill:#35201f;fill-opacity:1;stroke-width:0.264583;stroke-dasharray:none"
       id="rect7797"
       width="16.933332"
       height="16.933332"
       x="-2.7755576e-17"
       y="-16.933332"
       transform="rotate(90)" />
    <path
       style="fill:#3a2524;fill-opacity:1;stroke-width:0.264583;stroke-dasharray:none"
       id="path8684"
       d="M 9.14496,11.818512 C 9.3424773,11.69877 9.4654718,11.636892 9.6401724,11.459763 10.025568,11.069011 10.342043,10.500471 10.39905,9.9483714 10.420831,9.737428 10.372408,9.5250795 10.359087,9.3134338 10.444131,9.0655478 6.938493,7.862835 6.8534478,8.110721 v 0 c -0.04995,0.175836 -0.131928,0.3455956 -0.149847,0.5275083 -0.02135,0.2167263 0.0057,0.4364844 0.03362,0.6524601 0.07313,0.565331 0.2511351,1.1160996 0.5424974,1.6064386 0.046165,0.07769 0.1058124,0.146535 0.1587185,0.219803 -0.049609,0.12067 1.6569182,0.822251 1.7065273,0.701581 z" />
    <path
       style="fill:#3a2524;fill-opacity:1;stroke-width:0.264583;stroke-dasharray:none"
       id="path9461"
       d="m 0.9173078,2.8451323 c 0.165652,0.1214871 0.375487,0.1388001 0.570258,0.081986 0.148621,-0.043352 0.245922,-0.1174025 0.377208,-0.1985778 0.164432,-0.1593461 0.183626,-0.1482589 0.279549,-0.3463367 0.0052,-0.010673 0.0079,-0.042091 -0.002,-0.035522 -0.05075,0.03377 -0.07839,0.098526 -0.133104,0.1254048 -0.6284,0.3087228 -0.265821,-0.00289 -0.546057,0.2610647 0.01064,0.067259 0.01294,0.1363829 0.03194,0.201776 0.0594,0.2045126 0.184729,0.3879829 0.36831,0.4999373 0.05147,0.031386 0.386242,0.1471007 0.386845,0.1473177 0.809157,-0.1181331 0.552823,0.072869 0.907021,-0.3114686 0.04393,-0.077618 -1.053749,-0.6989168 -1.097682,-0.6212991 v 0 c 0.347077,-0.1182115 0.09004,-0.044467 0.797667,-0.085381 0.05451,0.00881 0.119346,0.059548 0.163534,0.026434 0.04085,-0.030613 0.01239,-0.1024792 0.0054,-0.1530512 -0.03829,-0.2780707 -0.197864,-0.5344546 -0.410164,-0.7141957 -0.08376,-0.070913 -0.184508,-0.1188867 -0.276762,-0.17833 -0.42763,-0.147075 -0.436549,-0.213529 -0.957473,-0.038732 -0.08217,0.027572 -0.12986,0.1148658 -0.192906,0.1743386 -0.01394,0.013154 -0.04941,0.05859 -0.03783,0.043317 0.06945,-0.091552 0.05133,-0.067698 0.146221,-0.1358235 0.01552,-0.00989 0.04294,-0.011616 0.04655,-0.029656 0.0026,-0.013056 -0.02514,-0.010869 -0.03845,-0.010822 -0.02772,9.76e-5 -0.0552,0.00595 -0.08241,0.011247 -0.04405,0.00858 -0.08955,0.013588 -0.131175,0.030359 -0.0135,0.00544 -0.153867,0.099274 -0.174527,0.1129751 -0.08083,0 -0.08083,1.1430368 0,1.143037 z" />
    <path
       style="fill:#3a2524;fill-opacity:1;stroke-width:0.264583;stroke-dasharray:none"
       id="path9463"
       d="m 1.6601278,7.7039723 c -0.01823,0.00669 -0.03884,0.00886 -0.0547,0.020058 -0.135092,0.095367 -0.251323,0.22191 -0.346831,0.3554431 -0.152049,0.2125829 -0.212113,0.3471515 -0.269565,0.603446 -0.01928,0.08602 -0.01996,0.1751764 -0.02994,0.2627649 0.0093,0.060038 -0.0092,0.132021 0.02795,0.1801148 0.02496,0.032338 0.08108,0.017412 0.121774,0.013835 0.09561,-0.0084 0.18768,-0.050515 0.283651,-0.049462 0.1056,0.00116 0.208119,0.036082 0.311831,0.055995 0.121646,0.023357 0.08564,0.05616 0.12779,-0.00833 0.0029,-0.00838 0.0087,-0.034026 0.0087,-0.025157 2.21e-4,0.1043136 0.01291,0.2106544 -0.0081,0.3128378 -0.0048,0.023331 -0.04189,0.022696 -0.06305,0.033618 -0.187685,0.096851 -0.355229,0.2546103 -0.563495,0.2896989 -0.57583702,0.097017 -0.344506,-0.3397155 -0.48994702,0.019553 -0.0273,0.2167166 0.0034,0.3938472 0.0883,0.5937662 0.02984,0.07029 0.06083,0.140592 0.10029802,0.205969 0.06981,0.115649 0.18033,0.236325 0.268317,0.338742 0.08792,0.07602 0.145216,0.134539 0.245169,0.190628 0.02628,0.01475 0.06301,0.05559 0.08384,0.03382 0.01986,-0.02076 -0.04456,-0.04348 -0.04724,-0.07208 -0.02152,-0.229848 -0.0162,-0.461421 -0.02431,-0.692131 -0.04825,0.06345 0.849003,0.745879 0.897259,0.682433 v 0 c 5.82e-4,-0.247609 0.02592,-0.4964 0.0017,-0.742828 -0.0054,-0.05478 -0.06402,-0.09014 -0.08829,-0.139545 -0.0136,-0.02769 -0.01674,-0.147009 -0.0287,-0.1793056 -0.02864,-0.1890134 0.0045,0.05709 -0.0097,-0.170649 -0.0029,-0.046796 -0.01006,-0.093241 -0.01624,-0.1397195 -0.03071,-0.2311739 -0.06831,-0.4161184 -0.2154,-0.6069788 -0.168568,-0.1746165 -0.392479,-0.4368704 -0.652681,-0.4359095 -0.225451,8.202e-4 -0.420988,0.1671373 -0.61401702,0.2836215 -0.0484,0.029207 -0.08249,0.086728 -0.09203,0.1424463 -0.05591,0.3265268 -0.0282,0.418397 0.01475,0.6802022 0.02706,0.066203 0.04216,0.1386778 0.08119,0.1986108 0.16034202,0.2462166 0.34558402,0.3850586 0.65883502,0.4364406 0.28727,0.04712 0.575285,-0.06267 0.815802,-0.201846 0.0936,-0.05416 0.173776,-0.128755 0.260665,-0.1931326 0.209533,-0.2802344 0.285363,-0.3238764 0.370056,-0.6792525 0.03383,-0.1419611 0.05056,-0.2890234 0.04989,-0.4349589 -0.0012,-0.2574083 -0.118819,-0.4886655 -0.124023,-0.7433889 0.02965,-0.076337 -1.04991,-0.4957067 -1.079564,-0.4193701 z" />
    <path
       style="fill:#3a2524;fill-opacity:1;stroke-width:0.264583;stroke-dasharray:none"
       id="path9465"
       d="m 4.8943708,6.0942563 c 0.146872,-0.00865 0.27155,-0.080913 0.391582,-0.1602017 0.181456,-0.119864 0.247432,-0.1576909 0.37749,-0.3358735 0.047158,-0.064609 0.080246,-0.1383964 0.120369,-0.2075945 0.20686,-0.5042513 0.268316,-0.7996973 0.126682,-1.3608539 -0.02435,-0.096488 -0.221706,-0.2895867 -0.276797,-0.3490193 0.117384,0.08952 -0.398683,-0.285615 -0.345043,-0.1692756 0.03856,0.083637 0.197608,0.079238 0.218662,0.1688975 0.87157,0.4865193 -0.157215,0.6342743 -0.116313,0.9510096 0.0078,0.060103 0.101283,0.066574 0.151924,0.099861 0.215573,0.047795 0.286033,0.076484 0.510612,0.072722 0.08218,-0.00138 0.163455,-0.017431 0.245182,-0.026146 0.122369,0.00238 0.155894,-1.728185 0.03353,-1.7305557 v 0 c -0.103544,-0.012988 -0.206286,-0.03763 -0.310634,-0.038965 -0.317119,-0.00406 -0.374599,0.039031 -0.670106,0.1312326 -0.129922,0.072415 -0.605158,0.317882 -0.652623,0.4423799 -0.353964,0.9284435 -0.148646,0.6359763 0.18786,1.0350888 0.03423,0.040597 -0.194221,-0.070608 -0.151789,-0.048354 -0.02158,-0.013417 -0.03954,-0.036928 -0.06473,-0.04025 -0.01652,-0.00217 -0.03836,0.042196 -0.04263,0.02609 -0.02684,-0.1012348 -0.03169,-0.2077103 -0.03329,-0.3124313 -2.64e-4,-0.017566 0.02118,0.028244 0.02919,0.043876 0.0074,0.014481 0.02058,0.030008 0.0168,0.045835 -0.0084,0.035016 -0.0337,0.06363 -0.05055,0.095445 -0.05739,0.1093589 -0.09317,0.1595665 -0.119677,0.2820839 -0.0094,0.04348 -0.0027,0.089415 -0.01204,0.1329116 -0.0068,0.031602 -0.02601,0.05931 -0.03578,0.090119 -0.0074,0.023447 -0.0229,0.1093388 -0.02806,0.1368406 -0.07249,0.035369 0.427712,1.0604958 0.500199,1.0251263 z" />
    <path
       style="fill:#3a2524;fill-opacity:1;stroke-width:0.264583;stroke-dasharray:none"
       id="path9467"
       d="M 8.7630959,1.8535479 C 8.6717019,1.8089669 8.7050369,1.8064779 8.5784429,1.9050169 8.344284,2.0872827 8.1987621,2.3115598 8.1057608,2.5933067 8.0753788,2.6853497 8.0627668,2.7823347 8.0412698,2.8768488 8.0315098,3.141992 8.0023358,3.6362882 8.0845038,3.8275012 8.2539576,4.221835 8.7657782,4.356736 9.1450923,4.3198772 9.2128633,4.3132872 9.2784381,4.2922382 9.3451107,4.2784192 9.475006,4.2274872 9.603425,4.1621673 9.711725,4.0725702 9.732582,4.0553142 9.75241,4.0361072 9.767847,4.0138692 9.775377,4.0030212 9.789262,3.9839902 9.778888,3.9758192 9.760724,3.9615132 9.732923,3.9707792 9.709941,3.9682592 8.7796186,3.7236826 9.630377,4.0176032 9.1516067,3.7168695 c -0.014012,-0.0088 -0.038938,0.00578 -0.044869,0.021233 -0.016558,0.043125 -0.012692,0.091575 -0.016129,0.137642 -0.00992,0.1330854 -0.00909,0.2672215 -0.010541,0.4005091 0.011647,0.088057 0.023297,0.1761138 0.034944,0.2641708 0.054228,0.1009873 1.4823573,-0.665898 1.4281303,-0.766882 v 0 c -0.03231,-0.060627 -0.06462,-0.121253 -0.09693,-0.1818794 -0.03327,-0.054807 -0.063,-0.1119296 -0.09981,-0.1644208 C 10.214053,3.2385518 10.314481,3.4029878 10.204819,3.2788349 10.132222,3.1966459 10.066464,3.0483413 9.9760297,2.9993822 9.8451547,2.9285292 9.6908361,2.9141872 9.5482395,2.8715898 c -0.036605,-1.204e-4 -0.073273,0.0018 -0.109814,-3.704e-4 -0.1766128,-0.010448 0.048802,-0.010181 -0.1304338,-0.018201 -0.098067,-0.00439 -0.1968783,0.01247 -0.2921479,0.033321 -0.031977,0.014174 -0.067738,0.021823 -0.095933,0.042524 -0.016817,0.012348 -0.047442,0.036949 -0.033765,0.052705 0.2244168,0.2585259 0.2497948,-0.078243 0.4375889,0.4071239 0.055209,0.1426898 -0.012226,0.3112299 0.031216,0.4579307 0.010083,0.034046 0.057082,-0.042246 0.085624,-0.063369 C 9.4821027,3.722274 9.5294257,3.6648615 9.565159,3.6003156 9.6582411,3.4321885 9.736263,3.2249546 9.7730993,3.0372605 9.8214877,2.7907027 9.7975765,2.5371803 9.8213587,2.2886168 9.8521227,2.2137863 8.7938598,1.7787174 8.7630959,1.8535479 Z" />
    <path
       style="fill:#3a2524;fill-opacity:1;stroke-width:0.264583;stroke-dasharray:none"
       id="path9469"
       d="m 4.4101938,16.218762 c 0.221795,-0.02311 0.405728,-0.09283 0.55929,-0.261553 0.108543,-0.119259 0.161873,-0.228086 0.244695,-0.368079 0.146315,-0.314883 0.20401,-0.690597 0.0883,-1.024261 -0.02993,-0.0863 -0.108528,-0.222335 -0.165729,-0.293755 -0.03652,-0.0456 -0.08075,-0.08444 -0.121129,-0.126657 -0.116459,-0.106764 -0.161159,-0.163569 -0.303598,-0.233574 -0.05196,-0.02554 -0.107726,-0.04322 -0.163667,-0.05813 -0.03405,-0.0091 -0.130007,-0.03813 -0.104854,-0.01345 0.483832,0.474687 0.210236,-0.298242 0.357467,0.853328 -0.0021,0.02402 -0.02489,0.05672 -0.0063,0.07207 0.01849,0.01525 0.04676,-0.01133 0.06896,-0.02037 0.122466,-0.04983 0.175268,-0.09773 0.256917,-0.195325 0.0041,-0.03519 0.05391,-0.04835 0.06083,-0.08155 0.002,-0.0094 -0.02617,-0.01739 -0.01805,-0.02255 0.207677,-0.131895 0.346963,-0.07496 0.448278,-0.388229 0.04704,-0.145434 0.0033,-0.305682 0.005,-0.458524 0.009,-0.0064 0.02074,-0.01 0.02693,-0.01905 0.008,-0.0118 0.01212,-0.05476 0.01368,-0.04058 0.01112,0.100914 0.08772,0.303638 -0.01381,0.304261 0.0081,-0.01658 0.0171,-0.03276 0.02439,-0.04973 0.01369,-0.03188 0.01822,-0.05986 0.01632,-0.06052 -0.01241,-0.0043 -0.0251,0.0078 -0.03748,0.01224 -0.04731,0.01685 -0.09138,0.05348 -0.141566,0.05155 -0.157949,-0.0061 -0.312152,-0.05001 -0.468228,-0.07501 0.06418,0.04419 0.689043,-0.863403 0.624867,-0.907587 v 0 c -0.165118,-0.0329 -0.327101,-0.09257 -0.495352,-0.09869 -0.07077,-0.0026 -0.135685,0.04244 -0.199378,0.0734 -0.120422,0.05854 -0.207728,0.173677 -0.28056,0.281192 -0.02659,0.04138 -0.05689,0.0806 -0.07978,0.124132 -0.134057,0.254932 -0.168018,0.591109 -0.03338,0.850885 0.0055,-0.132106 -0.03061,-0.27276 0.01646,-0.396317 0.170404,-0.447287 0.188505,-0.122571 0.415572,-0.333886 0.02112,-0.01966 -0.05723,-0.0074 -0.08582,-0.01124 -0.120267,-0.01615 -0.04689,-0.01177 -0.200779,-0.0057 -0.124715,0.026 -0.220977,0.03868 -0.338445,0.09573 -0.257254,0.124945 -0.416476,0.366494 -0.557284,0.604481 0.01239,0.260962 -0.04704,0.53557 0.03716,0.782888 0.042,0.123381 0.208073,0.157054 0.310338,0.237857 0.0068,0.0053 0.01998,0.0124 0.01623,0.02017 -0.0077,0.01593 -0.07715,-0.0541 -0.08213,-0.05706 -0.01314,-0.0011 -0.02754,-0.0092 -0.03941,-0.0034 -0.02041,0.0099 -0.03549,0.08651 -0.03703,0.09326 -0.0042,0.01856 -0.01298,0.07502 -0.0101,0.0562 0.05049,-0.330492 -0.0555,-0.301293 0.09777,-0.320858 0.0076,0.0023 0.02479,-6.62e-4 0.02274,0.007 -0.0051,0.01902 -0.02471,0.03065 -0.03694,0.04608 -0.02105,0.02653 -0.04529,0.05085 -0.06291,0.07978 -0.01686,0.02768 -0.07245,0.150263 -0.0745,0.189846 -9.52e-4,0.01851 0.01346,0.03455 0.02019,0.05182 -0.07336,0.03011 0.352452,1.067593 0.425813,1.037483 z" />
    <path
       style="fill:#3a2524;fill-opacity:1;stroke-width:0.264583;stroke-dasharray:none"
       id="path9471"
       d="m 12.348408,12.806965 c -0.05849,-0.0372 -0.146519,-0.09721 -0.20992,-0.116234 -0.238666,-0.07163 -0.512021,-0.0377 -0.743305,0.04194 -0.103445,0.03562 -0.199595,0.08968 -0.299392,0.134513 -0.0877,0.06303 -0.18099,0.118928 -0.263089,0.189094 -0.191,0.16324 -0.353663,0.370179 -0.447658,0.604616 -0.04068,0.101466 -0.06811,0.243303 -0.09198,0.350575 -0.03128,0.229319 -0.07648,0.476592 0.02887,0.700525 0.06008,0.127703 0.210273,0.191489 0.332343,0.262322 0.05231,0.03035 0.118762,0.02291 0.178222,0.03394 0.0028,5.02e-4 0.01102,0.0017 0.0084,6.88e-4 -0.123357,-0.049 -0.247315,-0.09647 -0.370973,-0.144698 -0.04407,-0.0216 -0.08319,-0.06719 -0.132209,-0.0648 -0.08872,0.0043 -0.08082,0.269094 -0.109985,0.208456 -0.03673,-0.07637 -0.01156,-0.169264 -0.01079,-0.254006 1.56e-4,-0.01735 0.003,0.03602 0.01263,0.05049 0.0079,0.01188 0.02401,0.01534 0.03601,0.02301 0.02668,-0.0088 0.05335,-0.01769 0.08002,-0.02653 0.05531,-0.02561 0.108433,-0.05661 0.16593,-0.07684 0.04371,-0.01538 0.091,-0.01781 0.135878,-0.02936 0.01393,-0.0036 0.03679,-0.0019 0.0401,-0.01593 0.0016,-0.0066 -0.05067,-0.04294 -0.05643,-0.04713 -0.08787,-0.05354 -0.163548,-0.125565 -0.256996,-0.170332 -0.03419,-0.01638 -0.0706,-0.02768 -0.105899,-0.04152 -0.07827,-0.03427 -0.5629426,1.07261 -0.4846741,1.106881 v 0 c 0.00632,0.03124 0.033962,0.04138 0.055029,0.06259 0.128482,0.129384 0.0248,0.03682 0.1700501,0.158498 0.04087,0.028 0.07951,0.05957 0.122611,0.084 0.09794,0.05551 0.247916,0.110423 0.355309,0.121342 0.357319,0.03633 0.577429,-0.05933 0.848738,-0.281742 0.05189,-0.06604 0.11388,-0.12528 0.155683,-0.198132 0.188394,-0.328324 0.198231,-0.825928 -0.0038,-1.15432 -0.04703,-0.07645 -0.105848,-0.144988 -0.158772,-0.217481 -0.136958,-0.06918 -0.271855,-0.142603 -0.410874,-0.207543 -0.01227,-0.0057 -0.05341,-0.0075 -0.04051,-0.0033 0.179203,0.0576 0.307044,0.01619 0.421791,0.278164 0.01977,0.04514 0.03083,0.387729 0.03667,0.558562 0.01067,0.0036 0.02102,0.01312 0.032,0.01069 0.07368,-0.01626 0.141449,-0.08274 0.190137,-0.130685 0.04448,-0.0438 0.08828,-0.08878 0.126081,-0.138452 0.0098,-0.01293 0.118662,-0.203467 0.131507,-0.225846 0.03225,-0.06422 0.04382,-0.09993 0.09198,-0.151793 0.07208,-0.07761 0.178082,-0.09911 0.254704,-0.169415 0.07883,0.01319 0.265392,-1.101623 0.186563,-1.114815 z" />
    <path
       style="fill:#3a2524;fill-opacity:1;stroke-width:0.264583;stroke-dasharray:none"
       id="path9473"
       d="m 13.469447,8.8295937 c 0.0653,-0.066198 0.143511,-0.1217756 0.195912,-0.1985931 0.154062,-0.2258497 0.228961,-0.4909077 0.277384,-0.7559749 0.03613,-0.1977488 0.06742,-0.609546 0.05297,-0.819422 -0.0071,-0.1031949 -0.03539,-0.2038289 -0.05308,-0.3057435 -0.03058,-0.05402 -0.04245,-0.1243192 -0.09173,-0.1620594 -0.04191,-0.032094 -0.103176,-0.029247 -0.155937,-0.027602 -0.445244,0.013883 -0.662895,0.2072814 -0.97026,-0.2659235 -0.08127,-0.1251188 0.02934,-0.5416579 -0.03301,-0.2898126 -0.04058,0.4422608 -0.107404,0.5739582 0.436144,1.0130295 0.122127,0.098653 0.314533,0.024133 0.47088,0.00989 0.129539,-0.011798 0.285552,-0.1044837 0.381234,-0.187992 0.04961,-0.0433 0.08824,-0.097764 0.132365,-0.1466461 0.195936,-0.3045651 0.226688,-0.5031452 0.217583,-0.8997003 -0.0015,-0.065185 -0.04192,-0.123549 -0.05953,-0.186328 -0.02737,-0.097583 -0.0253,-0.1143 -0.03409,-0.2072566 2e-5,-0.026724 -0.0053,-0.054001 6.1e-5,-0.080172 0.01848,-0.089418 0.07554,-0.1671536 0.09909,-0.2553702 0.01648,-0.061719 -0.009,-0.2395741 0.03035,-0.1892255 0.04302,0.055095 -0.0098,0.1394608 -0.01476,0.2091912 0.02865,-0.1042607 -1.445816,-0.509415 -1.474465,-0.4051546 v 0 c -0.0075,0.1994294 -0.02549,0.3987385 -0.02256,0.598288 0.004,0.2728963 0.157999,0.5062125 0.244162,0.7565707 0.01745,0.034158 0.03361,0.069 0.05234,0.1024718 0.0096,0.017068 0.01282,0.048598 0.03238,0.048936 0.0175,2.91e-4 -0.02067,-0.031249 -0.01957,-0.048715 0.03583,-0.5698032 -0.01504,-0.2661928 0.07864,-0.4636876 7.14e-4,-0.00151 -0.0012,-0.0031 -0.0018,-0.00465 -0.01522,0.017452 -0.104525,0.1214194 -0.05256,0.1456232 0.09384,0.04371 0.233159,8.996e-4 0.300127,0.079835 0.428347,0.5049486 0.405552,0.4838817 0.344811,0.8336037 0.02304,-0.049567 0.06001,-0.094805 0.06911,-0.1486995 0.07719,-0.4569354 0.191227,-0.8415663 -0.370792,-1.0964749 -0.250754,-0.1137314 -0.721169,-0.00586 -0.965294,0.1427824 -0.108799,0.066247 -0.196921,0.1616334 -0.295381,0.2424502 -0.08089,0.1186939 -0.182195,0.2257962 -0.242669,0.3560815 -0.279007,0.6011013 -0.252181,1.4005375 0.02951,1.9949067 0.05105,0.1077248 0.130608,0.1994641 0.195912,0.2991964 -0.02209,0.086021 1.19443,0.3983688 1.216516,0.312348 z" />
    <path
       style="fill:#3a2524;fill-opacity:1;stroke-width:0.264583;stroke-dasharray:none"
       id="path9475"
       d="m 13.254125,10.975858 c 0.02684,0.09629 -0.01605,0.191137 -0.01093,0.286603 0.0037,0.06959 0.02208,0.137633 0.03226,0.206579 0.01906,0.129027 0.04526,0.364859 0.08399,0.484543 0.02595,0.08018 0.07063,0.153033 0.105945,0.22955 0.04814,0.05808 0.08958,0.12244 0.14441,0.174249 0.184735,0.17455 0.492187,0.280906 0.732935,0.325248 0.10977,0.02022 0.272124,-0.0076 0.151801,0.01125 -0.05046,5.82e-4 -0.251013,-0.04247 -0.29189,0.06528 -0.03572,0.09415 0.01402,0.273864 0.03223,0.35586 0.0455,0.204866 0.04105,0.176505 0.103172,0.363574 0.02214,0.04444 0.04429,0.08888 0.06643,0.133328 0.04608,0.09695 1.4172,-0.554697 1.371121,-0.65165 v 0 c -0.0066,-0.07894 -0.01322,-0.157878 -0.01983,-0.236818 -0.02397,-0.08999 -0.03986,-0.182521 -0.07191,-0.269955 -0.09398,-0.256396 -0.251973,-0.493151 -0.459286,-0.67132 -0.07635,-0.06562 -0.153392,-0.133975 -0.243814,-0.178229 -0.116888,-0.05721 -0.247123,-0.08168 -0.370685,-0.122517 -0.05653,-0.003 -0.113143,-0.01309 -0.169593,-0.0089 -0.02017,0.0015 0.03896,0.01093 0.05818,0.01721 0.07336,0.02399 0.144707,0.05469 0.219538,0.07359 0.03596,0.0091 0.0815,0.03257 0.110828,0.0099 0.05542,-0.04292 0.0012,-0.280373 -8.62e-4,-0.295431 -0.02652,-0.07019 -0.04537,-0.143766 -0.07955,-0.210558 -0.03282,-0.06415 -0.188888,-0.281663 -0.239501,-0.347628 -0.01655,-0.02157 -0.134888,-0.163123 -0.157927,-0.179768 -0.01049,-0.0076 -0.02587,6.35e-4 -0.0388,9.53e-4 -0.03076,-0.07483 -1.089027,0.360238 -1.058263,0.435069 z" />
    <path
       style="fill:#3a2524;fill-opacity:1;stroke-width:0.264583;stroke-dasharray:none"
       id="path9477"
       d="m 14.190397,3.5709291 c 0.02729,0.027671 0.05101,0.059406 0.08188,0.083013 0.03494,0.026712 0.07625,0.043856 0.113862,0.066649 0.176191,0.106779 0.293247,0.1817125 0.504759,0.2124372 0.0653,0.00949 0.13177,0.00715 0.197655,0.010731 0.08587,-0.012678 0.174158,-0.014126 0.257597,-0.038034 0.298263,-0.085462 0.595663,-0.1897063 0.737099,-0.5099198 0.140941,-0.3190936 0.101816,-0.7616205 0.07811,-1.1102722 -0.08324,-0.3738491 0.0067,-0.00869 -0.09282,-0.3228083 -0.01155,-0.036453 -0.01866,-0.07417 -0.02762,-0.1113471 -0.0069,-0.028447 -0.01292,-0.1139594 -0.01979,-0.085519 -0.06243,0.258235 0.05842,0.3142243 -0.05043,0.2545159 -0.121755,0.087316 0.08213,-0.062797 -0.127997,0.1202045 -0.04851,0.04225 -0.06451,0.047001 -0.111052,0.06757 0.08114,-0.025058 -0.273232,-1.1725576 -0.354373,-1.1474996 v 0 c -0.04771,0.018526 -0.09784,0.031733 -0.143119,0.055579 -0.198801,0.104685 -0.337321,0.247101 -0.433497,0.4502153 -0.0957,0.2875806 -0.04977,0.1064742 -0.07364,0.6033603 -0.01125,0.2341111 -0.0013,0.088181 2.4e-4,0.3313159 0.0019,0.2892187 -0.01528,0.062133 0.01762,0.3610372 0.016,0.057371 0.02837,0.1158812 0.048,0.1721144 0.01054,0.030201 0.02706,0.1143947 0.04217,0.086201 0.05862,-0.1093805 0.0299,-0.2576265 0.103328,-0.357674 0.167182,-0.2277948 0.318231,-0.1185875 0.522355,-0.2274704 0.01885,-0.010053 -0.002,-0.04267 -0.003,-0.064006 -0.0554,-0.032938 -0.107573,-0.072042 -0.166203,-0.098815 C 15.02683,2.2516413 14.753233,2.2223023 14.465883,2.255692 c -0.07541,0.00876 -0.151609,0.019839 -0.223311,0.044792 -0.05832,0.020297 -0.108179,0.059596 -0.162269,0.089395 -0.08351,0.00779 0.02659,1.188835 0.110099,1.1810499 z" />
    <path
       style="fill:#3a2524;fill-opacity:1;stroke-width:0.264583;stroke-dasharray:none"
       id="path9479"
       d="m 1.5658588,13.383582 c -0.519438,0.21281 -0.88315802,0.505159 -1.10823502,1.035884 -0.136953,0.322929 -0.119055,0.426289 -0.141232,0.754408 0.01081,0.08608 0.0124,0.173815 0.03242,0.258224 0.102568,0.432515 0.71996702,0.67611 1.00655502,0.81636 0.0546,0.02672 0.188387,-0.181531 0.202583,-0.227557 0.02053,-0.06655 0.02376,-0.137236 0.03565,-0.205854 -0.06486,-0.195081 -0.05534,-0.433987 -0.194571,-0.585242 -0.240494,-0.261269 -0.518332,-0.167518 -0.78489902,-0.122088 -0.08006,0.03755 0.45098702,1.169796 0.53104802,1.132245 v 0 c -0.175005,-0.037 -0.47064302,-0.08978 -0.56834302,-0.209605 -0.115156,-0.141231 -0.101147,-0.350139 -0.15172,-0.52521 0.08304,-0.196084 0.0025,-0.0551 0.0491,-0.03556 0.02877,0.01206 0.06777,-0.01798 0.0936,-4.77e-4 0.31496402,0.213462 0.60629802,0.459957 0.91419502,0.683491 0.03045,0.02211 0.06221,0.05201 0.09984,0.0527 0.05262,9.79e-4 0.100247,-0.03206 0.150371,-0.04809 0.0675,-0.05095 0.143344,-0.0924 0.202492,-0.152844 0.296987,-0.303482 0.461627,-0.709915 0.517209,-1.126597 0.01669,-0.125107 0.01218,-0.252686 0.0039,-0.378627 -0.0047,-0.07167 -0.02856,-0.140786 -0.04284,-0.211179 0.06395,-0.0599 -0.783117,-0.964277 -0.847067,-0.90438 z" />
    <path
       style="fill:#3a2524;fill-opacity:1;stroke-width:0.264583;stroke-dasharray:none"
       id="path9481"
       d="m 4.7635768,10.27556 c 0.05828,-0.01321 0.119849,-0.01625 0.174852,-0.03962 0.351937,-0.14953 0.59711,-0.4544455 0.755628,-0.7925404 0.03361,-0.071688 0.05853,-0.1471369 0.0878,-0.2207056 0.02854,-0.080438 0.0631,-0.1589902 0.08562,-0.2413156 0.06724,-0.2457175 0.08337,-0.5798433 0.04266,-0.810338 C 5.8845768,8.0263188 5.7027118,7.8476796 5.5893338,7.768493 5.5309638,7.727725 5.4621598,7.704438 5.3985728,7.672411 5.3198928,7.642786 4.9009268,8.7554816 4.9796058,8.785107 v 0 c -0.03085,-0.017066 -0.06398,-0.030536 -0.09255,-0.051194 -0.04702,-0.034002 -0.172961,-0.1450176 -0.182562,-0.2084422 -0.02012,-0.1328692 0.0071,-0.2688405 0.0024,-0.4031427 -0.0011,-0.030956 -0.209443,0.061481 -0.07736,0.051474 -0.1279,0.1153001 -0.191348,0.1629752 -0.300948,0.3088429 -0.09089,0.1209616 -0.190098,0.3020181 -0.238507,0.4444931 -0.02745,0.080798 -0.05841,0.2942629 -0.07305,0.3859686 -0.06805,0.052789 0.678497,1.0152393 0.746553,0.9624503 z" />
    <path
       style="fill:#3a2524;fill-opacity:1;stroke-width:0.264583;stroke-dasharray:none"
       id="path9483"
       d="m 16.063909,7.4817641 c -0.03171,0.011967 -0.06587,0.018791 -0.09512,0.035901 -0.254421,0.1488123 -0.486114,0.4917768 -0.586043,0.7607549 -0.03151,0.084822 -0.04201,0.1760313 -0.06301,0.2640468 -0.0024,0.073202 -0.01238,0.1465365 -0.0073,0.2196049 0.01533,0.2218505 0.07605,0.136497 0.21162,0.06988 0.02722,-0.013377 0.07195,-0.00644 0.08436,-0.034118 0.0091,-0.020405 -0.04462,-0.00317 -0.06692,-0.00476 -0.266198,0.043177 -0.458901,0.1156425 -0.627659,0.3364053 -0.05975,0.060652 -0.03351,0.035596 -0.07753,0.076398 -0.05778,0.042939 0.549463,0.860075 0.607244,0.817136 v 0 c 0.06217,-0.05994 0.03737,-0.03358 0.07652,-0.07705 0.05464,-0.02475 0.104903,-0.05505 0.154493,-0.09098 0.02843,-0.0092 0.05655,-0.01939 0.0853,-0.02752 0.07036,-0.01989 0.14463,-0.027966 0.211938,-0.056523 0.214311,-0.090926 0.226733,-0.1307078 0.386183,-0.271268 0.167223,-0.1474131 0.06887,-0.040133 0.214425,-0.2243145 0.0298,-0.059808 0.06612,-0.1167887 0.08939,-0.1794241 0.02531,-0.068125 0.03626,-0.1407654 0.05562,-0.2108168 0.07261,-0.2627548 0.154187,-0.5236361 0.156407,-0.7993769 0.04271,-0.057266 -0.767162,-0.6612472 -0.80987,-0.6039805 z" />
    <path
       style="fill:#21141d;fill-opacity:1;stroke-width:0.264583;stroke-dasharray:none"
       id="path10215"
       d="m 6.5932698,12.914353 c -0.05971,0.152416 -7.67e-4,0.28252 0.03961,0.431668 0.04537,0.167531 0.05439,0.236185 0.134771,0.396756 0.03045,0.06082 0.07114,0.115949 0.106717,0.173924 0.1120007,0.145682 0.2504082,0.244608 0.4188472,0.313529 0.1250733,0.05118 0.1882159,0.07564 0.3229433,0.07865 0.017515,3.97e-4 0.033579,-0.01001 0.050368,-0.01502 -0.080657,-0.265139 -0.1371762,-0.538858 -0.2419705,-0.795416 -0.00971,-0.02378 -0.046988,0.02125 -0.068541,0.03522 -0.1496663,0.09704 -0.22714,0.222836 -0.3136161,0.373716 -0.041317,0.09876 -0.066167,0.146056 -0.089375,0.252678 -0.020714,0.09517 -0.01248,0.194762 -0.015126,0.2912 -0.00327,0.119129 -0.00781,0.238219 -0.011721,0.357329 0.028189,0.124785 0.047408,0.250116 0.085845,0.372524 0.034581,0.06375 0.9361805,-0.425296 0.9015998,-0.489049 v 0 c -0.012094,-0.04142 -0.020516,-0.07776 -0.039247,-0.116454 -0.00354,-0.0073 -0.00996,-0.01288 -0.014129,-0.01985 -0.00449,-0.0075 -0.011584,-0.0322 -0.011774,-0.02346 -2.45e-4,0.01129 0.00773,0.02121 0.011594,0.03182 -0.00403,0.0967 -0.013854,0.193327 -0.012097,0.290092 3.969e-4,0.02164 0.041196,-0.01841 0.054266,-0.03566 0.058931,-0.07779 0.088102,-0.169467 0.122636,-0.259488 0.023029,-0.09173 0.061908,-0.190293 0.044864,-0.286527 -0.0031,-0.01749 -0.012917,-0.0331 -0.019376,-0.04965 -0.00751,-0.0092 -0.019219,-0.01628 -0.022516,-0.02772 -0.078297,-0.271668 -0.1476303,-0.54584 -0.2214457,-0.81876 0.053865,-0.0797 0.1157264,0.01708 0.1558473,-0.02583 0.04356,-0.04659 -0.046305,-0.252045 -0.060757,-0.289896 -0.027314,-0.04987 -0.050999,-0.101901 -0.081943,-0.1496 -0.057783,-0.08907 -0.1217271,-0.149911 -0.186949,-0.232064 -0.020704,-0.02608 -0.035068,-0.05731 -0.058501,-0.08097 -0.030089,-0.03037 -0.084121,-0.02973 -0.1068009,-0.07102 -0.027388,-0.0618 -0.9014154,0.325519 -0.8740274,0.387322 z" />
    <path
       style="fill:#21141d;fill-opacity:1;stroke-width:0.264583;stroke-dasharray:none"
       id="path10266"
       d="M 7.2452652,7.3917883 C 7.32343,7.3574769 7.40706,7.3335961 7.479759,7.2888543 7.8445996,7.0643172 8.1161206,6.7141698 8.2482982,6.3065823 8.3596317,5.9632701 8.3371784,5.7658259 8.3424986,5.41451 8.20492,4.7239681 8.3554235,5.3439763 8.1555977,4.7892522 8.102525,4.6419198 8.0614651,4.4905326 8.0143989,4.3411729 7.9893296,4.2690833 6.9698276,4.6236 6.9948955,4.69569 v 0 C 6.9531605,4.599898 6.9565205,4.4664399 6.8696908,4.4083152 6.7470868,4.3262422 6.6459038,4.878565 6.6085468,4.7656858 c -0.03157,0.1185098 -0.07238,0.2349357 -0.09471,0.3555293 -0.05428,0.2932393 -0.07673,0.5692976 -0.0092,0.8640929 0.02836,0.1238343 0.128896,0.3728763 0.254518,0.4681427 0.03165,0.024 0.07634,0.021939 0.114517,0.03291 -0.06402,0.026276 0.3075894,0.931704 0.3716127,0.9054272 z" />
    <path
       style="fill:#21141d;fill-opacity:1;stroke-width:0.264583;stroke-dasharray:none"
       id="path10268"
       d="m 2.6094458,4.6395174 c -0.397818,-0.00713 -0.78841,0.1783672 -1.089359,0.4297248 -0.08497,0.070967 -0.156175,0.1569503 -0.234262,0.2354255 -0.102427,0.1478264 -0.200671,0.2612041 -0.255159,0.4333774 -0.01275,0.040272 -0.007,0.084191 -0.01048,0.126287 -0.07363,0.043026 0.534856,1.0842947 0.608485,1.0412682 v 0 c 0.068221,-0.010149 0.138001,-0.01275 0.204667,-0.030445 0.214809,-0.057012 0.268155,-0.1121082 0.462513,-0.2327444 0.078644,-0.073468 0.164245,-0.1401324 0.23593,-0.2204046 0.239928,-0.2686706 0.356611,-0.5923571 0.501423,-0.9140221 0.06141,-0.029964 -0.362349,-0.8984314 -0.423759,-0.868467 z" />
    <path
       style="fill:#21141d;fill-opacity:1;stroke-width:0.264583;stroke-dasharray:none"
       id="path10270"
       d="m 3.8031838,10.060088 c -0.356098,0.02413 -0.626216,0.200745 -0.882896,0.439498 -0.06799,0.06325 -0.128734,0.133872 -0.193102,0.200808 -0.066,0.07214 -0.136923,0.140066 -0.197986,0.21643 -0.157355,0.196783 -0.331525,0.483117 -0.43154,0.715993 -0.07558,0.175974 -0.08472,0.251183 -0.12619,0.432359 -0.0495,0.07475 1.007649,0.774815 1.057151,0.700063 v 0 c 0.06708,-0.07632 0.113154,-0.126042 0.175761,-0.211402 0.03992,-0.05442 0.07601,-0.111554 0.114337,-0.167108 0.12591,-0.182497 0.255082,-0.362685 0.38154,-0.5448 0.28564,-0.347686 0.01397,-0.01005 0.274026,-0.353069 0.166858,-0.220089 0.120776,-0.127916 0.24496,-0.363262 0.02563,-0.04857 0.05558,-0.09585 0.07157,-0.148383 0.0096,-0.03147 0.0024,-0.06575 0.0036,-0.09862 0.05788,-0.03474 -0.433363,-0.853244 -0.49124,-0.818508 z" />
    <path
       style="fill:#21141d;fill-opacity:1;stroke-width:0.264583;stroke-dasharray:none"
       id="path10272"
       d="m 5.2325638,2.7453858 c 0.04349,-0.028327 0.09168,-0.050491 0.130466,-0.08498 0.286673,-0.2549278 0.453042,-0.6330472 0.505972,-1.0085084 0.0096,-0.06786 0.0036,-0.1370139 0.0054,-0.2055209 -0.04922,-0.1683012 -0.06415,-0.089966 -0.166745,-0.019076 0.08863,-8.943e-4 0.07598,-1.25432933 -0.01265,-1.25343491 v 0 c -0.115377,0.0106026 -0.234427,0.001045 -0.346131,0.031808 -0.235876,0.0649613 -0.434485,0.20407502 -0.638279,0.33003415 -0.07536,0.0757503 -0.162741,0.1411993 -0.226087,0.22725097 -0.221016,0.30023669 -0.303529,0.67623489 -0.292387,1.04286989 0.0032,0.104471 0.02147,0.2081985 0.04121,0.3108382 0.01387,0.072138 0.03957,0.1414888 0.05935,0.2122332 -0.02945,0.066457 0.91039,0.482943 0.93984,0.4164863 z" />
    <path
       style="fill:#21141d;fill-opacity:1;stroke-width:0.264583;stroke-dasharray:none"
       id="path10274"
       d="m 9.7047091,6.1390833 c -0.026947,0.049538 -0.065185,0.094439 -0.080841,0.1486154 -0.079383,0.2746857 -0.067964,0.4359887 -0.021677,0.7224435 0.043987,0.2722227 0.1019666,0.4739709 0.2309436,0.715101 0.04388,0.082044 0.104154,0.1542079 0.156232,0.2313117 -0.05588,-0.075722 0.2193073,0.2272824 0.2640673,0.1385311 0.04987,-0.098876 -0.01369,-0.2406121 0.05474,-0.3276767 0.206802,-0.2631101 0.4595,-0.3985498 0.740379,-0.2363573 -0.04934,-0.047144 -0.716052,0.6506128 -0.666713,0.6977565 v 0 c 0.03163,0.027931 0.05592,0.067598 0.09488,0.083794 0.316497,0.1315571 0.511564,0.1254924 0.775106,-0.2271758 0.08468,-0.1133215 0.03331,-0.2813738 0.06284,-0.4197244 0.03388,-0.1587039 0.140823,-0.2978629 0.129303,-0.4693526 -0.0044,-0.1237678 0.0044,-0.2487146 -0.01322,-0.3713032 C 11.384648,6.5040409 11.300681,6.2641635 11.12236,5.9905696 11.045037,5.8719346 10.956239,5.7582773 10.850379,5.6642198 10.659067,5.4942369 10.515739,5.459078 10.295476,5.3774697 10.241622,5.3356962 9.6508534,6.0973099 9.7047075,6.1390833 Z" />
    <path
       style="fill:#21141d;fill-opacity:1;stroke-width:0.264583;stroke-dasharray:none"
       id="path10276"
       d="m 11.618764,3.0909522 c 0.04482,0.00857 0.08887,0.023564 0.134452,0.025699 0.306031,0.014333 0.663265,-0.1383141 0.910622,-0.3077411 0.07418,-0.050808 0.140502,-0.1122225 0.210753,-0.1683336 0.153074,-0.1458947 0.237042,-0.2913682 0.308977,-0.4856697 0.01887,-0.050958 0.04497,-0.1002878 0.05368,-0.1539229 0.02774,-0.1707649 0.03677,-0.3440471 0.05516,-0.5160707 -0.02301,-0.062079 -0.900938,0.2633736 -0.877925,0.3254523 v 0 c 0.02016,-0.1577251 0.04313,-0.3151163 0.06048,-0.4731752 0.0023,-0.02147 0.01629,-0.052432 -0.0014,-0.064781 -0.02342,-0.016321 -0.0577,-0.00212 -0.08554,0.00418 -0.123671,0.027971 -0.175565,0.070544 -0.289252,0.1352079 -0.25726,0.2020503 -0.503479,0.4244902 -0.684392,0.6998307 -0.06925,0.014455 0.135172,0.9937806 0.204421,0.9793259 z" />
    <path
       style="fill:#21141d;fill-opacity:1;stroke-width:0.264583;stroke-dasharray:none"
       id="path10278"
       d="m 15.592677,4.5531682 c -0.44899,0.123788 -0.777292,0.3424859 -1.078273,0.7044484 -0.107889,0.1297487 -0.211565,0.2648085 -0.294429,0.4118059 -0.08431,0.1495679 -0.136175,0.3152357 -0.204262,0.4728533 -0.02975,0.1568656 -0.0595,0.3137313 -0.08924,0.4705969 -0.06363,0.1155279 1.570181,1.0154179 1.633813,0.89989 v 0 c 0.05019,-0.1014251 0.100384,-0.2028502 0.150576,-0.3042751 0.04314,-0.1298339 0.09341,-0.2575139 0.12942,-0.3895016 0.01701,-0.062328 0.149906,-0.6964822 0.165168,-0.7828311 6.02e-4,-0.00341 0.07142,-0.4404614 0.0539,-0.4992349 C 16.04763,5.497572 15.99598,5.484704 15.96429,5.458595 16.02831,5.432318 15.6567,4.5268907 15.592677,4.5531682 Z" />
    <path
       style="fill:#21141d;fill-opacity:1;stroke-width:0.264583;stroke-dasharray:none"
       id="path10280"
       d="m 13.222913,14.166065 c -0.01098,0.02688 -0.02866,0.05191 -0.03293,0.08063 -0.01605,0.10793 0.01896,0.235468 0.05425,0.335943 0.01648,0.04691 0.04969,0.08935 0.05451,0.138839 0.0068,0.07004 -0.01368,0.140077 -0.02051,0.210116 0.04057,0.479574 0.18616,0.873147 0.60078,1.148714 0.03837,0.0255 0.08209,0.04185 0.123127,0.06277 0.03582,0.01557 0.0694,0.03787 0.107447,0.0467 0.03364,0.0078 0.0137,-0.03725 0.01065,-0.05811 -0.019,-0.129959 -0.03634,-0.260155 -0.05451,-0.390232 -0.02025,0.06316 0.872951,0.349579 0.893204,0.28642 v 0 c -0.01713,-0.144916 -0.02869,-0.290599 -0.05138,-0.434748 -0.0107,-0.06798 -0.05613,-0.127304 -0.06711,-0.195241 -0.0041,-0.02555 0.0043,-0.05159 0.0064,-0.07739 -0.02188,-0.159765 -0.03672,-0.321775 -0.09126,-0.474963 -0.07817,-0.219571 -0.202948,-0.413001 -0.359816,-0.584402 -0.04581,-0.0387 -0.09666,-0.07212 -0.137427,-0.116093 -0.0089,-0.0096 -0.01976,-0.106506 -0.02141,-0.115851 -0.01518,-0.08589 -0.03618,-0.15374 -0.09691,-0.219352 -0.02519,-0.06485 -0.94227,0.291403 -0.917079,0.356251 z" />
    <path
       style="fill:#967952;stroke-width:0.264583"
       id="path2356"
       d="m -0.05514422,8.4463471 c 0.284238,-0.275676 0.291907,0.3625125 0.450656,0.2832674 0.69887602,-0.3488669 -0.183292,-0.4874977 -0.191998,-0.4994174 -0.07804,-0.1068518 -0.04541,-0.5189112 -0.07467,-0.3898689 -0.05152,0.2272083 0.0031,0.4659416 0.0046,0.6989125 0.127605,0.2087499 0.270312,-0.048121 0.395205,-0.00617 0.07278,0.024448 0.153673,0.2557989 0.144178,0.179614 -0.01703,-0.1366256 -0.07647,-0.2748336 -0.168778,-0.3769916 -0.02977,-0.03295 -0.149369,0.023127 -0.120482,0.056855 0.07068,0.08253 0.194983,0.095975 0.292474,0.1439622 0.0098,0.048592 0.01689,0.1937453 0.02937,0.1457743 0.03584,-0.1377678 -0.01291,-0.2940503 0.04323,-0.424865 0.01758,-0.040975 0.09861,0.1310915 0.10192702,0.086626 0.0071,-0.095438 -0.04773,-0.1864709 -0.08799,-0.2732955 -0.01711,-0.036895 -0.05579,-0.1231085 -0.08102,-0.091216 -0.02945,0.037225 0.03118,0.089672 0.04677,0.1345073 0.044,0.052094 0.20846402,0.2570845 0.25791102,0.2531549 0.06441,-0.00512 0.07304,-0.1090615 0.09113,-0.1710936 0.04205,-0.1441807 0.16151,-0.3111791 0.08765,-0.4419515 -0.04961,-0.087844 -0.2208809,0.00879 -0.2917179,0.080625 -0.09395,0.095271 -0.10235702,0.2472571 -0.15353602,0.3708855 0.02741,0.064543 0.11636702,0.3104038 0.19361302,0.3482826 0.0525,0.025744 0.1159309,-0.015645 0.1741739,-0.020799 0.0379,-0.00335 0.106555,0.032591 0.114056,-0.00471 0.03835,-0.1907101 -0.06356,-0.2508977 -0.168209,-0.3494169 0.05423,-0.00611 0.110408,-0.033973 0.162686,-0.01832 0.133257,0.039903 0.07233,0.1360911 0.03838,0.2072323 -0.03344,0.070069 -0.09456,0.1293143 -0.109717,0.2054603 -0.0048,0.024141 0.03767,0.032978 0.06035,0.042556 0.05649,0.023865 0.116645,0.037901 0.174967,0.056852 0.03917,-0.041041 0.07293,-0.088046 0.117521,-0.1231242 0.0091,-0.00712 0.02912,0.013912 0.03435,0.00366 0.0629,-0.1232271 0.171892,-0.5210125 0.159386,-0.3832283 -0.0037,0.040731 -0.163075,0.8534365 -0.313101,0.2713939 -0.0183,-0.071 0.09251,0.1137817 0.13876,0.1706727 -0.03873,-0.010081 -0.07746,-0.020161 -0.116186,-0.030243 0.09819,0.069912 0.183026,0.1640398 0.294562,0.2097363 0.0361,0.01479 0.08309,-0.014848 0.108148,-0.044746 0.03356,-0.040033 0.09135,-0.1829369 0.05298,-0.1474822 -0.149669,0.1383255 -0.359257,0.6152441 -0.05254,-0.020923 0.07965,-0.00858 0.159578,-0.014941 0.238961,-0.025741 0.130548,-0.017759 0.331262,-0.027642 -0.001,-0.2344422 -0.03641,-0.022662 0.04462,0.09963 0.01251,0.1280602 -0.09651,0.085437 -0.436551,0.2623656 -0.347867,0.1688343 0.132725,-0.1399794 0.323908,-0.2095812 0.485862,-0.3143718 -0.921761,-0.1668434 -0.02995,0.00175 0.174076,6.35e-4 0.02492,-1.371e-4 -0.01235,-0.050447 -0.0059,-0.074513 0.0142,-0.052955 0.103942,-0.098692 0.07019,-0.1232519 -0.08194,-0.059627 -0.186095,-0.080282 -0.279143,-0.1204227 -0.187429,0.016973 -0.188168,-0.00297 0.123385,0.3870362 0.0438,0.054829 0.122456,0.071553 0.189942,0.090794 0.07395,0.021082 0.228287,0.00405 0.197463,-0.078826 -0.01906,-0.051245 -0.08763,-0.065413 -0.13144,-0.098119 -0.0082,0.022871 -0.01201,0.04787 -0.02468,0.068611 -0.01558,0.025501 -0.04458,0.041433 -0.05865,0.067798 -0.07171,0.1344371 -0.378726,0.65152 0.261947,0.5402847 0.111313,-0.019325 0.04048,-0.2368494 -0.0081,-0.3388368 -0.02087,-0.043787 -0.07046,0.066684 -0.105689,0.1000257 0.02205,-0.028932 0.03363,-0.070494 0.06615,-0.086795 0.05175,-0.02594 0.07687,0.096702 0.15217,0.1349441 0.02388,0.012126 0.05176,-0.01379 0.07784,-0.019878 0.107006,-0.024979 0.0517,-0.020542 0.159834,0.1041514 0.218362,0.1568318 0.230553,-0.4301239 0.351618,-0.3258325 0.129313,0.1113962 0.0113,0.3712059 0.127957,0.4957887 0.1107,0.1182158 -0.03272,-0.3301392 -0.107408,-0.4738447 -0.06774,-0.1303335 -0.134331,0.3670181 -0.06764,-0.014388 0.326422,0.5924092 0.09043,0.3652303 0.270481,0.1094329 0.04194,-0.017449 0.08388,-0.034897 0.125822,-0.052345 -0.0088,-0.00352 -0.02603,-0.00108 -0.02648,-0.010568 -0.0082,-0.1718598 0.06153,-0.3550261 0.0012,-0.51617 -0.02844,-0.076002 -0.07591,0.1434502 -0.113868,0.2151753 0.0022,0.020677 -0.01322,0.055805 0.0066,0.062034 0.26242,0.082381 0.03328,-0.079004 0.240485,-0.031932 0.01257,0.00285 -0.0099,0.029302 -0.0011,0.038656 0.01761,0.018576 0.08657,0.052062 0.06924,0.033225 -0.04087,-0.044409 -0.09467,-0.074871 -0.142007,-0.1123066 0.04189,0.074499 0.109587,0.3950652 0.294396,0.2713534 0.04042,-0.027056 0.102184,-0.089892 0.07118,-0.1273704 -0.06131,-0.07413 -0.176729,-0.1425511 -0.267051,-0.1094364 -0.0694,0.025445 0.11605,0.092397 0.166709,0.1462244 0.005,0.00528 -0.01255,0.00727 -0.01882,0.010911 0.121061,0.046908 0.05745,0.2252236 0.145137,0.2867938 0.03609,0.025344 0.0538,-0.078872 0.09627,-0.090768 0.03076,-0.00861 0.05744,0.050461 0.08738,0.039327 0.03399,-0.012639 0.02037,-0.093742 0.05662,-0.092885 0.08169,0.00193 0.149359,0.066348 0.224039,0.099521 -0.03905,0.060721 -0.05173,0.1516557 -0.117163,0.1821624 -0.03726,0.01737 -0.01894,-0.082813 -0.0099,-0.1229151 0.0066,-0.029462 0.03439,-0.049778 0.05395,-0.072782 0.01174,-0.013806 0.03778,-0.019206 0.03962,-0.037235 0.0065,-0.063859 -0.07453,-0.2188017 -0.01625,-0.1918841 0.139045,0.064227 0.212188,0.2209308 0.318282,0.3313962 -0.04586,-0.083249 -0.04725,-0.2792997 -0.137579,-0.2497465 -0.09171,0.030002 -0.03776,0.210068 0.01785,0.2889165 0.02934,0.041593 0.08638,-0.058172 0.115418,-0.099976 0.04244,-0.061094 0.06449,-0.1340959 0.09445,-0.2021801 0.02947,-0.066953 0.01455,-0.179188 0.08378,-0.2028279 0.06863,-0.023434 0.125066,0.073436 0.187599,0.1101542 -0.104269,-0.02078 -0.206603,-0.067283 -0.312808,-0.06234 -0.03318,0.00153 0.06524,0.040612 0.06697,0.073781 0.0049,0.09435 -0.141509,0.262495 -0.04853,0.2792513 0.138705,0.024995 0.250672,-0.1331892 0.359049,-0.2232914 0.04637,-0.038551 0.113264,-0.096641 0.09483,-0.1540584 -0.03037,-0.094628 -0.141116,-0.1399781 -0.211674,-0.2099673 -0.358847,-0.2837262 -0.242616,0.3697603 -0.07853,0.3934391 0.07909,0.011414 0.141206,-0.104831 0.220417,-0.094277 0.242977,0.032373 0.326956,0.4334401 0.123137,-0.1271019 -0.04356,0.00206 -0.193539,0.00568 -0.194203,0.037868 -0.0015,0.074233 0.08109,0.1264592 0.136074,0.1763514 0.01176,0.010671 -0.0086,-0.052885 0.0062,-0.047234 0.07741,0.029469 0.129356,0.1396005 0.211644,0.13018 0.05777,-0.00661 0.04338,-0.1079066 0.06508,-0.1618601 -0.03876,-0.1743639 0.02037,-0.057982 -0.146025,-0.1188136 -0.04422,-0.016166 -0.161121,-0.046946 -0.121391,-0.072209 0.04893,-0.031113 0.125557,0.00343 0.168787,0.042071 0.100293,0.089649 0.10699,0.3089844 0.240676,0.3239376 0.0996,0.011139 -0.01596,-0.1997975 -0.02395,-0.2996959 0.119381,-0.039554 -0.04159,-0.081515 -0.05418,-0.058192 -0.02893,0.053595 0.04216,0.4929339 0.155537,0.4287589 0.328464,-0.1859174 -0.113983,-0.5688031 0.183656,-0.2705584 0.128841,0.1529448 -0.09404,0.029054 -0.107144,-0.0042 -0.01364,-0.034604 0.06898,-0.045189 0.07598,-0.081721 0.0048,-0.024903 -0.05357,0.014301 -0.06717,0.035701 -0.01078,0.01696 8.46e-4,0.040624 0.0064,0.059938 0.01082,0.037715 0.0282,0.07323 0.0423,0.1098444 -0.108713,0.1314067 -0.32077,0.2237574 -0.32614,0.3942199 -0.0033,0.1045615 0.211738,0.019624 0.313823,-0.00324 0.09352,-0.020942 0.191033,-0.057371 0.258938,-0.1250156 0.04622,-0.046044 0.03542,-0.1256073 0.05509,-0.1878124 0.0808,-0.2554811 0.06314,-0.099268 0.05562,-0.3684061 -0.02288,-0.01983 -0.303324,0.3037806 -0.280441,0.3236108 v 0 c -0.01916,0.014806 -0.06948,0.06544 -0.05747,0.04442 0.03087,-0.054007 0.05454,-0.1574654 0.11575,-0.1463865 0.06743,0.012205 0.0286,0.2104903 0.09178,0.1839478 0.08302,-0.034882 0.04679,-0.1745932 0.08261,-0.2572152 0.0042,-0.00959 0.03889,-0.011668 0.03099,-0.00482 -0.03749,0.032497 -0.08179,0.056197 -0.12268,0.084295 -0.01397,0.013536 -0.05964,0.032592 -0.04192,0.040606 0.06546,0.029591 0.140999,0.044409 0.212391,0.036462 0.03768,-0.00419 0.09391,-0.032405 0.0896,-0.070075 -0.01587,-0.1386813 -0.03924,-0.2999766 -0.142676,-0.393705 -0.237608,-0.2153028 -0.289338,0.041096 -0.32831,0.143382 -0.02816,0.00148 -0.05661,2.518e-4 -0.08449,0.00447 -0.01686,0.00254 -0.05946,0.028917 -0.0487,0.01569 0.04039,-0.049645 0.165979,-0.1888951 0.141497,-0.1297657 -0.18449,0.4455993 -0.164397,0.1395402 -0.277688,0.00697 -0.03523,-0.041225 -0.09317,-0.055511 -0.139755,-0.083267 -0.157952,0.039172 -0.09845,-0.0018 -0.0343,0.2910612 0.01004,0.045824 0.01089,0.1040794 0.0485,0.1321097 0.110227,0.082139 0.390202,0.3164829 0.370854,0.1803855 -0.156871,-1.1034533 -0.366191,-0.5954715 -0.458694,-0.4022397 -0.06883,-0.016447 -0.371846,-0.1449147 -0.151692,0.1675778 0.06364,0.090338 0.372978,0.2299586 0.268186,0.1948847 -0.137999,-0.046188 -0.292731,-0.1070229 -0.37142,-0.2294372 -0.05425,-0.084392 0.190258,0.063732 0.285387,0.095597 -0.04447,-0.056378 -0.08894,-0.1127553 -0.133408,-0.169133 -0.05163,-0.052476 -0.08678,-0.1294956 -0.154886,-0.1574266 -0.06755,-0.027699 -0.0041,0.1356008 -0.0022,0.134891 0.02866,-0.010885 0.07983,-0.062508 0.05217,-0.075756 -0.381871,-0.1829503 0.09319,0.2813199 -0.210922,-0.05027 -0.05582,-0.010639 -0.110635,-0.032162 -0.167459,-0.031919 -0.03025,1.296e-4 -0.114172,0.039109 -0.08454,0.032998 0.125302,-0.025844 0.254154,-0.1409327 0.372531,-0.0924 0.07014,0.028757 -0.02611,0.2120204 -0.101444,0.203541 -0.07863,-0.00885 -0.05265,-0.1492332 -0.07898,-0.2238499 -0.141307,0.05908 -0.282614,0.1181597 -0.423921,0.1772396 -0.09126,0.396249 -0.140453,0.2198116 0.28874,0.286765 0.01883,0.00294 -0.03752,0.00881 -0.05436,0.01774 -0.02583,0.013708 -0.05856,0.075288 -0.0724,0.04953 -0.227365,-0.4230499 0.0021,-0.5916752 -0.287862,-0.2454039 0.01948,0.053788 0.03572,0.1088644 0.05845,0.161363 0.0041,0.00955 0.02442,0.012909 0.0213,0.022839 -0.06307,0.2004896 -0.131693,-0.1293894 -0.191265,-0.047654 -0.0269,0.036907 0.01974,0.089181 0.02961,0.1337712 -0.01753,-0.051127 -0.002,-0.1345094 -0.0526,-0.1533821 -0.04017,-0.014967 -0.01217,0.1700824 -0.01691,0.1274802 -0.01127,-0.1011521 0.03515,-0.2109176 -0.0029,-0.3053188 -0.03298,-0.081848 -0.124418,-0.2364762 -0.193108,-0.1810825 -0.118546,0.095599 -0.1137,0.4499086 -0.11831,0.6183937 0.01503,0.014983 0.328065,0.4157853 0.316216,-0.042733 -0.0039,-0.1491855 -0.109194,-0.2815381 -0.19772,-0.4016811 -0.03089,-0.041926 -0.24942,-0.040962 -0.258436,0.028042 -0.02097,0.1604671 0.04615,0.3203554 0.06922,0.480533 0.0012,-0.1106561 -6.08e-4,-0.2213811 0.0035,-0.3319682 0.0046,-0.125391 0.09724,-0.2749116 0.02257,-0.3757506 -0.04807,-0.064915 -0.123556,0.1341009 -0.204247,0.1304036 -0.09166,-0.0042 -0.140386,-0.1670865 -0.2306,-0.1503283 -0.296283,0.055037 0.0812,1.1241696 -0.147257,0.8919813 0.02868,-0.053221 0.253695,-0.4613466 0.264895,-0.5201351 0.0065,-0.033928 -0.03537,-0.060733 -0.06133,-0.083514 -0.04665,-0.04094 -0.09168,-0.1084429 -0.153663,-0.1051605 -0.21974,0.011636 -0.178439,0.2058522 -0.187723,0.3357481 -0.0048,0.086826 -0.02277,0.1739299 -0.01434,0.2604772 0.0024,0.024731 0.02834,-0.042368 0.03321,-0.066731 0.02408,-0.120368 0.0357,-0.2428965 0.05304,-0.3644186 0.0047,-0.03273 0.02964,-0.1268894 0.01298,-0.098332 -0.06573,0.1126874 -0.08404,0.2520088 -0.163137,0.3557511 -0.04384,0.057503 -0.126084,0.070839 -0.189126,0.1062585 -0.303949,-0.809607 -0.0011,-0.2073378 -0.195178,-0.1050605 -0.0569,0.029978 -0.103372,-0.1912487 -0.13665,-0.136213 -0.04147,0.068589 0.0024,0.2218134 0.08243,0.2258904 0.220038,0.011208 0.203024,-0.4116845 0.210235,-0.4917258 -0.10856,0.073785 -0.216687,0.1482122 -0.32568,0.2213557 -0.0221,0.01483 -0.07051,0.016092 -0.06756,0.042538 0.0027,0.024117 0.05656,-0.039698 0.07012,-0.019576 0.02,0.029674 0.01881,0.1259888 -0.01136,0.1067525 -0.06557,-0.041802 -0.166542,-0.4546253 0.192313,-0.1320604 -0.01026,-0.014335 -0.168664,-0.2098209 -0.195312,-0.2962418 -0.01665,-0.053997 0.01886,-0.1621393 -0.03756,-0.1653027 -0.07411,-0.00416 -0.144629,0.081713 -0.160669,0.1541876 -0.0097,0.043685 0.06759,0.061719 0.1093,0.077911 0.01227,0.00477 -0.0054,-0.025768 -0.0082,-0.03865 -0.01839,-0.030423 -0.14093,-0.2932303 -0.244417,-0.2981174 -0.05987,-0.00283 -0.105039,0.062997 -0.164013,0.07369 -0.11254,0.020405 -0.28922,-0.082956 -0.342642,0.018174 -0.08422,0.1594313 0.320474,0.2955401 0.239636,0.4849471 0.09657,-0.045984 0.245991,-0.040337 0.289723,-0.1379525 0.120764,-0.2695609 -0.39612,-0.2951681 -0.443036,-0.2923505 -0.09952,0.00598 -0.258298,-0.00269 -0.284074,0.093625 -0.03243,0.1211737 0.102649,0.2297825 0.169035,0.3362138 0.03737,0.059905 0.09326,0.1060323 0.139883,0.1590484 -0.01678,-0.3869457 0.02881,0.14292 -0.08723,0.00833 -0.121633,-0.1410835 -0.112377,-0.3714985 -0.245082,-0.5022217 -0.04505,-0.044378 -0.114251,0.097036 -0.103062,0.159276 0.211899,1.1786227 0.232288,0.088811 0.20948,0.6357932 0.05918,-0.2680973 0.06495,-0.2050836 0.03815,-0.5065001 -0.0099,-0.1115896 0.03733,-0.256077 -0.04392,-0.333207 -0.07876,-0.074767 -0.266981,-0.1089104 -0.325331,-0.01732 -0.07411,0.1163249 0.09022,0.2691421 0.07741,0.4064714 -0.0061,0.065779 -0.06622,-0.1143367 -0.09933,-0.1715053 0.01726,0.063 0.01,0.055237 0.06738,-0.1053422 0.003,-0.00841 0.0023,-0.026014 -0.0067,-0.02595 -0.03454,2.429e-4 -0.06964,0.042937 -0.100124,0.026701 -0.05134,-0.027342 -0.04987,-0.1440648 -0.107651,-0.1373468 -0.05978,0.00695 -0.05618,0.1064414 -0.08427,0.1596621 -0.08383,0.05367 -0.31594992,0.2368682 -0.2514969,0.1610116 0.06888,-0.081064 0.2022909,-0.091624 0.2653379,-0.1773018 0.04795,-0.065167 0.02913,-0.1592008 0.04116,-0.2392114 0.0072,-0.047709 0.0039,0.1048983 -0.02659,0.1422707 -0.048,0.058794 -0.2575159,0.1604672 -0.1908869,0.1241222 0.1156259,-0.063071 0.2254189,-0.136293 0.3381289,-0.2044393 -0.117268,0.041164 -0.23947,0.070318 -0.3518029,0.1234913 -0.02808,0.013293 -0.07517,0.098459 -0.05991,0.071397 0.03487,-0.061832 0.09729,-0.1089615 0.1191729,-0.1764885 0.0061,-0.018709 -0.04587,4.498e-4 -0.05682,-0.015894 C 0.7016618,7.6885091 0.84321282,7.546979 0.6738218,8.1832252 c -0.01,0.093517 -0.02616,0.1865783 -0.02994,0.2805501 -0.002,0.05063 0.02284,-0.099358 0.02469,-0.1499954 0.0049,-0.1332791 -0.03698,-0.2707064 -0.0046,-0.4000778 0.01612,-0.064363 0.08684,0.1314415 0.05702,0.1907124 -0.05547,0.1102426 -0.349887,-0.1567648 -0.361996,0.077669 0.0099,0.065332 0.01609,0.131349 0.02978,0.1959957 0.01469,0.069346 6.88e-4,0.2505832 0.05526,0.2053529 0.08727,-0.07232 0.05724,-0.2194584 0.09196,-0.3273502 0.0032,-0.00992 0.01375,0.030084 0.0034,0.031098 -0.05503,0.00538 -0.115125,0.00823 -0.165167,-0.015285 -0.06013,-0.028255 -0.09936,-0.088232 -0.149038,-0.1323483 -0.04886,0.1369158 -0.118771,0.26806 -0.146589,0.4107471 -0.0076,0.039082 0.04931,-0.064821 0.08322,-0.085697 0.03145,-0.019362 0.198444,0.029133 0.191758,-0.016261 -0.04834,-0.3282209 -0.19324,-0.2616996 -0.40878,-0.2613998 -0.01834,0 -0.01834,0.2594139 0,0.2594139 z" />
    <path
       style="fill:#967952;stroke-width:0.264583"
       id="path3088"
       d="m 0.69141578,8.775715 c -0.06539,0.060392 0.26604802,0.035402 0.25613002,-0.051089 -0.0107,-0.093315 -0.05226,-0.180636 -0.08532,-0.2685523 -0.01117,-0.029706 0.03227,0.1222203 0.01939,0.093216 -0.06061,-0.1364591 -0.02479,-0.4730038 -0.16326002,-0.4171315 -0.144659,0.05837 0.02795,0.3107267 0.04193,0.4660903 C 0.9117078,8.5556835 1.0163118,8.4854621 0.8776908,8.8526533 0.8347508,8.9664087 0.68050278,9.0251304 0.65935378,9.1448686 c -0.0096,0.054277 0.10982,0.021593 0.15827202,0.047866 0.07279,0.03947 0.118123,0.1552893 0.200473,0.1466705 0.0859,-0.00899 0.119925,-0.1243195 0.179888,-0.1864794 -0.77889202,-0.3130418 0.200453,-0.4004797 0.174017,-0.2903945 -0.03988,0.1660702 -0.18787,0.2874092 -0.305012,0.4116972 -0.01764,0.018722 -0.03481,-0.066593 -0.01102,-0.07639 0.144414,-0.059469 0.304116,-0.071283 0.456174,-0.1069247 0.02405,0.024911 0.0481,0.049819 0.07215,0.074729 0.01551,-0.035447 -0.485786,-0.2548173 -0.501298,-0.21937 v 0 c 0.01396,0.09105 0.02792,0.1821 0.04188,0.2731502 0.04204,0.01098 0.572783,0.217949 0.457211,-0.1690817 -0.03245,-0.1086662 -0.224235,-0.044542 -0.328053,-0.090183 -0.2973,-0.1307016 0.733199,-0.5465593 -0.53200702,-0.2879942 -0.102267,0.020899 -0.01751,0.2080265 -0.02626,0.3120398 0.12419702,0.1400889 0.22229702,0.3086359 0.37259102,0.420267 0.03376,0.025077 0.01812,-0.082143 0.02742,-0.1231614 0.06972,-0.3076527 0.16091,-0.3743801 -0.05059,-0.6428417 -0.144643,-0.1836013 -0.158685,-0.094992 -0.21453,-5.556e-4 -0.02145,-0.011951 -0.0888,-0.038156 -0.06435,-0.035853 0.16930302,0.015947 0.514053,0.2935515 0.623089,0.113319 C 1.4716588,8.5794055 1.1933518,8.4641136 1.0804678,8.3522554 1.0286678,8.3009314 0.96833182,8.2063121 0.89926782,8.2297036 0.7955708,8.2648256 0.7607018,8.3992502 0.6914188,8.4840238 c -0.02063,0 -0.02063,0.2917041 0,0.2917041 z" />
    <path
       style="fill:#967952;stroke-width:0.264583"
       id="path3090"
       d="m 2.3202738,8.2088888 c 0.159845,0.072578 0.379896,0.1893269 0.386099,-0.1010118 5.03e-4,-0.023035 -0.03912,-0.035799 -0.03651,-0.058691 0.0081,-0.07094 0.0696,-0.1323126 0.06642,-0.2036408 -0.0014,-0.031834 -0.04849,0.041358 -0.07274,0.062036 0.155817,-0.3406682 0.249088,0.1987368 0.169126,0.1795754 -0.02577,-0.00618 0.0049,-0.053034 0.01184,-0.0786 0.01075,-0.039513 0.03106,-0.076076 0.04105,-0.1157886 0.142235,-0.5653323 -0.05668,0.085862 0.13271,-0.5030337 -0.0028,-0.050355 0.03655,-0.1737797 -0.0085,-0.1510631 -0.108688,0.054832 -0.339933,0.5401828 -0.316117,0.6610601 0.0018,0.00924 0.19003,-0.074218 0.206981,-0.081557 -0.326029,-0.3318904 0.107863,0.2990972 0.135133,0.3387069 0.03388,-0.00156 0.01186,-0.48075 -0.02203,-0.4791924 v 0 c -0.06205,-0.037756 -0.172716,-0.1846477 -0.186156,-0.1132663 -0.09077,0.4820817 0.135288,0.4783624 0.432605,0.6028856 -0.05841,-0.1523917 -0.141569,-0.2974821 -0.175231,-0.4571751 -0.01595,-0.075669 0.07552,-0.1672087 0.03038,-0.229998 -0.0453,-0.063006 -0.153154,-0.026133 -0.228336,-0.04535 -0.06795,-0.017367 -0.13322,-0.084514 -0.20035,-0.064221 -0.253167,0.076533 -0.156246,0.1863873 -0.102344,0.3128563 0.174452,-0.057534 0.35072,-0.2353725 0.523356,-0.1726014 0.110851,0.040305 -0.100135,0.2346526 -0.205186,0.2882889 -0.05742,0.029319 0.04181,-0.1327732 0.01778,-0.1926045 -0.03266,-0.081341 -0.10495,-0.2506914 -0.174214,-0.1969725 -0.777038,0.6026433 0.375885,0.2912301 -0.255978,0.4300847 0.09198,-0.00942 0.228958,-0.1079119 0.275927,-0.028273 0.05143,0.087205 -0.05615,0.2058469 -0.130989,0.2740248 -0.03473,0.031633 -0.02806,-0.094554 -0.01615,-0.1399921 0.0044,-0.016881 0.05378,0.00801 0.04658,0.0239 -0.117786,0.259801 -0.132688,0.1780542 -0.345178,0.096546 -0.01012,0 -0.01012,0.1430673 0,0.1430673 z" />
    <path
       style="fill:#967952;stroke-width:0.264583"
       id="path3092"
       d="m 4.2991978,8.8333793 c 0.0097,0.037129 0.07286,0.4563478 0.212782,0.4902917 0.04527,0.010983 -0.04093,-0.093906 -0.02468,-0.1375635 0.02607,-0.07001 0.143349,-0.099678 0.140836,-0.1743432 -0.0017,-0.049176 -0.113601,-0.048152 -0.147111,-0.012123 -0.04696,0.050492 -0.02116,0.13628 -0.03174,0.2044197 0.08457,0.015057 0.202716,-0.023955 0.253706,0.045173 0.07265,0.098491 0.0024,0.2504588 0.04811,0.3639955 0.01279,0.031771 0.08099,0.036499 0.102284,0.00968 0.105175,-0.1324449 0.246871,-0.2760334 0.243503,-0.4451252 -0.0017,-0.08705 -0.191138,0.00926 -0.250923,0.072555 -0.03055,0.032346 0.07127,0.053285 0.106903,0.079928 -0.149187,0.2411482 -0.176169,0.1418876 -0.06734,0.3011498 0.02311,0.018016 0.277888,-0.308788 0.25478,-0.3268038 v 0 c -0.170878,-0.2319538 -0.06781,-0.2143569 -0.306998,-0.064396 -0.136054,0.099012 -0.352808,0.1381342 -0.40816,0.2970366 -0.03213,0.092237 0.193522,0.057877 0.289948,0.042319 0.102708,-0.016571 0.193757,-0.078833 0.281621,-0.1345417 0.0401,-0.025427 -0.118724,0.086452 -0.136041,0.04224 -0.04978,-0.1271016 0.04322,-0.2828174 -0.0078,-0.4094351 -0.04378,-0.1086863 -0.169811,-0.1614974 -0.254717,-0.2422464 -0.131858,0.1222044 -0.365115,0.1894335 -0.395573,0.366613 -0.02047,0.1190665 0.228851,-0.1073099 0.349221,-0.096983 0.04218,0.00362 -0.04147,0.1287671 8.47e-4,0.1270148 0.290129,-0.01202 0.545951,-0.3992364 0.430497,-0.6770574 -0.04946,-0.1190222 -0.256285,-0.02773 -0.384427,-0.041595 -0.02261,-0.02118 -0.322147,0.2986201 -0.299533,0.3198003 z" />
    <path
       style="fill:#967952;stroke-width:0.264583"
       id="path3096"
       d="m 2.9989638,8.5615284 c 0.05939,0.036863 0.123957,0.1547241 0.178157,0.1105895 0.08491,-0.069143 0.07051,-0.2098781 0.07794,-0.319129 0.02137,-0.314143 -0.279415,0.1095877 -0.260037,0.15343 0.0466,0.1054251 0.222314,0.060996 0.33347,0.091494 -0.0076,-0.09732 -0.07041,-0.2067859 -0.02272,-0.2919585 0.02758,-0.049264 0.111573,0.055305 0.165168,0.037546 0.06124,-0.020294 -0.01128,-0.1916729 0.06592,-0.1844839 0.03022,0.00282 0.04838,0.077367 0.02025,0.08877 -0.102522,0.041565 -0.219893,0.024495 -0.32984,0.036744 0.313452,-0.2012688 0.257392,0.2899715 0.431343,0.2939741 0.09266,0.00214 0.09485,-0.1666367 0.171335,-0.2189864 0.02436,-0.016674 0.03731,0.1116243 0.02408,0.085234 -0.06099,-0.1216146 -0.111935,-0.248013 -0.167903,-0.3720195 -0.03197,0.019317 0.2412,0.4714068 0.273168,0.4520909 v 0 c 0.01174,-0.1643491 0.06885,-0.3317457 0.03523,-0.4930473 -0.0095,-0.045613 -0.09355,-0.014854 -0.139575,-0.00759 -0.05345,0.00844 -0.100927,0.067974 -0.15315,0.053811 -0.197669,-0.053609 -0.0036,-0.3296164 -0.184457,0.065153 0.02737,0.044978 0.132005,0.1517412 0.08211,0.1349348 -0.118688,-0.039977 -0.206886,-0.1412028 -0.310329,-0.211804 0.0206,0.010213 0.08301,0.021738 0.06181,0.03064 -0.202821,0.085159 -0.09669,-0.1761836 -0.25323,0.088665 -0.05129,0.1196732 -0.157216,0.2288596 -0.153884,0.35902 0.0014,0.055669 0.106697,-0.046956 0.16203,-0.040689 0.04078,0.00462 0.07746,0.1041178 0.100969,0.070476 0.393502,-0.5630336 0.03811,-0.2463893 -0.02969,-0.2527607 -0.06191,-0.00582 -0.118771,-0.036857 -0.178156,-0.055287 -0.02087,0 -0.02087,0.2951763 0,0.2951763 z" />
    <path
       style="fill:#967952;stroke-width:0.264583"
       id="path3102"
       d="m -0.33086222,8.6856937 c 0.07918,-0.025194 0.158361,-0.050389 0.237542,-0.075584 0.03712,0.10972 -0.0029,0.3481398 0.111348,0.3291601 0.05005,-0.00831 -0.102923,-0.6423207 -0.112276,-0.6544783 -0.05668,-0.073673 -0.219081,-0.2010619 -0.254068,-0.1149443 -0.09391,0.2311567 -0.0022,0.4990045 -0.0033,0.7485068 0.121734,-0.061055 0.293896,-0.2991908 0.365203,-0.1831642 0.09386,0.152717 -0.20842399,0.3391818 -0.162785,0.5125268 0.0262,0.099507 0.18277,-0.103147 0.250075,-0.18098 0.07546,-0.087262 0.118015,-0.1986013 0.168049,-0.3025487 0.04833,-0.1004112 0.116859,-0.356117 0.03251,-0.057588 -0.03502,0.023074 -0.08984,0.030144 -0.105045,0.069224 -0.02903,0.074581 -0.01159,0.159662 -0.01515,0.2396135 -0.0027,0.060474 -0.06228,0.1964431 -0.0036,0.1815671 0.277237,-0.070286 0.66912302,-0.2907051 0.377812,-0.6064115 0.186554,0.3918053 -0.0056,-0.033416 -0.0526,-0.025985 -0.06868,0.010853 -0.0543,0.1340789 -0.04704,0.2032347 0.0028,0.026255 0.04492,-0.028611 0.0634,-0.04747 0.192119,-0.1961158 0.07103,-0.2021062 0.272089,-0.1143871 -3.97e-4,0.4622329 -0.05814,-0.02852 -0.05647,-0.054663 0.0035,-0.054117 0.04473,0.3213029 0.09,0.2954004 0.07053,-0.040351 0.07214,-0.1457727 0.112984,-0.2160222 0.03347,-0.057567 0.07313,-0.111306 0.10970102,-0.166959 0.03031,0.3621702 0.03291,-0.090172 -0.11271502,0.180762 -0.02369,0.044074 -0.03491,0.1402038 0.01427,0.1494325 0.05403,0.010139 0.08669,-0.075248 0.10519402,-0.1270151 0.03281,-0.091814 0.02904,-0.1928273 0.04356,-0.2892412 -0.0111,6.35e-4 -0.0021,0.1576843 0.009,0.1570472 v 0 c -0.0082,-0.084693 0.01401,-0.066746 -0.07341,-0.044047 -0.03128,-0.1589394 0.134092,-0.4528544 -0.02461,-0.4853426 -0.15407502,-0.031542 -0.76835004,0.7531142 0.01527,0.4715645 -0.05036,0.00344 -0.11278602,-0.022556 -0.15108002,0.010332 -0.02667,0.022902 0.04019,0.1312169 0.01807,0.1038947 -0.02651,-0.032755 7.5e-5,-0.1484535 -0.0328,-0.1220931 -0.08095,0.064901 -0.04948,0.264069 -0.15300102,0.2710609 -0.120903,0.00816 0.04022,-0.4615651 -0.245827,-0.2678208 0.09284,0.018211 0.183917,0.052842 0.278504,0.054632 0.02289,4.233e-4 -0.04858,-0.027418 -0.04683,-0.050248 0.0019,-0.025104 0.20768002,-0.3952214 -0.0063,-0.3860517 -0.24718,0.010591 -0.357854,0.2392233 -0.461342,0.4076025 0.0097,0.078167 -0.0098,0.1660874 0.02922,0.2345002 0.02728,0.047804 0.09572,0.055388 0.147259,0.074712 0.0081,0.00305 0.03243,-0.010811 0.02376,-0.010589 -0.03505,8.996e-4 -0.06991,0.018881 -0.104409,0.012652 -0.172082,-0.031068 -0.280209,-0.2727291 -0.457601,-0.2565117 0.04929,0.08346 0.101532,0.1652498 0.147879,0.2503816 0.01861,0.034175 0.01344,0.1272249 0.04668,0.1069948 0.157531,-0.095876 0.279446,-0.2422908 0.402015,-0.3800784 0.01206,-0.01356 -0.03579,-0.017801 -0.05306,-0.012211 -0.118079,0.03825 -0.228199,0.097994 -0.344618,0.1410304 -0.08554,0.03162 -0.173845,0.055171 -0.260767,0.082757 0.02052,-0.065868 -0.0023,-0.1714796 0.06155,-0.1976035 0.04952,-0.020262 0.01716,0.1081947 0.04437,0.154265 0.01513,0.025612 0.06624,0.076482 0.07516,0.048106 0.04068,-0.1293614 0.08091,-0.2767856 0.03712,-0.4051255 -0.03757,-0.1101008 -0.233774,0.7797536 -0.34889,-0.00905 -0.02498,0 -0.02498,0.3532487 0,0.3532487 z" />
    <path
       style="fill:#967952;stroke-width:0.264583"
       id="path3106"
       d="m 5.7218318,8.4438391 c 0.600828,0.1076214 0.681426,0.033094 1.147545,0.4823479 0.02448,0.023593 -0.06838,0.095331 -0.07993,0.063356 -0.05683,-0.1572459 0.04159,-0.3772311 -0.07634,-0.495757 -0.06951,-0.069858 -0.12935,0.1497547 -0.204522,0.2134767 -0.02018,0.017103 -0.05042,0.016002 -0.07563,0.024003 0.106606,0.05392 0.213212,0.1078402 0.319818,0.1617604 0.08366,-0.049022 0.163655,-0.1892263 0.2509721,-0.1470665 0.098124,0.047378 0.028465,0.2257137 0.093296,0.3132913 0.023786,0.032131 0.066279,-0.062105 0.063146,-0.1019583 -0.00185,-0.023598 -0.054039,0.025829 -0.070469,0.00879 -0.049779,-0.05163 -0.068748,-0.125889 -0.1031229,-0.1888336 0.1494507,0.1437706 0.2989014,0.2875412 0.4483521,0.4313118 0.029995,0.012512 0.073057,0.065278 0.089985,0.037535 0.052132,-0.085437 0.1062837,-0.3845076 0.065862,-0.2929467 -0.051997,0.1177822 0.021884,0.3347022 -0.1011063,0.3727794 -0.1092374,0.03382 -0.04531,-0.2403279 0.00499,-0.3430228 0.02846,-0.058102 0.050287,0.1192237 0.075431,0.1788356 0.059634,-0.00835 0.1269312,0.00536 0.178901,-0.025056 0.2305215,-0.1349151 -0.854104,-0.4888368 0.15223,-0.4889781 0.1409234,-1.99e-5 0.1043074,0.2626638 0.1391745,0.3992059 0.0031,0.012152 -0.032445,0.031821 -0.032312,0.01928 8.205e-4,-0.077563 0.023038,-0.1534155 0.034558,-0.2301232 0.00914,-0.033938 0.035224,-0.1360787 0.02741,-0.1018125 -0.012705,0.05571 -0.058732,0.1115126 -0.042087,0.1661755 0.017992,0.05909 0.1468239,-0.00346 0.2116887,-0.08716 0.024051,-0.031035 0.00246,-0.1145328 0.041495,-0.1102378 0.1025988,0.01129 0.1824336,0.096613 0.2736506,0.1449194 C 7.8824655,8.546861 8.5538906,8.7117107 8.5773115,8.7400259 8.6112605,8.7810619 8.5319665,8.8672174 8.4787285,8.8657614 8.4354475,8.8645714 8.4709285,8.7793574 8.4625065,8.736886 8.4514045,8.680867 8.4343515,8.6261936 8.4202735,8.5708476 8.4266035,8.5546686 8.1977846,8.4651997 8.1914581,8.4813796 v 0 c 0.05687,0.016367 0.1159113,0.026515 0.1706108,0.0491 0.022162,0.00915 -0.050923,-0.020532 -0.071464,-0.00816 -0.072567,0.04369 -0.1408088,0.2029608 -0.1410755,0.2744555 -1.577e-4,0.042292 0.037143,-0.075993 0.055715,-0.1139899 0.00728,-0.046365 0.023855,-0.092206 0.021828,-0.1390952 C 8.2266491,8.533599 8.2055064,8.54856 8.1998044,8.556898 8.1576304,8.618579 8.1339964,8.6927557 8.0859958,8.7500198 7.9211649,8.9466626 7.9205428,8.6541618 7.799615,9.0873148 7.787076,9.1322318 7.843725,9.1694948 7.865779,9.2105855 7.9726762,9.0615502 8.1174088,8.9333913 8.1864675,8.7634846 8.2044724,8.7191865 8.1291902,8.6275554 8.0910368,8.6563794 8.072045,8.6707278 7.9194143,9.0789645 7.7808792,9.0809862 7.6530902,9.0828383 7.4840479,8.8573606 7.415388,8.9651535 7.3364618,9.0890634 7.5382203,9.2320699 7.5996365,9.3655284 7.7104818,9.3519156 7.900101,9.4316678 7.9321727,9.3246942 7.9706984,9.1961929 7.7903817,9.0967427 7.7130951,8.9870903 7.6191361,8.8537843 7.3305565,8.5503003 7.2107537,8.5653117 6.7296668,8.6255917 7.1669157,9.1691607 7.2047237,9.2348033 7.2905515,9.2134647 7.4486448,9.2581792 7.4622063,9.170785 7.4798752,9.0569247 7.3064646,8.9964359 7.2579284,8.8919343 7.1359084,8.6292178 7.4449261,8.2107592 6.9845477,8.0530215 6.6931718,7.9531885 6.7112948,8.8201361 6.4146538,8.7803603 c 0.03601,0.0082 0.07585,0.0065 0.10804,0.024606 0.139087,0.078239 0.267603,0.3494265 0.400899,0.261684 C 7.0348923,8.9933873 7.0073558,8.2535437 6.8175418,8.151581 6.6545578,8.064031 6.4467338,8.108327 6.2629478,8.12957 c -0.199077,0.023013 -0.387554,0.1022114 -0.581331,0.1533173 -0.01138,0.00284 0.02883,0.1637953 0.04021,0.1609521 z" />
    <path
       style="fill:#967952;stroke-width:0.264583"
       id="path3108"
       d="m 0.61579678,8.3150844 c 0.06599,-0.032662 0.31657802,-0.084665 0.09997,-0.2037768 -0.01954,-0.010747 -0.01053,0.057929 -0.03283,0.058299 -0.03885,6.35e-4 -0.104462,-0.017264 -0.102212,-0.056056 0.0029,-0.050864 0.08506,-0.060983 0.111524,-0.1045223 0.01978,-0.032541 0.01355,-0.074945 0.02032,-0.1124172 0.01187,-0.00865 0.26653502,-0.1724276 0.20187402,-0.2268302 -0.10055,-0.084599 -0.40975802,-0.2296099 -0.38095102,-0.101401 0.0447,0.1989547 0.27141002,0.316753 0.45102802,0.4132871 0.04502,0.024199 0.02747,-0.09861 0.04546,-0.1464564 0.01851,-0.049234 0.04257,-0.096197 0.06386,-0.1442961 0.02662,-0.09476 0.06167,-0.1875481 0.07986,-0.2842813 0.03232,-0.1719014 0.09383,-0.3072493 -0.08507,-0.3946319 -0.07648,-0.037357 -0.197835,-0.133409 -0.247179,-0.064057 -0.17579802,0.2470806 0.156663,0.4430649 0.273494,0.5429327 0.439189,0.02255 0.47175,0.1590211 0.516861,-0.3501118 0.0064,-0.072178 0.0047,-0.1659104 -0.05191,-0.2110936 -0.06499,-0.051832 -0.1652,-0.018637 -0.247801,-0.027957 -0.01925,0.007 0.07969,0.2791798 0.09893,0.2721843 v 0 c -0.0213,-0.013581 -0.08562,-0.027837 -0.0639,-0.040745 0.06523,-0.038773 0.165281,-0.1039391 0.221422,-0.052886 0.103817,0.094409 -0.617486,0.096885 -0.407714,-0.1048255 0.02886,0.065466 0.124967,0.1360157 0.08659,0.1963973 -0.04457,0.070123 -0.177389,0.1009161 -0.243951,0.051187 -0.05345,-0.039934 0.08301,-0.1320757 0.05477,-0.1925243 -0.0323,-0.069135 -0.121921,-0.1138304 -0.198227,-0.1145141 -0.15661102,-0.0014 0.178273,0.727496 -0.09753,0.4596181 -0.03007,0.2027854 -0.05503,0.2150382 -0.0026,0.4055877 0.008,0.029102 0.07239,0.079741 0.04221,0.080111 -0.09675,0.00119 -0.19254502,-0.035405 -0.27980802,-0.077197 -0.0467,-0.022365 -0.741392,-0.5506074 0.09068,0.077181 0.04168,0.060334 0.05179,0.1843802 0.125046,0.181002 0.08834,-0.00407 0.21513602,-0.1139867 0.17981802,-0.1950606 -0.03754,-0.086178 -0.18615502,-0.041948 -0.27986702,-0.034607 -0.0512,0.00401 -0.129673,0.016801 -0.138569,0.067388 -0.01418,0.080655 0.140313,0.1685091 0.08627,0.230034 -0.06143,0.069927 -0.186017,-0.00707 -0.279025,-0.010604 -0.01525,0.020447 0.273906,0.2360904 0.289155,0.2156439 z" />
    <path
       style="fill:#967952;stroke-width:0.264583"
       id="path3114"
       d="m 2.4680398,8.7496715 c 0.02348,0.107329 0.04616,0.2148345 0.07043,0.3219873 0.04172,0.1841879 0.04323,0.4828006 0.426603,0.1877989 0.05364,-0.041276 0.118802,-0.4889048 -0.08,-0.5074867 -0.06503,-0.00608 0.0086,0.1303451 0.01296,0.1955176 -0.117256,0.1741987 -0.382891,0.3149295 -0.351768,0.5225965 0.02202,0.1469302 0.304677,0.00823 0.440386,0.068703 0.07156,0.031884 0.07333,0.2321227 0.139041,0.1894756 0.446861,-0.2900058 0.0255,-0.4709896 -0.154313,-0.5602124 -0.07638,-0.037901 -0.161853,-0.053736 -0.24278,-0.080603 0.09213,0.7477341 -0.07443,0.3493204 0.317848,0.7647241 0.06963,0.07374 0.244225,0.9199316 0.38688,-0.2558227 -0.361717,-0.1111057 -0.334355,0.00536 -0.223701,-0.2806748 -0.72394,1.0683961 -0.193629,-0.00695 0.03541,0.5360095 0.03556,0.08429 -0.157297,0.113947 -0.187694,0.2002336 -0.02468,0.07007 0.3594,-0.3082882 0.237955,-0.3333451 -0.112818,-0.023278 -0.212058,0.09006 -0.318087,0.1350905 -0.08054,0.130268 -0.0626,0.05734 0.01202,0.2676896 0.0152,0.04283 0.03086,0.08581 0.052,0.126038 0.01934,0.03679 0.05544,0.06459 0.06888,0.103919 0.05339,0.156195 0.06423,0.29434 0.08326,0.452536 0.0735,-0.0293 0.147005,-0.0586 0.220507,-0.0879 -0.0049,0.01906 0.264653,0.08856 0.269568,0.0695 v 0 c -0.03846,-0.09807 -0.07691,-0.196131 -0.115371,-0.294196 -0.582064,-0.150113 0.06497,0.103846 -0.206643,-0.464036 -0.0319,-0.0667 -0.105395,0.103714 -0.158092,0.155571 0.162271,-0.110817 0.324543,-0.2216336 0.486813,-0.3324506 -0.04355,-0.2186285 -0.505639,0.133764 -0.667941,-0.03327 -0.05283,0.05786 -0.269127,0.2928586 -0.256931,0.2960436 0.156508,0.04086 0.320144,-0.06832 0.463843,-0.1425866 0.07664,-0.0396 0.220385,-0.114025 0.177142,-0.1886699 -0.373783,-0.6452192 -0.375266,0.3473405 -0.326322,-0.3154272 0.06515,-0.010806 0.221689,-0.093027 0.195457,-0.032417 -0.115581,0.2670615 -0.72171,0.5141401 -0.01408,0.3982211 0.02376,-0.0039 -0.04154,-0.033891 -0.04317,-0.057914 -0.03207,-0.4751927 0.121802,-0.1943687 -0.125335,-0.5129551 -0.41051,-0.2006904 0.07585,0.032503 0.09708,0.070619 0.02845,0.051092 -0.139291,-0.053499 -0.175286,-0.00741 -0.0298,0.038155 0.05731,0.1383429 0.09588,0.1090856 0.20873,-0.1583325 0.113098,-0.3791588 0.07959,-0.5696553 -0.183172,-0.0069 -0.367617,0.00193 -0.549514,-0.020704 -0.07408,-0.00922 -0.2103,-0.1486511 -0.21138,-0.074006 -0.0048,0.3332271 0.427392,0.1824408 0.538978,0.1967735 0.117281,0.015065 -0.882542,0.16159 -0.198856,-0.293755 -0.0055,-0.021304 -0.306747,0.056051 -0.301277,0.077355 z" />
    <path
       style="fill:#967952;stroke-width:0.264583"
       id="path3120"
       d="m 5.2263988,8.4024898 c -0.162083,-0.118708 0.07525,-0.3192675 0.01218,-0.4585637 -0.03085,-0.068135 -0.08627,-0.2253332 -0.1411,-0.1744604 -0.08427,0.078189 0.06976,0.3084719 -0.04003,0.3425288 -0.100679,0.03123 -0.21696,-0.3265091 -0.116716,-0.2939071 0.143133,0.046551 0.19093,0.2327277 0.286395,0.3490915 0.0062,-0.079759 0.02478,-0.1595282 0.01848,-0.239276 -0.0057,-0.072399 -0.05255,-0.1384495 -0.05407,-0.2110581 -0.0025,-0.120138 0.144924,-0.2957475 0.04215,-0.3580199 -0.09734,-0.058986 -0.139385,0.2095463 -0.251086,0.2314192 -0.107182,0.020987 -0.369825,-0.2097546 -0.303782,-0.1227675 0.121617,0.160187 0.322701,0.2401385 0.484052,0.3602075 0.01034,-0.021931 0.147291,-0.3651078 0.232837,-0.3748146 0.100361,-0.011388 0.338504,0.1848869 0.286661,0.098202 -0.768786,-1.2854493 -0.410826,-0.2198304 -0.402125,-0.1207585 0.0083,0.09499 -0.0115,0.1903643 -0.01726,0.2855463 0.106664,-0.024082 0.213328,-0.048164 0.319991,-0.072246 0.035,-0.019312 -0.238094,-0.5142447 -0.273092,-0.4949344 v 0 c 0.02486,0.019018 0.04972,0.038038 0.07457,0.057057 -0.0057,0.1141534 0.0051,0.2303262 -0.017,0.3424603 -0.01167,0.05918 0.02228,-0.1328963 -0.01497,-0.1803384 -0.0971,-0.1236679 -0.209101,-0.2692929 -0.363079,-0.3011308 -0.139768,-0.0289 0.377287,0.1630326 0.314086,0.2910007 -0.230461,0.4666318 -0.586924,-0.6823028 -0.294853,0.1029187 0.01937,0.1144166 0.01963,0.2337718 0.05811,0.3432497 0.03488,0.099238 0.108314,0.3653584 0.158471,0.2728958 0.0735,-0.1354966 0.0083,-0.319491 -0.0576,-0.4588426 -0.02718,-0.05748 -0.178195,-0.1147508 -0.183694,-0.051405 -0.02425,0.2793394 0.591214,0.4295185 -0.205896,0.1239186 0.06744,0.1313659 0.125236,0.2681478 0.20232,0.3940972 0.03074,0.050235 0.06332,0.1111681 0.118876,0.1307182 0.166855,0.058715 0.154408,-0.4328689 -0.02186,-0.3447571 -0.06217,0.031076 -0.105997,0.089923 -0.158996,0.1348851 -0.02808,0.021781 0.279931,0.4188632 0.30801,0.3970835 z" />
  </g>
</svg>
