<?xml version="1.0" encoding="UTF-8" standalone="no"?>
<!-- Created with Inkscape (http://www.inkscape.org/) -->

<svg
   width="64.457153"
   height="63.999996"
   viewBox="0 0 17.054288 16.933332"
   version="1.1"
   id="svg5"
   inkscape:version="1.2.2 (732a01da63, 2022-12-09)"
   sodipodi:docname="tiles_vine_right.svg"
   inkscape:export-filename="tiles_vine_top.svg"
   inkscape:export-xdpi="96"
   inkscape:export-ydpi="96"
   xmlns:inkscape="http://www.inkscape.org/namespaces/inkscape"
   xmlns:sodipodi="http://sodipodi.sourceforge.net/DTD/sodipodi-0.dtd"
   xmlns="http://www.w3.org/2000/svg"
   xmlns:svg="http://www.w3.org/2000/svg">
  <sodipodi:namedview
     id="namedview7"
     pagecolor="#ffffff"
     bordercolor="#000000"
     borderopacity="0.25"
     inkscape:showpageshadow="2"
     inkscape:pageopacity="0.0"
     inkscape:pagecheckerboard="true"
     inkscape:deskcolor="#d1d1d1"
     inkscape:document-units="px"
     showgrid="true"
     showguides="true"
     inkscape:zoom="7.796875"
     inkscape:cx="25.587174"
     inkscape:cy="32.256513"
     inkscape:window-width="958"
     inkscape:window-height="1008"
     inkscape:window-x="946"
     inkscape:window-y="0"
     inkscape:window-maximized="0"
     inkscape:current-layer="layer1">
    <inkscape:grid
       type="xygrid"
       id="grid88"
       spacingx="2.1166666"
       spacingy="2.1166666"
       empspacing="8" />
  </sodipodi:namedview>
  <defs
     id="defs2" />
  <g
     inkscape:label="Layer 1"
     inkscape:groupmode="layer"
     id="layer1"
     transform="translate(0.12095647)">
    <circle
       id="path5383"
       style="fill:#3b2625;stroke:#000000;stroke-width:0.264583"
       cx="1.0557961"
       cy="-6.8552885"
       r="0.0063923118"
       transform="rotate(90)" />
    <rect
       style="fill:#35201f;fill-opacity:1;stroke-width:0.264583;stroke-dasharray:none"
       id="rect7797"
       width="16.933332"
       height="16.933332"
       x="5.5047781e-07"
       y="-16.933332"
       transform="rotate(90)" />
    <path
       style="fill:#3a2524;fill-opacity:1;stroke-width:0.264583;stroke-dasharray:none"
       id="path8684"
       d="M 9.1449587,11.818514 C 9.342476,11.698772 9.4654705,11.636894 9.6401711,11.459765 10.025566,11.069013 10.342041,10.500473 10.399048,9.9483721 10.420828,9.7374291 10.372408,9.5250806 10.359088,9.3134349 10.444128,9.0655489 6.9384952,7.8628361 6.8534504,8.1107221 v 0 c -0.04995,0.175836 -0.131928,0.3455956 -0.149847,0.5275083 -0.02135,0.2167263 0.0057,0.4364844 0.03362,0.6524601 0.07313,0.5653307 0.2511342,1.1161005 0.5424965,1.6064395 0.046165,0.07769 0.1058124,0.146535 0.1587185,0.219803 -0.049609,0.12067 1.6569182,0.822251 1.7065273,0.701581 z" />
    <path
       style="fill:#3a2524;fill-opacity:1;stroke-width:0.264583;stroke-dasharray:none"
       id="path9461"
       d="m 0.91730688,2.845133 c 0.16565202,0.121487 0.37548702,0.1388 0.57025802,0.08199 0.148621,-0.04335 0.245922,-0.117402 0.377208,-0.198577 0.164432,-0.159346 0.183626,-0.148259 0.279549,-0.346337 0.0052,-0.01067 0.0079,-0.04209 -0.002,-0.03552 -0.05075,0.03377 -0.07839,0.09853 -0.133104,0.125405 -0.6284,0.308723 -0.265821,-0.0029 -0.546057,0.261064 0.01064,0.06726 0.01294,0.136383 0.03194,0.201776 0.0594,0.204513 0.184729,0.387983 0.36831,0.499938 0.05147,0.03139 0.386242,0.1471 0.386845,0.147317 0.809157,-0.118133 0.552823,0.07287 0.907021,-0.311468 0.04393,-0.07762 -1.053749,-0.698917 -1.097682,-0.621299 v 0 c 0.347077,-0.118212 0.09004,-0.04447 0.797667,-0.08538 0.05451,0.0088 0.119346,0.05955 0.163534,0.02643 0.04085,-0.03061 0.01239,-0.102479 0.0054,-0.153051 C 2.9879059,2.15935 2.8283319,1.902966 2.6160319,1.723225 2.5322719,1.652315 2.4315239,1.604338 2.3392699,1.544895 1.9116399,1.39782 1.9027209,1.331366 1.3817969,1.506165 c -0.08217,0.02757 -0.12986,0.114866 -0.192906,0.174338 -0.01394,0.01315 -0.04941,0.05859 -0.03783,0.04332 0.06945,-0.09155 0.05133,-0.0677 0.146221,-0.135823 0.01552,-0.0099 0.04294,-0.01162 0.04655,-0.02966 0.0026,-0.01306 -0.02514,-0.01087 -0.03845,-0.01082 -0.02772,9.8e-5 -0.0552,0.006 -0.08241,0.01125 -0.04405,0.0086 -0.08955,0.01359 -0.131175,0.03036 -0.0135,0.0054 -0.15386702,0.09927 -0.17452702,0.112975 -0.08083,0 -0.08083,1.143037 0,1.143037 z" />
    <path
       style="fill:#3a2524;fill-opacity:1;stroke-width:0.264583;stroke-dasharray:none"
       id="path9463"
       d="m 1.6601269,7.7039734 c -0.01823,0.00669 -0.03884,0.00886 -0.0547,0.020058 -0.135092,0.095367 -0.251323,0.22191 -0.346831,0.3554431 -0.152049,0.2125829 -0.212113,0.3471515 -0.26956501,0.603446 -0.01928,0.08602 -0.01996,0.1751764 -0.02994,0.2627649 0.0093,0.060038 -0.0092,0.132021 0.02795,0.1801148 0.02496,0.032338 0.08108,0.017412 0.12177401,0.013835 0.09561,-0.0084 0.18768,-0.050515 0.283651,-0.049462 0.1056,0.00116 0.208119,0.036082 0.311831,0.055995 0.121646,0.023357 0.08564,0.05616 0.12779,-0.00833 0.0029,-0.00838 0.0087,-0.034026 0.0087,-0.025157 2.21e-4,0.1043136 0.01291,0.2106544 -0.0081,0.3128378 -0.0048,0.023331 -0.04189,0.022696 -0.06305,0.033618 -0.187685,0.096851 -0.355229,0.2546103 -0.563495,0.2896989 -0.57583704,0.097017 -0.34450604,-0.3397155 -0.48994704,0.019553 -0.0273,0.2167167 0.0034,0.3938481 0.0883,0.5937671 0.02984,0.07029 0.06083,0.140592 0.10029802,0.205969 0.06981,0.115649 0.18033002,0.236325 0.26831702,0.338742 0.08792,0.07602 0.145216,0.134539 0.245169,0.190628 0.02628,0.01475 0.06301,0.05559 0.08384,0.03382 0.01986,-0.02076 -0.04456,-0.04348 -0.04724,-0.07208 -0.02152,-0.229848 -0.0162,-0.461421 -0.02431,-0.692131 -0.04825,0.06345 0.849003,0.745879 0.897259,0.682433 v 0 c 5.82e-4,-0.247609 0.02592,-0.4964 0.0017,-0.742828 -0.0054,-0.05478 -0.06402,-0.09014 -0.08829,-0.139545 -0.0136,-0.02769 -0.01674,-0.14701 -0.0287,-0.1793068 -0.02864,-0.1890131 0.0045,0.057086 -0.0097,-0.1706492 -0.0029,-0.046796 -0.01006,-0.093241 -0.01624,-0.139719 -0.03071,-0.2311739 -0.06831,-0.4161184 -0.2154,-0.6069788 C 1.8026299,8.8958937 1.5787189,8.6336398 1.3185169,8.6346007 1.0930659,8.6354209 0.89752888,8.801738 0.70449986,8.9182222 c -0.0484,0.029207 -0.08249,0.086728 -0.09203,0.1424463 -0.05591,0.3265268 -0.0282,0.418397 0.01475,0.6802022 0.02706,0.066203 0.04216,0.1386774 0.08119,0.1986108 0.160342,0.2462175 0.34558404,0.3850595 0.65883504,0.4364415 0.28727,0.04712 0.575285,-0.06267 0.815802,-0.201846 0.0936,-0.05416 0.173776,-0.128756 0.260665,-0.1931334 0.209533,-0.2802345 0.285363,-0.3238765 0.370056,-0.6792526 0.03383,-0.1419611 0.05056,-0.2890234 0.04989,-0.4349589 -0.0012,-0.2574083 -0.118819,-0.4886655 -0.124023,-0.7433889 0.02965,-0.076337 -1.04991,-0.4957067 -1.079564,-0.4193701 z" />
    <path
       style="fill:#3a2524;fill-opacity:1;stroke-width:0.264583;stroke-dasharray:none"
       id="path9465"
       d="m 4.8943699,6.094257 c 0.146872,-0.0087 0.27155,-0.08091 0.391582,-0.160201 0.181456,-0.119864 0.247432,-0.157691 0.37749,-0.335874 0.04716,-0.06461 0.08025,-0.138396 0.120369,-0.207594 0.20686,-0.504252 0.268316,-0.799698 0.126682,-1.360854 -0.02435,-0.09649 -0.221706,-0.289587 -0.276797,-0.34902 0.117384,0.08952 -0.398683,-0.285615 -0.345043,-0.169275 0.03856,0.08364 0.197608,0.07924 0.218662,0.168897 0.87157,0.48652 -0.157215,0.634275 -0.116313,0.95101 0.0078,0.0601 0.101283,0.06657 0.151924,0.09986 0.215573,0.04779 0.286033,0.07648 0.510612,0.07272 0.08218,-0.0014 0.163455,-0.01743 0.245182,-0.02615 0.122369,0.0024 0.155894,-1.728185 0.03353,-1.730556 v 0 C 6.2287059,3.03423 6.1259639,3.00959 6.0216159,3.00825 c -0.317119,-0.0041 -0.374599,0.03903 -0.670106,0.131233 -0.129922,0.07242 -0.605158,0.317882 -0.652623,0.44238 -0.353964,0.928443 -0.148646,0.635976 0.18786,1.035088 0.03423,0.0406 -0.194221,-0.07061 -0.151789,-0.04835 -0.02158,-0.01342 -0.03954,-0.03693 -0.06473,-0.04025 -0.01652,-0.0022 -0.03836,0.0422 -0.04263,0.02609 -0.02684,-0.101234 -0.03169,-0.20771 -0.03329,-0.312431 -2.64e-4,-0.01757 0.02118,0.02824 0.02919,0.04388 0.0074,0.01448 0.02058,0.03001 0.0168,0.04584 -0.0084,0.03502 -0.0337,0.06363 -0.05055,0.09544 -0.05739,0.109359 -0.09317,0.159567 -0.119677,0.282084 -0.0094,0.04348 -0.0027,0.08942 -0.01204,0.132912 -0.0068,0.0316 -0.02601,0.05931 -0.03578,0.09012 -0.0074,0.02345 -0.0229,0.109338 -0.02806,0.13684 -0.07249,0.03537 0.427712,1.060496 0.500199,1.025127 z" />
    <path
       style="fill:#3a2524;fill-opacity:1;stroke-width:0.264583;stroke-dasharray:none"
       id="path9467"
       d="M 8.7630946,1.853549 C 8.6717006,1.808969 8.7050356,1.806479 8.5784416,1.905019 8.3442827,2.087285 8.1987608,2.311562 8.1057595,2.593309 8.0753775,2.685349 8.0627655,2.782337 8.0412685,2.876851 8.0315085,3.141994 8.0023345,3.63629 8.0845025,3.827503 8.2539563,4.221837 8.7657769,4.356738 9.145091,4.319879 9.212862,4.313279 9.2784368,4.292239 9.3451094,4.278419 9.4750047,4.227489 9.6034237,4.162167 9.7117237,4.07257 9.7325807,4.05531 9.7524087,4.03611 9.7678457,4.01387 9.7753757,4.00302 9.7892607,3.98399 9.7788867,3.97582 9.7607227,3.96151 9.7329217,3.97082 9.7099397,3.96822 8.7796173,3.723643 9.6303757,4.01756 9.1516054,3.71683 c -0.014012,-0.0088 -0.038938,0.0058 -0.044869,0.02123 -0.016558,0.04312 -0.012692,0.09158 -0.016129,0.137642 -0.00992,0.133085 -0.00909,0.267222 -0.010541,0.400509 0.011647,0.08806 0.023297,0.176114 0.034944,0.264171 C 9.1692384,4.641369 10.597367,3.874484 10.54314,3.7735 v 0 C 10.51083,3.71287 10.47852,3.652247 10.44621,3.591621 10.41294,3.536811 10.38321,3.479691 10.3464,3.4272 10.214057,3.23851 10.31448,3.40295 10.204823,3.278793 10.132223,3.196603 10.066468,3.048299 9.9760338,2.99934 9.8451592,2.92849 9.6908407,2.91414 9.5482441,2.871548 c -0.036605,-1.21e-4 -0.073273,0.0018 -0.109814,-3.71e-4 -0.1766128,-0.01045 0.048802,-0.01018 -0.1304338,-0.0182 -0.098067,-0.0044 -0.1968783,0.01247 -0.2921479,0.03332 -0.031977,0.01417 -0.067738,0.02182 -0.095933,0.04252 -0.016817,0.01235 -0.047442,0.03695 -0.033765,0.0527 0.2244168,0.258526 0.2497948,-0.07824 0.4375889,0.407124 0.055208,0.14269 -0.012226,0.31123 0.031216,0.457931 0.010083,0.03405 0.057082,-0.04225 0.085624,-0.06337 0.041528,-0.06098 0.088851,-0.118392 0.1245843,-0.182938 0.093082,-0.168128 0.1711037,-0.375361 0.20794,-0.563056 0.048389,-0.246557 0.024477,-0.50008 0.048259,-0.748643 0.030764,-0.07483 -1.027499,-0.5099 -1.0582629,-0.435069 z" />
    <path
       style="fill:#3a2524;fill-opacity:1;stroke-width:0.264583;stroke-dasharray:none"
       id="path9469"
       d="m 4.4101929,16.218764 c 0.221795,-0.02311 0.405728,-0.09283 0.55929,-0.261553 0.108543,-0.119259 0.161873,-0.228086 0.244695,-0.368079 0.146315,-0.314883 0.20401,-0.690597 0.0883,-1.024261 -0.02993,-0.0863 -0.108528,-0.222335 -0.165729,-0.293755 -0.03652,-0.0456 -0.08075,-0.08444 -0.121129,-0.126657 -0.116459,-0.106764 -0.161159,-0.163569 -0.303598,-0.233574 -0.05196,-0.02554 -0.107726,-0.04322 -0.163667,-0.05813 -0.03405,-0.0091 -0.130007,-0.03813 -0.104854,-0.01345 0.483832,0.474687 0.210236,-0.298242 0.357467,0.853328 -0.0021,0.02402 -0.02489,0.05672 -0.0063,0.07207 0.01849,0.01525 0.04676,-0.01133 0.06896,-0.02037 0.122466,-0.04983 0.175268,-0.09773 0.256917,-0.195325 0.0041,-0.03519 0.05391,-0.04835 0.06083,-0.08155 0.002,-0.0094 -0.02617,-0.01739 -0.01805,-0.02255 0.207677,-0.131895 0.346963,-0.07496 0.448278,-0.388229 0.04704,-0.145434 0.0033,-0.305682 0.005,-0.458524 0.009,-0.0064 0.02074,-0.01 0.02693,-0.01905 0.008,-0.0118 0.01212,-0.05476 0.01368,-0.04058 0.01112,0.100914 0.08772,0.303638 -0.01381,0.304261 0.0081,-0.01658 0.0171,-0.03276 0.02439,-0.04973 0.01369,-0.03188 0.01822,-0.05986 0.01632,-0.06052 -0.01241,-0.0043 -0.0251,0.0078 -0.03748,0.01224 -0.04731,0.01685 -0.09138,0.05348 -0.141566,0.05155 -0.157949,-0.0061 -0.312152,-0.05001 -0.468228,-0.07501 0.06418,0.04419 0.689043,-0.863403 0.624867,-0.907587 v 0 c -0.165118,-0.0329 -0.327101,-0.09257 -0.495352,-0.09869 -0.07077,-0.0026 -0.135685,0.04244 -0.199378,0.0734 -0.120422,0.05854 -0.207728,0.173677 -0.28056,0.281192 -0.02659,0.04138 -0.05689,0.0806 -0.07978,0.124132 -0.134057,0.254932 -0.168018,0.591109 -0.03338,0.850885 0.0055,-0.132106 -0.03061,-0.27276 0.01646,-0.396317 0.170404,-0.447287 0.188505,-0.122571 0.415572,-0.333886 0.02112,-0.01966 -0.05723,-0.0074 -0.08582,-0.01124 -0.120267,-0.01615 -0.04689,-0.01177 -0.200779,-0.0057 -0.124715,0.026 -0.220977,0.03868 -0.338445,0.09573 -0.257254,0.124945 -0.416476,0.366494 -0.557284,0.604481 0.01239,0.260962 -0.04704,0.53557 0.03716,0.782888 0.042,0.123381 0.208073,0.157054 0.310338,0.237857 0.0068,0.0053 0.01998,0.0124 0.01623,0.02017 -0.0077,0.01593 -0.07715,-0.0541 -0.08213,-0.05706 -0.01314,-0.0011 -0.02754,-0.0092 -0.03941,-0.0034 -0.02041,0.0099 -0.03549,0.08651 -0.03703,0.09326 -0.0042,0.01856 -0.01298,0.07502 -0.0101,0.0562 0.05049,-0.330492 -0.0555,-0.301293 0.09777,-0.320858 0.0076,0.0023 0.02479,-6.62e-4 0.02274,0.007 -0.0051,0.01902 -0.02471,0.03065 -0.03694,0.04608 -0.02105,0.02653 -0.04529,0.05085 -0.06291,0.07978 -0.01686,0.02768 -0.07245,0.150263 -0.0745,0.189846 -9.52e-4,0.01851 0.01346,0.03455 0.02019,0.05182 -0.07336,0.03011 0.352452,1.067593 0.425813,1.037483 z" />
    <path
       style="fill:#3a2524;fill-opacity:1;stroke-width:0.264583;stroke-dasharray:none"
       id="path9471"
       d="m 12.348406,12.806967 c -0.05849,-0.0372 -0.146519,-0.09721 -0.20992,-0.116234 -0.238666,-0.07163 -0.512021,-0.0377 -0.743305,0.04194 -0.103445,0.03562 -0.199595,0.08968 -0.299392,0.134513 -0.0877,0.06303 -0.18099,0.118928 -0.263088,0.189094 -0.191001,0.16324 -0.353664,0.370179 -0.447659,0.604616 -0.04068,0.101466 -0.06811,0.243303 -0.09198,0.350575 -0.03128,0.229319 -0.07648,0.476592 0.02887,0.700525 0.06008,0.127703 0.210273,0.191489 0.332343,0.262322 0.05231,0.03035 0.118762,0.02291 0.178222,0.03394 0.0028,5.02e-4 0.01102,0.0017 0.0084,6.88e-4 -0.123357,-0.049 -0.247315,-0.09647 -0.370973,-0.144698 -0.04407,-0.0216 -0.08319,-0.06719 -0.132209,-0.0648 -0.08872,0.0043 -0.08082,0.269094 -0.109985,0.208456 -0.03673,-0.07637 -0.01156,-0.169264 -0.01079,-0.254006 1.56e-4,-0.01735 0.003,0.03602 0.01263,0.05049 0.0079,0.01188 0.02401,0.01534 0.03601,0.02301 0.02668,-0.0088 0.05335,-0.01769 0.08002,-0.02653 0.05531,-0.02561 0.108433,-0.05661 0.16593,-0.07684 0.04371,-0.01538 0.091,-0.01781 0.135878,-0.02936 0.01393,-0.0036 0.03679,-0.0019 0.0401,-0.01593 0.0016,-0.0066 -0.05067,-0.04294 -0.05643,-0.04713 -0.08787,-0.05354 -0.163548,-0.125565 -0.256996,-0.170332 -0.03419,-0.01638 -0.0706,-0.02768 -0.105899,-0.04152 -0.07827,-0.03427 -0.5629419,1.07261 -0.4846734,1.106881 v 0 c 0.00632,0.03124 0.033962,0.04138 0.055029,0.06259 0.1284812,0.129384 0.024797,0.03682 0.1700494,0.158498 0.04087,0.028 0.07951,0.05957 0.122611,0.084 0.09794,0.05551 0.247916,0.110423 0.355309,0.121342 0.357319,0.03633 0.577429,-0.05933 0.848738,-0.281742 0.05189,-0.06604 0.11388,-0.12528 0.155683,-0.198132 0.188394,-0.328324 0.198231,-0.825928 -0.0038,-1.15432 -0.04703,-0.07645 -0.105848,-0.144988 -0.158771,-0.217481 -0.136959,-0.06918 -0.271856,-0.142603 -0.410875,-0.207543 -0.01227,-0.0057 -0.05341,-0.0075 -0.04051,-0.0033 0.179203,0.0576 0.307044,0.01619 0.421792,0.278164 0.01977,0.04514 0.03083,0.387729 0.03668,0.558562 0.01066,0.0036 0.02102,0.01312 0.032,0.01069 0.07368,-0.01626 0.141448,-0.08274 0.190136,-0.130685 0.04448,-0.0438 0.08828,-0.08878 0.126081,-0.138452 0.0098,-0.01293 0.118662,-0.203467 0.131507,-0.225846 0.03225,-0.06422 0.04382,-0.09993 0.09198,-0.151793 0.07208,-0.07761 0.178082,-0.09911 0.254704,-0.169415 0.07883,0.01319 0.265393,-1.101623 0.186563,-1.114815 z" />
    <path
       style="fill:#3a2524;fill-opacity:1;stroke-width:0.264583;stroke-dasharray:none"
       id="path9473"
       d="m 13.469445,8.8295948 c 0.0653,-0.066198 0.143511,-0.1217756 0.195912,-0.1985931 0.154062,-0.2258497 0.228961,-0.4909077 0.277384,-0.7559749 0.03613,-0.1977488 0.06742,-0.609546 0.05297,-0.819422 -0.0071,-0.1031946 -0.03539,-0.2038288 -0.05308,-0.3057438 -0.03058,-0.05402 -0.04245,-0.124319 -0.09174,-0.162059 -0.04191,-0.03209 -0.103176,-0.02925 -0.155937,-0.0276 -0.445245,0.01388 -0.662895,0.207281 -0.97026,-0.265924 -0.08127,-0.125119 0.02934,-0.541658 -0.03301,-0.289812 -0.04058,0.442258 -0.107404,0.573956 0.436145,1.0130273 0.122127,0.098653 0.314532,0.024133 0.470879,0.00989 0.12954,-0.011798 0.285553,-0.1044843 0.381235,-0.1879923 0.04961,-0.0433 0.08824,-0.09776 0.132365,-0.146646 0.195935,-0.304565 0.226687,-0.503145 0.217582,-0.8997 -0.0015,-0.06518 -0.04192,-0.123549 -0.05953,-0.186328 -0.02737,-0.09758 -0.0253,-0.1143 -0.03409,-0.207257 2e-5,-0.02672 -0.0053,-0.054 6.1e-5,-0.08017 0.01848,-0.08942 0.07554,-0.167153 0.09909,-0.25537 0.01648,-0.06172 -0.009,-0.239574 0.03035,-0.189226 0.04302,0.05509 -0.0098,0.139461 -0.01476,0.209192 0.02865,-0.104261 -1.445816,-0.509415 -1.474465,-0.405155 v 0 c -0.0075,0.199429 -0.02549,0.398739 -0.02256,0.598288 0.004,0.272896 0.158,0.506213 0.244162,0.756571 0.01745,0.03416 0.03361,0.069 0.05234,0.102472 0.0096,0.01707 0.01282,0.0486 0.03238,0.04894 0.0175,2.91e-4 -0.02067,-0.03125 -0.01957,-0.04872 0.03583,-0.569804 -0.01504,-0.266193 0.07864,-0.463688 7.15e-4,-0.0015 -0.0012,-0.0031 -0.0018,-0.0046 -0.01522,0.01745 -0.104525,0.121419 -0.05256,0.145623 0.09384,0.04371 0.233159,9e-4 0.300127,0.07983 0.428348,0.504949 0.405552,0.483882 0.344811,0.833604 0.02304,-0.04957 0.06001,-0.0948 0.06911,-0.1487 0.07719,-0.456935 0.191228,-0.841566 -0.370792,-1.096475 -0.250753,-0.113731 -0.721168,-0.0059 -0.965294,0.142783 -0.108798,0.06625 -0.19692,0.161633 -0.29538,0.24245 -0.08089,0.118648 -0.182195,0.22575 -0.242668,0.356036 -0.279007,0.601101 -0.252182,1.4005372 0.02951,1.9949064 0.05105,0.1077248 0.130607,0.1994641 0.195911,0.2991964 -0.02209,0.086021 1.19443,0.3983688 1.216516,0.312348 z" />
    <path
       style="fill:#3a2524;fill-opacity:1;stroke-width:0.264583;stroke-dasharray:none"
       id="path9475"
       d="m 13.254123,10.97586 c 0.02684,0.09629 -0.01605,0.191137 -0.01093,0.286603 0.0037,0.06959 0.02208,0.137633 0.03226,0.206579 0.01906,0.129027 0.04526,0.364859 0.08399,0.484543 0.02595,0.08018 0.07063,0.153033 0.105946,0.22955 0.04814,0.05808 0.08958,0.12244 0.144409,0.174249 0.184736,0.17455 0.492188,0.280906 0.732935,0.325248 0.10977,0.02022 0.272124,-0.0076 0.151801,0.01125 -0.05046,5.82e-4 -0.251013,-0.04247 -0.29189,0.06528 -0.03572,0.09415 0.01402,0.273864 0.03223,0.35586 0.0455,0.204866 0.04105,0.176505 0.103172,0.363574 0.02215,0.04444 0.04429,0.08888 0.06644,0.133328 0.04608,0.09695 1.4172,-0.554697 1.371121,-0.65165 v 0 c -0.0066,-0.07894 -0.01322,-0.157878 -0.01983,-0.236818 -0.02397,-0.08999 -0.03986,-0.182521 -0.07191,-0.269955 -0.09398,-0.256396 -0.251972,-0.493151 -0.459286,-0.67132 -0.07635,-0.06562 -0.153392,-0.133975 -0.243814,-0.178229 -0.116887,-0.05721 -0.247123,-0.08168 -0.370685,-0.122517 -0.05653,-0.003 -0.113143,-0.01309 -0.169593,-0.0089 -0.02017,0.0015 0.03896,0.01093 0.05818,0.01721 0.07336,0.02399 0.144707,0.05469 0.219538,0.07359 0.03596,0.0091 0.08151,0.03257 0.110828,0.0099 0.05542,-0.04292 0.0012,-0.280373 -8.62e-4,-0.295431 -0.02652,-0.07019 -0.04537,-0.143766 -0.07955,-0.210558 -0.03282,-0.06415 -0.188888,-0.281663 -0.239501,-0.347628 -0.01655,-0.02157 -0.134888,-0.163123 -0.157927,-0.179768 -0.01049,-0.0076 -0.02587,6.35e-4 -0.0388,9.53e-4 -0.03076,-0.07483 -1.089027,0.360238 -1.058263,0.435069 z" />
    <path
       style="fill:#3a2524;fill-opacity:1;stroke-width:0.264583;stroke-dasharray:none"
       id="path9477"
       d="m 14.190395,3.57093 c 0.02729,0.02767 0.05101,0.05941 0.08188,0.08301 0.03494,0.02671 0.07625,0.04386 0.113862,0.06665 0.176191,0.106779 0.293247,0.181713 0.504759,0.212437 0.0653,0.0095 0.13177,0.0072 0.197656,0.01073 0.08587,-0.01268 0.174157,-0.01413 0.257596,-0.03803 0.298263,-0.08546 0.595663,-0.189707 0.737099,-0.50992 0.140941,-0.319094 0.101816,-0.761621 0.07811,-1.110272 -0.08324,-0.373849 0.0067,-0.0087 -0.09282,-0.322809 -0.01155,-0.03645 -0.01866,-0.07417 -0.02762,-0.111347 -0.0069,-0.02845 -0.01292,-0.113959 -0.01979,-0.08552 -0.06243,0.258235 0.05842,0.314225 -0.05043,0.254516 -0.121755,0.08732 0.08213,-0.0628 -0.127996,0.120205 -0.04851,0.04225 -0.06451,0.047 -0.111052,0.06757 0.08114,-0.02506 -0.273233,-1.172558 -0.354373,-1.1475 v 0 c -0.04771,0.01853 -0.09784,0.03173 -0.14312,0.05558 -0.1988,0.104685 -0.337321,0.247101 -0.433497,0.450215 -0.0957,0.287581 -0.04977,0.106475 -0.07364,0.603361 -0.01125,0.234111 -0.0013,0.08818 2.4e-4,0.331316 0.0019,0.289218 -0.01528,0.06213 0.01762,0.361037 0.016,0.05737 0.02837,0.115881 0.048,0.172114 0.01054,0.0302 0.02706,0.114395 0.04217,0.0862 0.05862,-0.10938 0.0299,-0.257626 0.103329,-0.357674 0.167181,-0.227795 0.31823,-0.118587 0.522354,-0.22747 0.01885,-0.01005 -0.002,-0.04267 -0.003,-0.06401 -0.0554,-0.03294 -0.107573,-0.07204 -0.166202,-0.09882 -0.264685,-0.120867 -0.538282,-0.150206 -0.825631,-0.116816 -0.07541,0.0088 -0.15161,0.01984 -0.223312,0.04479 -0.05832,0.0203 -0.108179,0.0596 -0.162269,0.0894 -0.08351,0.0078 0.02659,1.188835 0.110099,1.18105 z" />
    <path
       style="fill:#3a2524;fill-opacity:1;stroke-width:0.264583;stroke-dasharray:none"
       id="path9479"
       d="m 1.5658579,13.383584 c -0.519438,0.21281 -0.88315804,0.505159 -1.10823504,1.035884 -0.136953,0.322929 -0.119055,0.426289 -0.141232,0.754408 0.01081,0.08608 0.0124,0.173815 0.03242,0.258224 0.102568,0.432515 0.71996704,0.67611 1.00655504,0.81636 0.0546,0.02672 0.188387,-0.181531 0.202583,-0.227557 0.02053,-0.06655 0.02376,-0.137236 0.03565,-0.205854 -0.06486,-0.195081 -0.05534,-0.433987 -0.194571,-0.585242 -0.240494,-0.261269 -0.51833202,-0.167518 -0.78489904,-0.122088 -0.08006,0.03755 0.45098704,1.169796 0.53104804,1.132245 v 0 c -0.17500501,-0.037 -0.47064304,-0.08978 -0.56834304,-0.209605 -0.115156,-0.141231 -0.101147,-0.350139 -0.15172,-0.52521 0.08304,-0.196084 0.0025,-0.0551 0.0491,-0.03556 0.02877,0.01206 0.06777,-0.01798 0.0936,-4.77e-4 0.31496402,0.213462 0.60629804,0.459957 0.91419504,0.683491 0.03045,0.02211 0.06221,0.05201 0.09984,0.0527 0.05262,9.79e-4 0.100247,-0.03206 0.150371,-0.04809 0.0675,-0.05095 0.143344,-0.0924 0.202492,-0.152844 0.296987,-0.303482 0.461627,-0.709915 0.517209,-1.126597 0.01669,-0.125107 0.01218,-0.252686 0.0039,-0.378627 -0.0047,-0.07167 -0.02856,-0.140786 -0.04284,-0.211179 0.06395,-0.0599 -0.783117,-0.964277 -0.847067,-0.90438 z" />
    <path
       style="fill:#3a2524;fill-opacity:1;stroke-width:0.264583;stroke-dasharray:none"
       id="path9481"
       d="m 4.7635759,10.275562 c 0.05828,-0.01321 0.119849,-0.01625 0.174852,-0.03962 0.351937,-0.14953 0.59711,-0.4544464 0.755628,-0.7925413 0.03361,-0.071688 0.05853,-0.1471369 0.0878,-0.2207056 0.02854,-0.080438 0.0631,-0.1589902 0.08562,-0.2413156 0.06724,-0.2457175 0.08337,-0.5798433 0.04266,-0.810338 -0.02556,-0.1447216 -0.207425,-0.3233608 -0.320803,-0.4025474 -0.05837,-0.040768 -0.127174,-0.064055 -0.190761,-0.096082 -0.07868,-0.029625 -0.497646,1.0830706 -0.418967,1.112696 v 0 c -0.03085,-0.017066 -0.06398,-0.030536 -0.09255,-0.051194 -0.04702,-0.034002 -0.172961,-0.1450176 -0.182562,-0.2084422 -0.02012,-0.1328692 0.0071,-0.2688405 0.0024,-0.4031427 -0.0011,-0.030956 -0.209443,0.061481 -0.07736,0.051474 -0.1279,0.1153001 -0.191348,0.1629752 -0.300948,0.3088429 -0.09089,0.1209616 -0.190098,0.3020181 -0.238507,0.4444931 -0.02745,0.080798 -0.05841,0.2942629 -0.07305,0.3859686 -0.06805,0.052789 0.678497,1.0152402 0.746553,0.9624512 z" />
    <path
       style="fill:#3a2524;fill-opacity:1;stroke-width:0.264583;stroke-dasharray:none"
       id="path9483"
       d="m 16.063907,7.4817652 c -0.03171,0.011967 -0.06587,0.018791 -0.09512,0.035901 -0.254423,0.1488123 -0.486116,0.4917768 -0.586045,0.7607549 -0.03151,0.084822 -0.04201,0.1760313 -0.06301,0.2640468 -0.0024,0.073202 -0.01238,0.1465365 -0.0073,0.2196049 0.01533,0.2218505 0.07605,0.136497 0.21162,0.06988 0.02722,-0.013377 0.07195,-0.00644 0.08436,-0.034118 0.0091,-0.020405 -0.04462,-0.00317 -0.06692,-0.00476 -0.266198,0.043177 -0.458901,0.1156425 -0.627659,0.3364053 -0.05975,0.060652 -0.03351,0.035596 -0.07753,0.076398 -0.05778,0.042939 0.549464,0.8600759 0.607244,0.8171359 v 0 c 0.06217,-0.05994 0.03737,-0.033576 0.07652,-0.077045 0.05464,-0.024749 0.104902,-0.055049 0.154493,-0.090984 0.02843,-0.00917 0.05655,-0.019388 0.0853,-0.027517 0.07036,-0.019892 0.144631,-0.027965 0.211939,-0.056522 0.21431,-0.090926 0.226732,-0.1307078 0.386182,-0.271268 0.167223,-0.1474131 0.06887,-0.040133 0.214425,-0.2243145 0.0298,-0.059808 0.06612,-0.1167887 0.08939,-0.1794241 0.02531,-0.068125 0.03626,-0.1407654 0.05562,-0.2108168 0.07261,-0.2627548 0.154187,-0.5236361 0.156407,-0.7993769 0.04271,-0.057266 -0.767162,-0.6612472 -0.80987,-0.6039805 z" />
    <path
       style="fill:#21141d;fill-opacity:1;stroke-width:0.264583;stroke-dasharray:none"
       id="path10215"
       d="m 6.5932689,12.914355 c -0.05971,0.152416 -7.67e-4,0.28252 0.03961,0.431668 0.04537,0.167531 0.05439,0.236185 0.134771,0.396756 0.03045,0.06082 0.07114,0.115949 0.1067166,0.173924 0.1120007,0.145682 0.2504082,0.244608 0.4188472,0.313529 0.1250733,0.05118 0.1882159,0.07564 0.3229433,0.07865 0.017515,3.97e-4 0.033579,-0.01001 0.050368,-0.01502 -0.080657,-0.265139 -0.1371762,-0.538858 -0.2419705,-0.795416 -0.00971,-0.02378 -0.046988,0.02125 -0.068541,0.03522 -0.1496663,0.09704 -0.22714,0.222836 -0.3136161,0.373716 -0.041317,0.09876 -0.066167,0.146056 -0.089375,0.252678 -0.020714,0.09517 -0.01248,0.194762 -0.015126,0.2912 -0.00327,0.119129 -0.00781,0.238219 -0.011721,0.357329 0.028189,0.124785 0.047408,0.250116 0.085845,0.372524 0.034581,0.06375 0.9361805,-0.425296 0.9015998,-0.489049 v 0 c -0.012094,-0.04142 -0.020516,-0.07776 -0.039247,-0.116454 -0.00354,-0.0073 -0.00996,-0.01288 -0.014129,-0.01985 -0.00449,-0.0075 -0.011584,-0.0322 -0.011774,-0.02346 -2.45e-4,0.01129 0.00773,0.02121 0.011594,0.03182 -0.00403,0.0967 -0.013854,0.193327 -0.012097,0.290092 3.969e-4,0.02164 0.041196,-0.01841 0.054266,-0.03566 0.058931,-0.07779 0.088102,-0.169467 0.122636,-0.259488 0.023029,-0.09173 0.061908,-0.190293 0.044864,-0.286527 -0.0031,-0.01749 -0.012917,-0.0331 -0.019376,-0.04965 -0.00751,-0.0092 -0.019219,-0.01628 -0.022516,-0.02772 -0.078297,-0.271668 -0.1476303,-0.54584 -0.2214457,-0.81876 0.053865,-0.0797 0.1157264,0.01708 0.1558473,-0.02583 0.04356,-0.04659 -0.046305,-0.252045 -0.060757,-0.289896 -0.027314,-0.04987 -0.050999,-0.101901 -0.081943,-0.1496 -0.057783,-0.08907 -0.1217271,-0.149911 -0.186949,-0.232064 -0.020704,-0.02608 -0.035068,-0.05731 -0.058501,-0.08097 -0.030089,-0.03037 -0.084121,-0.02973 -0.1068009,-0.07102 -0.027388,-0.0618 -0.901415,0.325519 -0.874027,0.387322 z" />
    <path
       style="fill:#21141d;fill-opacity:1;stroke-width:0.264583;stroke-dasharray:none"
       id="path10266"
       d="M 7.2452639,7.3917894 C 7.3234289,7.3574784 7.4070587,7.3335974 7.4797577,7.2888554 7.8445983,7.0643183 8.1161193,6.714171 8.2482969,6.306583 8.3596304,5.963271 8.3371769,5.765827 8.3424969,5.414511 8.2049183,4.723969 8.3554219,5.343981 8.155596,4.789253 8.102523,4.641921 8.061463,4.490534 8.0143972,4.341174 7.9893282,4.269084 6.9698259,4.623601 6.9948938,4.695691 v 0 c -0.041735,-0.09579 -0.038375,-0.22925 -0.1252043,-0.287375 -0.122604,-0.08207 -0.223787,0.47025 -0.261144,0.357371 -0.03157,0.11851 -0.07238,0.234935 -0.09471,0.355529 -0.05428,0.293239 -0.07673,0.569298 -0.0092,0.864093 0.02836,0.123834 0.128896,0.372876 0.254518,0.468143 0.03165,0.024 0.07634,0.02194 0.1145166,0.03291 -0.06402,0.02628 0.3075894,0.9317038 0.3716127,0.905427 z" />
    <path
       style="fill:#21141d;fill-opacity:1;stroke-width:0.264583;stroke-dasharray:none"
       id="path10268"
       d="m 2.6094449,4.639518 c -0.397818,-0.0071 -0.78841,0.178368 -1.089359,0.429725 -0.08497,0.07097 -0.156175,0.15695 -0.234262,0.235426 -0.102427,0.147826 -0.200671,0.261204 -0.255159,0.433377 -0.01275,0.04027 -0.007,0.08419 -0.01048,0.126287 -0.07363,0.04303 0.534856,1.0842952 0.608485,1.041268 v 0 c 0.06822,-0.01015 0.138001,-0.01275 0.204667,-0.03045 0.214809,-0.05701 0.268155,-0.112108 0.462513,-0.232744 0.07864,-0.07347 0.164245,-0.140132 0.23593,-0.220405 0.239928,-0.26867 0.356611,-0.592357 0.501423,-0.914022 0.06141,-0.02996 -0.362349,-0.898431 -0.423759,-0.868467 z" />
    <path
       style="fill:#21141d;fill-opacity:1;stroke-width:0.264583;stroke-dasharray:none"
       id="path10270"
       d="m 3.8031829,10.060089 c -0.356098,0.02413 -0.626216,0.200746 -0.882896,0.439499 -0.06799,0.06325 -0.128734,0.133872 -0.193102,0.200808 -0.066,0.07214 -0.136923,0.140066 -0.197986,0.21643 -0.157355,0.196783 -0.331525,0.483117 -0.43154,0.715993 -0.07558,0.175974 -0.08472,0.251183 -0.12619,0.432359 -0.0495,0.07475 1.007649,0.774815 1.057151,0.700063 v 0 c 0.06708,-0.07632 0.113154,-0.126042 0.175761,-0.211402 0.03992,-0.05442 0.07601,-0.111554 0.114337,-0.167108 0.12591,-0.182497 0.255082,-0.362685 0.38154,-0.5448 0.28564,-0.347686 0.01397,-0.01005 0.274026,-0.353069 0.166858,-0.220089 0.120776,-0.127916 0.24496,-0.363262 0.02563,-0.04857 0.05558,-0.09585 0.07157,-0.148383 0.0096,-0.03147 0.0024,-0.06575 0.0036,-0.09862 0.05788,-0.03474 -0.433363,-0.853245 -0.49124,-0.818509 z" />
    <path
       style="fill:#21141d;fill-opacity:1;stroke-width:0.264583;stroke-dasharray:none"
       id="path10272"
       d="m 5.2325629,2.745387 c 0.04349,-0.02833 0.09168,-0.05049 0.130466,-0.08498 0.286673,-0.254928 0.453042,-0.633047 0.505972,-1.008509 0.0096,-0.06786 0.0036,-0.137014 0.0054,-0.205521 -0.04922,-0.168301 -0.06415,-0.08997 -0.166745,-0.01908 0.08863,-8.94e-4 0.07598,-1.254329 -0.01265,-1.253434 v 0 c -0.115377,0.0106 -0.234427,0.001 -0.346131,0.03181 -0.235876,0.06496 -0.434485,0.204075 -0.638279,0.330034 -0.07536,0.07575 -0.162741,0.141199 -0.226087,0.227251 -0.221016,0.300236 -0.303529,0.676235 -0.292387,1.04287 0.0032,0.104471 0.02147,0.208198 0.04121,0.310838 0.01387,0.07214 0.03957,0.141489 0.05935,0.212233 -0.02945,0.06646 0.91039,0.482943 0.93984,0.416486 z" />
    <path
       style="fill:#21141d;fill-opacity:1;stroke-width:0.264583;stroke-dasharray:none"
       id="path10274"
       d="m 9.7047078,6.139084 c -0.026947,0.04954 -0.065185,0.09444 -0.080841,0.148616 -0.079383,0.274685 -0.067964,0.435988 -0.021677,0.7224433 0.043987,0.2722227 0.1019666,0.4739709 0.2309441,0.715101 0.043884,0.082044 0.1041543,0.1542079 0.1562309,0.2313117 -0.05588,-0.075722 0.2193072,0.2272824 0.2640672,0.1385311 0.04987,-0.098876 -0.01369,-0.2406121 0.05474,-0.3276767 0.206803,-0.2631101 0.4595,-0.3985498 0.740379,-0.2363573 -0.04934,-0.047144 -0.716052,0.6506128 -0.666713,0.6977565 v 0 c 0.03163,0.027931 0.05592,0.067598 0.09488,0.083794 0.316497,0.1315571 0.511564,0.1254924 0.775106,-0.2271758 0.08468,-0.1133215 0.03331,-0.2813738 0.06284,-0.4197244 0.03388,-0.1587039 0.140823,-0.2978629 0.129303,-0.4693526 -0.0044,-0.1237678 0.0044,-0.2487142 -0.01322,-0.3713038 C 11.384647,6.504042 11.30068,6.264164 11.122359,5.990571 11.045039,5.871936 10.956238,5.758278 10.850378,5.664221 10.659066,5.494238 10.515738,5.459079 10.295475,5.377471 10.241625,5.335701 9.650853,6.097311 9.7047078,6.139084 Z" />
    <path
       style="fill:#21141d;fill-opacity:1;stroke-width:0.264583;stroke-dasharray:none"
       id="path10276"
       d="m 11.618762,3.090953 c 0.04482,0.0086 0.08887,0.02356 0.134452,0.0257 0.306031,0.01433 0.663265,-0.138314 0.910622,-0.307741 0.07418,-0.05081 0.140503,-0.112223 0.210754,-0.168334 0.153073,-0.145894 0.237041,-0.291368 0.308976,-0.485669 0.01887,-0.05096 0.04497,-0.100288 0.05368,-0.153923 0.02774,-0.170765 0.03677,-0.344047 0.05516,-0.516071 -0.02301,-0.06208 -0.900938,0.263374 -0.877925,0.325452 v 0 c 0.02016,-0.157725 0.04313,-0.315116 0.06048,-0.473175 0.0023,-0.02147 0.01629,-0.05243 -0.0014,-0.06478 -0.02342,-0.01632 -0.0577,-0.0021 -0.08554,0.0042 -0.123671,0.02797 -0.175566,0.07054 -0.289252,0.135208 -0.25726,0.20205 -0.503479,0.42449 -0.684393,0.699831 -0.06925,0.01445 0.135173,0.99378 0.204421,0.979326 z" />
    <path
       style="fill:#21141d;fill-opacity:1;stroke-width:0.264583;stroke-dasharray:none"
       id="path10278"
       d="m 15.592675,4.553169 c -0.44899,0.123788 -0.777292,0.342486 -1.078273,0.704449 -0.107889,0.129748 -0.211565,0.264808 -0.294429,0.411805 -0.08431,0.149568 -0.136175,0.315236 -0.204262,0.472854 -0.02975,0.156865 -0.0595,0.313731 -0.08924,0.470597 -0.06363,0.115528 1.570181,1.0154177 1.633813,0.8998898 v 0 C 15.610474,7.4113387 15.660668,7.3099136 15.71086,7.2084887 15.754,7.0786548 15.80427,6.9509752 15.840281,6.818987 c 0.01701,-0.06233 0.149905,-0.696482 0.165167,-0.782831 6.02e-4,-0.0034 0.07142,-0.440462 0.0539,-0.499235 -0.01172,-0.03935 -0.06337,-0.05222 -0.09506,-0.07833 0.06402,-0.02628 -0.30759,-0.931704 -0.371613,-0.905427 z" />
    <path
       style="fill:#21141d;fill-opacity:1;stroke-width:0.264583;stroke-dasharray:none"
       id="path10280"
       d="m 13.222911,14.166067 c -0.01098,0.02688 -0.02866,0.05191 -0.03293,0.08063 -0.01605,0.10793 0.01896,0.235468 0.05425,0.335943 0.01648,0.04691 0.04969,0.08935 0.05451,0.138839 0.0068,0.07004 -0.01368,0.140077 -0.02051,0.210116 0.04057,0.479574 0.18616,0.873147 0.600781,1.148714 0.03837,0.0255 0.08208,0.04185 0.123126,0.06277 0.03582,0.01557 0.0694,0.03787 0.107448,0.0467 0.03364,0.0078 0.0137,-0.03725 0.01065,-0.05811 -0.019,-0.129959 -0.03634,-0.260155 -0.05451,-0.390232 -0.02025,0.06316 0.87295,0.349579 0.893203,0.28642 v 0 c -0.01713,-0.144916 -0.02869,-0.290599 -0.05138,-0.434748 -0.0107,-0.06798 -0.05613,-0.127304 -0.06711,-0.195241 -0.0041,-0.02555 0.0043,-0.05159 0.0064,-0.07739 -0.02188,-0.159765 -0.03672,-0.321775 -0.09126,-0.474963 -0.07817,-0.219571 -0.202948,-0.413001 -0.359816,-0.584402 -0.04581,-0.0387 -0.09666,-0.07212 -0.137427,-0.116093 -0.0089,-0.0096 -0.01976,-0.106506 -0.02141,-0.115851 -0.01518,-0.08589 -0.03618,-0.15374 -0.09691,-0.219352 -0.02519,-0.06485 -0.94227,0.291403 -0.917079,0.356251 z" />
    <path
       style="fill:#967952;fill-opacity:1;stroke-width:0.211275;stroke-dasharray:none"
       id="path20592"
       d="m -0.05060714,9.2755187 c 0.09996,-0.038888 0.105369,0.4694235 0.18815,0.4321962 0.06473,-0.029114 0.04801,-0.3953011 0.113243,-0.4156838 0.06414,-0.02004 0.07997,0.3060714 0.14356,0.335449 0.05032,0.023248 0.08063,-0.1763731 0.130171,-0.2089985 0.04129,-0.027195 0.08461,0.026448 0.126918,0.039675 0.03797,-0.094092 0.06181,-0.2619149 0.113906,-0.2822785 0.0408,-0.015951 0.05574,0.1822955 0.09643,0.200053 0.02963,0.012932 0.04631,-0.11354 0.07604,-0.1247897 0.01924,-0.00728 0.03256,0.09877 0.05009,0.077071 0.06472,-0.080109 0.02907,-0.1398118 0.01083,-0.1748693 0.04965,-0.2800827 -0.03812,0.1621239 0.03774,0.04473 0.0422,-0.065316 0.04337,-0.2682474 0.09108,-0.2995196 0.03023,-0.019813 0.03215,0.1378619 0.04629,0.2094962 0.02042,0.103545 0.02276,0.2409073 0.05726,0.3156347 0.01683,0.036444 0.04142,-0.038078 0.06213,-0.057117 0.06418,-0.1366472 0.0421,-0.1657966 0.110319,-0.040244 0.01939,0.035697 0.03059,0.1144166 0.05435,0.1197493 0.01581,0.00355 0.01117,-0.093075 0.0267,-0.1015497 0.01085,-0.00592 0.0041,0.058411 0.01078,0.081091 0.0032,0.010778 0.01036,0.00495 0.01554,0.00742 0.160929,-0.5487167 -0.02959,0.034806 0.02571,0.2704873 0.02321,0.098911 0.06306,-0.1688673 0.102012,-0.226208 0.0097,-0.014261 0.02906,0.00173 0.03143,0.029812 0.0069,0.082441 -0.02557,0.1816267 -0.0077,0.2522921 0.01196,0.047286 0.04331,-0.017306 0.06497,-0.025963 0.04337,-0.032227 0.12029,-0.1384789 0.166146,-0.014506 0.01798,0.048617 0.03162,0.4151856 0.115629,0.2907906 0.04041,-0.05983 0.03958,-0.3168978 0.08469,-0.2866283 0.05068,0.034009 0.03614,0.2532227 0.05421,0.3798353 0.108098,-0.8687949 -0.0059,-0.3446358 0.112973,-0.209799 0.01662,0.018856 0.0049,-0.12465 0.02304,-0.1271581 0.0434,-0.00601 0.03852,0.2279689 0.09755,0.1530703 0.01737,-0.022034 0.01752,-0.088939 0.02628,-0.1334081 0.09678,-0.045975 -0.03111,-0.010855 0.08231,0.074293 0.01137,0.00854 0.02127,-0.039762 0.03293,-0.034366 0.01989,0.0092 0.03486,0.095486 0.05331,0.074288 0.122856,-0.1411223 -0.0042,-0.4331232 0.126686,0.029849 0.01537,-0.026344 0.03074,-0.052688 0.04611,-0.079032 0.01186,-0.036107 0.0212,-0.078948 0.03559,-0.1083228 0.0143,-0.029181 0.03396,-0.036501 0.04879,-0.06387 0.01395,-0.025764 0.02084,-0.1116639 0.03652,-0.093583 0.100911,0.1164249 -0.02173,0.2865128 0.08016,0.099171 0.04848,0.036389 -0.0013,-0.3139154 0.03103,-0.2704172 0.02506,0.033691 0.0027,0.1779842 0.0289,0.2053222 0.02046,0.021352 0.02246,-0.1070604 0.0425,-0.1307955 0.0701,-0.082942 0.07777,0.2635727 0.10794,0.503415 0.122525,-1.4749701 -0.0339,-0.088349 0.0908,-0.2244028 0.04458,-0.048645 0.01542,-0.2571528 0.04513,-0.3556517 0.01476,-0.048943 0.09963,0.062863 0.108234,0.077393 0.01629,0.0275 0.02939,0.065842 0.04408,0.098764 0.01064,-0.00901 0.02481,-0.00472 0.03192,-0.027018 0.01387,-0.043603 0.01167,-0.1128801 0.02613,-0.1552319 0.04813,-0.1409273 0.05961,0.300796 0.124402,0.2273321 0.02891,-0.032779 0.0301,-0.1430545 0.04515,-0.2145815 0.01595,0.06515 0.02447,0.1474015 0.04784,0.195451 0.0087,0.017852 0.02355,-0.012034 0.03057,-0.034239 0.01072,-0.033995 0.0032,-0.139567 0.01879,-0.1221792 0.01987,0.022139 3.42e-4,0.1982697 0.01669,0.1616966 0.02015,-0.045086 -0.0089,-0.3243751 0.0082,-0.1459138 0.07633,0.3400371 0.05506,-0.1690311 0.08211,-0.1257521 0.251156,0.4018458 -0.15003,0.434227 0.04698,-0.010495 0.105188,-0.2374541 -0.01701,0.5755879 0.04405,0.133973 0.01539,-0.020748 0.03635,-0.025319 0.04615,-0.062249 0.01719,-0.064697 0.0096,-0.1631854 0.02943,-0.2225498 0.01064,-0.03179 0.03245,-0.00754 0.04869,-0.010906 0.01322,-0.00274 0.02644,-0.00499 0.03967,-0.00747 0.02067,0.057766 0.03157,0.1773677 0.06203,0.1733118 0.02598,-0.00346 0.02002,-0.123717 0.03003,-0.1855756 0.06908,-0.2062383 0.0096,-0.1106865 0.100157,-0.017782 0.01656,0.016985 0.03706,-0.00824 0.05331,0.01061 0.02725,0.031603 0.04539,0.1672622 0.0726,0.1354349 0.03475,-0.04066 0.0071,-0.2953832 0.04423,-0.2721074 0.0573,0.035962 0.07028,0.2440187 0.105434,0.3660284 -0.04172,-1.2740279 -0.0765,-0.4883214 0.02584,-0.4941445 0.01323,-7.46e-4 0.01747,-0.073965 0.03033,-0.065908 0.02457,0.015405 0.03454,0.1081434 0.05925,0.1220664 0.04049,0.022824 0.02828,-0.1454727 0.02724,-0.2576519 0.01824,0.016921 0.0079,-0.038883 0.0027,-0.038891 -0.03196,-5.11e-5 -0.02654,0.2007129 -0.0055,0.225572 0.01556,0.018402 0.03287,-0.024702 0.0493,-0.037054 0.02081,0.055726 0.03265,0.1573357 0.06242,0.1671773 0.03006,0.00993 0.05144,-0.082714 0.07789,-0.1207938 0.02494,-0.035897 0.04791,-0.090883 0.07621,-0.1010101 0.02205,-0.00789 0.04261,0.033217 0.06378,0.050913 0.01224,0.01024 0.02723,0.00973 0.03645,0.032863 0.0042,0.010419 -0.01049,0.012739 -0.01573,0.019107 -0.0054,-0.044916 0.0017,-0.1241311 -0.01609,-0.1347448 -0.02043,-0.012201 -0.03521,0.059251 -0.05105,0.09465 -0.0097,0.021684 -0.03594,0.092927 -0.02503,0.075445 0.04763,-0.076362 0.09327,-0.3463891 0.136401,-0.2539878 0.303028,0.6491171 -0.285319,0.4136239 0.07137,0.5018966 0.02212,4.747e-4 0.04747,0.031053 0.06636,0.00142 0.03819,-0.059833 0.04773,-0.2507286 0.09244,-0.2502383 0.03564,4.069e-4 0.02779,0.1691708 0.04338,0.2517272 0.01339,0.070878 0.02186,0.1524848 0.04348,0.2082481 0.03195,0.082391 0.08501,0.09475 0.12626,0.1142616 0.02645,-0.048981 0.05382,-0.094889 0.07937,-0.1469433 0.116358,-0.2369912 0.05636,-0.2546149 0.09873,0.1863232 0.0067,0.070441 0.0014,0.2272511 0.02825,0.2051743 0.246522,-0.2028004 -0.01841,-0.3486584 0.108916,-0.2632041 0.165095,-0.1964971 -0.07007,0.037084 0.09729,0.035506 0.02193,-2.065e-4 0.03687,-0.1304396 0.05424,-0.095968 0.03502,0.06945 0.0148,0.2608947 0.05441,0.311445 0.02665,0.034028 -0.0031,-0.1604294 0.0108,-0.2282028 0.0074,-0.036282 0.02984,-0.028689 0.04476,-0.043035 0.02812,0.011637 0.05588,0.035956 0.08436,0.034919 0.107574,-0.00392 0.02187,-0.030755 0.07649,-0.1533595 0.0053,-0.011944 0.01168,0.029791 0.01031,0.047611 -0.0044,0.05611 -0.0075,0.1268197 -0.0262,0.1578174 -0.01109,0.018402 -0.0061,-0.066087 -0.0092,-0.099131 0.0045,0.00852 0.0087,0.032735 0.0136,0.025574 0.02253,-0.0331 0.03324,-0.1450212 0.05865,-0.1317027 0.06047,0.031684 -0.0365,0.2435067 0.01612,0.2890048 0.174601,0.1509757 -0.05556,-0.3079602 0.08876,0.012532 0.07039,-0.09935 0.07025,-0.160491 0.143307,-0.058365 0.03786,0.052925 0.06374,0.1699601 0.106109,0.1899746 0.133933,0.063269 -0.0083,-0.4492324 0.05543,-0.2823393 -0.109132,-0.088388 0.01513,0.3633868 0.04919,0.299636 0.01727,-0.032332 0.02128,-0.1032861 0.04032,-0.1282223 0.03,-0.039307 0.03972,0.083312 0.079203,-0.011739 -0.00188,-0.038427 -0.0028,-0.077253 -0.00565,-0.1152817 -0.022201,-0.2958307 -0.011657,0.055494 0.026582,0.034453 0.023045,-0.012688 0.0034,-0.128988 0.018382,-0.1758277 0.00641,-0.020057 0.00856,0.051727 0.01754,0.063555 0.018747,0.024676 0.040804,0.026734 0.061205,0.040098 0.00442,-0.2672807 -0.00602,0.015889 0.013182,-0.029985 0.016299,-0.038923 -0.022577,-0.1541575 0.00334,-0.1304874 0.047087,0.043012 -0.051048,0.205411 0.051582,-0.025416 0.020478,0.03425 0.042121,0.064267 0.061433,0.1027517 0.027752,0.055303 0.078188,0.231076 0.1285094,0.1876241 0.024118,-0.020826 0.032683,-0.1005092 0.047927,-0.1529629 0.014404,-0.049562 0.016989,-0.148018 0.04095,-0.1528685 0.027267,-0.00552 0.042806,0.087721 0.064209,0.1315819 -0.0027,-0.071174 -0.015562,-0.1446326 -0.00811,-0.2135206 0.0027,-0.024977 0.018648,0.036061 0.028198,0.027856 0.010134,-0.00871 0.014851,-0.041746 0.018286,-0.067804 0.00171,-0.012926 -0.00666,-0.05155 -0.00414,-0.039549 0.017122,0.081312 0.015237,0.2109934 0.048095,0.2483205 0.022442,0.025496 0.0026,-0.1261803 0.00388,-0.1892696 0.01166,-0.099658 0.0024,-0.2374148 0.034981,-0.2989748 0.0203,-0.038354 0.035299,0.099694 0.059028,0.1213628 0.017639,0.016109 0.037771,-0.02966 0.055777,-0.016517 0.022461,0.016395 0.035001,0.098517 0.058342,0.099812 0.018114,0.00102 0.037768,-0.048089 0.040155,-0.094347 0.00676,-0.1308729 -0.00995,-0.2627987 -0.014932,-0.394197 0.07329,-0.3487398 0.1479598,0.2421408 0.1013396,0.2586068 -0.027006,0.00953 -0.05085,-0.051851 -0.074583,-0.086395 -0.019215,-0.027968 -0.031735,-0.1081074 -0.053588,-0.1001629 -0.018339,0.00666 -0.016296,0.085689 -0.024442,0.1285322 2.89e-5,-0.043147 -0.011928,-0.099374 8.68e-5,-0.1294396 0.00869,-0.021736 0.016431,0.04713 0.021468,0.0755 0.013522,0.076177 0.00213,0.2549857 0.03378,0.23574 0.041465,-0.025217 0.019222,-0.2524698 0.058949,-0.292131 0.026523,-0.026479 0.024423,0.133737 0.042,0.191346 0.011527,0.03778 0.029185,0.059865 0.043778,0.089799 0.080725,0.1035951 0.038838,0.092488 0.073717,-0.2874802 0.00155,-0.016951 1.136e-4,0.044389 -0.00633,0.049641 -0.011572,0.00943 -0.025717,0.00169 -0.035926,-0.015215 -0.033372,-0.055264 -0.017351,-0.1319416 -0.029805,-0.04918 -0.1100512,0.4285733 -0.081382,0.186739 -0.043601,0.2125897 0.013146,0.009 0.03094,0.00442 0.038723,0.033156 0.015521,0.057305 0.00399,0.1539838 0.024416,0.1999583 0.013641,0.030699 0.035666,-0.0164 0.053498,-0.024599 0.015346,0.037446 0.030692,0.074891 0.046038,0.1123379 0.018984,-0.036008 -0.023116,0.044005 0.040744,-0.082174 0.1516537,-0.2996484 -0.08293,0.1086932 0.084121,0.2804634 0.1515936,0.1558758 -0.031857,-0.8391988 0.09229,-0.047721 -0.00391,-0.00674 -0.2035688,-0.3195091 -0.022891,-0.3321179 0.036468,-0.00254 -0.00711,0.188069 -0.00406,0.2817103 0.00101,0.03124 0.010379,0.1124662 0.015951,0.084597 0.067035,-0.3352632 0.032652,-0.6686998 0.062714,-0.060916 0.012467,-0.020796 0.024934,-0.041592 0.037402,-0.062387 0.010619,-0.073798 0.00877,-0.1698388 0.031857,-0.2213934 0.011215,-0.025045 0.016057,0.064313 0.024085,0.096471 0.043621,-0.0034 0.025017,-1.5923875 -0.018603,-1.5889994 v 0 c -0.025506,-0.3198047 -0.00461,0.4173051 -0.025718,0.1313669 -0.022508,0.063962 0.00314,0.00214 -0.011555,-0.1142988 -0.00174,-0.013783 -0.011551,-0.024886 -0.015792,-0.015361 -0.014638,0.032874 -0.013458,0.1171759 -0.032683,0.124231 -0.1047043,0.038422 0.061859,-0.4849017 -0.0848,0.099705 0.019305,-0.028225 0.00952,-0.020308 0.035521,-0.093746 0.00737,-0.020819 0.014485,-0.043151 0.023587,-0.058782 0.00405,-0.00695 -0.00522,0.021146 -0.00783,0.031718 -0.00263,-0.053926 -0.00526,-0.1078511 -0.00789,-0.161777 0.00418,0.024447 0.00406,0.05798 0.012534,0.073343 0.00442,0.008 0.00721,-0.020704 0.010817,-0.031056 -0.01465,0.086062 -0.029301,0.1721238 -0.043952,0.2581856 -0.00534,0.023112 -0.029208,0.070404 -0.026067,0.044753 0.014797,-0.1208508 0.067857,-0.2180903 0.062722,-0.3441169 -0.00282,-0.0692 -0.048709,0.060196 -0.073064,0.090293 -0.045427,-0.2419523 0.017931,0.008 -0.1102181,-0.081826 -0.026759,-0.018759 -0.037067,-0.1254062 -0.064536,-0.1352431 -0.019125,-0.00684 -0.034613,0.1393805 -0.044253,0.096285 -0.023245,-0.1039295 0.028812,-0.3124466 -0.014273,-0.3579479 -0.038775,-0.040949 -0.015582,0.2121268 -0.023372,0.3181903 -0.00879,-0.031015 -0.021433,-0.05682 -0.026385,-0.093049 -0.011302,-0.082685 0.012468,-0.2507317 -0.021475,-0.2570979 -0.034612,-0.00648 -0.019888,0.1766926 -0.042202,0.245155 -0.00658,0.020178 -0.02204,-0.00755 -0.028788,-0.027354 -0.013482,-0.039555 -0.00841,-0.127795 -0.028282,-0.140095 -0.022147,-0.013709 -0.039803,0.057084 -0.059705,0.085627 -0.024829,0.016463 -0.049809,0.067308 -0.074484,0.049386 -0.043825,-0.031833 -0.075945,-0.2451031 -0.1155993,-0.1874564 -0.044104,0.064116 0.00136,0.2713468 -0.021853,0.3872773 -0.010828,0.054063 -0.045295,0.035042 -0.067238,0.057542 -0.017712,0.018161 -0.03364,0.046862 -0.051479,0.064183 -0.00506,0.00491 0.00839,-0.017605 0.012575,-0.026408 0.010434,-0.029029 0.017453,-0.1041948 0.0313,-0.087085 0.024714,0.030538 0.032878,0.1146192 0.043583,0.1796173 0.00262,0.015868 -7.843e-4,0.060724 -0.00586,0.049468 -0.031811,-0.070633 -0.014932,-0.2383977 -0.060165,-0.2851449 -0.00978,-0.01989 -2.23e-5,0.064193 -3.34e-5,0.09629 -0.030137,0.033543 -0.059136,0.074244 -0.090028,0.1028684 -0.01908,0.017679 -0.042416,0.011816 -0.058384,0.044008 -0.010853,0.021882 -0.00504,0.072555 -0.013416,0.1007422 -0.031182,0.1049023 -0.067011,-0.059528 -0.083958,-0.098473 0.057268,0.7872724 0.03831,0.2972895 -0.034281,0.1028068 -0.019023,-0.050963 0.00902,0.1750307 -0.015168,0.2084637 -0.027164,0.037554 -0.05413,-0.1025518 -0.060223,-0.1252268 -0.00785,0.055955 -8.592e-4,0.1570112 -0.023569,0.1678667 -0.02377,0.011355 -0.02755,-0.1203376 -0.051292,-0.1320879 -0.016358,-0.0081 -0.021116,0.070465 -0.036175,0.088802 -0.011927,0.014523 -0.027153,-0.00818 -0.039554,0.00341 -0.034561,0.032294 -0.033197,0.088471 -0.042831,0.1664394 0.0059,-0.033984 0.01454,-0.065639 0.01776,-0.1019495 7.35e-4,-0.00834 -0.0091,-2.588e-4 -0.0094,0.00827 -0.0011,0.029093 -0.0022,0.1066157 0.0059,0.086332 0.035965,-0.089308 -0.01348,-0.1730797 -0.03988,-0.1689503 -0.01487,0.00235 -0.02412,0.045045 -0.03618,0.067567 -0.04507,0.067824 -0.02114,0.061869 -0.07206,0.00832 -0.01432,0.01247 -0.0139,0.1231647 -0.02515,0.09717 -0.02684,-0.062022 -0.01293,-0.3054164 -0.0433,-0.2553343 -0.03885,0.06407 0.0097,0.2561197 -0.01647,0.3539148 -0.01245,0.046485 -0.04031,-0.044458 -0.06047,-0.066687 -0.02477,-0.075155 -0.04177,-0.2773053 -0.07433,-0.2254663 -0.03508,0.055852 -0.0066,0.2299115 0.01788,0.3153399 0.01465,0.051068 -0.0043,-0.1940635 0.01997,-0.1834282 0.04102,0.017951 0.05808,0.153524 0.08711,0.2302862 0.01898,-0.037685 0.03309,-0.1072206 0.05695,-0.113053 0.01318,-0.00322 -0.0045,0.067197 -0.0068,0.1007947 0.0063,-0.071591 0.03923,-0.2744478 -0.01147,-0.3343503 -0.02593,-0.030636 -0.05752,0.039451 -0.08518,0.021468 -0.07976,-0.051854 -0.12947,-0.4103622 -0.224274,-0.3723564 -0.364665,0.6619693 0.16737,-0.1672661 -0.250143,-0.028168 -0.04045,0.013476 -0.0289,0.1964662 -0.04334,0.2946997 -0.0061,0.046461 2.9e-4,0.1290613 -0.01833,0.1393824 -0.01781,0.00988 -0.02009,-0.1409002 -0.03394,-0.1104066 -0.01575,0.034656 0.0086,0.1043473 0.01299,0.1565208 -0.01188,-0.061159 -0.01368,-0.1450883 -0.03565,-0.1834773 -0.01127,-0.0197 -0.02896,0.030887 -0.03217,0.065003 -0.0074,0.078621 -0.01417,0.1752925 0.0033,0.2425142 0.01322,0.050872 0.0085,-0.1204478 0.01277,-0.1806717 0.006,-0.00832 0.01325,-0.037495 0.01801,-0.02494 0.0049,0.012875 -0.006,0.032587 -0.0089,0.048878 -0.0083,-0.019416 -0.0145,-0.048004 -0.025,-0.058246 -0.01473,-0.014356 -0.03622,0.017565 -0.04702,-0.011944 -0.0227,-0.061986 -0.01246,-0.1937835 -0.04213,-0.2314777 -0.0237,-0.0301 -0.04594,0.1015381 -0.07173,0.086826 -0.04557,-0.025995 -0.04406,-0.2693599 -0.112178,-0.2158941 -0.114126,-0.011906 -0.06054,-0.058344 -0.149669,0.2054107 -0.02998,0.00454 -0.02559,-0.1458431 -0.04872,-0.1952022 -0.03888,-0.082988 -0.09075,0.066907 -0.11864,0.1056225 0.01244,-0.062685 0.02161,-0.1304642 0.03733,-0.1880533 0.0059,-0.021573 -3.56e-4,0.057001 -0.007,0.07702 -0.0031,0.00925 -0.0068,-0.019094 -0.01151,-0.021352 -0.02138,-0.010394 -0.0511,0.027282 -0.06501,-0.015842 -0.199802,-0.6195746 0.144733,-0.00532 -0.119884,-0.4229259 -0.02991,-0.043477 -0.06738,-0.063264 -0.08974,-0.1304328 -0.03027,-0.090964 -0.02219,-0.3884371 -0.06116,-0.3230461 -0.02849,0.0478 -0.0079,0.6929614 -0.136779,0.5579717 -0.02974,-0.031149 -0.03792,-0.16557 -0.06997,-0.1704905 -0.03018,-0.00463 -0.04656,0.099349 -0.06985,0.149024 -0.01,-0.017436 -0.104641,-0.1950709 -0.123344,-0.1823973 -0.02891,0.019585 -0.03859,0.1209502 -0.06382,0.1622212 -0.01803,0.029493 -0.04737,0.00282 -0.06183,0.04332 -0.01658,0.04643 0.0055,0.185915 -0.01895,0.1828672 -0.0349,-0.00434 -0.04852,-0.129529 -0.07278,-0.1942934 0.01416,0.1114857 0.03498,0.218753 0.04246,0.3344566 0.0023,0.034991 -0.01816,-0.053478 -0.02617,-0.082338 -0.0076,-0.027333 -0.06664,-0.2762684 -0.06918,-0.2705687 -0.09173,0.2055517 0.07606,0.4318246 -0.07567,0.162078 -0.02106,-0.00997 -0.04238,-0.042861 -0.0632,-0.029921 -0.01652,0.010265 -0.02767,0.05432 -0.03641,0.091826 -0.01695,0.072691 -0.0065,0.2306513 -0.0394,0.2332701 -0.04174,0.00332 -0.05091,-0.2567647 -0.09054,-0.2229284 -0.05449,0.04652 0.0077,0.335436 -0.02643,0.4383098 -0.02165,-0.1107078 -0.03752,-0.2302665 -0.06494,-0.3321219 -0.0038,-0.014218 -0.01036,0.022111 -0.01591,0.031847 -0.0058,0.010073 -0.01677,0.00979 -0.01792,0.027453 -0.0052,0.080166 0.0056,0.163725 3.03e-4,0.2438438 -0.0028,0.04332 -0.0083,0.1326466 -0.0242,0.1161866 -0.02118,-0.022037 -0.01567,-0.1105438 -0.02351,-0.1658159 -0.06517,0.3659911 -0.01086,0.1948099 -0.08308,-0.081912 -0.0073,-0.027906 -0.03211,-0.059558 -0.03752,-0.028955 -0.01562,0.088335 0.0071,0.202228 -0.0087,0.2903264 -0.01197,0.066642 -0.04664,-0.6343455 -0.005,0.092176 -0.0088,-0.091625 -0.01762,-0.1832505 -0.02643,-0.2748758 -0.01037,0.00754 -0.02207,0.037635 -0.03113,0.022599 -0.01635,-0.027127 -0.02026,-0.167377 -0.0315,-0.1265045 -0.02366,0.085981 0.0032,0.2246411 -0.01957,0.3121234 -0.01206,0.046257 -0.05764,-0.3001179 -0.0649,0.00153 -0.01212,-0.011867 -0.02459,-0.021565 -0.03636,-0.035591 -0.01126,-0.013431 -0.02047,-0.053908 -0.03255,-0.046564 -0.01879,0.011419 -0.0258,0.097697 -0.04504,0.093744 -0.02086,-0.00429 -0.02676,-0.1377631 -0.0452,-0.1122906 -0.08488,0.1171849 0.01616,0.5657169 -0.08264,-0.066727 -0.01139,-0.030537 -0.02332,-0.059774 -0.03415,-0.091614 -0.01192,-0.035067 -0.01902,-0.1348412 -0.03406,-0.1089187 -0.02582,0.044486 -0.0086,0.1748602 -0.03299,0.2244675 -0.01592,0.032393 -0.0389,-0.033224 -0.05913,-0.036932 -0.122327,-0.022437 0.001,0.087197 -0.127118,-0.06168 -0.01812,0.072062 -0.03071,0.1556993 -0.05437,0.2161871 -0.01935,0.049478 -0.11774,0.088956 -0.142759,0.063811 -0.02036,-0.020467 -0.02978,-0.1012113 -0.05161,-0.1042128 -0.01369,-0.0019 -0.01235,0.063045 -0.01853,0.094568 -0.08408,-0.051096 -0.01966,-0.010676 -0.06756,0.1855099 -0.0063,0.026163 -0.02425,0.047292 -0.03411,0.02967 -0.0252,-0.045063 -0.03238,-0.1370024 -0.05531,-0.1895208 -0.01457,-0.033389 -0.03578,-0.040063 -0.05366,-0.060096 -0.01622,0.018561 -0.03497,0.026571 -0.04866,0.055679 -0.01694,0.036037 -0.01854,0.1357588 -0.0405,0.1339596 -0.02711,-0.0022 -0.03267,-0.1396358 -0.05977,-0.1421732 -0.02601,-0.00245 -0.0343,0.1501519 -0.05924,0.1310299 -0.04033,-0.030918 -0.0444,-0.2731454 -0.08463,-0.241306 -0.04551,0.03602 -0.03207,0.2309151 -0.04811,0.3463725 -0.0245,-0.049292 -0.04259,-0.156554 -0.07349,-0.1478782 -0.02337,0.00656 -0.01576,0.1145909 -0.02,0.1741257 -0.0054,0.075983 2.1e-4,0.1569773 -0.0088,0.2306341 -0.0019,0.015625 -0.01712,0.012047 -0.01903,-0.00358 -0.01178,-0.096163 -0.0033,-0.2054842 -0.01801,-0.2989253 -0.01105,-0.070143 0.0044,0.150964 0.0066,0.2264458 -0.005,0.031623 -0.0093,0.1256625 -0.01504,0.094865 -0.01282,-0.068863 -0.0064,-0.1518317 -0.0097,-0.2277474 -0.0094,0.00129 -0.02186,0.021793 -0.02815,0.00382 -0.01401,-0.040062 -0.0025,-0.1412743 -0.02315,-0.1504119 -0.03742,-0.016575 -0.04784,0.2095909 -0.0968,0.15472 0.0036,-0.2391208 0.04801,-0.3851282 -0.06046,-0.3709977 -0.02578,0.00336 -0.05357,0.097425 -0.07417,0.057338 -0.02139,-0.041632 0.01149,-0.148478 -0.0027,-0.2070175 -0.02681,-0.1104348 -0.124138,-0.012265 -0.145343,3.729e-4 -0.126212,-0.1242861 -0.06343,-0.036648 -0.184191,-0.2817577 -0.105633,-0.118114 -0.06856,0.015975 -0.147554,0.042824 -0.01516,0.00515 -0.0313,-0.043463 -0.04485,-0.025119 -0.02006,0.027181 -0.02697,0.093822 -0.04048,0.140733 -0.01188,0.010547 -0.02547,0.012662 -0.03566,0.031629 -0.01266,0.023569 -0.01606,0.1069079 -0.0305,0.091589 -0.02805,-0.029775 0.01288,-0.3515407 0.0011,-0.3520438 -0.0349,-0.00149 -0.05138,0.1217691 -0.07708,0.182654 -0.01272,-0.020677 -0.1142,-0.180966 -0.124353,-0.215491 -0.0256,-0.087054 -0.02117,-0.2381847 -0.05821,-0.2913067 -0.02689,-0.038572 -0.06097,0.039284 -0.08642,0.083898 -0.04038,0.070796 -0.05894,0.245413 -0.107613,0.2562464 -0.04942,0.010996 -0.08396,-0.1361727 -0.125934,-0.2042594 -0.04591,0.043379 -0.08884,0.1342477 -0.137715,0.1301373 -0.537839,-0.045233 0.241025,-0.2799412 -0.298926,-0.2440716 -0.281949,0.018731 0.0059,0.1825093 -0.233437,0.4988062 -0.02846,0.037617 -0.0477,-0.1098184 -0.07155,-0.1647284 -0.04771,0.00938 0.0038,1.7473632 0.05149,1.7379862 z" />
  </g>
</svg>
