<?xml version="1.0" encoding="UTF-8" standalone="no"?>
<!-- Created with Inkscape (http://www.inkscape.org/) -->

<svg
   width="63.999996"
   height="63.999996"
   viewBox="0 0 16.933332 16.933332"
   version="1.1"
   id="svg5"
   inkscape:version="1.2.2 (732a01da63, 2022-12-09)"
   sodipodi:docname="tiles_vine_left_top.svg"
   inkscape:export-filename="tiles_vine_bottom_right.svg"
   inkscape:export-xdpi="96"
   inkscape:export-ydpi="96"
   xmlns:inkscape="http://www.inkscape.org/namespaces/inkscape"
   xmlns:sodipodi="http://sodipodi.sourceforge.net/DTD/sodipodi-0.dtd"
   xmlns="http://www.w3.org/2000/svg"
   xmlns:svg="http://www.w3.org/2000/svg">
  <sodipodi:namedview
     id="namedview7"
     pagecolor="#ffffff"
     bordercolor="#000000"
     borderopacity="0.25"
     inkscape:showpageshadow="2"
     inkscape:pageopacity="0.0"
     inkscape:pagecheckerboard="true"
     inkscape:deskcolor="#d1d1d1"
     inkscape:document-units="px"
     showgrid="true"
     showguides="true"
     inkscape:zoom="7.796875"
     inkscape:cx="28.665331"
     inkscape:cy="32.256513"
     inkscape:window-width="958"
     inkscape:window-height="1008"
     inkscape:window-x="946"
     inkscape:window-y="0"
     inkscape:window-maximized="0"
     inkscape:current-layer="layer1">
    <inkscape:grid
       type="xygrid"
       id="grid88"
       spacingx="2.1166666"
       spacingy="2.1166666"
       empspacing="8" />
  </sodipodi:namedview>
  <defs
     id="defs2" />
  <g
     inkscape:label="Layer 1"
     inkscape:groupmode="layer"
     id="layer1">
    <circle
       id="path5383"
       style="fill:#3b2625;stroke:#000000;stroke-width:0.264583"
       cx="1.055795"
       cy="10.078043"
       r="0.0063923118" />
    <rect
       style="fill:#35201f;fill-opacity:1;stroke-width:0.264583;stroke-dasharray:none"
       id="rect7797"
       width="16.933332"
       height="16.933332"
       x="0"
       y="0" />
    <path
       style="fill:#3a2524;fill-opacity:1;stroke-width:0.264583;stroke-dasharray:none"
       id="path8684"
       d="M 11.818512,7.7883728 C 11.69877,7.5908555 11.636892,7.467861 11.459763,7.2931604 11.069011,6.9077651 10.500471,6.5912899 9.948371,6.534283 9.737428,6.5125025 9.5250795,6.5609252 9.3134338,6.5742465 9.0655478,6.489202 7.862835,9.9948398 8.110721,10.079885 v 0 c 0.175836,0.04995 0.3455956,0.131928 0.5275083,0.149847 0.2167263,0.02135 0.4364844,-0.0057 0.6524601,-0.03362 0.5653307,-0.07313 1.1160996,-0.2511351 1.6064386,-0.5424974 0.07769,-0.046165 0.146535,-0.1058124 0.219803,-0.1587185 0.12067,0.049609 0.822251,-1.6569182 0.701581,-1.7065273 z" />
    <path
       style="fill:#3a2524;fill-opacity:1;stroke-width:0.264583;stroke-dasharray:none"
       id="path9461"
       d="M 2.8451323,16.016025 C 2.9666194,15.850373 2.9839324,15.640538 2.9271185,15.445767 2.8837662,15.297146 2.809716,15.199845 2.7285407,15.068559 2.5691946,14.904127 2.5802818,14.884933 2.382204,14.78901 c -0.010673,-0.0052 -0.042091,-0.0079 -0.035522,0.002 0.03377,0.05075 0.098526,0.07839 0.1254048,0.133104 0.3087228,0.6284 -0.00289,0.265821 0.2610647,0.546057 0.067259,-0.01064 0.1363829,-0.01294 0.201776,-0.03194 0.2045126,-0.0594 0.3879829,-0.184729 0.4999373,-0.36831 0.031386,-0.05147 0.1471007,-0.386242 0.1473177,-0.386845 -0.1181331,-0.809157 0.072869,-0.552823 -0.3114686,-0.907021 -0.077618,-0.04393 -0.6989168,1.053749 -0.6212991,1.097682 v 0 c -0.1182115,-0.347077 -0.044467,-0.09004 -0.085381,-0.797667 0.00881,-0.05451 0.059548,-0.119346 0.026434,-0.163534 -0.030613,-0.04085 -0.1024792,-0.01239 -0.1530512,-0.0054 C 2.1593459,13.945426 1.902962,14.105 1.7232209,14.3173 c -0.070913,0.08376 -0.1188867,0.184508 -0.17833,0.276762 -0.147075,0.42763 -0.213529,0.436549 -0.038732,0.957473 0.027572,0.08217 0.1148658,0.12986 0.1743386,0.192906 0.013154,0.01394 0.05859,0.04941 0.043317,0.03783 C 1.6322625,15.712821 1.6561165,15.730941 1.587991,15.63605 1.578101,15.62053 1.576375,15.59311 1.558335,15.5895 1.545279,15.5869 1.547466,15.61464 1.547513,15.62795 c 9.76e-5,0.02772 0.00595,0.0552 0.011247,0.08241 0.00858,0.04405 0.013588,0.08955 0.030359,0.131175 0.00544,0.0135 0.099274,0.153867 0.1129751,0.174527 0,0.08083 1.1430368,0.08083 1.143037,0 z" />
    <path
       style="fill:#3a2524;fill-opacity:1;stroke-width:0.264583;stroke-dasharray:none"
       id="path9463"
       d="m 7.7039723,15.273205 c 0.00669,0.01823 0.00886,0.03884 0.020058,0.0547 0.095367,0.135092 0.22191,0.251323 0.3554431,0.346831 0.2125829,0.152049 0.3471515,0.212113 0.603446,0.269565 0.08602,0.01928 0.1751764,0.01996 0.2627649,0.02994 0.060038,-0.0093 0.132021,0.0092 0.1801148,-0.02795 0.032338,-0.02496 0.017412,-0.08108 0.013835,-0.121774 -0.0084,-0.09561 -0.050515,-0.18768 -0.049462,-0.283651 0.00116,-0.1056 0.036082,-0.208119 0.055995,-0.311831 0.023357,-0.121646 0.05616,-0.08564 -0.00833,-0.12779 -0.00838,-0.0029 -0.034026,-0.0087 -0.025157,-0.0087 0.1043136,-2.21e-4 0.2106544,-0.01291 0.3128378,0.0081 0.023331,0.0048 0.022696,0.04189 0.033618,0.06305 0.096851,0.187685 0.2546103,0.355229 0.2896989,0.563495 0.097017,0.575837 -0.3397155,0.344506 0.019553,0.489947 0.2167167,0.0273 0.3938472,-0.0034 0.5937662,-0.0883 0.07029,-0.02984 0.140592,-0.06083 0.205969,-0.100298 0.115649,-0.06981 0.236325,-0.18033 0.338742,-0.268317 0.07602,-0.08792 0.134539,-0.145216 0.190628,-0.245169 0.01475,-0.02628 0.05559,-0.06301 0.03382,-0.08384 -0.02076,-0.01986 -0.04348,0.04456 -0.07208,0.04724 -0.229848,0.02152 -0.461421,0.0162 -0.692131,0.02431 0.06345,0.04825 0.745879,-0.849003 0.682433,-0.897259 v 0 c -0.247609,-5.82e-4 -0.4964,-0.02592 -0.742828,-0.0017 -0.05478,0.0054 -0.09014,0.06402 -0.139545,0.08829 -0.02769,0.0136 -0.147009,0.01674 -0.1793059,0.0287 -0.1890131,0.02864 0.057086,-0.0045 -0.1706492,0.0097 -0.046796,0.0029 -0.093241,0.01006 -0.139719,0.01624 -0.2311739,0.03071 -0.4161184,0.06831 -0.6069788,0.2154 -0.1746165,0.168568 -0.4368704,0.392479 -0.4359095,0.652681 8.202e-4,0.225451 0.1671373,0.420988 0.2836215,0.614017 0.029207,0.0484 0.086728,0.08249 0.1424463,0.09203 0.3265268,0.05591 0.418397,0.0282 0.6802022,-0.01475 0.066203,-0.02706 0.1386774,-0.04216 0.1986108,-0.08119 0.2462166,-0.160342 0.3850586,-0.345584 0.4364406,-0.658835 0.04712,-0.28727 -0.06267,-0.575285 -0.201846,-0.815802 C 10.119915,14.656685 10.04532,14.576509 9.9809425,14.48962 9.700708,14.280087 9.657066,14.204257 9.3016899,14.119564 9.1597288,14.085734 9.0126665,14.069004 8.866731,14.069674 c -0.2574083,0.0012 -0.4886655,0.118819 -0.7433889,0.124023 -0.076337,-0.02965 -0.4957067,1.04991 -0.4193701,1.079564 z" />
    <path
       style="fill:#3a2524;fill-opacity:1;stroke-width:0.264583;stroke-dasharray:none"
       id="path9465"
       d="M 6.0942563,12.038962 C 6.0856044,11.89209 6.013343,11.767412 5.9340546,11.64738 5.8141906,11.465924 5.7763637,11.399948 5.5981811,11.26989 5.5335725,11.222732 5.4597847,11.189644 5.3905866,11.149521 4.8863353,10.942661 4.5908893,10.881205 4.0297327,11.022839 c -0.096488,0.02435 -0.2895867,0.221706 -0.3490193,0.276797 0.08952,-0.117384 -0.285615,0.398683 -0.1692756,0.345043 0.083637,-0.03856 0.079238,-0.197608 0.1688975,-0.218662 0.4865193,-0.87157 0.6342743,0.157215 0.9510096,0.116313 0.060103,-0.0078 0.066574,-0.101283 0.099861,-0.151924 0.047795,-0.215573 0.076484,-0.286033 0.072722,-0.510612 -0.00138,-0.08218 -0.017431,-0.163455 -0.026146,-0.245182 0.00238,-0.122369 -1.728185,-0.155894 -1.7305557,-0.03353 v 0 c -0.012988,0.103544 -0.03763,0.206286 -0.038965,0.310634 -0.00406,0.317119 0.039031,0.374599 0.1312326,0.670106 0.072415,0.129922 0.317882,0.605158 0.4423799,0.652623 0.9284435,0.353964 0.6359763,0.148646 1.0350888,-0.18786 0.040597,-0.03423 -0.070608,0.194221 -0.048354,0.151789 -0.013417,0.02158 -0.036928,0.03954 -0.04025,0.06473 -0.00217,0.01652 0.042196,0.03836 0.02609,0.04263 -0.1012348,0.02684 -0.2077103,0.03169 -0.3124313,0.03329 -0.017566,2.64e-4 0.028244,-0.02118 0.043876,-0.02919 0.014481,-0.0074 0.030008,-0.02058 0.045835,-0.0168 0.035016,0.0084 0.06363,0.0337 0.095445,0.05055 0.1093589,0.05739 0.1595665,0.09317 0.2820839,0.119677 0.04348,0.0094 0.089415,0.0027 0.1329116,0.01204 0.031602,0.0068 0.05931,0.02601 0.090119,0.03578 0.023447,0.0074 0.1093388,0.0229 0.1368406,0.02806 0.035369,0.07249 1.0604958,-0.427712 1.0251263,-0.500199 z" />
    <path
       style="fill:#3a2524;fill-opacity:1;stroke-width:0.264583;stroke-dasharray:none"
       id="path9467"
       d="m 1.8535479,8.1702369 c -0.044581,0.091394 -0.04707,0.058059 0.051469,0.184653 0.1822658,0.2341589 0.4065429,0.3796808 0.6882898,0.4726821 0.092043,0.030382 0.189028,0.042994 0.2835421,0.064491 C 3.141992,8.901823 3.6362882,8.930997 3.8275012,8.848829 4.221835,8.6793752 4.356736,8.1675546 4.3198772,7.7882405 4.3132917,7.7204699 4.2922383,7.6548947 4.2784191,7.5882221 4.227487,7.4583268 4.1621672,7.3299078 4.0725701,7.2216078 4.0553139,7.2007507 4.036107,7.1809228 4.0138688,7.165486 4.0030208,7.157956 3.9839898,7.144071 3.9758188,7.154445 c -0.014306,0.018164 -0.00504,0.045965 -0.00756,0.068947 -0.2445766,0.9303224 0.049344,0.079564 -0.2513897,0.5583343 -0.0088,0.014012 0.00578,0.038938 0.021233,0.044869 0.043125,0.016558 0.091575,0.012692 0.137642,0.016129 0.1330854,0.00992 0.2672215,0.00909 0.4005091,0.010541 C 4.3643102,7.8416183 4.452367,7.8299683 4.540424,7.8183213 4.6414113,7.7640933 3.874526,6.335964 3.773542,6.3901912 v 0 c -0.060627,0.03231 -0.121253,0.064621 -0.1818794,0.096932 -0.054807,0.033271 -0.1119296,0.062997 -0.1644208,0.099814 -0.18869,0.132343 -0.024254,0.031915 -0.1484069,0.1415773 -0.082189,0.072597 -0.2304936,0.1383545 -0.2794527,0.2287889 -0.070853,0.1308748 -0.085195,0.2851933 -0.1277924,0.4277899 -1.204e-4,0.036605 0.0018,0.073273 -3.704e-4,0.109814 -0.010448,0.1766128 -0.010181,-0.048802 -0.018201,0.1304338 -0.00439,0.098067 0.01247,0.1968783 0.033321,0.2921479 0.014174,0.031977 0.021823,0.067738 0.042524,0.095933 0.012348,0.016817 0.036949,0.047442 0.052705,0.033765 C 3.2400943,7.8227702 2.9033258,7.7973922 3.3886923,7.6095981 3.5313821,7.5543896 3.6999222,7.6218245 3.846623,7.5783817 3.8806691,7.5682985 3.8043773,7.5212992 3.7832545,7.4927578 3.722275,7.4512296 3.664862,7.403907 3.6003161,7.3681735 3.4321885,7.2750917 3.2249546,7.1970698 3.0372605,7.1602335 2.7907027,7.1118446 2.5371803,7.1357563 2.2886168,7.111974 2.2137863,7.0812101 1.7787174,8.139473 1.8535479,8.1702369 Z" />
    <path
       style="fill:#3a2524;fill-opacity:1;stroke-width:0.264583;stroke-dasharray:none"
       id="path9469"
       d="m 16.218762,12.523139 c -0.02311,-0.221795 -0.09283,-0.405728 -0.261553,-0.55929 -0.119259,-0.108543 -0.228086,-0.161873 -0.368079,-0.244695 -0.314883,-0.146315 -0.690597,-0.20401 -1.024261,-0.0883 -0.0863,0.02993 -0.222335,0.108528 -0.293755,0.165729 -0.0456,0.03652 -0.08444,0.08075 -0.126657,0.121129 -0.106764,0.116459 -0.163569,0.161159 -0.233574,0.303598 -0.02554,0.05196 -0.04322,0.107726 -0.05813,0.163667 -0.0091,0.03405 -0.03813,0.130007 -0.01345,0.104854 0.474687,-0.483832 -0.298242,-0.210236 0.853328,-0.357467 0.02402,0.0021 0.05672,0.02489 0.07207,0.0063 0.01525,-0.01849 -0.01133,-0.04676 -0.02037,-0.06896 -0.04983,-0.122466 -0.09773,-0.175268 -0.195325,-0.256917 -0.03519,-0.0041 -0.04835,-0.05391 -0.08155,-0.06083 -0.0094,-0.002 -0.01739,0.02617 -0.02255,0.01805 -0.131895,-0.207677 -0.07496,-0.346963 -0.388229,-0.448278 -0.145434,-0.04704 -0.305682,-0.0033 -0.458524,-0.005 -0.0064,-0.009 -0.01,-0.02074 -0.01905,-0.02693 -0.0118,-0.008 -0.05476,-0.01212 -0.04058,-0.01368 0.100914,-0.01112 0.303638,-0.08772 0.304261,0.01381 -0.01658,-0.0081 -0.03276,-0.0171 -0.04973,-0.02439 -0.03188,-0.01369 -0.05986,-0.01822 -0.06052,-0.01632 -0.0043,0.01241 0.0078,0.0251 0.01224,0.03748 0.01685,0.04731 0.05348,0.09138 0.05155,0.141566 -0.0061,0.157949 -0.05001,0.312152 -0.07501,0.468228 0.04419,-0.06418 -0.863403,-0.689043 -0.907587,-0.624867 v 0 c -0.0329,0.165118 -0.09257,0.327101 -0.09869,0.495352 -0.0026,0.07077 0.04244,0.135685 0.0734,0.199378 0.05854,0.120422 0.173677,0.207728 0.281192,0.28056 0.04138,0.02659 0.0806,0.05689 0.124132,0.07978 0.254932,0.134057 0.591109,0.168018 0.850885,0.03338 -0.132106,-0.0055 -0.27276,0.03061 -0.396317,-0.01646 -0.447287,-0.170404 -0.122571,-0.188505 -0.333886,-0.415572 -0.01966,-0.02112 -0.0074,0.05723 -0.01124,0.08582 -0.01615,0.120267 -0.01177,0.04689 -0.0057,0.200779 0.026,0.124715 0.03868,0.220977 0.09573,0.338445 0.124945,0.257254 0.366494,0.416476 0.604481,0.557284 0.260962,-0.01239 0.53557,0.04704 0.782888,-0.03716 0.123381,-0.042 0.157054,-0.208073 0.237857,-0.310338 0.0053,-0.0068 0.0124,-0.01998 0.02017,-0.01623 0.01593,0.0077 -0.0541,0.07715 -0.05706,0.08213 -0.0011,0.01314 -0.0092,0.02754 -0.0034,0.03941 0.0099,0.02041 0.08651,0.03549 0.09326,0.03703 0.01856,0.0042 0.07502,0.01298 0.0562,0.0101 -0.330492,-0.05049 -0.301293,0.0555 -0.320858,-0.09777 0.0023,-0.0076 -6.62e-4,-0.02479 0.007,-0.02274 0.01902,0.0051 0.03065,0.02471 0.04608,0.03694 0.02653,0.02105 0.05085,0.04529 0.07978,0.06291 0.02768,0.01686 0.150263,0.07245 0.189846,0.0745 0.01851,9.52e-4 0.03455,-0.01346 0.05182,-0.02019 0.03011,0.07336 1.067593,-0.352452 1.037483,-0.425813 z" />
    <path
       style="fill:#3a2524;fill-opacity:1;stroke-width:0.264583;stroke-dasharray:none"
       id="path9471"
       d="m 12.806965,4.5849251 c -0.0372,0.058489 -0.09721,0.1465188 -0.116234,0.2099199 -0.07163,0.2386661 -0.0377,0.5120209 0.04194,0.7433048 0.03562,0.1034457 0.08968,0.199595 0.134513,0.2993927 0.06303,0.087696 0.118928,0.1809893 0.189094,0.2630882 0.16324,0.1910003 0.370179,0.3536635 0.604616,0.4476583 0.101466,0.040682 0.243303,0.068108 0.350575,0.091978 0.229319,0.031278 0.476592,0.076485 0.700525,-0.028873 0.127703,-0.060084 0.191489,-0.2102731 0.262322,-0.3323429 0.03035,-0.052307 0.02291,-0.1187619 0.03394,-0.178222 5.02e-4,-0.00276 0.0017,-0.01102 6.88e-4,-0.00841 -0.049,0.1233567 -0.09647,0.2473153 -0.144698,0.3709728 -0.0216,0.04407 -0.06719,0.08319 -0.0648,0.1322094 0.0043,0.088718 0.269094,0.080825 0.208456,0.1099846 -0.07637,0.036726 -0.169264,0.011557 -0.254006,0.010795 -0.01735,-1.561e-4 0.03602,-0.00305 0.05049,-0.012626 0.01188,-0.00786 0.01534,-0.024008 0.02301,-0.036012 -0.0088,-0.026675 -0.01769,-0.05335 -0.02653,-0.080024 -0.02561,-0.05531 -0.05661,-0.1084331 -0.07684,-0.16593 -0.01538,-0.043711 -0.01781,-0.091002 -0.02936,-0.1358781 -0.0036,-0.013928 -0.0019,-0.03679 -0.01593,-0.0401 -0.0066,-0.00156 -0.04294,0.05067 -0.04713,0.056432 -0.05354,0.087867 -0.125565,0.1635482 -0.170332,0.2569964 -0.01638,0.034194 -0.02768,0.070599 -0.04152,0.1058986 -0.03427,0.078269 1.07261,0.5629426 1.106881,0.4846741 v 0 c 0.03124,-0.00632 0.04138,-0.033962 0.06259,-0.055029 0.129384,-0.1284817 0.03682,-0.024797 0.158498,-0.1700496 0.028,-0.04087 0.05957,-0.07951 0.084,-0.1226108 0.05551,-0.097937 0.110423,-0.2479167 0.121342,-0.3553092 0.03633,-0.3573195 -0.05933,-0.5774288 -0.281742,-0.8487381 -0.06604,-0.051894 -0.12528,-0.1138801 -0.198132,-0.1556827 -0.328324,-0.1883944 -0.825928,-0.1982313 -1.15432,0.00382 -0.07645,0.047034 -0.144988,0.1058474 -0.217481,0.1587712 -0.06918,0.1369581 -0.142603,0.2718554 -0.207543,0.4108744 -0.0057,0.012274 -0.0075,0.053408 -0.0033,0.040509 0.0576,-0.1792029 0.01619,-0.3070437 0.278164,-0.4217914 0.04514,-0.019772 0.387729,-0.030834 0.558562,-0.036675 0.0036,-0.010665 0.01312,-0.021019 0.01069,-0.032 -0.01626,-0.073683 -0.08274,-0.1414484 -0.130685,-0.1901365 -0.0438,-0.044476 -0.08878,-0.08828 -0.138452,-0.1260811 C 14.455896,5.2398431 14.265359,5.131021 14.24298,5.118176 14.17876,5.08593 14.14305,5.074361 14.091187,5.026192 14.013577,4.954111 13.992077,4.8481104 13.921772,4.7714879 13.934962,4.6926589 12.820149,4.5060957 12.806957,4.5849252 Z" />
    <path
       style="fill:#3a2524;fill-opacity:1;stroke-width:0.264583;stroke-dasharray:none"
       id="path9473"
       d="M 8.8295937,3.4638863 C 8.763396,3.3985824 8.7078181,3.320375 8.6310006,3.2679745 8.4051509,3.1139122 8.1400929,3.0390134 7.8750257,2.9905904 7.6772769,2.9544653 7.2654797,2.9231672 7.0556037,2.937619 6.9524088,2.944729 6.8517748,2.973008 6.7498602,2.990702 6.6958402,3.02128 6.625541,3.033154 6.5878008,3.082437 6.5557068,3.124347 6.5585538,3.1856126 6.5601988,3.238374 6.5740818,3.6836185 6.7674802,3.901269 6.2942753,4.2086341 6.1691565,4.2899041 5.7526174,4.1792941 6.0044627,4.2416471 6.4467235,4.2822261 6.5784209,4.3490512 7.0174922,3.8055026 7.1161452,3.6833757 7.0416252,3.4909702 7.0273822,3.3346231 7.0155844,3.2050836 6.9228985,3.0490707 6.8393902,2.9533887 6.7960906,2.9037769 6.7416261,2.8651454 6.6927441,2.8210237 6.388179,2.6250879 6.1895989,2.5943359 5.7930438,2.6034412 c -0.065185,0.0015 -0.123549,0.041922 -0.186328,0.059533 -0.097583,0.027375 -0.1143,0.0253 -0.2072566,0.034095 -0.026724,-2.04e-5 -0.054001,0.00535 -0.080172,-6.12e-5 C 5.2298692,2.678532 5.1521336,2.621472 5.063917,2.597917 5.002198,2.581437 4.8243429,2.606887 4.8746915,2.567571 4.9297865,2.524547 5.0141523,2.577411 5.0838827,2.582326 4.979622,2.5536767 4.5744677,4.0281422 4.6787281,4.0567911 v 0 c 0.1994294,0.00752 0.3987385,0.025487 0.598288,0.022556 0.2728963,-0.00401 0.5062125,-0.1579994 0.7565707,-0.244162 0.034158,-0.017447 0.069,-0.033614 0.1024718,-0.052343 0.017068,-0.00955 0.048598,-0.012822 0.048936,-0.032377 2.91e-4,-0.017497 -0.031249,0.020669 -0.048715,0.019571 -0.5698032,-0.035829 -0.2661928,0.015042 -0.4636876,-0.078636 -0.00151,-7.144e-4 -0.0031,0.00119 -0.00465,0.00177 0.017452,0.015221 0.1214194,0.1045247 0.1456232,0.052562 0.04371,-0.093841 8.996e-4,-0.2331593 0.079835,-0.3001272 C 6.3983488,3.0172577 6.3772819,3.0400534 6.7270039,3.1007938 6.6774374,3.0777565 6.6321992,3.0407876 6.5783044,3.0316833 6.121369,2.9544938 5.7367381,2.840456 5.4818295,3.4024754 5.3680981,3.653229 5.4759664,4.1236441 5.6246119,4.3677693 5.6908586,4.4765679 5.7862453,4.5646897 5.8670621,4.6631499 5.985756,4.7440396 6.0928583,4.8453454 6.2231436,4.9058186 6.8242449,5.1848257 7.6236811,5.1580001 8.2180503,4.8763136 8.3257751,4.8252604 8.4175144,4.745706 8.5172467,4.6804021 8.6032672,4.7024895 8.9156155,3.4859724 8.8295947,3.463886 Z" />
    <path
       style="fill:#3a2524;fill-opacity:1;stroke-width:0.264583;stroke-dasharray:none"
       id="path9475"
       d="m 10.975858,3.6792082 c 0.09629,-0.026841 0.191137,0.016055 0.286603,0.010925 0.06959,-0.00374 0.137633,-0.02208 0.206579,-0.032262 0.129027,-0.019058 0.364859,-0.04526 0.484543,-0.083988 0.08018,-0.025945 0.153033,-0.07063 0.22955,-0.1059455 0.05808,-0.048137 0.12244,-0.089578 0.174249,-0.1444099 0.17455,-0.1847352 0.280906,-0.4921872 0.325248,-0.7329343 0.02022,-0.1097706 -0.0076,-0.2721244 0.01125,-0.1518015 5.82e-4,0.050461 -0.04247,0.2510135 0.06528,0.2918903 0.09415,0.035721 0.273864,-0.014015 0.35586,-0.032225 0.204866,-0.045497 0.176505,-0.041054 0.363574,-0.1031721 0.04444,-0.022145 0.08888,-0.04429 0.133328,-0.066435 0.09695,-0.046079 -0.554697,-1.4171999 -0.65165,-1.3711214 v 0 c -0.07894,0.00661 -0.157878,0.013221 -0.236818,0.019832 -0.08999,0.02397 -0.182521,0.03986 -0.269955,0.071909 -0.256396,0.093981 -0.493151,0.2519729 -0.67132,0.4592861 -0.06562,0.076349 -0.133975,0.1533922 -0.178229,0.2438141 -0.05721,0.1168876 -0.08168,0.2471235 -0.122517,0.3706852 -0.003,0.056531 -0.01309,0.1131428 -0.0089,0.1695927 0.0015,0.020167 0.01093,-0.038956 0.01721,-0.058178 0.02399,-0.073359 0.05469,-0.1447071 0.07359,-0.2195379 0.0091,-0.035959 0.03257,-0.081505 0.0099,-0.1108281 -0.04292,-0.055424 -0.280373,-0.00124 -0.295431,8.626e-4 -0.07019,0.026516 -0.143766,0.045372 -0.210558,0.079547 -0.06415,0.032822 -0.281663,0.1888879 -0.347628,0.2395008 -0.02157,0.01655 -0.163123,0.1348877 -0.179768,0.1579265 -0.0076,0.010488 6.35e-4,0.025869 9.53e-4,0.038804 -0.07483,0.030764 0.360238,1.0890272 0.435069,1.058263 z" />
    <path
       style="fill:#3a2524;fill-opacity:1;stroke-width:0.264583;stroke-dasharray:none"
       id="path9477"
       d="m 3.5709291,2.7429364 c 0.027671,-0.027294 0.059406,-0.051006 0.083013,-0.081883 0.026712,-0.034937 0.043856,-0.076252 0.066649,-0.1138625 C 3.8273701,2.3710004 3.9023036,2.253944 3.9330283,2.0424323 3.9425136,1.9771353 3.9401826,1.9106618 3.9437598,1.8447766 3.931082,1.7589111 3.9296334,1.670619 3.9057257,1.5871802 3.8202642,1.2889172 3.7160194,0.99151695 3.3958059,0.85008142 3.0767123,0.70914053 2.6341854,0.74826534 2.2855337,0.77197573 c -0.3738491,0.0832355 -0.00869,-0.006736 -0.3228083,0.0928158 -0.036453,0.0115531 -0.07417,0.018663 -0.1113471,0.027616 -0.028447,0.00685 -0.1139594,0.012917 -0.085519,0.019793 0.258235,0.062433 0.3142243,-0.0584183 0.2545159,0.0504258 0.087316,0.12175517 -0.062797,-0.0821258 0.1202045,0.12799627 0.04225,0.048512 0.047001,0.064511 0.06757,0.1110521 -0.025058,-0.081141 -1.1725576,0.2732325 -1.1474996,0.3543729 v 0 c 0.018526,0.047707 0.031733,0.097837 0.055579,0.1431195 0.104685,0.1988005 0.247101,0.337321 0.4502153,0.4334971 0.2875806,0.095702 0.1064742,0.049766 0.6033603,0.073639 0.2341111,0.011248 0.088181,0.00132 0.3313159,-2.399e-4 0.2892187,-0.00185 0.062133,0.015284 0.3610372,-0.017622 0.057371,-0.016 0.1158812,-0.02837 0.1721144,-0.048 0.030201,-0.010542 0.1143947,-0.027061 0.086201,-0.042172 C 3.0110927,2.0396452 2.8628467,2.0683664 2.7627992,1.9949406 2.5350044,1.8277595 2.6442117,1.6767104 2.5353288,1.4725858 c -0.010053,-0.018846 -0.04267,0.00202 -0.064006,0.00303 -0.032938,0.055401 -0.072042,0.1075734 -0.098815,0.1662028 C 2.2516413,1.906503 2.2223023,2.1800998 2.255692,2.4674497 c 0.00876,0.075412 0.019839,0.1516094 0.044792,0.2233112 0.020297,0.058324 0.059596,0.1081791 0.089395,0.162269 0.00779,0.083513 1.188835,-0.026586 1.1810499,-0.1100985 z" />
    <path
       style="fill:#3a2524;fill-opacity:1;stroke-width:0.264583;stroke-dasharray:none"
       id="path9479"
       d="m 13.383582,15.367474 c 0.21281,0.519438 0.505159,0.883158 1.035884,1.108235 0.322929,0.136953 0.426289,0.119055 0.754408,0.141232 0.08608,-0.01081 0.173815,-0.0124 0.258224,-0.03242 0.432515,-0.102568 0.67611,-0.719967 0.81636,-1.006555 0.02672,-0.0546 -0.181531,-0.188387 -0.227557,-0.202583 -0.06655,-0.02053 -0.137236,-0.02376 -0.205854,-0.03565 -0.195081,0.06486 -0.433987,0.05534 -0.585242,0.194571 -0.261269,0.240494 -0.167518,0.518332 -0.122088,0.784899 0.03755,0.08006 1.169796,-0.450987 1.132245,-0.531048 v 0 c -0.037,0.175005 -0.08978,0.470643 -0.209605,0.568343 -0.141231,0.115156 -0.350139,0.101147 -0.52521,0.15172 -0.196084,-0.08304 -0.0551,-0.0025 -0.03556,-0.0491 0.01206,-0.02877 -0.01798,-0.06777 -4.77e-4,-0.0936 0.213462,-0.314964 0.459957,-0.606298 0.683491,-0.914195 0.02211,-0.03045 0.05201,-0.06221 0.0527,-0.09984 9.79e-4,-0.05262 -0.03206,-0.100247 -0.04809,-0.150371 -0.05095,-0.0675 -0.0924,-0.143344 -0.152844,-0.202492 -0.303482,-0.296987 -0.709915,-0.461627 -1.126597,-0.517209 -0.125107,-0.01669 -0.252686,-0.01218 -0.378627,-0.0039 -0.07167,0.0047 -0.140786,0.02856 -0.211179,0.04284 -0.0599,-0.06395 -0.964277,0.783117 -0.90438,0.847067 z" />
    <path
       style="fill:#3a2524;fill-opacity:1;stroke-width:0.264583;stroke-dasharray:none"
       id="path9481"
       d="m 10.27556,12.169756 c -0.01321,-0.05828 -0.01625,-0.119849 -0.03962,-0.174852 -0.14953,-0.351937 -0.4544455,-0.59711 -0.7925404,-0.755628 -0.071688,-0.03361 -0.1471369,-0.05853 -0.2207056,-0.0878 -0.080438,-0.02854 -0.1589902,-0.0631 -0.2413156,-0.08562 -0.2457175,-0.06724 -0.5798433,-0.08337 -0.810338,-0.04266 -0.1447216,0.02556 -0.3233608,0.207425 -0.4025474,0.320803 -0.040768,0.05837 -0.064055,0.127174 -0.096082,0.190761 -0.029625,0.07868 1.0830706,0.497646 1.112696,0.418967 v 0 c -0.017066,0.03085 -0.030536,0.06398 -0.051194,0.09255 -0.034002,0.04702 -0.1450176,0.172961 -0.2084422,0.182562 -0.1328692,0.02012 -0.2688405,-0.0071 -0.4031427,-0.0024 -0.030956,0.0011 0.061481,0.209443 0.051474,0.07736 0.1153001,0.1279 0.1629752,0.191348 0.3088429,0.300948 0.1209616,0.09089 0.3020181,0.190098 0.4444931,0.238507 0.080798,0.02745 0.2942629,0.05841 0.3859686,0.07305 0.052789,0.06805 1.0152393,-0.678497 0.9624503,-0.746553 z" />
    <path
       style="fill:#3a2524;fill-opacity:1;stroke-width:0.264583;stroke-dasharray:none"
       id="path9483"
       d="m 7.4817641,0.86942414 c 0.011967,0.0317074 0.018791,0.0658682 0.035901,0.0951222 C 7.6664774,1.2189675 8.0094419,1.4506599 8.27842,1.550589 8.363242,1.582102 8.4544513,1.592596 8.5424668,1.6136 c 0.073202,0.00244 0.1465365,0.012384 0.2196049,0.00734 0.2218505,-0.015326 0.136497,-0.076051 0.06988,-0.2116197 -0.013377,-0.027224 -0.00644,-0.071948 -0.034118,-0.084362 -0.020405,-0.00915 -0.00317,0.044616 -0.00476,0.066924 0.043177,0.2661978 0.1156425,0.4589011 0.3364053,0.627659 0.060652,0.059751 0.035596,0.033508 0.076398,0.077534 0.042939,0.05778 0.860075,-0.5494637 0.817136,-0.6072439 v 0 C 9.9630729,1.4276621 9.9894365,1.4524608 9.9459684,1.4133138 9.9212195,1.3586769 9.8909197,1.3084114 9.8549848,1.2588208 9.8458125,1.2303863 9.8355964,1.2022676 9.8274679,1.1735174 9.8075754,1.1031599 9.7995019,1.0288867 9.7709449,0.96157864 9.680019,0.74726858 9.6402371,0.73484589 9.4996769,0.57539636 9.3522638,0.40817282 9.4595441,0.50653053 9.2753624,0.36097133 9.2155543,0.33117379 9.1585737,0.29485342 9.0959383,0.27157868 9.0278132,0.24626388 8.9551729,0.23531884 8.8851215,0.21596109 8.6223667,0.14335219 8.3614854,0.06177437 8.0857446,0.05955407 8.0284782,0.01684619 7.4244974,0.82671626 7.4817641,0.86942414 Z" />
    <path
       style="fill:#21141d;fill-opacity:1;stroke-width:0.264583;stroke-dasharray:none"
       id="path10215"
       d="m 12.914353,10.340063 c 0.152416,0.05971 0.28252,7.67e-4 0.431668,-0.03961 0.167531,-0.04537 0.236185,-0.05439 0.396756,-0.134771 0.06082,-0.03045 0.115949,-0.07114 0.173924,-0.106717 0.145682,-0.1120007 0.244608,-0.2504082 0.313529,-0.4188472 0.05118,-0.1250733 0.07564,-0.1882159 0.07865,-0.3229433 3.97e-4,-0.017515 -0.01001,-0.033579 -0.01502,-0.050368 -0.265139,0.080657 -0.538858,0.1371762 -0.795416,0.2419705 -0.02378,0.00971 0.02125,0.046988 0.03522,0.068541 0.09704,0.1496663 0.222836,0.22714 0.373716,0.3136161 0.09876,0.041317 0.146056,0.066167 0.252678,0.089375 0.09517,0.020714 0.194762,0.01248 0.2912,0.015126 0.119129,0.00327 0.238219,0.00781 0.357329,0.011721 0.124785,-0.028189 0.250116,-0.047408 0.372524,-0.085845 0.06375,-0.034581 -0.425296,-0.9361805 -0.489049,-0.9015998 v 0 c -0.04142,0.012094 -0.07776,0.020516 -0.116454,0.039247 -0.0073,0.00354 -0.01288,0.00996 -0.01985,0.014129 -0.0075,0.00449 -0.0322,0.011584 -0.02346,0.011774 0.01129,2.45e-4 0.02121,-0.00773 0.03182,-0.011594 0.0967,0.00403 0.193327,0.013854 0.290092,0.012097 0.02164,-3.969e-4 -0.01841,-0.041196 -0.03566,-0.054266 -0.07779,-0.058931 -0.169467,-0.088102 -0.259488,-0.122636 -0.09173,-0.023029 -0.190293,-0.061908 -0.286527,-0.044864 -0.01749,0.0031 -0.0331,0.012917 -0.04965,0.019376 -0.0092,0.00751 -0.01628,0.019219 -0.02772,0.022516 -0.271668,0.078297 -0.54584,0.1476303 -0.81876,0.2214457 -0.0797,-0.053865 0.01708,-0.1157264 -0.02583,-0.1558473 -0.04659,-0.04356 -0.252045,0.046305 -0.289896,0.060757 -0.04987,0.027314 -0.101901,0.050999 -0.1496,0.081943 -0.08907,0.057783 -0.149911,0.1217271 -0.232064,0.186949 -0.02608,0.020704 -0.05731,0.035068 -0.08097,0.058501 -0.03037,0.030089 -0.02973,0.084121 -0.07102,0.1068009 -0.0618,0.027388 0.325519,0.9014154 0.387322,0.8740274 z" />
    <path
       style="fill:#21141d;fill-opacity:1;stroke-width:0.264583;stroke-dasharray:none"
       id="path10266"
       d="M 7.3917883,9.6880676 C 7.3574769,9.6099028 7.3335961,9.5262728 7.2888543,9.4535738 7.0643172,9.0887332 6.7141698,8.8172122 6.3065823,8.6850346 5.9632701,8.5737011 5.7658259,8.5961544 5.41451,8.5908342 4.7239681,8.7284128 5.3439763,8.5779093 4.7892522,8.7777351 4.6419198,8.8308078 4.4905326,8.8718677 4.3411729,8.9189339 4.2690833,8.9440032 4.6236,9.9635052 4.69569,9.9384373 v 0 c -0.095792,0.041735 -0.2292501,0.038375 -0.2873748,0.1252047 -0.082073,0.122604 0.4702498,0.223787 0.3573706,0.261144 0.1185098,0.03157 0.2349357,0.07238 0.3555293,0.09471 0.2932393,0.05428 0.5692976,0.07673 0.8640929,0.0092 0.1238343,-0.02836 0.3728763,-0.128896 0.4681427,-0.254518 0.024,-0.03165 0.021939,-0.07634 0.03291,-0.114517 0.026276,0.06402 0.931704,-0.3075894 0.9054272,-0.3716127 z" />
    <path
       style="fill:#21141d;fill-opacity:1;stroke-width:0.264583;stroke-dasharray:none"
       id="path10268"
       d="m 4.6395174,14.323887 c -0.00713,0.397818 0.1783672,0.78841 0.4297248,1.089359 0.070967,0.08497 0.1569503,0.156175 0.2354255,0.234262 0.1478264,0.102427 0.2612041,0.200671 0.4333774,0.255159 0.040272,0.01275 0.084191,0.007 0.126287,0.01048 0.043026,0.07363 1.0842947,-0.534856 1.0412682,-0.608485 v 0 C 6.8954509,15.236441 6.89285,15.166661 6.8751555,15.099995 6.8181433,14.885186 6.7630473,14.83184 6.6424111,14.637482 6.5689429,14.558838 6.5022787,14.473237 6.4220065,14.401552 6.1533359,14.161624 5.8296494,14.044941 5.5079844,13.900129 5.47802,13.838719 4.609553,14.262478 4.6395174,14.323888 Z" />
    <path
       style="fill:#21141d;fill-opacity:1;stroke-width:0.264583;stroke-dasharray:none"
       id="path10270"
       d="m 10.060088,13.130149 c 0.02413,0.356098 0.200745,0.626216 0.439498,0.882896 0.06325,0.06799 0.133872,0.128734 0.200808,0.193102 0.07214,0.066 0.140066,0.136923 0.21643,0.197986 0.196783,0.157355 0.483117,0.331525 0.715993,0.43154 0.175974,0.07558 0.251183,0.08472 0.432359,0.12619 0.07475,0.0495 0.774815,-1.007649 0.700063,-1.057151 v 0 c -0.07632,-0.06708 -0.126042,-0.113154 -0.211402,-0.175761 -0.05442,-0.03992 -0.111554,-0.07601 -0.167108,-0.114337 -0.182497,-0.12591 -0.362685,-0.255082 -0.5448,-0.38154 -0.347686,-0.28564 -0.01005,-0.01397 -0.353069,-0.274026 -0.220089,-0.166858 -0.127916,-0.120776 -0.363262,-0.24496 -0.04857,-0.02563 -0.09585,-0.05558 -0.148383,-0.07157 -0.03147,-0.0096 -0.06575,-0.0024 -0.09862,-0.0036 -0.03474,-0.05788 -0.853244,0.433363 -0.818508,0.49124 z" />
    <path
       style="fill:#21141d;fill-opacity:1;stroke-width:0.264583;stroke-dasharray:none"
       id="path10272"
       d="m 2.7453858,11.700769 c -0.028327,-0.04349 -0.050491,-0.09168 -0.08498,-0.130466 C 2.405478,11.28363 2.0273586,11.117261 1.6518974,11.064331 c -0.06786,-0.0096 -0.1370139,-0.0036 -0.2055209,-0.0054 -0.1683012,0.04922 -0.089966,0.06415 -0.019076,0.166745 -8.943e-4,-0.08863 -1.25432933,-0.07598 -1.25343491,0.01265 v 0 c 0.0106026,0.115377 0.001045,0.234427 0.031808,0.346131 0.0649613,0.235876 0.20407502,0.434485 0.33003415,0.638279 0.0757503,0.07536 0.1411993,0.162741 0.22725097,0.226087 C 1.0631954,12.669839 1.4391936,12.752352 1.8058286,12.74121 1.9102996,12.73801 2.0140271,12.71974 2.1166668,12.7 2.1888048,12.68613 2.2581556,12.66043 2.3289,12.64065 2.395357,12.6701 2.811843,11.73026 2.7453863,11.70081 Z" />
    <path
       style="fill:#21141d;fill-opacity:1;stroke-width:0.264583;stroke-dasharray:none"
       id="path10274"
       d="m 6.1390833,7.2286237 c 0.049538,0.026947 0.094439,0.065185 0.1486154,0.080841 0.2746857,0.079383 0.4359887,0.067964 0.7224435,0.021677 C 7.2823649,7.2871551 7.4841131,7.2291751 7.7252432,7.1001976 7.8072873,7.0563133 7.8794511,6.9960436 7.9565549,6.9439665 7.8808325,6.9998449 8.1838373,6.7246594 8.095086,6.6798991 7.9962101,6.6300325 7.8544739,6.6935913 7.7674093,6.6251608 7.5042992,6.4183587 7.3688595,6.1656613 7.531052,5.884782 7.483908,5.934121 8.1816648,6.6008339 8.2288085,6.5514949 v 0 C 8.2567398,6.519868 8.2964064,6.4955768 8.3126021,6.4566135 8.4441592,6.1401163 8.4380945,5.9450493 8.0854263,5.6815071 7.9721048,5.596824 7.8040525,5.6482008 7.6657019,5.6186691 7.506998,5.5847927 7.367839,5.4778465 7.1963493,5.4893664 7.0725815,5.4937718 6.9476347,5.4849796 6.8250461,5.502585 6.5040409,5.5486855 6.2641635,5.6326523 5.9905696,5.8109733 5.8719346,5.8882962 5.7582773,5.9770941 5.6642198,6.0829536 5.4942369,6.2742659 5.459078,6.4175936 5.3774697,6.6378571 5.3356962,6.6917114 6.0973099,7.2824794 6.1390833,7.2286253 Z" />
    <path
       style="fill:#21141d;fill-opacity:1;stroke-width:0.264583;stroke-dasharray:none"
       id="path10276"
       d="M 3.0909522,5.3145692 C 3.0995194,5.269752 3.1145159,5.2256962 3.1166511,5.1801175 3.1309836,4.8740864 2.978337,4.5168523 2.80891,4.2694949 2.7581018,4.1953177 2.6966875,4.1289927 2.6405764,4.0587416 2.4946817,3.9056685 2.3492082,3.8216998 2.1549067,3.7497649 2.1039488,3.7308991 2.0546189,3.7047984 2.0009838,3.6960857 1.8302189,3.6683463 1.6569367,3.659315 1.4849131,3.6409296 1.4228344,3.6639431 1.7482867,4.5418681 1.8103654,4.5188552 v 0 C 1.6526403,4.4986966 1.4952491,4.4757268 1.3371902,4.4583778 c -0.02147,-0.00235 -0.052432,-0.01629 -0.064781,0.00143 -0.016321,0.023421 -0.00212,0.057695 0.00418,0.085538 0.027971,0.123671 0.070544,0.1755656 0.1352079,0.2892522 0.2020503,0.25726 0.4244902,0.5034786 0.6998307,0.6843925 0.014455,0.069249 0.9937806,-0.1351725 0.9793259,-0.2044214 z" />
    <path
       style="fill:#21141d;fill-opacity:1;stroke-width:0.264583;stroke-dasharray:none"
       id="path10278"
       d="m 4.5531682,1.3406564 c 0.123788,0.4489899 0.3424859,0.777292 0.7044484,1.0782724 0.1297487,0.107889 0.2648085,0.2115654 0.4118059,0.2944296 0.1495679,0.084313 0.3152357,0.1361747 0.4728533,0.204262 0.1568656,0.029748 0.3137313,0.059496 0.4705969,0.089243 0.1155279,0.063632 1.0154179,-1.5701812 0.89989,-1.633813 v 0 C 7.4113376,1.3228586 7.3099125,1.2726663 7.2084876,1.222474 7.0786537,1.1793339 6.9509737,1.1290694 6.818986,1.0930536 6.7566576,1.076046 6.1225038,0.94314795 6.0361549,0.92788599 6.0327478,0.92728382 5.5956935,0.85646971 5.53692,0.87398227 5.4975722,0.88570656 5.4847037,0.9373563 5.4585954,0.96904333 5.4323183,0.90501995 4.5268911,1.2766331 4.5531682,1.3406564 Z" />
    <path
       style="fill:#21141d;fill-opacity:1;stroke-width:0.264583;stroke-dasharray:none"
       id="path10280"
       d="m 14.166065,3.7104198 c 0.02688,0.010975 0.05191,0.028658 0.08063,0.032928 0.10793,0.016047 0.235468,-0.018957 0.335943,-0.054249 0.04691,-0.016476 0.08935,-0.04969 0.138839,-0.054511 0.07004,-0.00682 0.140077,0.013676 0.210116,0.020513 0.479574,-0.040572 0.873147,-0.1861595 1.148714,-0.6007801 0.0255,-0.038367 0.04185,-0.082085 0.06277,-0.1231268 0.01557,-0.035816 0.03787,-0.069405 0.0467,-0.1074473 0.0078,-0.033636 -0.03725,-0.013695 -0.05811,-0.010647 -0.129959,0.019005 -0.260155,0.036342 -0.390232,0.054513 0.06316,0.020254 0.349579,-0.8729505 0.28642,-0.8932034 v 0 c -0.144916,0.017127 -0.290599,0.028689 -0.434748,0.051383 -0.06798,0.010702 -0.127304,0.056134 -0.195241,0.067114 -0.02555,0.00413 -0.05159,-0.00426 -0.07739,-0.00638 -0.159765,0.021876 -0.321775,0.03672 -0.474963,0.091255 -0.219571,0.078167 -0.413001,0.2029481 -0.584402,0.359816 -0.0387,0.045809 -0.07212,0.096658 -0.116093,0.137427 -0.0096,0.00893 -0.106506,0.019762 -0.115851,0.021413 -0.08589,0.015184 -0.15374,0.036182 -0.219352,0.096906 -0.06485,0.025191 0.291403,0.9422697 0.356251,0.9170789 z" />
    <path
       style="fill:#967952;stroke-width:0.264583"
       id="path3972"
       d="m 9.5374512,16.813295 c -0.5570879,0.01113 -0.2080453,0.07287 -0.061879,-0.228418 0.016751,-0.03453 -0.096153,-0.0365 -0.088165,-0.07404 0.014806,-0.06958 0.1545061,-0.09307 0.1384755,-0.162378 -0.013949,-0.06031 -0.1225322,-0.01813 -0.1831382,-0.03071 -0.034562,-0.0072 -0.067995,-0.01899 -0.1019927,-0.02849 -0.8139051,0.143932 -0.1947584,0.01943 -0.082001,0.04864 0.028263,0.0073 0.024493,0.06236 0.00903,0.08712 -0.022307,0.03573 -0.07358,0.04183 -0.1061855,0.06849 -0.088629,0.07248 0.1154393,0.07132 0.1357307,0.07653 -0.066249,-0.04367 -0.1741979,-0.05555 -0.1987489,-0.130999 -0.028791,-0.08848 0.2248911,-0.06412 0.2419803,-0.06046 0.539184,0.115465 0.0304,0.03929 0.019307,0.03234 -0.043676,-0.02738 0.1028896,0.0066 0.1543344,0.01 -0.00614,0.0066 -0.020108,0.02854 -0.018407,0.01971 0.0031,-0.0161 0.024125,-0.02713 0.022984,-0.04349 -0.00596,-0.08549 -0.083991,-0.215377 -0.1218139,-0.276651 -0.035915,-0.05818 -0.1636774,-0.120022 -0.1160844,-0.169113 0.095962,-0.09898 0.2639552,-0.0797 0.3959331,-0.119542 0.1302872,-0.188647 -0.3377348,-0.117482 -0.3052665,-0.243537 0.062665,-0.243293 0.3371112,0.03031 0.053731,-0.130702 -0.01515,-0.0086 0.069345,0.0054 0.051931,0.0059 -0.019283,6.08e-4 -0.038394,-0.0038 -0.057591,-0.0058 0.03982,6.35e-4 0.079641,0.0013 0.119461,0.0019 -0.012512,-0.0066 -0.048713,-0.01105 -0.037537,-0.01969 0.022511,-0.01741 0.065632,-0.03799 0.083844,-0.01612 0.018889,0.02268 0.00209,0.07971 -0.02706,0.08432 -0.069136,0.01093 -0.1541132,9e-4 -0.2044986,-0.04769 -0.037932,-0.03658 0.1053735,0.0019 0.1580605,0.0029 0.052185,-0.09511 0.1500601,-0.206335 0.043704,-0.310404 -0.036292,-0.03551 -0.2546562,-0.105502 -0.1682605,-0.145423 0.086868,-0.04014 0.1867326,-0.04195 0.2800991,-0.06292 -0.4608246,-0.009 -0.1821942,0.0827 -0.1316956,0.07689 0.017261,-0.002 0.031045,-0.01627 0.047857,-0.02065 0.045738,-0.01193 0.1197327,0.01509 0.1389952,-0.02808 0.016182,-0.03626 -0.054955,-0.0644 -0.093545,-0.07377 -0.059338,-0.01441 -0.1220428,0.0044 -0.1830642,0.0066 0.6051934,0.118997 0.00996,0.02095 0.03488,-0.04537 0.031355,-0.08343 0.1825959,-0.02881 0.2548112,-0.08105 0.063054,-0.04561 -0.2338025,-0.109335 -0.1725207,-0.157303 0.079093,-0.06191 0.1984176,-0.03138 0.2976266,-0.04708 -0.050407,-0.12194 -0.2406335,-0.110262 -0.2998047,-0.218945 -0.016007,-0.0294 0.075327,-0.05687 0.055402,-0.08377 -0.03948,-0.05331 -0.2380882,-0.05238 -0.1801153,-0.08462 0.2788541,-0.155072 0.8814459,-0.0221 0.1287917,-0.139556 -0.3123546,-0.11741 0.010427,0.03072 0.1424242,-0.106817 0.042567,-0.04435 -0.1466162,0.01158 -0.1800275,-0.04002 -0.024241,-0.03744 0.1144579,0.0011 0.1271733,-0.04161 0.014044,-0.04722 -0.0531,-0.08306 -0.077338,-0.125948 -0.013907,-0.02461 -0.024641,-0.05087 -0.036962,-0.07631 -0.058005,-0.0068 0.1068668,-0.05424 0.079664,-0.08037 -0.016542,-0.01589 -0.051591,0.0041 -0.067733,-0.01215 -0.010096,-0.01019 0.031002,-0.0047 0.040024,-0.01583 0.00481,-0.0059 -0.022373,0.0012 -0.022013,-0.0064 0.00193,-0.04118 0.018653,-0.08031 0.02798,-0.120464 0.2108001,-0.198474 0.090833,-0.02469 -0.1319364,-0.18468 -0.02078,-0.01492 0.021407,-0.04657 0.029706,-0.07077 0.00243,-0.0071 0.00657,-0.01625 0.00222,-0.02234 -0.1084897,-0.15206 -0.1772515,-0.01854 0.1930072,-0.19401 -0.6245085,0.200647 -0.457653,0.03088 -0.3528867,0.137744 0.00949,0.0097 0.022648,0.04392 0.02644,0.0309 0.00705,-0.0242 -0.021323,-0.0503 -0.01378,-0.07435 0.023701,-0.07555 0.1351251,-0.04769 -0.03099,-0.05786 0.057408,-0.04187 0.1341509,-0.06562 0.1722229,-0.12561 0.079344,-0.125031 -0.2523993,0.07462 -0.2115579,-0.08955 0.016568,-0.0666 0.1328375,-0.05043 0.1796317,-0.100642 0.037445,-0.04018 -0.1661557,0.01911 -0.047778,-0.01315 0.013137,0.03953 0.055236,0.08006 0.03941,0.118591 -0.018817,0.04582 -0.098995,0.04041 -0.1225968,0.08395 -0.03453,0.06371 0.099967,0.19779 0.011359,0.193204 -0.087903,-0.0046 -0.163712,-0.06478 -0.2446817,-0.09929 -0.060352,-0.02573 0.1218777,0.04861 0.1828165,0.07292 0.060696,0.0251 0.233376,0.165265 0.2065671,-0.02127 -0.00647,-0.04501 -0.057987,-0.07667 -0.060917,-0.122046 -0.00856,-0.132632 0.1572712,-0.122234 0.2089221,-0.198219 0.018891,-0.02779 -0.019794,-0.06422 -0.02969,-0.09634 0.03092,-0.0309 0.06184,-0.06181 0.092761,-0.09271 -0.048012,-0.01187 -0.1724547,0.0049 -0.1440366,-0.03562 0.029931,-0.04264 0.1030023,0.02333 0.154989,0.02002 0.040567,-0.0026 0.1416264,-0.0057 0.1161023,-0.03731 -0.1917327,-0.23765 -0.4057859,-0.07058 -0.1514739,-0.216667 -0.030575,-0.114522 0.1381315,-0.110128 0.1519777,-0.190053 0.00761,-0.04393 -0.073281,-0.06073 -0.084144,-0.103971 -0.00743,-0.02957 0.019106,-0.05897 0.037011,-0.08365 0.097906,-0.134946 0.1294718,-0.01185 -0.026884,-0.200093 -0.0023,-0.03176 0.020048,-0.07837 -0.00694,-0.09528 -0.073844,-0.04628 -0.189675,-0.0071 -0.2526144,-0.06739 -0.030478,-0.02919 0.048715,-0.06948 0.078701,-0.09917 0.056204,-0.05566 0.1378178,-0.08832 0.1788877,-0.155924 0.012517,-0.02061 -0.042906,-0.02224 -0.065441,-0.03082 -0.065098,-0.02477 -0.1314615,-0.04608 -0.1971919,-0.06911 0.046498,-0.04683 0.092996,-0.09366 0.1394944,-0.140487 -0.00411,0.0066 -0.015682,0.01285 -0.012345,0.01991 0.00614,0.01299 0.042172,0.01434 0.034181,0.02629 -0.1060085,0.158484 -0.134997,-0.02673 -0.2086866,0.212803 -0.027451,0.08923 -0.014298,0.186167 -0.02145,0.27925 0.00618,0.06959 0.00401,0.140436 0.018547,0.208772 0.00206,0.0097 0.013507,-0.02616 0.021524,-0.02038 0.093074,0.06703 0.1772468,0.302126 0.2612033,0.223983 0.084435,-0.07859 -0.3071574,-0.264692 -0.1939102,-0.286616 0.4802844,-0.09298 0.1771536,0.531494 0.3380237,0.138833 0.037041,-0.576803 -0.073703,0.019 0.219015,-0.152837 0.057136,-0.03354 -0.044414,-0.16153 0.010581,-0.198478 0.050998,-0.03426 0.1063857,0.0938 0.1661897,0.07971 0.04272,-0.01006 0.02313,-0.08468 0.0347,-0.127017 0.06272,0.0066 0.125436,0.01328 0.188154,0.01993 -0.150697,-0.369321 -0.217564,-0.291116 0.0081,-0.275678 0.0373,0.0025 0.07586,0.0085 0.112174,-3.97e-4 0.06335,-0.01553 0.05482,-0.07048 0.124395,-0.07572 0.01764,-0.0013 0.031,0.01706 0.0465,0.02559 0.0545,-0.02566 -0.07986,-0.101552 -0.06273,-0.0741 0.02559,0.041 0.107514,0.148527 0.104745,0.100272 -0.0055,-0.09563 -0.108327,-0.168119 -0.114125,-0.263732 -0.0061,-0.09997 0.14324,-0.03751 0.165145,-0.03099 -0.03945,-0.16879 0.168992,-0.147684 0.209759,-0.247981 0.02114,-0.05201 -0.04588,-0.116037 -0.02222,-0.166943 0.113983,-0.245198 0.192523,-0.01704 0.339718,-0.207425 0.0195,-0.02522 -0.04046,-0.04927 -0.06069,-0.07391 -0.06181,-0.0019 -0.132158,-0.03719 -0.185418,-0.0058 -0.02848,0.0168 0.04032,0.05353 0.05206,0.08444 0.01831,0.04823 0.04135,0.09886 0.03705,0.150276 -0.0017,0.02069 -0.06017,0.01438 -0.05243,0.03364 0.01827,0.04547 0.07232,0.0662 0.106617,0.101194 0.03121,0.03185 0.05984,0.06614 0.08975,0.09921 -0.0049,-0.04083 -0.0084,-0.08187 -0.01484,-0.122488 -0.0015,-0.0093 -0.07675,-0.241143 0.01091,-0.269982 0.174017,-0.05725 0.210776,0.15843 0.399899,0.02508 0.05199,-0.03665 0.03035,-0.123547 0.04552,-0.18532 -0.06626,-0.4057461 0.111566,-0.02032 0.113769,-0.063729 0.0022,-0.044088 -0.0249,-0.087149 -0.05254,-0.1215636 -0.02919,-0.03634 -0.158674,-0.080094 -0.112184,-0.08349 0.168031,-0.012274 0.333779,0.2008557 0.11452,-0.035164 0.09384,-0.00222 0.158524,-0.080923 0.243991,-0.1030613 0.03214,-0.00833 0.09825,0.040589 0.09932,0.00741 0.0022,-0.067324 -0.09082,-0.1117164 -0.09376,-0.1790118 -0.0013,-0.029716 0.0669,-0.051858 0.08471,-0.028038 0.04579,0.061231 0.03994,0.1476121 0.05991,0.2214185 -0.07245,-0.020849 -0.146894,-0.089394 -0.217336,-0.062544 -0.04906,0.018701 0.07677,0.07345 0.122895,0.098542 0.04203,0.022863 0.292679,0.048142 0.293255,0.045338 0.0827,-0.4026691 -0.35709,-0.4415911 0.08093,-0.3428801 0.171661,-0.0022 0.356125,0.073823 0.387027,-0.1736249 0.01217,-0.09743 -0.06686,-0.1937475 -0.04946,-0.2903799 0.05475,-0.3040166 0.271934,-0.1966786 0.318696,-0.5241613 0.01153,-0.080713 -0.06758,-0.148399 -0.101372,-0.2225985 -0.913165,-0.3858506 0.836483,0.4193636 0.07881,-0.3102316 -0.106329,-0.102389 -0.293968,0.097566 -0.438002,0.065261 -0.05191,-0.011644 0.0162,-0.1053955 0.03018,-0.1567286 0.01106,-0.040599 0.06235,-0.1562476 0.04466,-0.1180703 -0.03731,0.080513 -0.06906,0.1634895 -0.103585,0.2452341 -0.803251,0.2176282 -0.02583,0.7980111 -0.207955,1.1378522 -0.03338,0.062291 0.01487,-0.1994281 -0.05561,-0.2045935 -0.144196,-0.010567 -0.285573,0.081007 -0.398485,0.1713132 -0.03508,0.028056 -0.02249,0.154755 0.01716,0.1336608 0.07154,-0.038051 0.08287,-0.13927 0.1243,-0.2089049 0.02012,-0.00652 0.04024,-0.013031 0.06036,-0.019547 0.01801,0.029481 0.01998,0.094173 0.05405,0.088442 0.05871,-0.00987 0.08375,-0.085574 0.132449,-0.1198092 0.0321,-0.022564 0.07228,-0.030731 0.107188,-0.04864 0.114127,-0.05855 0.05836,-0.098726 0.04824,0.1723676 0.207913,-0.4860388 0.03663,-0.1167529 0.04168,-0.014872 0.0019,0.03793 0.02143,-0.085793 0.05721,-0.098524 0.02325,-0.00827 0.03222,0.042132 0.03191,0.06681 -1.48e-4,0.011835 -0.0415,0.021471 -0.03292,0.013319 0.05946,-0.056508 0.124735,-0.1065646 0.187103,-0.1598467 -0.02175,0.067355 -0.04462,0.1343557 -0.06524,0.202065 -0.148828,0.488806 0.05158,-0.2043145 0.31682,-0.1490949 0.536173,0.1116243 -0.517497,0.5783982 0.06769,0.3131077 0.05386,-0.024416 0.105504,-0.053433 0.158256,-0.080149 -0.0035,0.069091 -0.03085,0.1411256 -0.01059,0.207273 0.0085,0.027788 0.05429,0.034354 0.08262,0.027861 0.04063,-0.00931 0.0729,-0.041939 0.103287,-0.070467 0.04711,-0.044233 0.191889,-0.1418929 0.127405,-0.1461283 -0.422272,-0.027734 -0.09119,0.3085795 -0.315404,0.031257 0.237677,-0.1256596 -0.143492,-0.2733818 -0.157113,-0.1918531 -0.01241,0.074292 0.09811,0.1148387 0.139428,0.1778191 0.03222,0.04912 0.04399,0.1106604 0.08017,0.1569463 0.07214,0.092307 0.192148,0.1366274 0.291126,0.1863937 0.202353,0.1091906 0.16967,0.081243 0.364565,0.2337927 0.06261,0.049009 0.103726,0.1516195 0.183232,0.1527326 0.203925,0.00285 0.392841,-0.1162056 0.595169,-0.1418347 0.06523,-0.00826 0.127732,0.032104 0.192733,0.042031 0.07175,0.010956 0.144519,0.013671 0.216778,0.020508 0.01336,-0.05792 0.04191,-0.1143471 0.04009,-0.1737614 -0.0022,-0.071503 -0.07319,-0.1400024 -0.0518,-0.2082644 0.01361,-0.043421 0.0851,-0.034462 0.130063,-0.041457 0.15637,-0.024328 0.206422,0.081211 0.386586,-0.064529 0.04124,-0.033356 0.0074,-0.1058172 0.01107,-0.1587259 -0.02758,-0.1566101 -0.02571,-0.00971 0.171398,-0.064357 0.03685,-0.010216 -0.07409,-0.03539 -0.111439,-0.027216 -0.02722,0.00596 -0.03169,0.047313 -0.05438,0.063498 -0.221815,0.1582526 -0.124938,4.233e-4 -0.216611,0.2221447 0.02702,0.031208 0.04001,0.089207 0.08106,0.093625 0.02842,0.00306 -0.03169,-0.097967 -0.006,-0.08554 0.04413,0.021307 0.0541,0.081731 0.08179,0.1221592 0.01424,0.020786 0.01972,0.054705 0.04399,0.061466 0.03161,0.00881 0.08379,0.00801 0.09583,-0.022516 0.03842,-0.097377 0.02408,-0.2079734 0.03612,-0.3119599 0.211143,0.2269175 0.130874,0.2835259 0.326789,0.1389001 0.03065,-0.022627 0.06838,-0.041986 0.08524,-0.076155 0.01882,-0.038155 -0.0025,-0.087911 0.01486,-0.1267653 0.0056,-0.012517 0.02373,0.016827 0.02844,0.029698 0.02096,0.057271 0.03141,0.1178547 0.04711,0.1767822 -0.345095,-0.2546419 0.456231,0.3075479 -0.598982,-0.059151 -0.0554,-0.019254 0.02529,-0.1907924 0.07476,-0.1592807 0.05604,0.035702 -0.03451,0.1362712 -0.01247,0.1989603 0.0087,0.024839 0.05164,-0.01247 0.07797,-0.01265 0.02409,-1.64e-4 0.04756,0.00775 0.07134,0.011634 0.04323,-0.05775 0.0602,-0.1926529 0.129683,-0.17325 0.06927,0.019344 0.01198,0.143342 0.01938,0.2148774 2.02e-4,0.00196 0.0012,-0.0038 0.0023,-0.00543 0.0093,-0.013877 0.01616,-0.030117 0.02884,-0.040989 0.03931,-0.033693 0.03702,0.024865 0.04308,0.045813 0.005,-0.1274297 0.100113,-0.3512564 -0.123586,-0.2571602 -0.032,0.013462 -0.09527,0.064925 -0.0648,0.081551 0.05862,0.031975 0.137315,0.014833 0.200169,-0.00771 0.05996,-0.0215 0.138346,-0.1805286 0.15032,-0.1179695 0.02127,0.1111385 -0.07435,0.2137487 -0.111532,0.3206232 0.09022,0.03592 0.155871,0.075088 0.261552,0.052282 0.05448,-0.011755 0.09381,-0.075232 0.149535,-0.074778 0.309478,0.00251 0.426329,0.2012278 0.598237,0.025331 0.02036,-0.020838 0.03375,-0.047507 0.05063,-0.07126 0.04385,0.073712 0.0628,0.1698577 0.131554,0.2211366 0.01073,0.008 -0.0033,-0.1807821 0.03792,-0.1889667 0.02815,-0.0056 0.04452,0.072547 0.06674,0.054383 0.03133,-0.025612 0.05355,-0.1299914 0.0142,-0.1205598 -0.141511,0.033917 -0.25551,0.1393449 -0.383265,0.2090174 0.0078,0.010766 0.0164,0.043627 0.02332,0.032294 0.09665,-0.1583111 0.108026,-0.3783087 0.06515,-0.033523 0.129725,0.036589 0.647178,-1.7979972 0.517453,-1.8345867 v 0 c -0.02977,0.066189 -0.0489,0.1382868 -0.08932,0.1985661 -0.0074,0.011041 -0.03904,0.00655 -0.03931,-0.00674 -0.0021,-0.1060571 0.02193,-0.2110192 0.0329,-0.3165289 -0.186589,0.03976 -0.374113,0.075365 -0.559769,0.1192815 -0.02171,0.00514 -0.0387,0.026616 -0.06099,0.027557 -0.09005,0.0038 -0.121404,-0.06565 -0.18972,-0.1114081 -0.02677,-0.017928 -0.07959,-0.072356 -0.08747,-0.041118 -0.02092,0.082913 0.02246,0.1695411 0.03368,0.2543117 -0.0038,0.035703 0.02442,0.1080953 -0.01147,0.10711 -0.0417,-0.00114 -0.09241,-0.081347 -0.06128,-0.1091073 0.144455,-0.1288037 0.312664,-0.3081504 0.504993,-0.2865321 0.114155,0.012832 -0.06728,0.2203251 -0.08663,0.3335575 -0.0027,0.01555 0.01137,0.052803 0.0225,0.041631 0.06818,-0.068398 0.113286,-0.1564463 0.169929,-0.2346693 -0.04551,0.073217 -0.0838,0.151443 -0.136521,0.2196499 -0.01848,0.023916 -0.07433,0.022347 -0.07389,0.052568 3.7e-4,0.025286 0.09033,-0.00748 0.07483,0.012499 -0.214029,0.2759123 -0.276962,-0.1105209 -0.310436,-0.2400215 -0.167473,0.1645354 0.0042,0.03328 -0.08423,-0.084817 -0.02081,-0.027801 -0.07114,-0.00108 -0.10357,0.011337 -0.05187,0.019891 -0.0936,0.1067258 -0.144135,0.083659 -0.122963,-0.056125 0.121539,-0.3322079 -0.09697,-0.038539 -0.0069,-0.03533 -6.2e-5,-0.076511 -0.02073,-0.1059884 -0.02937,-0.041898 -0.07776,0.030076 -0.132875,0.079262 -0.02776,0.02477 -0.04874,0.07109 -0.08594,0.071201 -0.338971,0.00101 -0.399807,-0.033811 -0.63396,-0.1225246 -0.01921,0.035189 -0.03964,0.069737 -0.05763,0.1055661 -0.01358,0.027056 -0.0067,0.082898 -0.037,0.082942 -0.038,5.45e-5 -0.04041,-0.081813 -0.0784,-0.082776 -0.02709,-6.88e-4 0.01753,0.055839 0.0074,0.080976 -0.0048,0.011821 -0.02523,-0.00364 -0.03785,-0.00546 -0.05175,-0.066564 -0.103501,-0.1331288 -0.155252,-0.1996934 0.02517,0.4392266 0.0567,0.1404114 -0.104822,0.1012856 -0.03961,-0.00959 -0.06621,0.071557 -0.105692,0.061462 -0.07077,-0.018095 -0.107981,-0.102066 -0.174147,-0.1330114 -0.154208,-0.072123 -0.151267,-0.016984 -0.22995,0.082114 -0.03418,0.098401 -0.0248,0.2258523 -0.102527,0.295203 -0.08062,0.071938 -0.230771,0.0093 -0.314833,0.077188 -0.05001,0.040386 0.02293,0.1427451 -0.01843,0.1919539 -0.03972,0.047264 -0.142527,-0.0051 -0.179903,0.044038 -0.05931,0.077973 0.364557,0.091954 0.244322,0.1633461 -0.285014,-0.3155823 -0.04974,0.01596 0.08294,-0.1487998 0.03262,-0.040505 -0.07357,-0.077316 -0.09217,-0.1258811 -0.01015,-0.026501 0.02436,-0.058953 0.01166,-0.084332 -0.0171,-0.034189 -0.07484,-0.028769 -0.09713,-0.060983 0.02933,0.036377 0.05895,0.1457436 0.08799,0.1091314 0.03549,-0.044756 -0.09921,-0.1558293 -0.04298,-0.1658879 0.351806,-0.062933 0.446857,-0.00906 0.60212,0.1743652 0.0341,0.040278 0.05874,0.088937 0.09755,0.1246899 0.02476,0.022807 0.05948,0.031562 0.08921,0.047343 -0.02466,0.040439 -0.08626,0.075564 -0.07399,0.1213159 0.0046,0.017023 0.318435,-0.1821233 0.276273,-0.066452 -0.03308,0.090739 -0.137699,0.177483 -0.234046,0.170792 -0.122885,-0.00853 0.415219,-0.4435462 -0.09383,-0.3574312 -0.02633,-0.068197 -0.06906,-0.1321652 -0.07898,-0.2045912 -0.01444,-0.1054777 0.07568,-0.2377532 0.0072,-0.3193044 -0.04996,-0.059535 -0.150002,0.077557 -0.225522,0.059193 -0.04701,-0.01143 -0.02738,-0.099276 -0.06491,-0.1298159 -0.03759,-0.030597 -0.19846,-0.011335 -0.235896,-0.00883 -0.162527,-0.1769819 0.03374,-0.016724 -0.252092,0.029878 -0.07611,0.012409 0.01136,-0.1683525 -0.04452,-0.1361315 -0.09418,0.054308 -0.140144,0.2085609 -0.248836,0.2108382 -0.07092,0.00148 0.0338,-0.137791 0.0507,-0.2066867 -0.02454,-0.1260295 0.0047,-0.1388118 -0.188841,-0.1189013 -0.03713,0.00382 -0.06366,0.057987 -0.100147,0.050105 -0.125885,-0.027193 -0.08244,-0.1889943 -0.121218,-0.2572491 -0.02664,-0.046893 -0.08132,-0.070861 -0.121987,-0.1062919 -0.02529,-0.031568 -0.03664,-0.104603 -0.07586,-0.094703 -0.07808,0.019714 -0.118691,0.1090438 -0.18135,0.1596358 -0.02206,0.017814 -0.0481,0.030035 -0.07216,0.045052 -0.01026,-0.020545 -0.01107,-0.073432 -0.03077,-0.061632 -0.07651,0.045829 -0.07131,0.1860423 -0.186228,0.192106 -0.130551,-0.3189856 0.0608,0.040918 -0.2255,0.08484 C 12.250663,7.3724437 12.07657,7.2901097 11.909534,7.2371325 11.836714,7.2140365 11.786479,7.1015031 11.712415,7.1202253 11.295847,7.2255284 11.598936,8.5690481 11.16168,8.2856664 11.13945,8.3883425 11.10761,8.4893998 11.095,8.5936949 c -0.0017,0.013716 0.02628,-0.013354 0.03255,-0.025667 0.0093,-0.018201 0.0036,-0.041272 0.01116,-0.060234 0.0045,-0.011266 -0.0046,0.024609 -0.0016,0.036361 0.0046,0.018087 0.02438,-0.1439362 0.05291,-0.018389 -0.05802,-0.029874 -0.433221,-0.151851 -0.206775,-0.3509804 0.09337,-0.082103 0.250143,-0.022005 0.367745,-0.062356 0.02157,-0.0074 0.02362,-0.048649 0.01085,-0.067542 -0.02068,-0.0306 -0.317962,-0.307762 -0.0861,-0.090376 -0.0369,0.00564 -0.07422,0.024781 -0.110713,0.01692 -0.02279,-0.00491 -0.229198,-0.1657977 -0.266695,-0.017862 -0.02088,0.082382 0.05069,0.1826191 0.006,0.2548922 -0.02977,0.048115 -0.112985,0.00625 -0.169478,0.00938 -0.0025,0.086222 -0.005,0.1724446 -0.0075,0.258667 0.107987,0.3286932 0.177445,0.3320447 -0.197623,0.1202375 -0.01735,-0.00979 -0.02362,-0.055062 -0.04028,-0.044145 -0.01906,0.012486 0.01561,0.048974 0.0035,0.068257 -0.0024,0.00373 -0.06716,-0.1284862 0.0087,0.010009 -0.496843,-0.1882466 -0.199559,-0.1110517 -0.106257,0.038403 0.129628,0.2076429 0.01716,0.1333522 -0.0522,0.1314167 -0.06242,-0.00175 -0.126578,0.020685 -0.187243,0.00588 -0.01657,-0.00404 0.0012,-0.03408 0.0019,-0.05112 0.0712,-0.1130038 0.0056,-0.042722 0.20255,0.095258 0.02931,0.020532 -0.05239,-0.048801 -0.07751,-0.074292 -0.05144,-0.052199 -0.116359,-0.222698 -0.152119,-0.1587302 -0.1617225,0.2892941 0.299653,0.3076456 -0.04844,0.2628069 -0.1801614,0.024516 -0.1633281,0.011845 -0.3347463,0.076964 -0.075294,0.028604 -0.174657,0.028852 -0.2228578,0.093381 -0.055364,0.074119 0.00337,0.1978072 -0.050715,0.2728679 -0.2274449,0.315654 -0.3565894,-0.1258599 -0.104519,0.3561895 -0.029584,0.020161 -0.063923,0.034694 -0.088753,0.060485 -0.00552,0.00574 0.00153,0.02041 0.00935,0.021997 0.041979,0.00853 0.085649,0.00284 0.1283708,0.00597 0.00883,6.614e-4 0.021648,0.01306 0.02603,0.00536 0.017632,-0.03098 -0.1345766,-0.068388 -0.00586,-0.1067752 0.00243,0.023731 0.031121,0.072258 0.00729,0.071193 -0.025604,-0.00114 -0.017865,-0.048043 -0.026797,-0.072065 0.012226,0.00674 0.050531,0.018497 0.036677,0.020233 -0.051024,0.00639 -0.2367397,-0.042675 -0.2738493,0.017833 -0.027261,0.044449 0.029276,0.1000911 0.043914,0.1501367 -0.2964942,-8.995e-4 -0.1300298,-0.043577 -0.024527,0.1752185 0.00767,0.01591 -0.026632,0.03482 -0.043636,0.03005 -0.067761,-0.01901 -0.1332746,-0.1388426 -0.1884654,-0.095173 -0.00549,0.00435 0.3024511,0.37284 0.018828,0.00933 0.038292,0.037324 0.1493914,0.152814 0.114877,0.111971 C 9.057864,10.032316 9.0156,9.9728748 8.9562591,9.9360456 8.9033681,9.9032196 8.9058841,9.9951776 8.8853581,10.001042 8.7380778,10.043112 8.5206011,9.7100427 8.5135359,9.73104 c 0.030752,0.1473084 0.1630477,0.309133 0.092257,0.441926 -0.045798,0.08591 -0.177133,-0.0927 -0.2741605,-0.100699 -0.4739753,-0.03906 -0.065164,0.111333 -0.2072476,0.32026 -0.040372,0.05937 -0.1430353,0.01256 -0.2145527,0.01884 -0.048513,0.109184 -0.097027,0.218368 -0.1455399,0.327553 -0.048303,0.144757 -0.087793,0.292759 -0.1449073,0.434271 -0.03867,0.09581 -0.1766154,0.178491 -0.1416412,0.275714 0.032412,0.0901 0.1964925,0.03182 0.2729894,0.08942 0.034675,0.02611 -0.00124,0.08979 0.017211,0.129071 0.072037,0.153274 0.1435793,0.02646 0.016335,0.163651 0.05599,-0.02829 0.1056183,-0.09176 0.1679702,-0.08487 0.045997,0.0051 -0.065862,0.06576 -0.1040278,0.09193 -0.027254,0.01869 -0.066721,0.01792 -0.090161,0.04122 -0.00854,0.0085 0.020159,0.01608 0.032198,0.01638 0.00936,2.35e-4 -0.015312,-0.01077 -0.022966,-0.01615 0.045645,-0.002 0.091289,-0.0041 0.1369333,-0.0061 0.00742,-0.0039 0.030042,-0.01471 0.02227,-0.01161 -0.039418,0.01576 -0.1536216,0.02763 -0.1172993,0.0496 0.072918,0.04411 0.2972006,-0.04037 0.2535512,0.03283 -0.047585,0.0798 -0.185733,0.0055 -0.2785671,0.0091 -0.04999,0.002 0.1009193,0.0055 0.1500294,-0.0041 0.020188,-0.0039 -0.040155,-0.0089 -0.060233,-0.01337 -0.089783,0.0042 0.1179248,-0.0094 0.04365,0.0377 -0.036192,0.02295 -0.1002564,-0.02899 -0.1285224,0.0032 -0.071271,0.08122 0.5002649,0.314195 0.1322134,0.131539 0.083475,0.01323 -0.013785,0.0055 -0.037719,-0.104395 -0.00312,-0.01434 0.057482,0.0072 0.044021,0.0013 -0.037793,-0.01644 -0.079265,-0.02262 -0.1188974,-0.03393 0.00465,0.01123 0.022331,0.0249 0.013938,0.0337 -0.021376,0.0224 -0.055983,0.02647 -0.083975,0.0397 -0.040614,0.14665 -0.027089,0.04928 0.01846,0.274573 0.012171,0.0602 0.019719,0.121403 0.034708,0.180968 0.013957,0.05547 0.092947,0.123623 0.051973,0.163532 -0.088183,0.08589 -0.3052402,0.0089 -0.3476815,0.124488 -0.033425,0.091 0.1623917,0.105945 0.2435878,0.158918 -0.039157,0.03678 -0.078313,0.07357 -0.1174697,0.110348 -0.016581,0.03024 -0.026946,0.06485 -0.049746,0.09073 -0.029637,0.03364 -0.088844,0.04256 -0.1046361,0.08452 -0.00924,0.02455 0.051519,-0.01051 0.077651,-0.01282 0.083618,-0.0074 0.1674069,-0.01355 0.2513076,-0.01627 0.03692,-0.0012 -0.073466,0.0078 -0.1101982,0.01171 0.038511,0.0099 0.077023,0.01973 0.1155338,0.02959 -0.017158,0.0109 -0.060416,0.01445 -0.051473,0.0327 0.00912,0.01862 0.040377,-0.0094 0.060566,-0.01414 -0.102245,0.05266 -0.2044898,0.105329 -0.3067349,0.157994 -0.067364,0.102996 0.4305512,0.08169 0.3560057,0.09785 -0.041656,0.02968 -0.083312,0.05937 -0.1249683,0.08905 0.025548,-0.0082 0.089235,-0.04821 0.076647,-0.02452 -0.02386,0.0449 -0.078193,0.06505 -0.1161558,0.09887 -0.010856,0.0097 -0.043067,0.03821 -0.030165,0.0315 0.2262095,-0.117523 0.021855,-0.06056 0.2535016,-0.106743 -0.00421,-0.08235 0.00677,-0.03374 -0.1481593,0.04686 -0.057328,0.02982 -0.1520545,0.02908 -0.1713013,0.09076 -0.013753,0.04408 0.1267052,0.01714 0.1232699,0.06318 -0.011274,0.151109 -0.4512466,0.0604 0.092717,0.112484 -0.022945,0.0043 -0.073589,0.03564 -0.068836,0.0128 0.0063,-0.03028 0.046081,-0.05367 0.076959,-0.05185 0.021151,0.0012 -0.051165,0.04388 -0.032801,0.05445 0.064409,0.03707 0.233716,-0.02086 0.2169152,0.05153 -0.030394,0.13097 -0.3222302,0.0047 -0.3839763,0.123509 -0.052837,0.124738 0.00853,-0.06142 0.062412,0.08821 0.030274,0.08408 -0.2093907,-0.0069 -0.1532268,0.06422 0.056067,0.07101 0.2020305,0.0021 0.2566923,0.0882 -0.027173,0.01387 -0.068366,0.01408 -0.081519,0.04161 -0.050864,0.106446 0.1667878,0.03155 0.1982679,0.149644 0.01456,0.05462 -0.1030163,-0.05184 -0.1591387,-0.05855 -0.033662,-0.004 0.4193236,0.158717 -0.057585,0.08383 0.5960059,0.270346 0.352956,0.110359 -0.076428,0.131133 -0.021569,0.001 0.027928,0.0333 0.044734,0.04686 0.03462,0.02794 0.1222084,0.03468 0.1089147,0.07713 -0.1031383,0.329374 -0.2808277,-0.184436 -0.088065,0.230466 0.020246,0.0061 0.03983,0.01513 0.060738,0.01827 0.028239,0.0042 0.1139386,0.0071 0.085587,0.0037 -0.095579,-0.01147 -0.2410168,0.0564 -0.2874401,-0.02793 -0.042134,-0.07654 0.1912292,0.03268 0.2613948,-0.01938 0.041094,-0.03049 -0.1111144,-0.02943 -0.1337651,-0.07532 -0.013446,-0.02724 0.060146,-0.0086 0.090219,-0.0129 -0.043649,-0.01108 -0.086935,-0.04276 -0.1309484,-0.03323 -0.026977,0.0058 -0.038697,0.04357 -0.042852,0.07086 -0.00782,0.05135 -0.01555,0.109494 0.00837,0.155599 0.018357,0.03538 0.1291315,0.02945 0.1034656,0.05995 -0.1661327,0.197395 -0.2599846,-0.0931 -0.1457227,0.152161 0.00287,0.462176 -0.017878,-0.2838 0.062943,0.261234 0.00417,0.02812 -0.0543,0.06606 -0.029529,0.08001 0.066969,0.03771 0.2802364,-0.02475 0.2283458,0.03194 -0.055564,0.06071 -0.4022781,0.102746 -0.2448825,-0.03144 0.030986,-0.02938 0.061971,-0.05876 0.092957,-0.08813 -0.00974,-0.02468 -0.041745,-0.05064 -0.029223,-0.07403 0.010319,-0.01927 0.08521,0.01564 0.065232,0.0068 -0.072154,-0.03205 -0.2377231,-0.154985 -0.2239052,-0.07725 0.018365,0.10332 0.2047044,0.100594 0.2452592,0.197381 0.019682,0.04697 -0.084593,0.05674 -0.1268894,0.08512 0.1360437,0.241426 -0.018746,-0.10106 -0.084279,0.169098 -0.011258,0.04641 0.072542,0.06898 0.085549,0.114928 0.00545,0.01926 -0.037261,0.0246 -0.040465,0.04435 -0.00328,0.02024 0.1246815,-0.106806 -0.01765,-0.05892 -0.036732,0.0049 -0.077505,-0.0026 -0.1101961,0.01484 -0.068201,0.03644 -0.1827056,0.202147 -0.1921835,0.264726 -0.00978,0.06457 0.022706,0.128727 0.038546,0.19208 0.01361,0.05444 0.00784,0.123463 0.049689,0.16084 0.064852,0.05792 0.1608746,0.06603 0.2413122,0.09905 -0.6977872,0.702262 0.1102638,-0.229074 0.054762,0.274683 -0.014541,0.131989 -0.2801543,0.136854 -0.2938888,0.26893 -0.00917,0.08813 0.1770469,0.02347 0.2603391,0.05369 0.024643,0.0089 0.057566,0.03396 0.05148,0.05945 -0.00879,0.03685 -0.055969,0.05107 -0.083953,0.0766 0.046568,0.140702 2.036382,-0.517874 1.9898135,-0.658575 z" />
  </g>
</svg>
